<svg version="1.2" xmlns="http://www.w3.org/2000/svg" viewBox="0 0 103 100" width="103" height="100"><style>.a{fill:#231f20}.b{fill:#f9d8b7}.c{fill:#1d1d1b}.d{fill:#212224}.e{fill:#1d1c1a}.f{fill:#3d3f41}.g{fill:#a86358}.h{fill:#fff}.i{fill:#734239}.j{fill:#bce4ed}.k{fill:#5cc0d5}.l{fill:#f7d6b6}.m{fill:#744412}.n{fill:#363436}.o{fill:#3a3c3e}.p{fill:#282a2c}.q{fill:#ef454f}.r{fill:#60080e}.s{fill:#b5e4fa}.t{fill:#d51632}.u{fill:#7ac3c8}.v{fill:#284f52}.w{fill:#fff34d}.x{fill:#696a6d}</style><path class="a" d="m36.4 66.1c-1.7 0-3 0-3.1 0-0.2 0-0.3-0.2-0.3-0.3 0-0.2 0.2-0.4 0.3-0.3 0.1 0 8.3 0.3 11.1-0.7 2.7-0.8 5.1-8.1 5.1-8.2 0.1-0.2 0.3-0.3 0.4-0.2 0.2 0 0.3 0.2 0.2 0.4-0.1 0.3-2.5 7.7-5.5 8.6-1.8 0.6-5.5 0.7-8.2 0.7z"/><path class="b" d="m28.6 65.3c-0.2 0-0.5-0.1-0.7-0.1q-0.5 0-0.9-0.1-0.6-0.1-1.1-0.2c-0.2-0.1-0.6-0.2-0.7-0.5-0.1-0.5 0.8-0.6 1.1-0.6 0.7-0.1 1.8 0 2.6 0-1.3-0.4-2.9-1.2-2.3-1.8 0.4-0.5 1.3-0.3 1.8-0.2q0.6 0.1 1.1 0.3 0.1 0 0.1 0c0.8 0.2 1.6 0.5 2.3 0.8-0.1 0-0.2-0.7-0.3-0.8q-0.1-0.4-0.1-0.8c0-0.4 0.1-0.9 0.6-0.8 0.5 0 0.8 0.6 1 1 1 1.8 1.7 4.8-0.5 6.1-1.5 0.8-3.2 0.7-4.8 1.1-0.3 0.1-1.4 0.4-1.7 0-0.5-0.7 1-1.1 1.3-1.3 0.4-0.1 0.9-0.3 1.3-0.5q0.1 0 0.1 0c-0.7 0.1-3.8 0-3.9-0.5-0.1-0.9 2.4-1 3.7-1.1z"/><path fill-rule="evenodd" class="c" d="m33.6 66.9q-0.4 0.5-1 0.8c-0.9 0.6-1.9 0.7-2.9 0.8-0.6 0.1-1.2 0.2-1.8 0.4-0.7 0.2-1.6 0.3-1.9-0.1q-0.3-0.4 0-0.7c0.2-0.4 0.8-0.6 1.2-0.8q0.1 0 0.2 0 0.2-0.1 0.5-0.2 0.1 0 0.1-0.1c-1.2 0-3.1 0-3.2-0.6q-0.1-0.2 0.1-0.4c0.3-0.4 1.1-0.6 2.2-0.7q-0.1 0-0.1-0.1-0.6 0-1.2-0.2c-0.2-0.1-0.7-0.2-0.8-0.5q0-0.3 0.1-0.4c0.2-0.3 0.8-0.4 1.1-0.5h0.1c0.5 0 1.1 0 1.6 0-0.7-0.3-1.4-0.7-1.5-1.2q-0.1-0.3 0.1-0.5c0.4-0.5 1.2-0.4 1.8-0.3l0.2 0.1q0.5 0.1 1 0.3 0.1 0 0.1 0c0.7 0.1 1.4 0.4 2 0.6q0-0.1-0.1-0.4v-0.1q-0.1-0.4-0.1-0.8c-0.1-0.2 0-0.6 0.1-0.8 0.1-0.1 0.3-0.2 0.6-0.2 0.6 0.1 1 0.7 1.2 1.1 0.8 1.7 1.4 4 0.3 5.5zm-7.4 1.4q-0.1 0.1 0 0.3c0.1 0.2 0.7 0.2 1.6-0.1 0.6-0.1 1.2-0.2 1.8-0.3 1-0.1 2-0.2 2.9-0.7q0.5-0.3 0.8-0.8c1.1-1.4 0.5-3.6-0.3-5.2-0.2-0.4-0.5-0.8-0.9-0.9-0.2 0-0.3 0.1-0.3 0.1q-0.1 0.2-0.1 0.6 0 0.3 0.1 0.8v0.1c0.1 0.4 0.2 0.6 0.2 0.6q0.1 0.1 0.1 0.2c0 0.1-0.1 0.1-0.2 0.1-0.7-0.3-1.5-0.6-2.3-0.8q-0.1 0-0.1 0 0 0 0 0-0.6-0.2-1.1-0.3h-0.2c-0.5-0.2-1.2-0.3-1.5 0.1q-0.1 0.1 0 0.2c0.1 0.4 1 0.9 2.3 1.4q0.1 0 0.1 0.2-0.1 0.1-0.2 0.1c-0.7-0.1-1.8-0.2-2.5-0.1l-0.1 0.1c-0.3 0-1 0.1-1 0.4 0.1 0.2 0.4 0.3 0.6 0.3q0.6 0.2 1.1 0.2 0.5 0.1 0.9 0.1 0.1 0.1 0.3 0.1 0.2 0 0.4 0c0.1 0 0.2 0.1 0.2 0.2 0 0.1-0.1 0.1-0.2 0.1-0.9 0.1-3.1 0.2-3.5 0.8q0 0.1 0 0.2c0.1 0.2 2.7 0.4 3.7 0.3q0.2 0 0.2 0.1 0 0.1-0.1 0.2l-0.1 0.1q-0.4 0.2-0.8 0.3-0.3 0.1-0.5 0.2-0.1 0-0.2 0c-0.3 0.2-0.9 0.4-1.1 0.7z"/><ellipse class="d" cx="37.4" cy="71.5" rx="3.2" ry="3.8"/><path fill-rule="evenodd" class="e" d="m37.4 75.5c-1.9 0-3.4-1.8-3.4-4 0-2.2 1.5-4 3.4-4 1.8 0 3.3 1.8 3.3 4 0 2.2-1.5 4-3.3 4zm0-7.6c-1.7 0-3.1 1.6-3.1 3.6 0 2 1.4 3.7 3.1 3.7 1.6 0 3-1.7 3-3.7 0-2-1.4-3.6-3-3.6z"/><path fill-rule="evenodd" class="d" d="m49.4 70.8c0 7.8-5.2 14.1-11.6 14.1-6.5 0-11.7-6.3-11.7-14.1 0-7.8 5.2-14.1 11.7-14.1 6.4 0 11.6 6.3 11.6 14.1zm-2.8 0c0-6-4-10.9-9-10.9-5 0-9.1 4.9-9.1 10.9 0 6.1 4.1 11 9.1 11 5 0 9-4.9 9-11z"/><path fill-rule="evenodd" class="e" d="m37.8 85c-6.5 0-11.8-6.4-11.8-14.2 0-7.9 5.3-14.3 11.8-14.3 6.5 0 11.8 6.4 11.8 14.3 0 7.8-5.3 14.2-11.8 14.2zm0-28.2c-6.4 0-11.5 6.3-11.5 14 0 7.7 5.1 13.9 11.5 13.9 6.3 0 11.5-6.2 11.5-13.9 0-7.7-5.2-14-11.5-14zm-0.2 25.2c-5.1 0-9.2-5-9.2-11.2 0-6.1 4.1-11.1 9.2-11.1 5.1 0 9.2 5 9.2 11.1 0 6.2-4.1 11.2-9.2 11.2zm0-22c-4.9 0-8.9 4.9-8.9 10.8 0 6 4 10.8 8.9 10.8 4.9 0 8.9-4.8 8.9-10.8 0-5.9-4-10.8-8.9-10.8z"/><path fill-rule="evenodd" class="f" d="m47.9 70.8c0 7.8-5.2 14.1-11.7 14.1-6.4 0-11.6-6.3-11.6-14.1 0-7.8 5.2-14.1 11.6-14.1 6.5 0 11.7 6.3 11.7 14.1zm-2.8 0c0-6-4-10.9-9.1-10.9-5 0-9 4.9-9 10.9 0 6.1 4 11 9 11 5.1 0 9.1-4.9 9.1-11z"/><path fill-rule="evenodd" class="e" d="m36.2 85c-6.5 0-11.8-6.4-11.8-14.2 0-7.9 5.3-14.3 11.8-14.3 6.6 0 11.9 6.4 11.9 14.3 0 7.8-5.3 14.2-11.9 14.2zm0-28.2c-6.3 0-11.5 6.3-11.5 14 0 7.7 5.2 13.9 11.5 13.9 6.4 0 11.5-6.2 11.5-13.9 0-7.7-5.1-14-11.5-14zm-0.2 25.2c-5 0-9.2-5-9.2-11.2 0-6.1 4.2-11.1 9.2-11.1 5.1 0 9.3 5 9.3 11.1 0 6.2-4.2 11.2-9.3 11.2zm0-22c-4.9 0-8.9 4.9-8.9 10.8 0 6 4 10.8 8.9 10.8 5 0 9-4.8 9-10.8 0-5.9-4-10.8-9-10.8z"/><path class="d" d="m37 59.9v19.6h-1.7v-19.6z"/><path fill-rule="evenodd" class="e" d="m37 79.7h-1.7c-0.1 0-0.2-0.1-0.2-0.2v-19.6q0-0.1 0.1-0.1 0 0 0.1 0h1.7c0.1 0 0.1 0.1 0.1 0.1v19.6c0 0.1 0 0.2-0.1 0.2zm-1.5-0.4h1.3v-19.2h-1.3z"/><path class="f" d="m36 60.5v19.1h-0.4v-19.2z"/><g style="mix-blend-mode:screen"><path class="f" d="m25.2 69.9q0.2-11.6 11.4-12.9-10 1.9-11.4 12.9z"/></g><ellipse class="f" cx="35.6" cy="71.5" rx="3.2" ry="3.8"/><path fill-rule="evenodd" class="e" d="m35.6 75.5c-1.9 0-3.4-1.8-3.4-4 0-2.2 1.5-4 3.4-4 1.8 0 3.3 1.8 3.3 4 0 2.2-1.5 4-3.3 4zm0-7.6c-1.7 0-3.1 1.6-3.1 3.6 0 2 1.4 3.7 3.1 3.7 1.6 0 3-1.7 3-3.7 0-2-1.4-3.6-3-3.6z"/><path class="g" d="m65.2 74.1l2.1-13.3c0.6-1.9 1.8-2.2 3.4-2.3q0.2 0 0.4 0h9.7l0.6 6.3v8.5l0.2 0.8z"/><path fill-rule="evenodd" class="e" d="m81.6 74.3h-16.4q-0.1 0-0.1-0.1-0.1 0 0-0.1l2-13.3c0.7-2.1 2.1-2.3 3.6-2.4q0.2 0 0.4 0h9.7q0.1 0 0.2 0.1l0.6 6.3v8.5l0.2 0.8q0 0.1-0.1 0.1 0 0.1-0.1 0.1zm-16.2-0.3h16l-0.1-0.7v-8.5l-0.6-6.1h-9.6q-0.2 0-0.4 0c-1.5 0.1-2.7 0.3-3.3 2.1z"/><g style="mix-blend-mode:multiply"><path class="g" d="m81.4 73.3l0.2 0.8h-16.4l1-6.6c1.3 1.4 3.3 2.3 5.4 2.3 2.5-0.1 4.9-1.7 6.6-3.4 1-1 2.1-2.1 3.1-3.3l0.1 1.7z"/></g><path class="h" d="m76.5 58.9c-1.4 0.1-6.5 0.7-6.9 0.9-0.8 0.4-1.2 1-1.4 1.7l-1.5 6.4 1.1-7.1c0.5-1.6 1.6-1.8 2.9-1.9q0.2 0 0.4 0h5.4q0 0 0 0z"/><path class="i" d="m75.5 74.1l2.1-13.3c0.7-1.9 1.9-2.2 3.5-2.3 0.9 0 1.7 0.4 2.3 0.9q0.1 0.2 0.2 0.4c0.7 1.2 1.4 10.7 1.6 14.3z"/><path fill-rule="evenodd" class="e" d="m85.2 74.3h-9.7q0 0-0.1-0.1 0 0 0-0.1l2-13.3c0.7-2.1 2.1-2.3 3.6-2.4 0.9-0.1 1.7 0.2 2.5 0.9q0 0 0 0.1 0.2 0.1 0.3 0.4c0.7 1.2 1.3 10.4 1.6 14.3q0 0.1-0.1 0.1 0 0.1-0.1 0.1zm-9.5-0.3h9.4c-0.2-3.3-0.9-12.9-1.6-14.1q-0.1-0.2-0.2-0.4c-0.7-0.6-1.4-0.9-2.2-0.8-1.6 0.1-2.7 0.3-3.4 2.1z"/><path class="f" d="m44.9 69.1q-4.5 2.1-4.8 2.2-0.4 0.1-0.8-0.3-0.4-0.3 0-1.2l5-3.3q0.4 0.4 0.6 2.6z"/><path fill-rule="evenodd" class="e" d="m40 71.5c-0.4 0-0.8-0.3-0.8-0.3-0.5-0.5-0.1-1.4 0-1.5q0 0 0-0.1l5-3.3q0.1 0 0.2 0.1c0.5 0.4 0.7 2.5 0.7 2.7q0 0.1-0.1 0.1c-0.5 0.3-4.5 2.2-4.9 2.2q-0.1 0.1-0.1 0.1zm-0.6-0.6q0.3 0.2 0.6 0.2 0 0 0 0c0.3 0 3-1.3 4.8-2.1-0.1-0.8-0.3-1.9-0.5-2.3l-4.9 3.2c-0.1 0.2-0.2 0.8 0 1z"/><path class="j" d="m59.4 49.7c0.2 0.9 0.1 1.8-0.1 2.7q-0.5 3-4.3 9.3-3.3-0.2-7.4-3.4c0.9-1.9 2-3.7 3.2-5.3 1.2-1.7 2.7-3.2 4.3-4.5q0.4-0.3 0.8-0.5c1.4-0.5 3.2 0 3.5 1.7z"/><path fill-rule="evenodd" class="e" d="m55.2 61.8q-0.1 0-0.2 0c-3.3-0.1-7.3-3.3-7.5-3.4q-0.1-0.1 0-0.2 1.4-2.9 3.1-5.3c1.3-1.6 2.7-3.1 4.4-4.5q0.4-0.4 0.9-0.5c0.8-0.4 1.7-0.3 2.5 0.1 0.6 0.3 1 0.9 1.2 1.6 0.2 1 0 1.8-0.1 2.7l-0.1 0.1q0 0.4-0.2 0.9c-0.9 3.2-4 8.4-4 8.5zm-0.3-0.3c0.4-0.7 3.2-5.4 4-8.3q0.2-0.5 0.2-0.8l0.1-0.2c0.1-0.8 0.3-1.6 0.1-2.5-0.2-0.6-0.5-1.2-1.1-1.5-0.6-0.3-1.5-0.3-2.2 0q-0.4 0.1-0.8 0.4c-1.7 1.4-3.1 2.9-4.3 4.5q-1.7 2.3-3.1 5.1c0.7 0.5 4.2 3.1 7.1 3.3z"/><g style="opacity:.5;mix-blend-mode:multiply"><path class="k" d="m52.7 55.8c0.2-2.6 0.7-4.7 1.8-6.8q0.3-0.3 0.6-0.5 0.4-0.3 0.8-0.5c1.4-0.5 3.2 0 3.5 1.7 0.2 0.9 0.1 1.8-0.1 2.7q-0.5 3-4.3 9.3c-0.7-0.1-1.4-0.2-2.2-0.5q-0.2-2.7-0.1-5.4z"/></g><path class="j" d="m63 45.8c1 0 2.7 0.5 3.5 1.1 4.8 3.3 1.8 28.9 1.5 31.2q-10.3 2.4-20.9-3.7c-0.2-0.1 2.8-17.6 6.4-22.9 1.3-1.8 2.6-3.7 4.6-4.7 0.7-0.4 1.5-0.7 2.4-0.8 0.8-0.2 1.6-0.2 2.5-0.2z"/><g style="mix-blend-mode:multiply"><path class="j" d="m68 78.1c-2.5 0.6-5.1 0.7-7.5 0.5 0.4-2.9 0.5-5.9 0.7-8.8 0.3-5.1 0.3-10.4 0-15.5-0.1-0.2-0.2-0.4-0.4-0.4-1.5 0.1-2.8 0.5-4.1-0.6-0.8-0.7-0.9-2.1-1-3.1q0-0.8 0-1.5c0.7-0.8 1.5-1.4 2.4-1.9 0.7-0.4 1.5-0.7 2.4-0.8 0.8-0.2 1.6-0.2 2.5-0.2 1 0 2.7 0.5 3.5 1.1 4.8 3.3 1.8 28.9 1.5 31.2z"/></g><path fill-rule="evenodd" class="e" d="m68 78.3c-10.2 2.3-20.9-3.7-21-3.8-0.1 0-0.3-0.1 0.7-5 0.4-2 1.3-6 2.4-9.9 1.1-3.9 2.2-6.6 3.3-8.2 1.4-2 2.7-3.7 4.6-4.8q1-0.5 2.4-0.8c0.8-0.1 1.5-0.1 2.6-0.2 1 0 2.7 0.6 3.6 1.2 4.5 3.1 2.3 24.7 1.5 31.3q0 0.1 0 0.1 0 0.1-0.1 0.1zm-20.8-4c0.9 0.5 11 5.8 20.6 3.7 1.6-13.4 2.1-28.6-1.3-30.9-0.9-0.6-2.6-1.2-3.5-1.1-1 0-1.8 0-2.5 0.1q-1.4 0.3-2.3 0.8c-1.9 1-3.2 2.7-4.5 4.7-1.1 1.5-2.2 4.3-3.3 8.1-1.9 6.5-3.2 13.8-3.2 14.6z"/><path class="l" d="m59.5 51.2c-1.1 0-1.9-0.7-1.9-1.6l0.2-5.4c0.1-0.9 0.9-1.5 2-1.5 1.1 0.1 1.9 0.8 1.9 1.6l-0.2 5.4c0 0.9-0.9 1.5-2 1.5z"/><path fill-rule="evenodd" class="e" d="m59.5 51.4c-1.2-0.1-2.1-0.9-2-1.8l0.2-5.4q0-0.2 0-0.4c0.2-0.7 1.1-1.3 2.1-1.2 1.2 0 2.1 0.8 2 1.7l-0.2 5.4q0 0.2 0 0.4c-0.2 0.8-1.1 1.3-2.1 1.3zm-1.5-7.2l-0.2 5.4c0 0.8 0.7 1.4 1.7 1.4 1 0.1 1.8-0.5 1.8-1.3l0.2-5.4c0.1-0.7-0.7-1.4-1.7-1.4-0.8 0-1.6 0.4-1.8 1q0 0.2 0 0.3z"/><path class="l" d="m35.4 21.2c0.6-2.8 1.7-5.5 3.3-7.9 2.4-3.6 5.7-6.6 9.7-8.3 6.2-2.5 13.5-2.3 19.6 0.6 1.5 0.8 3.1 1.8 4.5 2.9 1.2 1 2.4 2.2 3.3 3.5 4.3 5.9 5.3 13.5 2.8 20.4-2 5.6-6.7 10.1-12.5 12.3-6 2.4-13.5 3.3-19.5 0.6-1.6-0.7-3-1.6-4.4-2.7-3-2.5-5.2-4.9-6.2-8.7-1.3-4.1-1.4-8.5-0.6-12.7z"/><path fill-rule="evenodd" class="e" d="m66.2 44.9c-7.1 2.7-14.3 3-19.6 0.6-1.5-0.7-3-1.6-4.4-2.8-3-2.4-5.3-4.8-6.4-8.7-1.2-4.2-1.4-8.6-0.5-12.8 0.6-2.9 1.7-5.5 3.2-7.9l0.1-0.1c2.5-3.8 5.9-6.7 9.7-8.3 6.3-2.6 13.6-2.4 19.7 0.5 1.6 0.8 3.1 1.8 4.6 3 1.3 1.1 2.4 2.3 3.3 3.5 4.3 5.9 5.4 13.6 2.9 20.6q-0.7 2-1.9 3.8c-2.4 3.8-6.2 6.8-10.7 8.6zm-30.6-23.7c-0.9 4.2-0.7 8.5 0.5 12.7 1.1 3.8 3.3 6.2 6.2 8.6 1.5 1.1 2.9 2 4.4 2.7 5.3 2.3 12.3 2.1 19.4-0.6 4.4-1.8 8.1-4.7 10.5-8.4q1.2-1.8 1.9-3.8c2.4-6.9 1.4-14.5-2.8-20.3-0.9-1.2-2.1-2.4-3.3-3.5-1.4-1.1-3-2.1-4.5-2.9-6-2.9-13.3-3.1-19.4-0.5-3.8 1.5-7.2 4.4-9.7 8.2l-0.1 0.1c-1.5 2.3-2.5 4.9-3.1 7.7z"/><g style="mix-blend-mode:multiply"><path class="l" d="m35.4 21.2c0.6-2.8 1.7-5.5 3.3-7.9 2.4-3.6 5.7-6.6 9.7-8.3 2.4-1 5-1.5 7.6-1.7-10 3-18.4 12-19.5 22.4-0.9 8.5 3.8 15.7 11.7 19 2.4 1 5 1.8 7.7 2.2-3.2 0.2-6.4-0.3-9.3-1.6-1.6-0.7-3-1.6-4.4-2.7-3-2.5-5.2-4.9-6.2-8.7-1.3-4.1-1.4-8.5-0.6-12.7z"/></g><path class="m" d="m70.2 43c-2.7 1.5-5 2.1-4.9 2 2.4-2.3 3.7-4.8 2.4-8.9-0.1-1.3-0.6-3.2-1-4.5-0.1 0.9-1.9 1.8-1.9 1.7-0.9-2.5-5.6-11.1-7.8-13.4 0.2 0.5 1.7 4.7 2.3 6.2 0.1 0-4.5-0.3-8.1-3.1-1.9-1.5-3.9-3-5.3-5q0.4 1.8 0.9 3.5c0 0.2-2.8-2.7-3.5-4.3 0.2 1.1 0.7 2.2 1 3.1 0.1 0.1-4.3-3.7-4.6-4.4-2.1 1.2-4.1 6.7-5.7 8.9-1.2-1.5-1.6-3.7-2.1-5.3-0.4-1.2-0.7-2.5-0.9-3.7 2.3-5.1 7-9.2 12.6-11.9 5-2.4 12.3-3.9 17.5-3.7 9.6 0.3 16.6 8.7 16.7 8.5 0.2-0.4 1.5-1.9 2.2-1.7 1 0.2 0.2 5.4-0.1 6.3 1.8 0.8 4.4 3.3 5.2 4.5 0.1 0.1-3.5 0.1-3.3 0.2q1 0.8 1.8 1.7c3.1 4.1 1 10.2-0.3 12.2-2.8 3.9-7.9 7.7-12 10.6q-0.5 0.3-1.1 0.5z"/><path fill-rule="evenodd" class="a" d="m65.3 45.2q-0.1 0-0.2-0.1 0-0.1 0.1-0.2c2-2 3.7-4.4 2.4-8.8-0.2-1.1-0.6-2.8-0.9-4-0.5 0.8-1.6 1.4-1.9 1.4-0.1 0-0.2-0.1-0.2-0.1-0.8-2.2-4.8-9.7-7.1-12.7q0.1 0.3 0.2 0.7c0.6 1.4 1.4 3.6 1.8 4.6q0 0.1 0 0.2c-0.1 0-0.2 0-0.2 0-0.7 0-4.9-0.5-8.2-3.1l-0.5-0.4c-1.5-1.2-3.1-2.4-4.4-4 0.2 1 0.5 1.9 0.7 2.7q0 0.1 0 0.2-0.1 0-0.1 0c-0.3 0-2.1-1.8-3.1-3.3 0.2 0.5 0.4 1 0.6 1.4q0.1 0.3 0.2 0.5 0 0.1 0 0.1-0.1 0.1-0.2 0.1c-0.3 0-4-3.4-4.7-4.3-1.1 0.8-2.3 3-3.4 5.2-0.8 1.4-1.5 2.7-2.1 3.6q-0.1 0-0.1 0-0.1 0-0.2 0c-0.9-1.1-1.3-2.7-1.7-4.1q-0.2-0.7-0.4-1.3c-0.4-1.1-0.6-2.3-0.8-3.7q0 0 0-0.1c2.1-4.8 6.6-9 12.6-11.9 4.9-2.4 12.3-4 17.6-3.8 5.5 0.2 10.9 2.9 16.3 8.2q0.2 0.2 0.4 0.3c0.3-0.5 1.3-1.7 2.1-1.7q0.1 0 0.2 0 0.2 0.1 0.3 0.3c0.6 1.2 0 5.1-0.3 6.1 1.8 0.8 4.3 3.3 5.2 4.5q0 0.1 0 0.2c-0.1 0.1-0.1 0.1-1.6 0.2-0.5 0-1.2 0-1.5 0q0.8 0.7 1.5 1.5c1.7 2.3 1.8 5.1 1.6 7-0.4 2.3-1.2 4.4-1.9 5.4-2.9 4.1-8.4 8-12 10.7q-0.6 0.3-1.1 0.5c-2.6 1.3-4.9 2-5 2zm1.4-13.7q0.1 0 0.1 0.1c0.4 1.2 0.9 3.2 1.1 4.5 1.3 4.2-0.2 6.6-2.1 8.6 0.8-0.2 2.5-0.8 4.3-1.8q0.6-0.2 1.1-0.5c3.6-2.6 9.1-6.5 11.9-10.6 0.7-1 1.5-3 1.8-5.2 0.3-1.9 0.2-4.6-1.4-6.8q-0.8-0.9-1.8-1.6-0.1-0.1-0.1-0.2c0.1-0.2 0.1-0.2 2.1-0.3 0.4 0 0.9 0 1.2 0-1-1.2-3.4-3.6-5-4.2-0.1-0.1-0.2-0.1-0.1-0.2 0.3-0.8 0.9-5 0.3-6q0-0.2-0.1-0.2-0.1 0-0.1 0c-0.6 0-1.8 1.3-1.9 1.7q-0.1 0.1-0.2 0.1c-0.1 0-0.1 0-0.6-0.5-5.3-5.2-10.7-7.9-16.1-8.1-5.3-0.1-12.6 1.4-17.5 3.8-5.9 2.8-10.3 7-12.4 11.7 0.2 1.4 0.4 2.5 0.8 3.6q0.2 0.6 0.4 1.3c0.4 1.3 0.8 2.8 1.6 3.8 0.6-0.8 1.2-2.1 1.9-3.4 1.2-2.2 2.4-4.6 3.7-5.4q0 0 0.1 0 0.1 0 0.1 0.1c0.3 0.5 3.1 3.1 4.2 4-0.3-0.8-0.7-1.7-0.9-2.6q0-0.1 0.2-0.2 0.1 0 0.1 0.1c0.6 1.2 2.3 3.2 3.1 3.9-0.3-0.8-0.5-1.8-0.8-2.9q0-0.1 0.1-0.2 0.1 0 0.2 0c1.3 1.9 3.1 3.2 4.8 4.6l0.5 0.3c3.2 2.5 6.9 3 7.8 3.1-0.4-1.1-1.2-3.1-1.7-4.4-0.3-0.8-0.5-1.4-0.6-1.6q0-0.1 0.1-0.2 0.1 0 0.2 0.1c2.2 2.4 6.8 10.8 7.8 13.4 0.3-0.2 1.6-0.9 1.6-1.6q0-0.1 0.2-0.1 0 0 0 0z"/><path class="l" d="m67.2 39.3q-0.8-0.1-1.2-1-1.2-2.4 0.5-6 1.6-3 4.6-3.2c4-0.3 3.7 8-3.1 10.3q0 0-0.8-0.1z"/><path class="e" d="m68 39.5c0 0-0.1 0-0.2-0.1 0-0.1 0.1-0.2 0.1-0.2 2.7-0.9 6.3-4 5.6-7.9-0.3-1.4-1.2-2.2-2.3-2.1-3 0.2-4.6 3.1-4.6 3.1q-0.1 0.2-0.2 0.1c-0.1 0-0.1-0.1 0-0.2 0 0 1.6-3.1 4.7-3.3 1.4-0.1 2.4 0.8 2.7 2.3 0.2 1.4-0.1 3.1-1 4.6q-0.1 0.1-0.2 0.2c-0.7 1.2-2.1 2.7-4.6 3.5z"/><path class="e" d="m68.5 36q-0.1 0-0.2-0.1c0.1-0.1 0.2-2.5 2-3.5q1-0.5 1.7-0.2c0.6 0.3 0.7 0.9 0.7 0.9 0 0.1 0 0.2-0.1 0.2-0.1 0.1-0.2 0-0.2-0.1 0 0-0.2-0.5-0.6-0.7q-0.5-0.2-1.3 0.2c-1.7 0.9-1.8 3.1-1.8 3.2 0 0.1-0.1 0.2-0.2 0.1q0 0 0 0z"/><path class="e" d="m70 35.2c-0.2-0.1-0.4-0.2-0.6-0.4q-0.4-0.5-0.2-1.4c0-0.1 0.1-0.2 0.2-0.2 0.1 0.1 0.2 0.2 0.2 0.3q-0.2 0.7 0.1 1.1c0.2 0.3 0.8 0.3 0.8 0.3 0.1 0 0.2 0.1 0.2 0.2 0 0.1 0 0.1-0.1 0.1-0.1 0-0.3 0.1-0.6 0z"/><path class="j" d="m68.3 48.2c0.7 0.6 1 1.5 1.4 2.3q1.4 2.8 1.9 10-2.8 1.8-8 1.5c-0.4-2-0.5-4.1-0.5-6.1 0.1-2.1 0.4-4.2 1-6.2q0.1-0.5 0.4-0.9c0.8-1.2 2.5-1.8 3.8-0.6z"/><g style="mix-blend-mode:multiply"><path class="j" d="m65.2 48.1c0.9-0.7 2.1-0.8 3.1 0.1 0.7 0.6 1 1.5 1.4 2.3q1.4 2.8 1.9 10c-1 0.7-2.3 1-3.6 1.3 0.1-2.5-0.2-5-0.3-7.3-0.1-1.8-0.3-4.3-1.4-5.7q-0.5-0.6-1.1-0.7z"/></g><path fill-rule="evenodd" class="e" d="m63.5 62.1q-0.1 0-0.1-0.1-0.5-3.1-0.4-6.1c0-2 0.4-4.1 0.9-6.3q0.2-0.4 0.4-0.8c0.8-1.2 2.4-1.9 3.7-1q0.2 0.1 0.4 0.3c0.7 0.6 1 1.4 1.4 2.2l0.1 0.1c1.3 2.8 1.8 9.8 1.9 10.1q0 0.1-0.1 0.2c-2.8 1.7-7.9 1.5-8.1 1.5q-0.1 0-0.1-0.1zm4.4-14.1c-1.2-0.7-2.6-0.1-3.3 0.9q-0.2 0.4-0.4 0.8c-0.5 2.2-0.8 4.2-0.9 6.2q-0.1 2.9 0.4 5.9c0.8 0.1 5.3 0.2 7.7-1.4 0-0.8-0.6-7.3-1.8-9.8l-0.1-0.2c-0.3-0.8-0.7-1.5-1.3-2.1q-0.2-0.1-0.3-0.3z"/><path fill-rule="evenodd" class="e" d="m63.5 62.1q-0.1 0-0.1-0.1-0.5-3.1-0.4-6.1c0-2 0.4-4.1 0.9-6.3q0.2-0.4 0.4-0.8c0.8-1.2 2.4-1.9 3.7-1q0.2 0.1 0.4 0.3c0.7 0.6 1 1.4 1.4 2.2l0.1 0.1c1.3 2.8 1.8 9.8 1.9 10.1q0 0.1-0.1 0.2c-2.8 1.7-7.9 1.5-8.1 1.5q-0.1 0-0.1-0.1zm4.4-14.1c-1.2-0.7-2.6-0.1-3.3 0.9q-0.2 0.4-0.4 0.8c-0.5 2.2-0.8 4.2-0.9 6.2q-0.1 2.9 0.4 5.9c0.8 0.1 5.3 0.2 7.7-1.4 0-0.8-0.6-7.3-1.8-9.8l-0.1-0.2c-0.3-0.8-0.7-1.5-1.3-2.1q-0.2-0.1-0.3-0.3z"/><path class="e" d="m57.8 67.7c-4 0-7.2-0.1-7.3-0.2-0.1 0-0.3-0.1-0.3-0.3 0.1-0.2 0.2-0.3 0.4-0.3 0.1 0 9.1 0.5 15.7-0.2q0.6 0 1-0.5c0.8-1.2 0.2-3.9 0.2-3.9-0.1-0.2 0-0.3 0.2-0.4 0.2 0 0.4 0.1 0.4 0.2 0 0.2 0.7 3-0.3 4.4q-0.5 0.8-1.4 0.9c-2.7 0.2-5.9 0.3-8.6 0.3z"/><path class="l" d="m46 67.7c-0.3 0.1-0.6 0.1-0.8 0.1q-0.4 0.1-0.9 0.1-0.5 0.1-1.1 0c-0.2 0-0.7 0-0.8-0.2-0.2-0.5 0.7-0.8 1-0.9 0.7-0.3 1.7-0.4 2.5-0.6-1.4-0.1-3-0.5-2.6-1.2 0.3-0.6 1.2-0.6 1.7-0.6q0.6 0 1.1 0 0.1 0 0.1 0c0.8 0.1 1.7 0.2 2.5 0.3-0.2 0-0.4-0.6-0.5-0.7q-0.2-0.4-0.3-0.8c-0.1-0.3-0.1-0.9 0.4-0.9 0.8-0.1 1.7 1.2 2.2 1.8 0.6 0.8 1.2 1.6 1.4 2.7 0.1 0.5 0.1 1.2-0.1 1.7-0.7 2.1-3.7 1.7-5.3 2.5-0.5 0.3-1.7 1.1-2.3 0.7-0.6-0.6 0.7-1.4 1-1.6 0.4-0.3 0.8-0.5 1.2-0.7q0-0.1 0.1-0.2c-0.7 0.3-3.7 0.9-3.9 0.4-0.3-0.8 2.1-1.5 3.4-1.9z"/><path fill-rule="evenodd" class="e" d="m52 68.6c-0.6 1.4-2.1 1.7-3.6 2-0.7 0.2-1.3 0.3-1.9 0.6q-0.1 0-0.3 0.1c-0.6 0.4-1.5 0.9-2.1 0.5-0.2-0.3-0.2-0.5-0.2-0.7 0.1-0.4 0.6-0.7 1.1-1q0.1-0.1 0.1-0.1 0.3-0.2 0.5-0.3 0.1-0.1 0.1-0.1c-1.1 0.2-3.1 0.6-3.3 0.1q0-0.2 0-0.4c0.2-0.5 1-0.9 2-1.2q0 0 0 0-0.6 0-1.2 0c-0.3 0-0.8-0.1-0.9-0.4q-0.1-0.2-0.1-0.3c0.1-0.4 0.6-0.6 1.1-0.7v-0.1c0.5-0.1 1-0.3 1.6-0.3-0.7-0.2-1.5-0.4-1.8-0.8q-0.1-0.3 0-0.6c0.4-0.6 1.2-0.6 1.7-0.6h0.2q0.5-0.1 1.1 0 0.1 0 0.1 0c0.7 0 1.3 0.1 2.1 0.2q-0.1-0.1-0.2-0.4-0.3-0.5-0.4-0.9c0-0.1 0-0.4 0-0.6q0.1-0.4 0.6-0.5c0.8 0 1.6 1 2.1 1.6q0.1 0.2 0.2 0.3c0.6 0.7 1.3 1.6 1.5 2.7 0.1 0.6 0.1 1.2-0.1 1.7q0 0.1 0 0.2zm-3.9-5.4q0 0.3 0.2 0.7l0.1 0.1c0.2 0.4 0.3 0.6 0.3 0.6 0.1 0 0.1 0.1 0.1 0.1q0 0.2-0.2 0.2c-0.9-0.2-1.6-0.3-2.4-0.3q0 0-0.1 0-0.6 0-1.1 0h-0.2c-0.5 0-1.2 0-1.4 0.4q-0.1 0.2 0 0.3c0.2 0.3 1.2 0.6 2.5 0.8q0.2 0 0.2 0.1 0 0.2-0.2 0.2c-0.9 0.1-1.8 0.3-2.4 0.5l-0.1 0.1c-0.3 0.1-1 0.3-0.8 0.6 0 0.1 0.4 0.2 0.6 0.2q0.6 0 1.1-0.1 0.5 0 0.9 0 0.1 0 0.2 0 0.3 0 0.5-0.1c0.1 0 0.2 0 0.2 0.1 0 0.1 0 0.2-0.1 0.2-0.9 0.2-3.1 0.9-3.3 1.5q0 0.1 0 0.2c0.2 0.2 2.8-0.2 3.8-0.5q0.1 0 0.1 0.1 0.1 0.1 0 0.2l-0.1 0.1q-0.4 0.2-0.7 0.4-0.2 0.2-0.5 0.3 0 0.1-0.1 0.1c-0.3 0.2-0.9 0.6-1 0.9 0 0.1 0 0.2 0.1 0.3 0.4 0.4 1.2-0.1 1.8-0.4q0.2-0.1 0.3-0.2c0.6-0.3 1.3-0.4 2-0.6 1.4-0.3 2.8-0.6 3.3-1.8 0.1-0.5 0.2-1.1 0.1-1.7-0.2-1.1-0.9-1.9-1.4-2.6q-0.1-0.1-0.3-0.3c-0.4-0.6-1.2-1.5-1.8-1.4q-0.2 0-0.3 0.1 0 0.2 0.1 0.6z"/><path class="h" d="m42.9 42.4q8 0.6 12.5-2.4-0.2 3.3-2.4 4.6-4.5 2.5-10.1-2.2z"/><path fill-rule="evenodd" class="a" d="m50.1 45.5c-3.7 0-7.1-2.9-7.3-3q-0.1-0.1 0-0.2 0-0.1 0.1-0.1c0 0 0.8 0.1 1.9 0.1 2.6 0 7.4-0.3 10.6-2.4q0 0 0.1 0 0.1 0.1 0.1 0.2c0 0.1-0.3 3.3-2.5 4.6q-1.4 0.8-3 0.8zm-6.7-2.9c1 0.7 3.8 2.6 6.7 2.6q1.5 0 2.8-0.8c1.7-0.9 2.2-3.2 2.3-4-3.2 1.9-7.8 2.2-10.4 2.2q-0.9 0-1.4 0z"/><ellipse  cx="46.8" cy="31.8" rx="1" ry="1.4"/><ellipse  cx="37.1" cy="31.8" rx="1" ry="1.4"/><circle class="n" cx="20.6" cy="92" r="7.9"/><path fill-rule="evenodd" class="e" d="m20.6 100c-4.4 0-8-3.6-8-8 0-4.4 3.6-8 8-8 4.4 0 8 3.6 8 8 0 4.4-3.6 8-8 8zm0-15.7c-4.2 0-7.7 3.4-7.7 7.7 0 4.2 3.5 7.7 7.7 7.7 4.3 0 7.7-3.5 7.7-7.7 0-4.3-3.4-7.7-7.7-7.7z"/><circle class="o" cx="21.8" cy="92" r="7.9"/><path fill-rule="evenodd" class="e" d="m21.8 100c-4.4 0-8-3.6-8-8 0-4.4 3.6-8 8-8 4.5 0 8.1 3.6 8.1 8 0 4.4-3.6 8-8.1 8zm0-15.7c-4.2 0-7.7 3.4-7.7 7.7 0 4.2 3.5 7.7 7.7 7.7 4.3 0 7.7-3.5 7.7-7.7 0-4.3-3.4-7.7-7.7-7.7z"/><circle class="n" cx="21.8" cy="92" r="3.5"/><path fill-rule="evenodd" class="e" d="m21.8 95.6c-2 0-3.6-1.6-3.6-3.6 0-2 1.6-3.6 3.6-3.6 2 0 3.7 1.6 3.7 3.6 0 2-1.7 3.6-3.7 3.6zm0-6.9c-1.8 0-3.3 1.5-3.3 3.3 0 1.8 1.5 3.3 3.3 3.3 1.9 0 3.4-1.5 3.4-3.3 0-1.8-1.5-3.3-3.4-3.3z"/><circle class="p" cx="21.3" cy="92" r="3"/><path fill-rule="evenodd" class="e" d="m21.3 95.1c-1.7 0-3.1-1.4-3.1-3.1 0-1.7 1.4-3.1 3.1-3.1 1.7 0 3.1 1.4 3.1 3.1 0 1.7-1.4 3.1-3.1 3.1zm0-5.9c-1.5 0-2.8 1.2-2.8 2.8 0 1.5 1.3 2.8 2.8 2.8 1.6 0 2.8-1.3 2.8-2.8 0-1.6-1.2-2.8-2.8-2.8z"/><circle class="n" cx="61.7" cy="92" r="7.9"/><path fill-rule="evenodd" class="e" d="m61.7 100c-4.4 0-8-3.6-8-8 0-4.4 3.6-8 8-8 4.4 0 8 3.6 8 8 0 4.4-3.6 8-8 8zm0-15.7c-4.3 0-7.7 3.4-7.7 7.7 0 4.2 3.4 7.7 7.7 7.7 4.2 0 7.7-3.5 7.7-7.7 0-4.3-3.5-7.7-7.7-7.7z"/><circle class="o" cx="62.9" cy="92" r="7.9"/><path fill-rule="evenodd" class="e" d="m62.9 100c-4.4 0-8-3.6-8-8 0-4.4 3.6-8 8-8 4.4 0 8 3.6 8 8 0 4.4-3.6 8-8 8zm0-15.7c-4.2 0-7.7 3.4-7.7 7.7 0 4.2 3.5 7.7 7.7 7.7 4.2 0 7.7-3.5 7.7-7.7 0-4.3-3.5-7.7-7.7-7.7z"/><circle class="n" cx="62.9" cy="92" r="3.5"/><path fill-rule="evenodd" class="e" d="m62.9 95.6c-2 0-3.6-1.6-3.6-3.6 0-2 1.6-3.6 3.6-3.6 2 0 3.6 1.6 3.6 3.6 0 2-1.6 3.6-3.6 3.6zm0-6.9c-1.8 0-3.3 1.5-3.3 3.3 0 1.8 1.5 3.3 3.3 3.3 1.8 0 3.3-1.5 3.3-3.3 0-1.8-1.5-3.3-3.3-3.3z"/><circle class="p" cx="62.4" cy="92" r="3"/><path fill-rule="evenodd" class="e" d="m62.4 95.1c-1.7 0-3.1-1.4-3.1-3.1 0-1.7 1.4-3.1 3.1-3.1 1.7 0 3.1 1.4 3.1 3.1 0 1.7-1.4 3.1-3.1 3.1zm0-5.9c-1.6 0-2.8 1.2-2.8 2.8 0 1.5 1.2 2.8 2.8 2.8 1.5 0 2.8-1.3 2.8-2.8 0-1.6-1.3-2.8-2.8-2.8z"/><path class="q" d="m15 72.1h52.9c3.5 2.5 5.9 7 7.5 10.8 1.6 3.8 2.5 8.2 3 12.5h-74.1c1.3-4.4 2.2-8.7 4.1-13 1.9-4.5 4.1-7.1 6.6-10.3z"/><path fill-rule="evenodd" class="e" d="m78.4 95.6h-74.1q-0.1 0-0.1-0.1 0-0.1 0-0.1 0.5-1.7 0.9-3.4c0.9-3.2 1.8-6.5 3.1-9.6 1.6-3.9 3.6-6.4 5.6-9q0.5-0.7 1.1-1.4 0-0.1 0.1-0.1h52.9q0.1 0 0.1 0.1c2.8 2 5.4 5.6 7.6 10.8 1.5 3.5 2.4 7.8 2.9 12.6q0 0.1 0 0.1-0.1 0.1-0.1 0.1zm-73.9-0.3h73.7c-0.5-4.8-1.5-8.9-2.9-12.4-2.2-5.1-4.7-8.7-7.4-10.7h-52.8q-0.5 0.7-1.1 1.4c-2 2.6-3.9 5.1-5.5 8.9-1.3 3.1-2.2 6.4-3.1 9.6q-0.4 1.6-0.9 3.2z"/><path class="r" d="m15.7 72.1l3.3-12.6q1.1-3.8 3.9-3.6h9.4q2.1 0 2.9 3c0.5 1.9 0.5 9.9 0.3 13.2z"/><path fill-rule="evenodd" class="e" d="m35.5 72.2h-19.8q-0.1 0-0.1 0-0.1-0.1 0-0.2l3.3-12.5c0-0.2 1.1-4 4-3.8h9.4c0 0 2.2 0.1 3 3.1 0.5 2 0.5 10 0.3 13.3 0 0 0 0.1-0.1 0.1zm-19.6-0.3h19.4c0.2-3.3 0.2-11.1-0.3-13-0.7-2.8-2.7-2.9-2.7-2.9h-9.4q-0.1 0-0.2 0c-2.5 0-3.5 3.6-3.5 3.6z"/><path class="q" d="m14.9 72.1l3.3-12.6q1-3.8 3.8-3.6h9.4q2.1 0 2.9 3c0.5 1.9 0.5 9.9 0.3 13.2z"/><path fill-rule="evenodd" class="e" d="m34.6 72.2h-19.7q-0.1 0-0.2 0 0-0.1 0-0.2l3.3-12.5c0.1-0.2 1.2-4 4-3.8h9.4c0 0 2.3 0.1 3.1 3.1 0.5 2 0.5 10 0.3 13.3 0 0-0.1 0.1-0.2 0.1zm-19.5-0.3h19.4c0.2-3.3 0.1-11.1-0.3-13-0.8-2.8-2.7-2.9-2.8-2.9h-9.4q-0.1 0-0.2 0c-2.5 0-3.5 3.6-3.5 3.6z"/><path class="s" d="m16.4 71l2.8-10.8q1-3.3 3.3-3.1h8.1q1.8 0 2.5 2.6c0.4 1.6 0.4 8.4 0.2 11.3z"/><path fill-rule="evenodd" class="e" d="m33.3 71.1h-16.9q-0.1 0-0.1 0-0.1-0.1-0.1-0.2l2.9-10.7c0-0.1 1-3.4 3.5-3.3h8c0 0 1.9 0.1 2.6 2.7 0.4 1.7 0.5 8.6 0.3 11.4 0 0-0.1 0.1-0.2 0.1zm-16.7-0.3h16.6c0.1-2.9 0.1-9.5-0.3-11.1-0.6-2.4-2.3-2.4-2.3-2.4h-8.1q0 0-0.1-0.1c-2.1 0-3 3.1-3 3.1z"/><path class="r" d="m20.2 60.2l-2.9 10.8h-0.9l2.8-10.8q1-3.3 3.3-3.1h1q-2.4-0.2-3.3 3.1z"/><path fill-rule="evenodd" class="e" d="m17.3 71.1h-0.9q-0.1 0-0.1 0-0.1-0.1-0.1-0.2l2.9-10.7c0-0.1 1-3.4 3.5-3.3h0.5q0.2 0 0.4 0c0.1 0 0.1 0.1 0.1 0.2 0 0.1-0.1 0.2-0.1 0.2h-0.4c-2 0.1-2.8 3-2.8 3l-2.8 10.7q-0.1 0.1-0.2 0.1zm-0.7-0.3h0.6l2.8-10.6c0-0.1 0.6-2.1 2-2.9-1.8 0.3-2.6 3-2.6 3z"/><g style="mix-blend-mode:screen"><path class="s" d="m19 64.9c2.5-2.3 7.3-6.6 8.5-7.6h1.7c-0.9 0.7-7.6 6.5-10.4 8.9q0.1-0.6 0.2-1.3z"/></g><g style="mix-blend-mode:screen"><path class="s" d="m22.5 70.8h-1.4q0.5-0.5 1-1c2.3-2 9.6-7.9 10.9-8.9q0 0.6 0.1 1.3c-0.7 0.5-7.8 6.3-10.6 8.6z"/></g><path class="t" d="m35.7 72.1h52.9c3.4 2.5 5.9 7 7.5 10.8 1.6 3.8 2.5 8.2 2.9 12.5h-74c1.2-4.4 2.2-8.7 4-13 1.9-4.5 4.2-7.1 6.7-10.3z"/><path fill-rule="evenodd" class="e" d="m99 95.6h-74q-0.1 0-0.2-0.1 0-0.1 0-0.1 0.5-1.7 1-3.4c0.8-3.2 1.7-6.5 3.1-9.6 1.6-3.9 3.5-6.4 5.5-9q0.6-0.7 1.1-1.4 0.1-0.1 0.2-0.1h52.9q0 0 0.1 0.1c2.8 2 5.3 5.6 7.5 10.8 1.5 3.5 2.5 7.8 3 12.6q0 0.1-0.1 0.1 0 0.1-0.1 0.1zm-73.8-0.3h73.6c-0.4-4.8-1.4-8.9-2.9-12.4-2.1-5.1-4.6-8.7-7.4-10.7h-52.8q-0.5 0.7-1 1.4c-2 2.6-3.9 5.1-5.5 8.9-1.4 3.1-2.3 6.4-3.1 9.6q-0.5 1.6-0.9 3.2z"/><path class="q" d="m34.7 95.2q-0.2-1.1-0.2-2.3c0-6.5 4.9-11.8 10.9-11.8 6 0 10.9 5.3 10.9 11.8q0 1.2-0.2 2.3z"/><path fill-rule="evenodd" class="e" d="m56.1 95.4h-21.4q-0.1 0-0.1-0.2-0.2-1.1-0.2-2.3c0-6.6 4.9-11.9 11-11.9 6.1 0 11 5.3 11 11.9q0 1.2-0.2 2.3 0 0.2-0.1 0.2zm-21.2-0.4h21q0.2-1 0.2-2.1c0-6.4-4.8-11.6-10.7-11.6-5.9 0-10.7 5.2-10.7 11.6q0 1.1 0.2 2.1z"/><path class="q" d="m76.3 95.2q-0.2-1.1-0.2-2.3c0-6.5 4.9-11.8 10.9-11.8 6 0 10.9 5.3 10.9 11.8q0 1.2-0.2 2.3z"/><path fill-rule="evenodd" class="e" d="m97.7 95.4h-21.4q-0.1 0-0.1-0.2-0.2-1.1-0.2-2.3c0-6.6 4.9-11.9 11-11.9 6.1 0 11 5.3 11 11.9q0 1.2-0.2 2.3 0 0.2-0.1 0.2zm-21.2-0.4h21q0.2-1 0.2-2.1c0-6.4-4.8-11.6-10.7-11.6-5.9 0-10.7 5.2-10.7 11.6q0 1.1 0.2 2.1z"/><path class="u" d="m6.1 95.4q-0.2-0.5-0.2-1.1c0-2.2 1.7-3.9 3.9-3.9h7.8c2.1 0 3.9 1.7 3.9 3.9q0 0.6-0.2 1.1z"/><path fill-rule="evenodd" class="e" d="m21.3 95.6h-15.2q-0.1 0-0.2-0.1-0.2-0.7-0.2-1.2c0-2.3 1.8-4.1 4.1-4.1h7.8c2.2 0 4 1.8 4 4.1q0 0.5-0.2 1.2 0 0.1-0.1 0.1zm-15.1-0.3h15q0.1-0.6 0.1-1c0-2.1-1.7-3.8-3.7-3.8h-7.8c-2.1 0-3.8 1.7-3.8 3.8q0 0.4 0.2 1z"/><path class="v" d="m7.9 91.9c0.6-0.5 1.4-0.9 2.4-0.9h6.8c0.9 0 1.7 0.4 2.4 0.9z"/><path fill-rule="evenodd" class="e" d="m19.5 92.1h-11.6q-0.1 0-0.2-0.1 0-0.1 0.1-0.2c0.7-0.6 1.5-1 2.5-1h6.8c0.9 0 1.8 0.4 2.5 1q0 0.1 0 0.2 0 0.1-0.1 0.1zm-11.2-0.3h10.7c-0.5-0.4-1.2-0.7-1.9-0.7h-6.8c-0.7 0-1.4 0.3-2 0.7z"/><path class="v" d="m6.9 93.8q0.1-0.5 0.3-1 0.1 0 0.2 0.1h12.7q0.3 0.4 0.4 0.9z"/><path fill-rule="evenodd" class="e" d="m20.5 94h-13.6q-0.1 0-0.1-0.1-0.1 0-0.1-0.1 0.1-0.6 0.4-1 0.1-0.1 0.2-0.1 0 0 0.1 0h12.7q0.1 0 0.2 0.1 0.2 0.5 0.3 1 0 0.1 0 0.1-0.1 0.1-0.1 0.1zm-13.4-0.3h13.2q-0.1-0.4-0.3-0.7h-12.6q-0.1 0-0.1 0-0.1 0.3-0.2 0.7z"/><path class="v" d="m20.5 94.7q0 0.4-0.1 0.7h-13.4q-0.1-0.3-0.1-0.7z"/><path fill-rule="evenodd" class="e" d="m20.4 95.6h-13.4q-0.1 0-0.2-0.1-0.1-0.4-0.1-0.8 0 0 0-0.1 0.1 0 0.2 0h13.6q0.1 0 0.1 0 0.1 0.1 0.1 0.1-0.1 0.4-0.2 0.8 0 0.1-0.1 0.1zm-13.3-0.3h13.2q0-0.2 0-0.4h-13.3q0.1 0.2 0.1 0.4z"/><circle class="q" cx="23.3" cy="86.1" r="3.2"/><path fill-rule="evenodd" class="e" d="m23.3 89.5c-1.9 0-3.4-1.5-3.4-3.4 0-1.9 1.5-3.4 3.4-3.4 1.9 0 3.4 1.5 3.4 3.4 0 1.9-1.5 3.4-3.4 3.4zm0-6.5c-1.7 0-3.1 1.4-3.1 3.1 0 1.7 1.4 3.1 3.1 3.1 1.7 0 3.1-1.4 3.1-3.1 0-1.7-1.4-3.1-3.1-3.1z"/><circle class="w" cx="23.3" cy="86.1" r="2.4"/><path fill-rule="evenodd" class="e" d="m23.3 88.6c-1.4 0-2.6-1.1-2.6-2.5 0-1.4 1.2-2.5 2.6-2.5 1.4 0 2.5 1.1 2.5 2.5 0 1.4-1.1 2.5-2.5 2.5zm0-4.7c-1.2 0-2.2 1-2.2 2.2 0 1.2 1 2.2 2.2 2.2 1.2 0 2.2-1 2.2-2.2 0-1.2-1-2.2-2.2-2.2z"/><circle class="q" cx="10.5" cy="86.1" r="2.8"/><path fill-rule="evenodd" class="e" d="m10.5 89.1c-1.6 0-2.9-1.4-2.9-3 0-1.6 1.3-3 2.9-3 1.7 0 3 1.4 3 3 0 1.6-1.3 3-3 3zm0-5.7c-1.4 0-2.6 1.2-2.6 2.7 0 1.5 1.2 2.7 2.6 2.7 1.5 0 2.7-1.2 2.7-2.7 0-1.5-1.2-2.7-2.7-2.7z"/><circle class="w" cx="10.6" cy="86.1" r="2.1"/><path fill-rule="evenodd" class="e" d="m10.5 88.3c-1.2 0-2.2-1-2.2-2.2 0-1.2 1-2.2 2.2-2.2 1.3 0 2.3 1 2.3 2.2 0 1.2-1 2.2-2.3 2.2zm0-4.1c-1 0-1.9 0.8-1.9 1.9 0 1.1 0.9 1.9 1.9 1.9 1.1 0 2-0.8 2-1.9 0-1.1-0.9-1.9-2-1.9z"/><path class="r" d="m65.9 74.9c0 0.5-0.3 0.9-0.8 0.9h-5.7c-0.5 0-0.9-0.4-0.9-0.9 0-0.5 0.4-0.9 0.9-0.9h5.7c0.5 0 0.8 0.4 0.8 0.9z"/><path fill-rule="evenodd" class="e" d="m65.1 76h-5.7c-0.6 0-1-0.5-1-1.1 0-0.6 0.4-1 1-1h5.7c0.5 0 1 0.4 1 1 0 0.6-0.5 1.1-1 1.1zm-5.7-1.8c-0.4 0-0.7 0.3-0.7 0.7 0 0.4 0.3 0.7 0.7 0.7h5.7c0.4 0 0.7-0.3 0.7-0.7 0-0.4-0.3-0.7-0.7-0.7z"/><g style="mix-blend-mode:screen"><path class="q" d="m27.1 94.1l8.4 0.6h-9.5q3.6-14.3 10-21.6-6.4 9.8-8.9 21z"/></g><circle class="n" cx="45.1" cy="92" r="7.9"/><path fill-rule="evenodd" class="e" d="m45.1 100c-4.4 0-8-3.6-8-8 0-4.4 3.6-8 8-8 4.4 0 8 3.6 8 8 0 4.4-3.6 8-8 8zm0-15.7c-4.2 0-7.7 3.4-7.7 7.7 0 4.2 3.5 7.7 7.7 7.7 4.3 0 7.7-3.5 7.7-7.7 0-4.3-3.4-7.7-7.7-7.7z"/><circle class="x" cx="46.3" cy="92" r="7.9"/><path fill-rule="evenodd" class="e" d="m46.3 100c-4.4 0-8-3.6-8-8 0-4.4 3.6-8 8-8 4.4 0 8 3.6 8 8 0 4.4-3.6 8-8 8zm0-15.7c-4.2 0-7.7 3.4-7.7 7.7 0 4.2 3.5 7.7 7.7 7.7 4.3 0 7.7-3.5 7.7-7.7 0-4.3-3.4-7.7-7.7-7.7z"/><circle class="x" cx="46.3" cy="92" r="7.9"/><path fill-rule="evenodd" class="e" d="m46.3 100c-4.4 0-8-3.6-8-8 0-4.4 3.6-8 8-8 4.4 0 8 3.6 8 8 0 4.4-3.6 8-8 8zm0-15.7c-4.2 0-7.7 3.4-7.7 7.7 0 4.2 3.5 7.7 7.7 7.7 4.3 0 7.7-3.5 7.7-7.7 0-4.3-3.4-7.7-7.7-7.7z"/><circle class="n" cx="46.3" cy="92" r="3.5"/><path fill-rule="evenodd" class="e" d="m46.3 95.6c-2 0-3.6-1.6-3.6-3.6 0-2 1.6-3.6 3.6-3.6 2 0 3.7 1.6 3.7 3.6 0 2-1.7 3.6-3.7 3.6zm0-6.9c-1.8 0-3.3 1.5-3.3 3.3 0 1.8 1.5 3.3 3.3 3.3 1.9 0 3.3-1.5 3.3-3.3 0-1.8-1.4-3.3-3.3-3.3z"/><circle class="p" cx="45.8" cy="92" r="3"/><path fill-rule="evenodd" class="e" d="m45.8 95.1c-1.7 0-3.1-1.4-3.1-3.1 0-1.7 1.4-3.1 3.1-3.1 1.7 0 3.1 1.4 3.1 3.1 0 1.7-1.4 3.1-3.1 3.1zm0-5.9c-1.5 0-2.8 1.2-2.8 2.8 0 1.5 1.3 2.8 2.8 2.8 1.6 0 2.8-1.3 2.8-2.8 0-1.6-1.2-2.8-2.8-2.8z"/><circle class="n" cx="86.2" cy="92" r="7.9"/><path fill-rule="evenodd" class="e" d="m86.2 100c-4.5 0-8-3.6-8-8 0-4.4 3.5-8 8-8 4.4 0 8 3.6 8 8 0 4.4-3.6 8-8 8zm0-15.7c-4.3 0-7.7 3.4-7.7 7.7 0 4.2 3.4 7.7 7.7 7.7 4.2 0 7.7-3.5 7.7-7.7 0-4.3-3.5-7.7-7.7-7.7z"/><circle class="x" cx="87.4" cy="92" r="7.9"/><path fill-rule="evenodd" class="e" d="m87.4 100c-4.4 0-8-3.6-8-8 0-4.4 3.6-8 8-8 4.4 0 8 3.6 8 8 0 4.4-3.6 8-8 8zm0-15.7c-4.3 0-7.7 3.4-7.7 7.7 0 4.2 3.4 7.7 7.7 7.7 4.2 0 7.7-3.5 7.7-7.7 0-4.3-3.5-7.7-7.7-7.7z"/><circle class="n" cx="87.4" cy="92" r="3.5"/><path fill-rule="evenodd" class="e" d="m87.4 95.6c-2 0-3.6-1.6-3.6-3.6 0-2 1.6-3.6 3.6-3.6 2 0 3.6 1.6 3.6 3.6 0 2-1.6 3.6-3.6 3.6zm0-6.9c-1.8 0-3.3 1.5-3.3 3.3 0 1.8 1.5 3.3 3.3 3.3 1.8 0 3.3-1.5 3.3-3.3 0-1.8-1.5-3.3-3.3-3.3z"/><circle class="p" cx="86.9" cy="92" r="3"/><path fill-rule="evenodd" class="e" d="m86.9 95.1c-1.7 0-3.1-1.4-3.1-3.1 0-1.7 1.4-3.1 3.1-3.1 1.7 0 3.1 1.4 3.1 3.1 0 1.7-1.4 3.1-3.1 3.1zm0-5.9c-1.6 0-2.8 1.2-2.8 2.8 0 1.5 1.2 2.8 2.8 2.8 1.5 0 2.8-1.3 2.8-2.8 0-1.6-1.3-2.8-2.8-2.8z"/><path class="e" d="m3.5 99.1q-0.1 0.1-0.1 0c-4.8-3.9-2.2-10-2.2-10.1 0.1-0.1 0.2-0.1 0.2-0.1 0.1 0.1 0.2 0.2 0.1 0.2 0 0.1-2.5 6 2.1 9.8 0.1 0 0.1 0.1 0 0.2q0 0-0.1 0z"/><path class="e" d="m4.6 97.9q-0.1 0-0.1 0c-3.5-2.9-1.6-7.3-1.6-7.3 0-0.1 0.1-0.1 0.2-0.1 0.1 0 0.1 0.1 0.1 0.2 0 0-1.8 4.2 1.5 6.9 0 0.1 0 0.2 0 0.2q-0.1 0.1-0.1 0.1z"/><path class="e" d="m99.9 99.8q-0.1 0-0.1-0.1c-0.1 0-0.1-0.1 0-0.2 4.6-3.8 2.1-9.7 2.1-9.7-0.1-0.1 0-0.2 0.1-0.2 0-0.1 0.1 0 0.2 0 0 0.1 2.6 6.2-2.2 10.1q-0.1 0.1-0.1 0.1z"/><path class="e" d="m98.8 98.5q0 0-0.1 0c0-0.1 0-0.2 0-0.3 3.3-2.6 1.5-6.8 1.5-6.9 0-0.1 0-0.1 0.1-0.2 0.1 0 0.2 0 0.2 0.1 0 0 1.9 4.5-1.6 7.3q0 0-0.1 0z"/></svg>