<svg version="1.2" xmlns="http://www.w3.org/2000/svg" viewBox="0 0 380 217" width="380" height="217"><style>.a{fill:#1d1c1a}.b{fill:#d81f2c}.c{fill:#e5e2cd}.d{fill:#00a6b4}.e{mix-blend-mode:multiply;fill:#0a75b8}.f{fill:#095180}.g{fill:#e11f26}.h{opacity:.4;mix-blend-mode:multiply;fill:#a4400f}.i{fill:#0ca0db}.j{fill:#f7d6b6}.k{fill:#f2bb19}.l{mix-blend-mode:multiply;fill:#f7d6b6}.m{fill:#ee8fb9}.n{fill:#77b6fe}.o{fill:#231f20}.p{fill:#77cbf9}.q{fill:#c0c0c0}.r{fill:#fff}.s{fill:#dc071d}.t{opacity:.6;mix-blend-mode:multiply;fill:#c93823}.u{opacity:.8;mix-blend-mode:screen;fill:#fff}.v{fill:#e73b2a}.w{fill:#7e0c1a}.x{fill:#006fb9}.y{fill:#22357a}.z{fill:#3b93be}.A{fill:#152f62}.B{fill:#97d1d5}.C{fill:#00b5cf}.D{fill:#c62039}.E{fill:#741a13}.F{mix-blend-mode:multiply;fill:#c62039}.G{fill:#00a8cb}.H{opacity:.7;mix-blend-mode:multiply;fill:#029bb0}.I{opacity:.5;mix-blend-mode:multiply;fill:#029bb0}.J{fill:#ef813d}.K{mix-blend-mode:multiply;fill:#ef813d}.L{fill:#f39840}</style><path class="a" d="m312.5 118.2c-3.2 0-11.2-0.5-12.8-5-1.8-5.3-6.1-18.2-6.2-18.4-0.1-0.2 0.1-0.5 0.3-0.6 0.3-0.1 0.6 0 0.7 0.3 0 0.1 4.3 13.1 6.1 18.3 1.7 5 13.1 4.4 13.2 4.4 0.3 0 0.5 0.2 0.5 0.4 0 0.3-0.2 0.5-0.4 0.6-0.1 0-0.6 0-1.4 0z"/><path class="b" d="m348.7 211c-1.9 1.1-4.1 0.7-3.7-2.1 0.3-3.1 4.8-8.6 6.9-10.1 1.6-1.1 3.4-0.3 4.4 1.1q0.1 0 0.1 0.1c2.5 3.5-5.2 9.6-7.7 11z"/><path fill-rule="evenodd" class="a" d="m346.8 211.8c-0.7 0-1.2-0.2-1.6-0.6q-0.7-0.8-0.5-2.4c0.4-3 4.9-8.6 7.1-10.2q0.8-0.6 1.7-0.6c1.1 0 2.3 0.7 3 1.7q0.1 0.1 0.1 0.1 0.8 1.1 0.4 2.6c-0.8 3.5-6.1 7.7-8.2 8.8-0.7 0.4-1.4 0.6-2 0.6zm6.7-13.3q-0.8 0-1.4 0.5c-2.1 1.5-6.6 7-6.9 9.9-0.1 0.9 0 1.5 0.4 1.9 0.3 0.4 0.8 0.5 1.2 0.5 0.5 0 1.2-0.2 1.8-0.5 2-1.1 7.2-5.1 8-8.5q0.3-1.3-0.4-2.2 0 0-0.1-0.1c-0.6-0.9-1.6-1.5-2.6-1.5z"/><path class="c" d="m345 208.9c0.1-1.3 1-3 2.1-4.7 1.4-0.3 2.9-0.1 4.2 0.9 0.7 0.5 1.6 1.3 2.2 2.1-1.7 1.8-3.7 3.2-4.8 3.8-1.9 1.1-4.1 0.7-3.7-2.1z"/><path fill-rule="evenodd" class="a" d="m346.8 211.8c-0.7 0-1.2-0.2-1.6-0.6q-0.7-0.8-0.5-2.4c0.2-1.4 1.3-3.4 2.2-4.7q0-0.1 0.1-0.1c1.5-0.4 3.2-0.1 4.5 0.9 0.4 0.3 1.5 1.1 2.2 2.2 0.1 0.1 0.1 0.2 0 0.3-1.8 1.8-3.8 3.2-4.9 3.8-0.7 0.4-1.4 0.6-2 0.6zm0.5-7.3c-1.3 1.8-2 3.3-2.1 4.4-0.1 0.9 0 1.5 0.4 1.9 0.3 0.4 0.8 0.5 1.2 0.5 0.5 0 1.2-0.2 1.8-0.5 1-0.6 2.9-1.9 4.6-3.6-0.7-0.9-1.6-1.6-2-1.9-1.2-0.9-2.6-1.2-3.9-0.8z"/><path class="c" d="m356.4 200c2.5 3.6-5.2 9.6-7.7 11-1.2 0.7-2.6 0.8-3.3 0 2.5-0.2 5.1-2.7 6.5-4.2 1.8-1.7 4-4.2 4.5-6.8z"/><path fill-rule="evenodd" class="a" d="m346.8 211.8q-1 0-1.6-0.6-0.1-0.1 0-0.3 0-0.1 0.2-0.1c2.4-0.2 5-2.8 6.4-4.1 1.6-1.7 3.9-4.1 4.4-6.7q0-0.2 0.2-0.2 0.1-0.1 0.2 0.1 0.8 1.1 0.4 2.6c-0.8 3.5-6.1 7.6-8.2 8.7-0.7 0.4-1.4 0.6-2 0.6zm-0.8-0.6c0.3 0.1 0.6 0.1 0.8 0.1 0.5 0 1.2-0.2 1.8-0.5 2-1.1 7.2-5.1 7.9-8.4q0.3-0.9 0-1.7c-0.7 2.5-2.8 4.8-4.4 6.3-1.3 1.3-3.7 3.6-6.1 4.2z"/><path class="a" d="m351.2 204.5c-0.1 0-0.3 0-0.4-0.1-1.3-1.7-0.6-3.6-0.6-3.7 0.1-0.2 0.2-0.2 0.4-0.2 0.1 0.1 0.1 0.2 0.1 0.3 0 0.1-0.7 1.9 0.5 3.3 0.1 0.1 0.1 0.3 0 0.4q0 0 0 0z"/><path class="a" d="m352.9 201.9c0 0-2.2-0.2-4.4 1.7q-0.1 0.1-0.2 0.1-0.2 0.2-0.3 0c-0.1-0.1-0.1-0.2 0-0.3 2.4-2.3 4.9-2 5-1.9 0.1 0 0.2 0.1 0.2 0.2q0 0.1-0.1 0.2-0.1 0.1-0.2 0z"/><path class="a" d="m352 200.3q-0.2 0-0.4-0.2c-0.4-0.3-9.5-9.2-13.2-17.2-3.7-8-6.1-21.3-6.1-21.4-0.1-0.3 0.1-0.5 0.4-0.6 0.2 0 0.5 0.1 0.5 0.4 0.1 0.2 2.5 13.3 6.1 21.2 3.6 7.8 12.9 16.8 13 16.9 0.2 0.2 0.2 0.5 0 0.7q-0.1 0.2-0.3 0.2z"/><path class="a" d="m325.6 207.7c-0.2 0-0.4-0.1-0.5-0.3-5.2-20.4-7.3-49.3-7.4-49.6 0-0.2 0.2-0.5 0.5-0.5 0.3 0 0.5 0.2 0.5 0.5 0.1 0.3 2.1 29.1 7.4 49.3 0 0.3-0.1 0.6-0.4 0.6q0 0.1-0.1 0z"/><path class="b" d="m315.8 212.8c-2.2-0.5-3.5-2.2-1.4-4.1 2.3-2 9.3-3.1 11.9-2.8 1.9 0.2 2.8 2 2.6 3.7q0 0.1 0 0.1c-0.5 4.4-10.3 3.8-13.1 3.1z"/><path fill-rule="evenodd" class="a" d="m320.7 213.5c-2.2 0-4.1-0.2-5-0.4-1.4-0.4-2.3-1.1-2.6-2-0.1-0.6 0-1.5 1.1-2.6 2.3-1.9 8.4-2.9 11.2-2.9q0.6 0 1 0c2 0.3 2.9 2.2 2.7 4.1h-0.2l0.2 0.1c-0.3 3.2-5.4 3.7-8.4 3.7zm4.7-7.4c-3.1 0-8.9 1.1-10.8 2.8-0.8 0.7-1.1 1.4-1 2 0.2 0.8 1 1.4 2.2 1.7 1 0.2 2.9 0.4 4.9 0.4 2.3 0 7.6-0.3 7.9-3.3l0.3-0.1h-0.3c0.2-1.6-0.5-3.3-2.3-3.5q-0.4 0-0.9 0z"/><path class="c" d="m314.4 208.7c1-0.8 2.8-1.5 4.7-2 1.3 0.7 2.3 1.9 2.6 3.5 0.2 0.8 0.3 2 0.2 3.1-2.5 0.1-4.9-0.2-6.1-0.5-2.2-0.5-3.5-2.2-1.4-4.1z"/><path fill-rule="evenodd" class="a" d="m320.7 213.5c-2.2 0-4.1-0.2-5-0.4-1.4-0.4-2.3-1.1-2.6-2-0.1-0.6 0-1.5 1.1-2.6 1.2-0.9 3.3-1.6 4.8-2q0.1 0 0.2 0c1.4 0.7 2.4 2 2.7 3.6 0.2 0.5 0.4 1.9 0.2 3.2 0 0.1-0.1 0.2-0.2 0.2q-0.6 0-1.2 0zm-1.6-6.5c-2.2 0.5-3.7 1.2-4.5 1.9-0.8 0.7-1.1 1.4-1 2 0.2 0.8 1 1.4 2.2 1.7 1.1 0.2 3.5 0.5 5.9 0.4 0.1-1.1-0.1-2.3-0.2-2.8-0.4-1.4-1.2-2.6-2.4-3.2z"/><path class="c" d="m328.9 209.8c-0.6 4.3-10.3 3.7-13.1 3-1.4-0.3-2.5-1.1-2.5-2.2 2 1.5 5.6 1.4 7.7 1.3 2.5-0.1 5.7-0.5 7.9-2.1z"/><path fill-rule="evenodd" class="a" d="m320.7 213.5c-2.2 0-4.1-0.2-5-0.4-1.6-0.4-2.6-1.4-2.6-2.5q0-0.1 0.1-0.2 0.1-0.1 0.3 0c1.1 0.9 2.9 1.3 5.6 1.3q1 0 1.9-0.1c2.3-0.1 5.6-0.4 7.7-2q0.2-0.1 0.3 0 0.1 0 0.1 0.2c-0.4 3.2-5.4 3.7-8.4 3.7zm-7-2.3c0.3 0.6 1.1 1.1 2.1 1.4 1 0.2 2.9 0.4 4.9 0.4 2.1 0 6.8-0.2 7.8-2.6-2.3 1.3-5.3 1.6-7.5 1.7q-0.9 0.1-1.9 0.1c-2.4 0-4.2-0.3-5.4-1z"/><path class="a" d="m322 209.6c-0.2 0-0.3-0.1-0.3-0.3 0.2-2.1 2-3.1 2.1-3.1 0.1-0.1 0.3-0.1 0.4 0.1 0 0.1 0 0.2-0.2 0.3 0 0-1.6 0.9-1.8 2.8 0 0.1-0.1 0.2-0.2 0.2q0 0 0 0z"/><path class="a" d="m325 208.9c0 0-1.5-1.7-4.5-1.7q-0.1 0-0.2 0-0.2-0.1-0.2-0.3c0-0.1 0.1-0.2 0.2-0.2 3.3-0.1 5 1.8 5 1.9 0.1 0.1 0.1 0.2 0 0.3q-0.1 0.1-0.2 0.1-0.1 0-0.1-0.1z"/><path class="d" d="m314.2 165.9q-0.8-12.7 0-20.7l28 1.5q-1.5 12.1-1.5 22.6c-4.2 0.8-8.7 0.9-13 0.4q-1-6.1-0.9-10.6c-0.5 2.9-0.5 6.6-0.3 10.5-4.3-0.6-8.5-1.9-12.3-3.7z"/><path fill-rule="evenodd" class="a" d="m332.6 170.3q-2.5 0-4.9-0.3c-0.1 0-0.2-0.1-0.3-0.2-0.4-2.7-0.6-5.1-0.7-7q-0.2 3 0 6.8 0 0.1 0 0.2-0.1 0-0.2 0c-4.5-0.6-8.7-1.9-12.4-3.7q-0.2-0.1-0.2-0.2c-0.8-12.6 0.1-20.6 0.1-20.7 0-0.1 0.1-0.2 0.2-0.2l28 1.5q0.1 0 0.2 0.1 0 0.1 0 0.2c0 0.1-1.5 12.2-1.4 22.5 0 0.1-0.1 0.2-0.2 0.2-2.7 0.5-5.5 0.8-8.2 0.8zm-4.7-0.8c4.1 0.5 8.4 0.3 12.6-0.4 0-9.5 1.2-20.3 1.4-22.1l-27.5-1.5c-0.1 1.4-0.7 9 0 20.2 3.6 1.8 7.5 3 11.8 3.6-0.2-4.2-0.1-7.6 0.3-10.2 0-0.1 0.2-0.2 0.3-0.2 0.1 0 0.2 0.1 0.2 0.2 0 0.1 0 4.4 0.9 10.4z"/><path class="e" d="m326.7 159.9c-0.4 2.7-0.4 6.1-0.2 9.7q-1.7-0.3-3.3-0.6c0.1-3.3 1.1-7 2.9-9.2q0.3 0 0.6 0.1z"/><path class="e" d="m342.2 146.7q-1.5 12.1-1.5 22.6-0.5 0.1-1 0.2c0.1-2.6 0.2-5.1-0.1-7.6-0.2-1.7-1.6-2.3-3.1-2.4-7.1-0.6-16.4-0.8-22.7-5q0.1-5.9 0.4-9.3z"/><path class="f" d="m334.9 146.4l7.3 0.3q-1 7.7-1.3 16c-1.9-0.7-3.6-2.1-4.8-4-2.2-3.4-2.2-8.2-1.2-12.3z"/><path fill-rule="evenodd" class="a" d="m340.9 163q-0.1 0-0.1 0c-2-0.8-3.7-2.3-4.9-4.2-2-3-2.4-7.6-1.2-12.5 0-0.1 0.1-0.2 0.3-0.2l7.2 0.4q0.1 0 0.2 0.1 0 0.1 0 0.2c0 0.1-0.9 7.7-1.3 16q0 0.1-0.1 0.1-0.1 0.1-0.1 0.1zm-5.8-16.4c-1.1 4.7-0.6 9 1.2 12 1.1 1.7 2.6 3 4.3 3.8 0.4-7.3 1.1-14 1.3-15.4z"/><path class="g" d="m331 114.1c-1.1 1.3-2.5 2-4 2.8q-4.8 2.6-17.7 4.2c-2-2.9-2.8-7.5-3.1-10.7q5.2-2 10.8-2.5c4.5-0.4 9.8-0.3 14.3 1.3 0.9 1.5 1 3.4-0.3 4.9z"/><path fill-rule="evenodd" class="a" d="m309.3 121.3q-0.1 0-0.2-0.1c-2-2.9-2.8-7.5-3.1-10.8 0-0.1 0-0.2 0.1-0.2 3.5-1.3 7.1-2.2 10.9-2.6q2.2-0.2 4.4-0.2c3.8 0 7.2 0.5 10 1.6q0.1 0 0.1 0.1c1.1 1.7 1 3.7-0.3 5.2-1.1 1.2-2.5 2-3.9 2.7l-0.2 0.1c-4.8 2.6-17.2 4.1-17.7 4.2q-0.1 0-0.1 0zm-2.8-10.7c0.3 3.2 1 7.4 2.9 10.2 1.5-0.2 13-1.7 17.5-4.1l0.2-0.1c1.4-0.8 2.7-1.5 3.7-2.6 1.1-1.3 1.2-3 0.4-4.6-2.8-1-6.1-1.5-9.8-1.5q-2.1 0-4.4 0.2c-3.6 0.4-7.2 1.2-10.5 2.5z"/><path class="h" d="m331 114.1c-1.1 1.3-2.5 2-4 2.8-3.1 1.6-9.3 2.9-13.5 3.5 2.9-4.7 5.8-9.4 10.4-12.6 2.5 0.1 5.1 0.6 7.4 1.4 0.9 1.5 1 3.4-0.3 4.9z"/><path class="i" d="m310.8 120.9q-0.9 0.1-1.5 0.2c-2-2.9-2.8-7.5-3.1-10.7q1.1-0.4 2.2-0.7c-0.1 3.8 0.7 7.6 2.4 11.2z"/><path fill-rule="evenodd" class="a" d="m309.3 121.3q-0.1 0-0.2-0.1c-2-2.9-2.8-7.5-3.1-10.8 0-0.1 0-0.2 0.1-0.2 0.7-0.3 1.4-0.5 2.3-0.8q0.1 0 0.2 0.1 0.1 0 0.1 0.2c-0.2 3.6 0.6 7.4 2.3 11.1q0 0.1 0 0.2-0.1 0.1-0.2 0.1-0.9 0.1-1.4 0.2-0.1 0-0.1 0zm-2.8-10.7c0.3 3.2 1 7.4 2.9 10.2q0.3 0 1-0.1c-1.6-3.5-2.3-7.2-2.2-10.7q-1 0.3-1.7 0.6z"/><path class="g" d="m334.7 105c1.7-0.1 4.3 0.7 5.7 1.6 7.7 4.9 4.3 45.1 4 48.7q-16 4.3-33-4.7c-0.3-0.1 3.6-27.7 8.9-36.1 1.9-2.9 3.9-5.9 6.9-7.7 1.1-0.7 2.3-1.1 3.6-1.4 1.3-0.2 2.7-0.3 3.9-0.4z"/><path fill-rule="evenodd" class="a" d="m335.2 156.7q0 0 0 0c-12.6 0-23.8-5.8-23.9-5.8q-0.1-0.1-0.1-0.2c-0.2-0.9 3.5-27.9 8.9-36.4 2.1-3.2 4-6 6.9-7.7 1.1-0.7 2.3-1.1 3.8-1.4 1.1-0.2 2.3-0.4 3.9-0.4 1.7-0.1 4.4 0.6 5.8 1.6 7.3 4.5 5 38.5 4.1 48.9q0 0.2-0.1 0.2c-2.9 0.8-6.1 1.2-9.3 1.2zm-23.5-6.2c1.2 0.6 11.7 5.7 23.5 5.7q0 0 0 0c3.1 0 6.2-0.4 9-1.1 0.6-7.5 3.2-43.8-3.9-48.3-1.3-0.8-3.8-1.5-5.3-1.5q-0.1 0-0.2 0c-1.6 0-2.8 0.2-3.9 0.4-1.4 0.3-2.6 0.7-3.6 1.3-2.8 1.7-4.7 4.4-6.8 7.6-5.1 8.1-8.8 33.9-8.8 35.9z"/><path class="h" d="m344.4 155.3c-3.5 0.9-7 1.2-10.3 1.1 1.2-9.9 2.7-19.8 2-29.8-0.2-3.6-1.3-7.2-4.3-9.4-2-1.4-4.3-1.8-5.7-3.9-1.1-1.8-0.7-4 0.3-6q0.4-0.3 0.8-0.5c1.1-0.7 2.3-1.1 3.6-1.4 1.3-0.2 2.7-0.3 3.9-0.4 1.7-0.1 4.3 0.7 5.7 1.6 7.7 4.9 4.3 45.1 4 48.7z"/><path class="j" d="m329.6 113.7c-1.6 0-3-1.1-3-2.4v-8.5c0-1.3 1.4-2.4 3-2.4 1.7 0 3.1 1.1 3.1 2.4v8.5c0 1.3-1.4 2.4-3.1 2.4z"/><path fill-rule="evenodd" class="a" d="m329.6 113.9c-1.8 0-3.2-1.2-3.2-2.6v-8.5c0-1.5 1.4-2.7 3.2-2.7 1.8 0 3.3 1.2 3.3 2.7v8.5c0 1.4-1.5 2.6-3.3 2.6zm0-13.3c-1.5 0-2.7 1-2.7 2.2v8.5c0 1.1 1.2 2.1 2.7 2.1 1.6 0 2.8-1 2.8-2.1v-8.5c0-1.2-1.2-2.2-2.8-2.2z"/><path class="j" d="m373.2 75.2q0.1 3-0.5 6c-0.7 3.4-2.1 7.1-3.9 10.1-3.8 6.3-8.7 12.3-15.7 14.8-13.5 4.9-32.3 5.4-41.7-6.6-9.4-12.1-6.6-30.9 4.7-42.7 8.6-8.9 19.1-15.1 31.4-12.3 3.4 0.8 7.2 2.3 10 4.2 8.8 6 15.5 15.8 15.7 26.5z"/><path fill-rule="evenodd" class="a" d="m335 109.6c-7.3 0-17.4-1.7-23.8-9.9-9.2-11.9-7.1-30.8 4.8-43.1 8.4-8.8 16.8-13 25.5-13q3 0 6.1 0.7c3.7 0.8 7.4 2.4 10.1 4.2 9.5 6.4 15.5 16.7 15.8 26.7q0.1 3.1-0.6 6.1c-0.7 3.5-2.1 7.2-3.9 10.1-3.4 5.5-8.2 12.2-15.8 14.9-5.8 2.1-12.3 3.3-18.2 3.3zm6.5-65.5c-8.6 0-16.8 4.2-25.2 12.9-11.7 12.1-13.7 30.7-4.7 42.3 6.3 8.1 16.2 9.8 23.4 9.8 5.9 0 12.3-1.2 18.1-3.2 7.4-2.7 12.2-9.3 15.5-14.8 1.7-2.8 3.1-6.4 3.8-9.9q0.7-3 0.6-6c-0.3-9.9-6.2-19.9-15.6-26.3-2.7-1.8-6.3-3.3-9.9-4.1q-3-0.7-6-0.7z"/><g style="mix-blend-mode:multiply"><path class="j" d="m373.2 75.2q0.1 3-0.5 6c-0.7 3.4-2.1 7.1-3.9 10.1-3.8 6.3-8.7 12.3-15.7 14.8-6.4 2.3-13.9 3.6-21.1 3.1q1.1 0 2.2-0.2c4.2-0.7 8.2-3.3 10.2-7.1 2.2-4 1.7-9.3 0.7-13.6-0.4-1.7-1-3.1-2.3-4.3-2.2-2-5-1.7-6.3-5-0.1-0.4-0.5-0.6-0.9-0.5-2.4 0.6-4.6 0.6-5.5-2.4-0.1-0.4-0.5-0.7-0.8-0.5-3.9 1.3-8.6 2.9-10.3-2.2-0.2-0.5-0.6-0.7-1.1-0.5-2.8 1.5-8.2 3.8-11.4 2.1 1.4-6.6 4.7-13.1 9.6-18.2 8.6-8.9 19.1-15.1 31.4-12.3 3.4 0.8 7.2 2.3 10 4.2 8.8 6 15.5 15.8 15.7 26.5z"/></g><path class="k" d="m375.3 85c0.3 0.3 0.6 0.8 0.8 1.4 0.6 1.2 0.7 2.6 0.6 4-0.1 2.1-1.2 3.7-2.9 5-0.6 0.4-3.2 1.8-5.7 2.7-0.3 1.3-0.9 2.5-1.8 3.6-1.3 1.5-2.7 2.7-4.7 3.1-0.9 1.4-2.8 2.8-3.8 3.3-2.1 1.2-6.3 2.7-8.3 0.6-2.2-2.3 0-5.5 2.1-7 1.6-1.2 3.3-1.9 5.2-2.2-0.9-1.6-1.1-3.9-0.8-5.3q0-0.2 0.1-0.5-0.7 0.1-1.4-0.1c-1.2-0.4-2.3-1.1-2.8-2-1.4 0.2-2.9 0.1-3.7-1.3-1-1.5-1.2-3.5-0.3-5.2q0.6-1.2 1.5-2.3c-0.7-0.4-1.3-1.1-1.6-2.1q-0.2-1.1 0-2.2c-2.3 0.9-4.8 1.2-6.9 0.6-2-0.6-3.8-2.1-4.3-4.1-1.8 0.9-4.3 0.5-5.6-1-0.5-0.7-0.8-1.4-1-2.1q-1.1 0.4-2.2 0.7c-2.3 0.7-5.6 1.6-7.7-0.3-0.7-0.6-1.2-1.4-1.5-2.1-3.3 2-7.4 2.7-10.3 0.8-0.9-0.6-1.4-1.4-1.6-2.3-2 0.6-4.1 0.8-5.8-0.1-2.3-1.3-2.8-3.9-2-6.3 0.6-1.7 2-3.3 3.6-4.3q-0.4-0.7-0.7-1.3c-0.8-2-0.4-4 0.8-5.6 1.1-1.6 3.3-2.7 5.2-2.8 0.6 0 1.3 0 2 0.1 0.3-1.4 1-2.6 2.1-3.7 2-2 6-2.5 8.1-1q0.1-0.3 0.2-0.7c0.7-1.5 2.8-2.6 4.4-3 2.2-0.5 4.8-0.5 6.6 1 1.9-2.1 7.2-3.6 8.5-3.6 3.6 0 7.6 0.5 10.1 3.4q0.2 0.2 0.4 0.4c1.4-0.6 2.8-1 3.9-0.9 4 0.1 9.1 4.2 9.1 8.5 1-0.1 2 0 2.8 0.4 1.1 0.5 2.4 2.2 2.7 3.7q0.1 0 0.1 0c3.1-0.6 6.4 0.8 7.7 3.8 1.5 3.4 0.8 7.9-1.6 10.9 4.8 2.6 6.3 9 3.3 14.3-0.4 0.6-1.5 1.9-2.9 3.1z"/><path fill-rule="evenodd" class="a" d="m352.4 110q-2 0-3.1-1.2-1.1-1.1-0.9-2.6c0.1-1.9 1.7-3.7 3-4.7 1.4-1.1 3.1-1.8 5-2.2-0.8-1.6-0.9-3.8-0.7-5.1q0-0.1 0.1-0.2-0.6 0-1.2-0.2c-1.2-0.4-2.3-1.1-2.8-2-1.8 0.3-3.1-0.2-3.8-1.3-1.1-1.7-1.2-3.8-0.4-5.5q0.6-1.1 1.5-2.1-1.2-0.7-1.5-2.1-0.3-0.9-0.2-1.9c-2.3 0.8-4.7 1-6.6 0.5-2.1-0.7-3.8-2.2-4.3-4q-0.9 0.3-1.9 0.3c-1.5 0-2.9-0.6-3.7-1.6q-0.8-0.8-1.1-1.9-0.9 0.3-1.9 0.6l-0.1 0.1c-1.3 0.3-2.9 0.8-4.4 0.8-1.5 0-2.6-0.4-3.4-1.2q-1-0.9-1.5-2c-2.1 1.2-4.3 1.9-6.3 1.9q-2.3 0-4-1.2c-0.8-0.5-1.4-1.3-1.7-2.2-2.2 0.7-4.2 0.6-5.7-0.2-2.2-1.2-3.1-3.7-2.2-6.5 0.6-1.6 1.8-3.2 3.5-4.4q-0.3-0.5-0.5-1.1c-0.9-1.9-0.6-4 0.8-5.9 1.1-1.5 3.4-2.7 5.4-2.8 0.6-0.1 1.2 0 1.8 0 0.4-1.4 1.1-2.6 2.1-3.6 1.2-1.2 3.2-1.9 5.1-1.9 1.2 0 2.2 0.2 3 0.7q0.1-0.2 0.2-0.4c0.7-1.6 2.8-2.8 4.5-3.1q1.4-0.3 2.6-0.3 2.5 0 4.1 1.2c2-2.1 7.2-3.5 8.5-3.5h0.2c4.8 0 8.1 1.1 10.1 3.4q0.1 0.2 0.3 0.3c1.4-0.6 2.8-0.9 3.8-0.9 4.1 0.2 9.2 4.3 9.3 8.5 1-0.1 2 0.1 2.7 0.5 1.1 0.5 2.4 2 2.8 3.6q0.7-0.1 1.4-0.1c2.8 0 5.4 1.6 6.4 4.1 1.5 3.3 0.9 7.8-1.4 11 2.1 1.2 3.6 3.2 4.3 5.6 0.8 2.9 0.4 6-1.2 8.8-0.4 0.7-1.5 1.9-2.8 3q0.4 0.5 0.8 1.3c0.6 1.3 0.6 2.9 0.5 4.1q-0.1 3.1-3 5.2c-0.5 0.4-3.1 1.8-5.6 2.7q-0.4 1.9-1.8 3.5c-1.2 1.4-2.7 2.8-4.8 3.2-0.9 1.5-2.7 2.8-3.7 3.4-0.8 0.3-3.3 1.6-5.6 1.6zm3.7-16.5q0.1 0 0.2 0.1 0.1 0.1 0 0.2v0.1q0 0.2-0.1 0.4c-0.2 1.3 0 3.5 0.8 5q0.1 0.1 0 0.3 0 0.1-0.2 0.1c-2 0.4-3.7 1.1-5.1 2.2-1.3 1-2.7 2.7-2.8 4.3q-0.1 1.3 0.8 2.3 0.9 1 2.7 1c2.2 0 4.6-1.2 5.3-1.6 1-0.5 2.8-1.8 3.7-3.3q0-0.1 0.2-0.1c2-0.3 3.4-1.7 4.5-3q1.4-1.6 1.7-3.4 0.1-0.2 0.2-0.2c2.5-0.9 5.1-2.3 5.6-2.7 1.8-1.4 2.8-2.9 2.8-4.9 0.1-1.1 0.1-2.6-0.5-3.8-0.2-0.6-0.5-1-0.8-1.3q-0.1-0.1-0.1-0.2 0-0.1 0.1-0.2c1.4-1.2 2.5-2.4 2.8-3 1.6-2.7 2-5.7 1.2-8.4-0.6-2.4-2.2-4.4-4.3-5.5q-0.1-0.1-0.1-0.2-0.1-0.1 0-0.2c2.4-3.1 3-7.5 1.6-10.7-1-2.3-3.4-3.8-6-3.8q-0.7 0-1.4 0.1c-0.1 0.1-0.2 0.1-0.2 0-0.1 0-0.2-0.1-0.2-0.1-0.3-1.5-1.6-3.1-2.6-3.6-0.7-0.3-1.7-0.5-2.7-0.4q-0.1 0-0.2-0.1-0.1 0-0.1-0.1c0.1-4.1-4.9-8.1-8.8-8.3h-0.1c-1.1 0-2.4 0.3-3.7 0.9-0.1 0.1-0.2 0-0.3 0q-0.2-0.2-0.3-0.4c-2-2.3-5.2-3.3-9.8-3.3h-0.2c-1.2 0-6.5 1.5-8.3 3.5-0.1 0.1-0.2 0.1-0.3 0q-1.6-1.2-4-1.2-1.2 0-2.5 0.3c-1.5 0.3-3.5 1.4-4.2 2.8q-0.1 0.3-0.2 0.7 0 0.1-0.1 0.2-0.2 0-0.3-0.1c-0.7-0.5-1.8-0.8-3-0.8-1.8 0-3.6 0.6-4.7 1.7-1.1 1.1-1.7 2.3-2.1 3.7 0 0.1-0.2 0.2-0.3 0.2-0.6-0.1-1.3-0.2-1.9-0.1-1.9 0.1-4 1.2-5 2.6-1.3 1.7-1.5 3.6-0.8 5.4q0.3 0.7 0.7 1.2c0 0.1 0 0.3-0.1 0.4-1.7 1.1-3 2.7-3.5 4.2-0.6 2-0.5 4.7 1.9 6 1.5 0.7 3.5 0.7 5.6 0q0.1 0 0.2 0 0.1 0.1 0.1 0.2c0.2 0.9 0.8 1.7 1.5 2.2q1.6 1.1 3.8 1.1c2 0 4.2-0.7 6.3-1.9q0.1-0.1 0.2-0.1 0.1 0.1 0.2 0.2 0.4 1.1 1.4 2.1 1.1 1 3.1 1c1.4 0 3-0.5 4.3-0.8h0.1q1.1-0.4 2.1-0.7 0.1-0.1 0.2 0 0.1 0 0.1 0.2 0.3 1.1 1 1.9c0.8 0.9 2 1.4 3.4 1.4 0.7 0 1.4-0.1 1.9-0.4q0.1 0 0.3 0 0.1 0.1 0.1 0.2c0.4 1.8 2 3.3 4.1 3.9 1.9 0.5 4.3 0.3 6.7-0.6q0.1-0.1 0.2 0 0.1 0.1 0.1 0.2-0.2 1.1 0.1 2.2 0.3 1.3 1.5 1.9 0.1 0.1 0.1 0.2 0 0.1-0.1 0.2-0.9 1.1-1.5 2.2c-0.8 1.6-0.6 3.5 0.3 5 0.7 1 1.8 1.4 3.5 1.1q0.1 0 0.2 0.1c0.5 0.8 1.5 1.5 2.7 1.9q0.6 0.2 1.3 0.2 0 0 0 0z"/><path class="j" d="m349.4 101.6q-1-0.6-0.9-2-0.1-3.7 4.1-7.1 3.7-2.8 7.6-1.3c5 2-0.1 12.1-9.9 10.9q0 0-0.9-0.5z"/><path class="l" d="m349.4 101.6q-1-0.6-0.9-2-0.1-3.7 4.1-7.1 3.7-2.8 7.6-1.3c5 2-0.1 12.1-9.9 10.9q0 0-0.9-0.5z"/><path class="a" d="m351.9 102.5q-0.7 0-1.6-0.1c-0.1 0-0.2-0.2-0.2-0.3 0-0.1 0.1-0.2 0.3-0.2 6.4 0.8 10.6-3.5 11.4-6.6 0.4-1.8-0.2-3.3-1.6-3.9-3.8-1.4-7.4 1.2-7.4 1.3-0.1 0-0.3 0-0.4-0.1-0.1-0.1 0-0.3 0.1-0.3 0.1-0.2 3.8-2.9 7.8-1.3 1.8 0.7 2.5 2.3 2 4.4-0.5 1.9-2 3.8-3.9 5.1-1.4 1-3.6 2-6.5 2z"/><path class="a" d="m351.9 98.3c-0.1-0.1-0.1-0.2-0.1-0.3 0.1-0.1 1.7-3 4.6-3q1.5 0 2.2 0.8c0.5 0.7 0.3 1.6 0.3 1.6 0 0.2-0.1 0.2-0.3 0.2-0.1 0-0.2-0.2-0.2-0.3 0 0 0.2-0.7-0.2-1.2q-0.5-0.6-1.8-0.6c-2.6 0-4.1 2.7-4.1 2.7-0.1 0.2-0.3 0.2-0.4 0.1q0 0 0 0z"/><path class="a" d="m354.3 98.2c-0.3-0.2-0.5-0.5-0.5-0.8q-0.2-0.9 0.7-1.9c0.1-0.1 0.2-0.1 0.3 0 0.1 0.1 0.1 0.2 0 0.3q-0.7 0.9-0.6 1.5c0.2 0.6 0.9 0.9 0.9 0.9 0.1 0.1 0.2 0.2 0.2 0.3-0.1 0.1-0.2 0.2-0.4 0.2 0 0-0.3-0.2-0.6-0.5z"/><ellipse  cx="312.9" cy="86.6" rx="1.5" ry="2.2"/><ellipse  cx="333.2" cy="89.6" rx="1.5" ry="2.2"/><path class="m" d="m334.2 103.1q-1.2 2.8-6.4 3.3-5.2 0.5-8-3.4 4.9 3.9 14.4 0.1z"/><path fill-rule="evenodd" class="a" d="m326.8 106.7c-4.6 0-7.1-3.4-7.2-3.5-0.1-0.1-0.1-0.3 0-0.3 0.1-0.1 0.3-0.1 0.4-0.1 0 0.1 2.2 1.7 6.3 1.7q0 0 0 0c2.5 0 5.1-0.5 7.8-1.6q0.2-0.1 0.3 0.1 0.1 0.1 0 0.2c0 0.1-1.3 2.9-6.6 3.5q-0.5 0-1 0zm-5.7-2.7c1.2 1 3.1 2.2 5.7 2.2q0.5 0 1 0c3.4-0.4 5-1.7 5.7-2.6q-3.8 1.4-7.2 1.4 0 0 0 0c-2.3 0-4.1-0.5-5.2-1z"/><path fill-rule="evenodd" class="a" d="m308.2 98.6c-5.6 0-10.1-4.7-10.1-10.4 0-5.8 4.5-10.5 10.1-10.5 5.5 0 10 4.7 10 10.5 0 5.7-4.5 10.4-10 10.4zm0-19.9c-5 0-9.1 4.2-9.1 9.5 0 5.2 4.1 9.4 9.1 9.4 4.9 0 9-4.2 9-9.4 0-5.3-4.1-9.5-9-9.5z"/><path fill-rule="evenodd" class="a" d="m331.4 100.6c-5.5 0-10.1-4.7-10.1-10.5 0-5.7 4.6-10.4 10.1-10.4 5.5 0 10 4.7 10 10.4 0 5.8-4.5 10.5-10 10.5zm0-19.9c-5 0-9.1 4.2-9.1 9.4 0 5.2 4.1 9.5 9.1 9.5 5 0 9-4.3 9-9.5 0-5.2-4-9.4-9-9.4z"/><path class="a" d="m317.7 88.8q0 0-0.1 0c-0.3-0.1-0.4-0.3-0.4-0.6 0-0.1 0.4-1.7 1.7-2.2q1.5-0.4 3.4 1.2c0.2 0.1 0.2 0.5 0 0.7-0.1 0.2-0.4 0.2-0.7 0-0.9-0.8-1.8-1.1-2.3-0.9-0.8 0.3-1.1 1.4-1.1 1.4-0.1 0.2-0.3 0.4-0.5 0.4z"/><path class="a" d="m359.4 91.9q0 0 0 0l-18.2-0.5c-0.2 0-0.4-0.2-0.4-0.5 0-0.3 0.2-0.5 0.5-0.5l18.1 0.5c0.3 0 0.5 0.2 0.5 0.5 0 0.3-0.3 0.5-0.5 0.5z"/><path class="a" d="m306.4 89.1q0 0 0 0h-7.6c-0.3 0-0.5-0.3-0.5-0.5 0-0.3 0.2-0.5 0.5-0.5q0 0 0 0h7.6c0.3 0 0.5 0.3 0.5 0.5 0 0.3-0.2 0.5-0.5 0.5z"/><path class="j" d="m291.6 90.1c-0.3-0.3-0.4-0.7-0.6-1q-0.3-0.5-0.6-1c-0.3-0.5-0.5-0.9-0.7-1.4-0.2-0.3-0.4-0.9-0.2-1.2 0.5-0.5 1.4 0.5 1.7 0.8 0.8 0.7 1.6 2 2.3 3-0.7-1.9-1.2-4.2 0-4.1 0.9 0.1 1.4 1.3 1.8 2q0.3 0.7 0.6 1.4 0 0.1 0 0.1c0.5 1.1 0.8 2.2 1.2 3.3-0.1-0.2 0.5-0.8 0.6-1q0.4-0.4 0.8-0.8c0.4-0.3 1.1-0.6 1.4 0.1 0.4 0.6 0.2 1.7-0.1 2.3-0.7 1.5-1.7 4.4-3.1 5.4-3.4 2.4-7-1.6-9-5-0.4-0.7-2.4-2.2-2.2-3.1 0.4-1.2 2.1 0.2 2.6 0.5 0.6 0.3 1.1 0.7 1.7 1q0.1 0.1 0.2 0.1c-0.8-0.8-3.3-4.3-2.9-4.8 0.9-0.8 3.2 1.9 4.5 3.4z"/><path fill-rule="evenodd" class="a" d="m294.5 99c-3.2 0-6-4.1-7-5.8-0.1-0.2-0.4-0.6-0.8-0.9-0.7-0.8-1.6-1.7-1.4-2.5 0.1-0.4 0.4-0.6 0.8-0.6 0.7 0 1.5 0.5 2 0.8q0.1 0.1 0.2 0.1 0.3 0.2 0.6 0.5c-1-1.4-2.5-3.5-1.9-4.1q0.2-0.2 0.5-0.2c0.7 0 1.6 0.7 2.6 1.7q-0.4-0.6-0.7-1.2c-0.1-0.5-0.4-1.1-0.1-1.4q0.3-0.3 0.6-0.3c0.5 0 1 0.5 1.4 1l0.1 0.1c0.5 0.4 0.9 1 1.4 1.6-0.3-1-0.4-2 0-2.5q0.2-0.4 0.7-0.3c1 0.1 1.5 1.1 1.9 1.9l0.1 0.2q0.3 0.7 0.6 1.4 0 0.1 0.1 0.1c0.3 0.9 0.6 1.7 0.9 2.7q0.2-0.1 0.4-0.4 0.4-0.5 0.9-0.9c0.2-0.1 0.6-0.4 0.9-0.4 0.3 0 0.6 0.1 0.8 0.5 0.5 0.7 0.2 2-0.1 2.6q-0.2 0.4-0.4 1c-0.7 1.5-1.6 3.6-2.8 4.5q-1.1 0.8-2.3 0.8zm-8.4-9.3c-0.2 0-0.3 0-0.3 0.2-0.2 0.5 0.7 1.4 1.3 2.1 0.3 0.3 0.7 0.6 0.8 0.9 1 1.7 3.7 5.6 6.6 5.6q1.1 0 2-0.7c1.1-0.8 2-2.8 2.6-4.3q0.3-0.6 0.5-1c0.2-0.5 0.4-1.6 0.1-2.1-0.1-0.2-0.3-0.3-0.4-0.3-0.1 0-0.4 0.2-0.6 0.3q-0.4 0.3-0.8 0.8l-0.1 0.1c-0.3 0.4-0.5 0.6-0.5 0.7 0 0.1-0.1 0.2-0.2 0.2-0.1 0.1-0.2 0-0.3-0.2-0.3-1.2-0.7-2.2-1.1-3.2q0 0-0.1-0.1-0.2-0.8-0.6-1.4l-0.1-0.2c-0.3-0.7-0.7-1.5-1.4-1.6q-0.2-0.1-0.3 0.1c-0.3 0.4-0.1 1.8 0.5 3.6 0 0.1 0 0.2-0.1 0.3-0.1 0.1-0.3 0-0.4-0.1-0.5-0.9-1.4-2.2-2.1-2.9l-0.1-0.1c-0.3-0.3-1-1-1.3-0.7-0.1 0.1 0.1 0.6 0.2 0.8 0.2 0.5 0.4 1 0.7 1.5q0.3 0.5 0.6 1 0.1 0.2 0.2 0.3c0.1 0.2 0.2 0.5 0.3 0.6 0.1 0.1 0.1 0.3 0 0.4-0.1 0.1-0.2 0-0.3-0.1-0.8-0.9-2.9-3.4-3.9-3.4q-0.1 0-0.2 0.1c-0.1 0.5 1.9 3.4 2.9 4.5 0.1 0.1 0.1 0.2 0 0.3-0.1 0.1-0.2 0.1-0.3 0.1l-0.3-0.2q-0.5-0.2-0.9-0.6-0.4-0.2-0.7-0.4-0.1-0.1-0.2-0.2c-0.4-0.2-1.2-0.7-1.7-0.7z"/><path class="a" d="m78.6 123.3q-2.1 0-3.7-0.4c-7.3-1.8-7.4-8.9-7.4-8.9 0-0.3 0.2-0.5 0.5-0.5 0.3 0 0.5 0.2 0.5 0.5 0 0.2 0.1 6.3 6.6 7.9 6.1 1.5 18.5-1.5 26.6-8.3 0.2-0.1 0.5-0.1 0.7 0.1 0.1 0.2 0.1 0.5-0.1 0.7-6.8 5.8-16.9 8.9-23.7 8.9z"/><path class="j" d="m111.5 111.9c0 0.8-4.4 2.1-5.6 2.3q0.2 0 0.3 0c0.7 0.2 1.4 0.2 2 0.2 0.6 0.1 3 0.2 2.5 1.4-0.4 1.1-2.6 0.7-3.5 0.7-2.7 0.1-6.4 2.6-8.9 0.4-0.6-0.6-1.1-1.5-1.3-2.3-0.5-1.4-0.3-3 0-4.5 0.2-1.1 0.5-3.5 1.7-4 0.7-0.3 1 0.4 1.2 1q0.1 0.6 0.1 1.2c0 0.2 0.1 1.2-0.1 1.3 1-0.7 2-1.4 3.1-2q0-0.1 0.1-0.1 0.7-0.5 1.4-0.8c0.8-0.4 2-1.1 2.8-0.5 1 0.6-0.9 2.4-2.7 3.6 1.2-0.5 2.7-1 3.8-1.1 0.5-0.1 1.9-0.3 1.9 0.5 0 0.4-0.6 0.7-0.8 0.9-0.5 0.3-1.1 0.5-1.6 0.8q-0.6 0.2-1.2 0.5c-0.3 0.1-0.7 0.3-1.1 0.4 2-0.4 5.7-1.2 5.9 0.1z"/><path fill-rule="evenodd" class="a" d="m98 116.9c-0.5-0.5-1-1.4-1.3-2.2-0.5-1.6-0.2-3.4 0.1-4.7q0-0.2 0.1-0.5c0.2-1.2 0.6-3.1 1.7-3.6 0.4-0.2 0.8-0.1 1 0.2 0.3 0.2 0.4 0.6 0.5 0.9q0.1 0.6 0.1 1.3v0.2q0 0.3 0 0.6c0.9-0.7 1.8-1.3 2.7-1.7q0-0.1 0.1-0.1 0.7-0.5 1.4-0.8l0.3-0.2c0.8-0.3 1.9-0.9 2.7-0.3q0.5 0.3 0.4 0.8c-0.1 0.7-1 1.6-1.8 2.2 0.8-0.2 1.7-0.4 2.3-0.5h0.2c0.7-0.1 1.5-0.2 1.8 0.2q0.2 0.2 0.2 0.5c0.1 0.5-0.5 0.9-0.9 1.1-0.5 0.3-1.1 0.6-1.6 0.8q0 0-0.1 0c1.7-0.2 3-0.2 3.6 0.3q0.2 0.2 0.2 0.5c0.1 0.8-2.8 1.8-4.5 2.2q0.1 0 0.2 0 0.4 0.1 0.9 0.1 0.1 0 0.2 0c0.8 0.1 1.8 0.2 2.2 0.7 0.2 0.2 0.4 0.5 0.2 1-0.4 1-2 0.9-3.1 0.9q-0.3 0-0.6 0c-0.9 0-1.8 0.3-2.9 0.6-2.2 0.6-4.4 1.3-6.1-0.3q-0.1-0.1-0.2-0.2zm1.3-10.5q-0.2-0.2-0.5-0.1c-0.9 0.4-1.2 2.2-1.5 3.3q0 0.3-0.1 0.5c-0.2 1.3-0.5 2.9 0 4.5 0.2 0.8 0.7 1.6 1.3 2.1 1.5 1.4 3.6 0.8 5.7 0.2 1-0.3 2.1-0.6 3-0.6q0.3 0 0.6 0c0.9 0.1 2.4 0.1 2.7-0.6 0.1-0.2 0-0.4-0.1-0.5-0.4-0.3-1.4-0.4-1.9-0.5q-0.2 0-0.3 0-0.4-0.1-0.8-0.1-0.6 0-1.3-0.1l-0.2-0.1c-0.1 0-0.2-0.1-0.2-0.2 0-0.1 0.1-0.2 0.2-0.3 1.5-0.2 5.2-1.5 5.3-2q0-0.1-0.1-0.2c-0.7-0.7-4.1 0.1-5.4 0.3-0.1 0.1-0.3 0-0.3-0.2 0-0.1 0.1-0.2 0.2-0.2 0.2-0.1 0.4-0.2 0.7-0.3q0.1-0.1 0.3-0.2 0.6-0.2 1.2-0.4c0.5-0.3 1-0.5 1.5-0.8 0.3-0.1 0.8-0.4 0.8-0.7 0-0.5-1.1-0.3-1.6-0.3h-0.1c-1 0.2-2.4 0.6-3.7 1.1-0.1 0-0.2 0-0.3-0.1 0-0.1 0-0.3 0.1-0.3 1.7-1.2 2.8-2.3 2.8-2.9q0.1-0.2-0.1-0.3c-0.7-0.4-1.6 0-2.3 0.4l-0.3 0.1q-0.6 0.3-1.4 0.8-0.1 0-0.1 0.1c-1 0.5-2 1.2-3.1 2-0.1 0.1-0.2 0.1-0.3 0-0.1-0.1-0.1-0.3 0-0.4 0 0 0.1-0.2 0.1-0.9v-0.2q-0.1-0.6-0.2-1.2-0.1-0.5-0.3-0.7z"/><circle class="n" cx="191.7" cy="107.7" r="106.5"/><path fill-rule="evenodd" class="o" d="m191.6 214.7c-58.9 0-106.9-48-106.9-107 0-59 48-107 106.9-107 59 0 107 48 107 107 0 59-48 107-107 107zm0-212.9c-58.4 0-105.9 47.5-105.9 105.9 0 58.4 47.5 106 105.9 106 58.5 0 106-47.6 106-106 0-58.4-47.5-105.9-106-105.9z"/><g style="opacity:.6;mix-blend-mode:multiply"><circle class="p" cx="191.6" cy="108.7" r="100.1"/></g><g style="opacity:.6;mix-blend-mode:multiply"><path class="p" d="m288.1 108c0 53.3-43.2 96.5-96.5 96.5-53.2 0-96.4-43.2-96.4-96.5 0-53.3 43.2-96.5 96.4-96.5 53.3 0 96.5 45.7 96.5 96.5z"/></g><circle class="q" cx="191.6" cy="107.7" r="93.4"/><path fill-rule="evenodd" class="o" d="m191.6 201.6c-51.7 0-93.9-42.1-93.9-93.9 0-51.8 42.2-93.9 93.9-93.9 51.8 0 94 42.1 94 93.9 0 51.8-42.2 93.9-94 93.9zm0-186.7c-51.2 0-92.8 41.6-92.8 92.8 0 51.2 41.6 92.9 92.8 92.9 51.3 0 92.9-41.7 92.9-92.9 0-51.2-41.6-92.8-92.9-92.8z"/><circle class="r" cx="191.7" cy="106.8" r="90.5"/><path class="s" d="m190.7 21.2h1.9v13.2h-1.9z"/><path class="s" d="m190.7 182.2h1.9v12h-1.9z"/><path  d="m182.7 24.6l0.4-0.1 0.7 6.8h-0.4z"/><path  d="m199.5 184.2l0.4-0.1 0.7 6.8h-0.4z"/><path  d="m174 26l0.4-0.1 1.4 6.6-0.4 0.1z"/><path  d="m207.4 182.9l0.5-0.1 1.4 6.7-0.4 0.1z"/><path  d="m165.5 28.3l0.4-0.2 2.1 6.5-0.4 0.1z"/><path  d="m215.2 180.9l0.5-0.2 2.1 6.5-0.4 0.1z"/><path  d="m157.3 31.4l0.4-0.2 2.8 6.2-0.4 0.2z"/><path  d="m222.8 178l0.4-0.2 2.8 6.2-0.4 0.2z"/><path  d="m142.2 40.2l0.3-0.3 4 5.5-0.4 0.3z"/><path  d="m236.8 170l0.3-0.2 4 5.4-0.3 0.3z"/><path  d="m135.3 45.7l0.4-0.3 4.5 5.1-0.3 0.3z"/><path  d="m243.1 165l0.3-0.3 4.6 5-0.4 0.3z"/><path  d="m129.1 52l0.4-0.4 5 4.5-0.3 0.4z"/><path  d="m248.8 159.3l0.3-0.3 5 4.5-0.3 0.4z"/><path  d="m123.6 58.8l0.3-0.4 5.5 4-0.3 0.3z"/><path  d="m253.9 153.1l0.2-0.4 5.6 4-0.3 0.4z"/><path  d="m118.9 66.1l0.2-0.4 5.9 3.4-0.2 0.4z"/><path  d="m258.3 146.3l0.2-0.4 5.9 3.4-0.2 0.4z"/><path  d="m114.9 73.9l0.2-0.4 6.2 2.8-0.2 0.4z"/><path  d="m262 139.2l0.2-0.4 6.2 2.7-0.2 0.4z"/><path  d="m111.8 82.1l0.1-0.4 6.5 2.1-0.1 0.4z"/><path  d="m264.9 131.7l0.1-0.4 6.5 2-0.1 0.5z"/><path  d="m109.5 90.6l0.1-0.5 6.7 1.4-0.1 0.5z"/><path  d="m267 123.9l0.1-0.4 6.7 1.4-0.1 0.4z"/><path  d="m108.2 99.2v-0.4l6.8 0.7v0.4z"/><path  d="m268.3 116v-0.5l6.8 0.7v0.5z"/><path  d="m108.2 116.7v-0.5l6.8-0.7v0.5z"/><path  d="m268.3 99.9v-0.4l6.8-0.7v0.4z"/><path  d="m109.6 125.3l-0.1-0.4 6.7-1.4 0.1 0.4z"/><path  d="m267.1 92l-0.1-0.5 6.7-1.4 0.1 0.5z"/><path  d="m111.9 133.8l-0.1-0.5 6.5-2 0.1 0.4z"/><path  d="m265 84.2l-0.1-0.4 6.5-2.1 0.1 0.4z"/><path  d="m115.1 141.9l-0.2-0.4 6.2-2.7 0.2 0.4z"/><path  d="m262.2 76.7l-0.2-0.4 6.2-2.8 0.2 0.4z"/><path  d="m123.9 157.1l-0.3-0.4 5.5-4 0.3 0.4z"/><path  d="m254.1 62.7l-0.2-0.3 5.5-4 0.3 0.4z"/><path  d="m129.5 163.9l-0.4-0.4 5.1-4.5 0.3 0.3z"/><path  d="m249.1 56.5l-0.3-0.4 5-4.5 0.3 0.4z"/><path  d="m135.7 170l-0.4-0.3 4.6-5 0.3 0.3z"/><path  d="m243.4 50.8l-0.3-0.3 4.5-5.1 0.4 0.3z"/><path  d="m142.5 175.5l-0.3-0.3 3.9-5.4 0.4 0.2z"/><path  d="m237.1 45.7l-0.3-0.3 4-5.5 0.3 0.3z"/><path  d="m157.7 184.2l-0.4-0.2 2.8-6.2 0.4 0.2z"/><path  d="m223.2 37.6l-0.4-0.2 2.8-6.2 0.4 0.2z"/><path  d="m165.9 187.3l-0.4-0.1 2.1-6.5 0.4 0.2z"/><path  d="m215.7 34.7l-0.5-0.1 2.2-6.5 0.4 0.2z"/><path  d="m174.4 189.6l-0.4-0.1 1.4-6.7 0.4 0.1z"/><path  d="m207.9 32.6l-0.5-0.1 1.5-6.6 0.4 0.1z"/><path  d="m183.1 190.9h-0.4l0.7-6.8 0.4 0.1z"/><path  d="m199.9 31.3h-0.4l0.7-6.8 0.4 0.1z"/><path class="s" d="m234.2 183.1l-6.7-11.4 1.7-1 6.7 11.4z"/><path class="s" d="m127.5 71.9l-11.5-6.6 0.9-1.7 11.6 6.6z"/><path class="s" d="m154.1 44.8l-6.7-11.5 1.7-1 6.7 11.5z"/><path class="s" d="m254.7 70.3l11.6-6.7 1 1.7-11.6 6.7z"/><path class="s" d="m227.4 43.8l6.7-11.4 1.8 1-6.7 11.4z"/><path class="s" d="m128.7 145.1l-11.6 6.6-1-1.7 11.5-6.7z"/><path class="s" d="m156 171.5l-6.7 11.5-1.8-1 6.7-11.5z"/><path class="s" d="m255.9 143.3l11.6 6.7-1 1.7-11.6-6.7z"/><path class="s" d="m104.8 108.7v-2h13.4v2z"/><path class="s" d="m266.4 108.7v-2h12.1v2z"/><path  d="m183.7 37.5q0.6 0 1.1-0.3 0.5-0.2 0.5-0.9 0-0.3 0.3-0.3h0.4q0.2 0 0.2 0.3v15.1q0 0.2-0.2 0.2h-0.4q-0.3 0-0.3-0.2v-13.1h-1.6q-0.2 0-0.3-0.3v-0.3q0.1-0.2 0.3-0.2z"/><path  d="m188.9 51.4q0-1.3 0.4-2.3 0.5-0.9 1.1-1.7 0.7-0.7 1.5-1.3 0.8-0.5 1.6-1.1 0.8-0.4 1.4-0.9 0.7-0.5 1.3-1 0.5-0.6 0.9-1.2 0.3-0.7 0.3-1.5v-0.4q0-0.6-0.3-1.2-0.3-0.6-0.9-1-0.5-0.5-1.1-0.7-0.7-0.3-1.4-0.3-1 0-2 0.6-0.9 0.5-1.3 1.4-0.1 0.2-0.3 0.1l-0.4-0.3q-0.2-0.1-0.1-0.3 0.2-0.5 0.7-1 0.4-0.4 1-0.7 0.5-0.3 1.1-0.5 0.7-0.2 1.3-0.2 0.9 0 1.7 0.4 0.8 0.3 1.5 0.8 0.6 0.6 1 1.3 0.4 0.8 0.4 1.6v0.4q0 1-0.4 1.8-0.3 0.8-0.9 1.4-0.6 0.6-1.4 1.2-0.8 0.5-1.6 1-0.7 0.5-1.5 0.9-0.7 0.5-1.2 1.1-0.6 0.6-1 1.3-0.4 0.7-0.4 1.6h8.4q0.2 0 0.2 0.2v0.5q0 0.2-0.2 0.2h-9.2q-0.2 0-0.2-0.2z"/><path  d="m221.6 46.5q0.6 0 1.1-0.3 0.5-0.2 0.5-0.9 0-0.2 0.3-0.2h0.4q0.2 0 0.2 0.2v15.1q0 0.2-0.2 0.2h-0.4q-0.3 0-0.3-0.2v-13.1h-1.6q-0.3 0-0.3-0.2v-0.4q0-0.2 0.3-0.2z"/><path  d="m241 81.8q0-1.3 0.5-2.2 0.4-1 1.1-1.8 0.6-0.7 1.4-1.3 0.8-0.5 1.7-1 0.7-0.5 1.4-1 0.7-0.5 1.2-1 0.6-0.6 0.9-1.2 0.3-0.7 0.3-1.5v-0.4q0-0.6-0.3-1.2-0.3-0.6-0.8-1-0.5-0.5-1.2-0.7-0.7-0.3-1.3-0.3-1.1 0-2 0.6-1 0.5-1.4 1.4-0.1 0.2-0.3 0.1l-0.4-0.3q-0.2-0.1-0.1-0.3 0.3-0.5 0.7-1 0.4-0.4 1-0.7 0.6-0.3 1.2-0.5 0.6-0.2 1.3-0.2 0.8 0 1.6 0.4 0.9 0.3 1.5 0.8 0.6 0.6 1 1.3 0.4 0.8 0.4 1.6v0.4q0 1-0.4 1.8-0.3 0.8-0.9 1.4-0.6 0.7-1.4 1.2-0.7 0.5-1.6 1-0.7 0.5-1.4 0.9-0.7 0.5-1.3 1.1-0.6 0.6-0.9 1.3-0.4 0.7-0.5 1.6h8.4q0.2 0 0.2 0.2v0.5q0 0.2-0.2 0.2h-9.2q-0.2 0-0.2-0.2z"/><path  d="m257.5 105.4q-0.3 0-0.3-0.2v-0.5q0-0.2 0.3-0.2 0.7 0 1.5-0.1 0.8-0.2 1.5-0.5 0.6-0.3 1-0.9 0.4-0.5 0.4-1.4 0-0.7-0.2-1.2-0.3-0.5-0.8-0.9-0.4-0.4-1.1-0.6-0.6-0.3-1.3-0.3-1.3 0-2.2 0.6-0.8 0.5-1.3 1.4-0.1 0.2-0.3 0.1l-0.4-0.3q-0.1-0.1 0-0.3 0.2-0.5 0.7-1 0.4-0.4 1-0.7 0.5-0.3 1.2-0.5 0.6-0.2 1.3-0.2 0.8 0 1.6 0.3 0.8 0.3 1.4 0.7 0.6 0.5 0.9 1.2 0.4 0.8 0.4 1.7 0 0.7-0.3 1.3-0.2 0.6-0.6 1-0.5 0.4-1 0.7-0.5 0.3-1 0.4 0.6 0.3 1.2 0.7 0.5 0.4 0.9 0.9 0.4 0.6 0.6 1.2 0.2 0.6 0.2 1.2 0 1.1-0.4 2-0.4 0.8-1.1 1.4-0.6 0.6-1.5 0.8-0.8 0.3-1.7 0.3-0.7 0-1.3-0.2-0.7-0.2-1.3-0.6-0.5-0.4-1-0.9-0.4-0.5-0.5-1.1-0.1-0.2 0.1-0.3l0.5-0.1q0.2-0.1 0.2 0.1 0.4 1.1 1.3 1.7 0.9 0.5 2 0.5 0.7 0 1.4-0.2 0.7-0.2 1.2-0.7 0.6-0.4 0.9-1.1 0.3-0.7 0.3-1.6 0-0.6-0.3-1.2-0.2-0.6-0.8-1.2-0.5-0.5-1.3-0.8-0.8-0.4-1.9-0.4z"/><path fill-rule="evenodd" d="m248.6 144.8q-0.2 0-0.2-0.2v-3.1h-6.7q-0.2 0-0.2-0.2v-0.6q0-0.1 0-0.2l6.8-11q0.1-0.1 0.1-0.2 0.1 0 0.2 0h0.4q0.3 0 0.3 0.2v11h1.3q0.2 0 0.2 0.3v0.5q0 0.2-0.2 0.2h-1.3v3.1q0 0.2-0.3 0.2zm-0.2-4.3v-9.4q-0.7 1.2-1.5 2.4-0.7 1.1-1.4 2.3-0.7 1.1-1.4 2.3-0.8 1.2-1.5 2.4z"/><path  d="m219 159.7q0 0.2-0.3 0.2h-0.4q-0.2 0-0.2-0.2v-0.2l0.2-6.7q0-0.3 0.2-0.3h8.3q0.3 0 0.3 0.3v0.5q0 0.2-0.3 0.2h-7.6l-0.2 3.8q0.7-0.8 1.7-1.2 1-0.5 2-0.5 0.9 0 1.7 0.3 0.9 0.3 1.5 0.9 0.7 0.5 1.1 1.3 0.4 0.8 0.4 1.6v4.4q0 0.8-0.4 1.6-0.4 0.7-1 1.3-0.7 0.6-1.5 0.9-0.9 0.3-1.8 0.3-0.6 0-1.3-0.1-0.7-0.2-1.3-0.5-0.7-0.3-1.1-0.7-0.5-0.4-0.8-1-0.1-0.2 0.1-0.3l0.4-0.3q0.2-0.1 0.3 0.1 0.2 0.5 0.6 0.8 0.4 0.3 0.9 0.6 0.5 0.3 1 0.4 0.6 0.1 1.1 0.1 0.7 0 1.4-0.2 0.8-0.3 1.3-0.7 0.5-0.4 0.9-1 0.3-0.6 0.3-1.3v-4.4q0-0.7-0.3-1.3-0.4-0.5-0.9-1-0.5-0.4-1.2-0.7-0.7-0.2-1.4-0.2-0.6 0-1.3 0.2-0.6 0.2-1.1 0.7-0.6 0.3-0.9 0.9-0.4 0.5-0.4 1.1z"/><path fill-rule="evenodd" d="m194.6 164.5q-0.4-0.9-1.4-1.3-0.9-0.5-2.1-0.5-0.7 0-1.4 0.3-0.7 0.2-1.2 0.6-0.5 0.5-0.9 1.1-0.3 0.6-0.3 1.2v1.9q0.7-0.8 1.7-1.3 1-0.5 2.1-0.5 0.9 0 1.7 0.4 0.8 0.3 1.5 0.8 0.7 0.6 1 1.3 0.5 0.8 0.5 1.6v3.4q0 0.8-0.5 1.6-0.3 0.7-1 1.3-0.7 0.5-1.5 0.9-0.8 0.3-1.7 0.3-0.9 0-1.7-0.3-0.9-0.4-1.5-0.9-0.7-0.6-1.1-1.3-0.4-0.8-0.4-1.6v-7.6q0-0.8 0.4-1.6 0.4-0.7 1.1-1.3 0.6-0.5 1.5-0.9 0.8-0.3 1.7-0.3 1.4 0 2.5 0.6 1.2 0.6 1.8 1.7 0.1 0.2-0.1 0.3l-0.4 0.2q-0.2 0.1-0.3-0.1zm-3.5 2.4q-0.7 0-1.4 0.3-0.7 0.2-1.2 0.7-0.5 0.4-0.9 0.9-0.3 0.6-0.3 1.2v3.5q0 0.6 0.3 1.2 0.4 0.6 0.9 1 0.5 0.5 1.2 0.7 0.7 0.3 1.4 0.3 0.7 0 1.3-0.3 0.7-0.2 1.3-0.7 0.5-0.4 0.8-1 0.4-0.6 0.4-1.2v-3.4q0-0.6-0.4-1.2-0.3-0.6-0.8-1-0.6-0.5-1.3-0.7-0.6-0.3-1.3-0.3z"/><path  d="m160.3 167.9q0 0.2-0.2 0.2h-0.5q-0.2 0-0.2-0.2 0-1.8 0.3-3.7 0.2-1.9 0.8-3.8 0.6-1.9 1.6-3.7 0.9-1.7 2.4-3.2h-7.8q-0.2 0-0.2-0.2v-0.5q0-0.3 0.2-0.3h8.7q0.2 0 0.2 0.3v0.6q0 0 0 0.1-1.5 1.6-2.5 3.2-1 1.7-1.6 3.5-0.7 1.8-0.9 3.7-0.3 2-0.3 4z"/><path fill-rule="evenodd" d="m135 132.8q0-0.7 0.3-1.4 0.3-0.7 0.8-1.2 0.5-0.6 1.3-0.8 0.8-0.3 1.7-0.3 1 0 1.8 0.3 0.8 0.2 1.3 0.8 0.5 0.5 0.8 1.2 0.3 0.7 0.3 1.4 0 1.1-0.6 2-0.5 0.9-1.5 1.4 1.2 0.6 2 1.7 0.7 1 0.7 2.4 0 0.9-0.4 1.7-0.4 0.9-1 1.6-0.6 0.6-1.5 1-0.9 0.5-1.9 0.5-0.9 0-1.8-0.5-0.9-0.4-1.5-1-0.7-0.7-1-1.6-0.4-0.8-0.4-1.7 0-1.4 0.7-2.4 0.8-1.1 2-1.7-1-0.5-1.5-1.4-0.6-0.9-0.6-2zm0.2 7.5q0.1 0.7 0.4 1.4 0.3 0.7 0.8 1.3 0.5 0.5 1.3 0.8 0.7 0.4 1.4 0.4 0.8 0 1.5-0.4 0.7-0.3 1.3-0.8 0.5-0.6 0.8-1.3 0.3-0.7 0.3-1.4 0-0.8-0.3-1.4-0.3-0.7-0.8-1.2-0.6-0.5-1.3-0.8-0.7-0.3-1.5-0.3-0.8 0-1.5 0.3-0.7 0.3-1.2 0.8-0.5 0.5-0.8 1.2-0.4 0.7-0.4 1.4zm0.7-7.5q0 0.6 0.2 1.1 0.2 0.6 0.6 1 0.4 0.4 1 0.6 0.6 0.2 1.4 0.2 0.8 0 1.4-0.2 0.6-0.2 1-0.6 0.4-0.4 0.7-1 0.2-0.5 0.2-1.1 0-0.6-0.2-1.1-0.3-0.5-0.7-0.9-0.4-0.4-1-0.6-0.6-0.3-1.4-0.3-0.7 0-1.3 0.3-0.6 0.2-1 0.6-0.5 0.4-0.7 0.9-0.2 0.5-0.2 1.1z"/><path fill-rule="evenodd" d="m121.5 110.1q0.4 0.9 1.3 1.4 1 0.4 2.2 0.4 0.7 0 1.4-0.2 0.6-0.3 1.2-0.7 0.5-0.4 0.8-1 0.4-0.6 0.4-1.3v-1.9q-0.7 0.8-1.7 1.3-1 0.5-2.1 0.5-0.9 0-1.7-0.3-0.8-0.3-1.5-0.9-0.7-0.5-1.1-1.3-0.4-0.8-0.4-1.6v-3.3q0-0.9 0.4-1.6 0.4-0.8 1.1-1.3 0.7-0.6 1.5-0.9 0.8-0.3 1.7-0.3 0.9 0 1.7 0.3 0.8 0.3 1.5 0.9 0.7 0.5 1.1 1.3 0.4 0.7 0.4 1.6v7.5q0 0.9-0.4 1.6-0.4 0.8-1.1 1.3-0.7 0.6-1.5 0.9-0.8 0.3-1.7 0.3-1.4 0-2.6-0.5-1.1-0.6-1.7-1.7-0.1-0.2 0.1-0.3l0.4-0.3q0.2-0.1 0.3 0.1zm3.5-2.4q0.7 0 1.4-0.2 0.6-0.3 1.2-0.7 0.5-0.4 0.8-1 0.4-0.5 0.4-1.2v-3.4q0-0.7-0.4-1.3-0.3-0.6-0.8-1-0.6-0.4-1.2-0.7-0.7-0.3-1.4-0.3-0.7 0-1.4 0.3-0.7 0.3-1.2 0.7-0.5 0.4-0.9 1-0.3 0.6-0.3 1.3v3.3q0 0.7 0.3 1.3 0.4 0.5 0.9 1 0.5 0.4 1.2 0.7 0.7 0.2 1.4 0.2z"/><path  d="m131.9 67.9q0.7 0 1.2-0.3 0.5-0.2 0.5-0.9 0-0.3 0.2-0.3h0.4q0.3 0 0.3 0.3v15.1q0 0.2-0.3 0.2h-0.4q-0.2 0-0.2-0.2v-13.1h-1.7q-0.2 0-0.2-0.3v-0.3q0-0.2 0.2-0.2z"/><path fill-rule="evenodd" d="m141.7 82.2q-1.4 0-2.3-0.5-1-0.6-1.5-1.5-0.5-0.9-0.6-2-0.2-1.2-0.2-2.4v-3.1q0-1.3 0.2-2.4 0.1-1.2 0.6-2.1 0.5-0.9 1.5-1.4 0.9-0.6 2.3-0.6 1.5 0 2.4 0.6 1 0.5 1.5 1.4 0.4 0.9 0.6 2.1 0.2 1.1 0.2 2.4v3.1q0 1.2-0.2 2.4-0.2 1.1-0.6 2-0.5 0.9-1.5 1.5-0.9 0.5-2.4 0.5zm0-0.9q1.2 0 2-0.4 0.7-0.5 1.1-1.3 0.4-0.8 0.6-1.8 0.1-1 0.1-2v-3.1q0-1.1-0.1-2.1-0.2-1-0.6-1.8-0.4-0.8-1.1-1.2-0.8-0.5-2-0.5-1.2 0-1.9 0.5-0.7 0.4-1.1 1.2-0.4 0.8-0.6 1.8-0.1 1-0.1 2.1v3.1q0 1 0.1 2 0.2 1 0.6 1.8 0.4 0.8 1.1 1.3 0.7 0.4 1.9 0.4z"/><path  d="m157.1 46.5q0.7 0 1.2-0.3 0.5-0.2 0.5-0.9 0-0.2 0.2-0.2h0.5q0.2 0 0.2 0.2v15.1q0 0.2-0.2 0.2h-0.5q-0.2 0-0.2-0.2v-13.1h-1.7q-0.2 0-0.2-0.2v-0.4q0-0.2 0.2-0.2z"/><path  d="m162.2 46.5q0.7 0 1.2-0.3 0.5-0.2 0.5-0.9 0-0.2 0.2-0.2h0.5q0.2 0 0.2 0.2v15.1q0 0.2-0.2 0.2h-0.5q-0.2 0-0.2-0.2v-13.1h-1.7q-0.2 0-0.2-0.2v-0.4q0-0.2 0.2-0.2z"/><circle class="t" cx="191.6" cy="107.7" r="4.4"/><path class="u" d="m191.6 2.7q-80.1-1.4-101.2 80.8 17.8-73.4 101.2-80.8z"/><g style="opacity:.8;mix-blend-mode:screen"><path class="r" d="m296.2 114.2q-2.9 80.1-86.1 96.7 74.2-13.8 86.1-96.7z"/></g><path class="v" d="m236.2 111.9l-45.3-4.2v-0.7l0.1-2v-0.7l45.4-2.4 8.5 5.2z"/><path fill-rule="evenodd" class="w" d="m190.4 107.6v-3.3c0-0.3 0.3-0.5 0.5-0.5l45.5-2.4q0.2-0.1 0.3 0l8.5 5.2c0.3 0.2 0.3 0.8-0.1 0.9l-8.6 4.9q-0.2 0.1-0.3 0.1l-45.3-4.3c-0.3 0-0.5-0.3-0.5-0.6zm1.1-2.8l-0.1 2.4 44.7 4.2 7.7-4.3-7.5-4.7z"/><path class="x" d="m166.6 125.3l22.8-18.9 0.5 0.4 1.5 1.2 0.6 0.4-13.7 26.4-11.1 1.8z"/><path fill-rule="evenodd" class="y" d="m166.2 125q0 0 0-0.1l22.8-19c0.2-0.1 0.5-0.1 0.7 0l2.6 2.1c0.2 0.2 0.2 0.5 0.1 0.7l-13.6 26.3q-0.1 0.3-0.4 0.3l-11.1 1.8q-0.3 0.1-0.4-0.1-0.2-0.1-0.2-0.4l-0.7-11.2q0-0.3 0.2-0.4zm23.2-18l-22.3 18.6 0.6 10.4 10.3-1.7 13.3-25.7z"/><circle class="z" cx="191.7" cy="107.7" r="4.4"/><path fill-rule="evenodd" class="A" d="m191.6 112.7c-2.7 0-4.9-2.3-4.9-5 0-2.7 2.2-4.9 4.9-4.9 2.8 0 5 2.2 5 4.9 0 2.7-2.2 5-5 5zm0-8.8c-2.1 0-3.8 1.7-3.8 3.8 0 2.2 1.7 3.9 3.8 3.9 2.2 0 3.9-1.7 3.9-3.9 0-2.1-1.7-3.8-3.9-3.8z"/><path class="a" d="m30.7 205q-0.1 0-0.2 0c-0.3-0.1-0.4-0.5-0.3-0.7 0.1-0.2 0.9-1.2 5.5-6.9 5.4-6.7 14.3-17.8 14.7-19 0.6-1.5 2.5-14 3.5-20.4 0-0.3 0.3-0.4 0.5-0.4 0.3 0 0.5 0.3 0.4 0.6-0.1 0.7-2.7 18.5-3.4 20.5-0.5 1.3-7 9.5-14.9 19.3-2.7 3.3-5.2 6.4-5.4 6.7 0 0.2-0.2 0.3-0.4 0.3z"/><path class="j" d="m28.1 201.6q0 0 0.1 0c1.7-0.1 3.4 0.8 3.5 2.6 0.2 2.5-1.4 9.5-3.1 11.4-1.9 2-3.5 0.6-3.9-1.5-0.6-2.7-0.8-12.2 3.4-12.5z"/><path fill-rule="evenodd" class="a" d="m26.8 216.8c-1.1 0-2.1-1-2.4-2.6-0.4-2.3-0.6-8.8 1.4-11.6q0.9-1.1 2.3-1.3h0.1q0.1 0 0.3 0c1.6 0 3.3 0.9 3.5 2.9 0.1 2.6-1.5 9.6-3.3 11.5q-0.9 1.1-1.9 1.1zm1.7-15q-0.2 0-0.3 0h-0.1q-1.1 0.1-1.9 1.1c-2 2.7-1.7 9-1.3 11.2 0.2 1.1 0.9 2.2 1.9 2.2 0.5 0 1-0.3 1.6-0.9 1.6-1.8 3.2-8.7 3.1-11.2-0.2-1.6-1.7-2.4-3-2.4z"/><path class="B" d="m28.2 201.6q0.7-0.1 1.3 0.1c-1.1 2.6-1.3 6.1-0.2 8.2 0.5 0.7 1 0.7 1.5 0.4-0.6 2.2-1.4 4.4-2.2 5.3-1.9 2-3.5 0.6-3.9-1.5-0.6-2.7-0.8-12.2 3.4-12.5q0 0 0.1 0z"/><path fill-rule="evenodd" class="a" d="m26.8 216.8c-1.1 0-2.1-1-2.4-2.6-0.4-2.3-0.6-8.8 1.4-11.6q0.9-1.1 2.3-1.3h0.1q0.7 0 1.4 0.2 0.1 0 0.2 0.1 0 0.1 0 0.2c-1.2 2.7-1.3 6.1-0.2 8 0.3 0.5 0.6 0.6 1.1 0.3q0.1-0.1 0.2 0 0.2 0.1 0.1 0.3c-0.4 1.5-1.2 4.2-2.3 5.3q-0.9 1.1-1.9 1.1zm1.7-15q-0.2 0-0.3 0h-0.1q-1.1 0.1-1.9 1.1c-2 2.7-1.7 9-1.3 11.2 0.2 1.1 0.9 2.2 1.9 2.2 0.5 0 1-0.3 1.6-0.9 0.6-0.7 1.4-2.4 2-4.7-0.5 0.1-0.9-0.1-1.3-0.7-1.2-2.2-0.9-5.7 0.1-8.1q-0.4-0.1-0.7-0.1z"/><path class="C" d="m25.7 209.1c-0.1 2-0.4 5.5 1 7.5-1-0.1-1.8-1.1-2-2.5-0.6-2.7-0.8-12.1 3.3-12.5-1.6 2-2.1 5.1-2.3 7.5z"/><path fill-rule="evenodd" class="a" d="m26.7 216.8q0 0 0 0c-1.1 0-2-1.1-2.3-2.6-0.4-2.3-0.6-8.8 1.4-11.5q0.9-1.2 2.2-1.3 0.2-0.1 0.3 0.1 0 0.1-0.1 0.3c-1.6 2-2 5.2-2.2 7.4-0.2 1.8-0.4 5.3 0.9 7.2q0 0.1 0.1 0.2c0 0.1-0.2 0.2-0.3 0.2q0 0 0 0zm0.8-14.8q-0.7 0.3-1.3 1c-2 2.6-1.7 8.9-1.3 11.1 0.2 1 0.7 1.7 1.3 2.1-1.1-2.1-0.8-5.3-0.7-7.1 0.2-2.1 0.6-5 2-7.1z"/><path class="a" d="m62.4 210.3q0 0-0.1 0c-0.2-0.1-0.4-0.3-0.4-0.6 6.4-27.1 4-50.4 4-50.6 0-0.3 0.2-0.6 0.4-0.6 0.3 0 0.6 0.2 0.6 0.4 0 0.3 2.4 23.8-4 51 0 0.2-0.2 0.4-0.5 0.4z"/><path class="j" d="m59.4 212.7q0-0.1 0-0.1c-0.1-1.7 0.8-3.4 2.6-3.5 2.5-0.2 9.5 1.5 11.4 3.2 2 1.9 0.6 3.5-1.5 3.9-2.7 0.5-12.2 0.7-12.5-3.5z"/><path fill-rule="evenodd" class="a" d="m68.2 216.7c-2.6 0-8.8-0.4-9.1-4v-0.1c-0.1-1.8 0.9-3.6 2.9-3.8 2.6-0.1 9.6 1.5 11.5 3.3 1.2 1 1.2 1.9 1 2.5-0.2 0.8-1.2 1.6-2.5 1.8-0.8 0.1-2.1 0.3-3.8 0.3zm-8.6-4c0.3 3.2 6.7 3.5 8.6 3.5 1.6 0 3-0.1 3.7-0.3 1.1-0.2 2-0.8 2.2-1.5 0.1-0.6-0.2-1.3-0.9-1.9-1.8-1.7-8.7-3.3-11.2-3.2-1.7 0.1-2.5 1.7-2.4 3.3l-0.2 0.1z"/><path class="B" d="m59.4 212.6q-0.1-0.7 0.1-1.4c2.6 1.2 6.1 1.4 8.2 0.3 0.7-0.5 0.7-1 0.4-1.5 2.2 0.6 4.4 1.4 5.3 2.3 2 1.9 0.6 3.5-1.5 3.9-2.7 0.5-12.2 0.7-12.5-3.5q0-0.1 0-0.1z"/><path fill-rule="evenodd" class="a" d="m68.2 216.7c-2.6 0-8.8-0.4-9.1-4 0 0 0-0.1 0-0.1q0-0.7 0.2-1.4 0-0.1 0.1-0.2 0.1 0 0.2 0c1.4 0.6 3.1 1 4.7 1 1.3 0 2.4-0.3 3.2-0.8q0.5-0.2 0.5-0.5 0.1-0.2-0.1-0.5-0.1-0.2 0-0.3 0.1-0.2 0.3-0.1c2.5 0.7 4.5 1.5 5.3 2.3 1.2 1 1.2 1.9 1 2.5-0.2 0.8-1.2 1.6-2.5 1.8-0.8 0.1-2.1 0.3-3.8 0.3zm-8.6-4c0.3 3.2 6.7 3.5 8.6 3.5 1.6 0 3-0.1 3.7-0.3 1.1-0.2 2-0.8 2.2-1.5 0.1-0.6-0.2-1.3-0.9-1.9-0.7-0.7-2.4-1.5-4.7-2.1q0.1 0.2 0 0.4-0.1 0.5-0.7 0.9c-0.9 0.5-2.1 0.8-3.5 0.8-1.6 0-3.2-0.4-4.6-0.9q-0.1 0.5-0.1 1l-0.2 0.1z"/><path class="C" d="m66.9 215.1c2 0.1 5.5 0.4 7.5-0.9-0.1 1-1.2 1.7-2.5 2-2.7 0.5-12.1 0.7-12.5-3.5 2 1.7 5.1 2.2 7.5 2.4z"/><path fill-rule="evenodd" class="a" d="m68.2 216.7c-2.6 0-8.7-0.4-9.1-3.9q0-0.2 0.2-0.3 0.1-0.1 0.2 0c2.1 1.7 5.2 2.1 7.4 2.3 0.9 0.1 1.8 0.2 2.8 0.2 2 0 3.5-0.4 4.5-1q0.1-0.1 0.3-0.1 0.1 0.1 0.1 0.3c-0.1 1-1.1 1.9-2.6 2.2-0.8 0.1-2.1 0.3-3.8 0.3zm-8.4-3.4c1 2.7 6.6 2.9 8.4 2.9 1.6 0 3-0.1 3.7-0.3 1-0.2 1.7-0.6 2-1.2q-1.5 0.8-4.2 0.8c-1 0-1.9-0.1-2.8-0.2-2.1-0.2-5-0.6-7.1-2z"/><path class="D" d="m74.4 153.8q3.3 9.1 6.7 15.6-16.2 10.3-41.7 3.6l2.2-16.1z"/><path fill-rule="evenodd" class="a" d="m56.3 175.5c-5.6 0-11.3-0.7-17-2.2-0.1 0-0.2-0.2-0.2-0.3l2.2-16.1c0-0.1 0.1-0.2 0.3-0.2l32.7-3.2c0.1 0 0.2 0.1 0.3 0.2 0 0.1 3.4 9.2 6.7 15.6 0 0.1 0 0.3-0.1 0.3-0.1 0.1-9.5 5.9-24.9 5.9zm-16.6-2.6c5.6 1.4 11.2 2.1 16.6 2.1 14.1 0 23-4.9 24.4-5.7-3-5.9-6-13.9-6.5-15.2l-32.4 3.1z"/><path class="E" d="m75.6 166.8c0.7 1.4 1.2 2.9 1.9 4.4q-0.8 0.3-1.8 0.7c-0.2-1-2.4-7.7-2.9-10.1 1 1.6 1.9 3.3 2.8 5z"/><path fill-rule="evenodd" class="a" d="m75.7 172.1q0 0-0.1 0-0.1 0-0.1-0.1c-0.1-0.4-0.3-1.2-0.7-2.2-0.7-2.5-1.9-6.3-2.2-8-0.1-0.1 0-0.2 0.1-0.2 0.1-0.1 0.3 0 0.3 0.1 1.1 1.7 2 3.3 2.8 5q0.6 1.2 1.1 2.4 0.4 1 0.8 2 0.1 0.1 0 0.2 0 0.1-0.1 0.1-0.8 0.4-1.8 0.7 0 0-0.1 0zm-2.2-8.7c0.5 1.9 1.3 4.4 1.8 6.2 0.3 0.9 0.5 1.6 0.6 2q0.7-0.3 1.3-0.5-0.4-0.9-0.8-1.8c-0.3-0.8-0.7-1.6-1.1-2.4-0.5-1.2-1.1-2.3-1.8-3.5z"/><path class="E" d="m67.8 174.1c-0.1-0.9-0.7-7.2-0.9-9.3 1.2 2.9 2.4 5.8 3.3 8.8q-1.2 0.3-2.4 0.5z"/><path fill-rule="evenodd" class="a" d="m67.8 174.4q-0.1 0-0.2-0.1-0.1 0-0.1-0.1c0-0.7-0.3-3.4-0.5-5.9-0.2-1.4-0.3-2.7-0.4-3.5 0-0.1 0.1-0.2 0.2-0.2 0.1-0.1 0.2 0 0.3 0.1 1.5 3.3 2.5 6.1 3.3 8.8q0 0.1 0 0.2-0.1 0.1-0.2 0.2-1.1 0.2-2.4 0.5 0 0 0 0zm-0.5-8q0.1 0.8 0.2 1.8c0.2 2.2 0.4 4.7 0.5 5.6q1-0.2 1.9-0.4c-0.7-2.2-1.5-4.5-2.6-7z"/><path class="E" d="m59.7 175.2q-1.1 0-2.2 0.1 0.2-4.1 0.5-8.2c0.7 2.7 1.1 5.4 1.7 8.1z"/><path fill-rule="evenodd" class="a" d="m57.5 175.5q-0.1 0-0.2-0.1-0.1-0.1-0.1-0.2c0.2-2.5 0.3-5.3 0.6-8.1 0-0.1 0.1-0.2 0.2-0.2 0.1-0.1 0.2 0 0.3 0.1 0.3 1.6 0.6 3.1 0.9 4.6 0.2 1.2 0.5 2.4 0.7 3.5q0.1 0.1 0 0.2-0.1 0.1-0.2 0.1-1.1 0.1-2.2 0.1 0 0 0 0zm0.6-6.7q-0.2 3.2-0.3 6.2 0.8 0 1.6-0.1-0.4-1.6-0.7-3.2-0.2-1.5-0.6-2.9z"/><path class="E" d="m42.1 167.2q-0.2 2.9-0.6 5.8 0 0.3-0.1 0.5-0.7-0.1-1.5-0.3c0.8-2 1.5-4 2.2-6z"/><path fill-rule="evenodd" class="a" d="m41.4 173.8q0 0 0 0-0.8-0.2-1.5-0.4-0.1 0-0.2-0.1 0-0.1 0-0.2 0.4-1.1 0.8-2.1c0.4-1.3 0.9-2.6 1.4-3.9 0-0.1 0.2-0.2 0.3-0.2 0.1 0.1 0.2 0.2 0.2 0.3-0.2 2.1-0.4 4.1-0.6 5.8l-0.1 0.6q0 0.1-0.1 0.1-0.1 0.1-0.2 0.1zm-1.1-0.8q0.5 0.1 0.9 0.2l0.1-0.2q0.2-1.9 0.4-4-0.4 1.1-0.8 2.1-0.3 1-0.6 1.9z"/><path class="E" d="m49 166.4c0.2 2.8 0.1 5 0 8.4q-0.9-0.1-1.9-0.2c0.7-2.7 1.2-5.5 1.9-8.2z"/><path fill-rule="evenodd" class="a" d="m49 175.1q0 0 0 0-0.9-0.1-1.9-0.3-0.1 0-0.2-0.1 0 0 0-0.2 0.2-0.9 0.4-1.9c0.5-2.1 0.9-4.2 1.5-6.3 0-0.1 0.1-0.2 0.3-0.2 0.1 0 0.2 0.1 0.2 0.3 0.1 2 0.1 3.8 0 5.8q0 1.2 0 2.6 0 0.2-0.1 0.2-0.1 0.1-0.2 0.1zm-1.6-0.7q0.7 0.1 1.4 0.2 0-1.3 0-2.4c0-1.5 0.1-2.7 0-4.1q-0.5 2.3-1 4.6-0.2 0.8-0.4 1.7z"/><path class="F" d="m57.2 162.7c-1.6 0.3-4.6 0.3-5.5 2.2-1.4 3-1.1 6.7-1.4 10.1-3.4-0.4-7.1-1-10.9-2l2.2-16.1 32.8-3.1q0.4 1.2 1.1 3c-5.1 3.9-12 4.7-18.3 5.9z"/><path class="G" d="m57.7 108.9c1.3-0.5 2.7-0.5 4.1-0.5 3.9 0.1 11.7 2.9 14.1 3.9 0 4-1.7 8.1-4.1 11.6-2.4-0.8-4.8-1.7-7.1-2.9-2.8-1.5-5.4-3.3-7.8-5.4q-0.5-0.5-0.9-1.1c-1.1-2-0.8-4.7 1.7-5.6z"/><path fill-rule="evenodd" class="a" d="m71.8 124.2q0 0-0.1-0.1c-2.5-0.8-4.9-1.8-7.1-2.9-2.7-1.4-5.3-3.2-7.8-5.4q-0.6-0.5-1-1.2c-0.7-1.1-0.8-2.5-0.4-3.7 0.3-1.1 1.1-1.8 2.2-2.2 1-0.4 2-0.5 3.3-0.5q0.3 0 0.6 0h0.3c3.9 0 11.9 2.9 14.2 3.8q0.1 0.1 0.1 0.3c0 4.7-2.2 9-4.1 11.8q-0.1 0.1-0.2 0.1zm-10.9-15.5c-1.2 0-2.2 0.1-3.1 0.4-1 0.4-1.6 1-2 1.9-0.3 1.1-0.2 2.3 0.4 3.4q0.4 0.6 0.9 1c2.5 2.2 5.1 4 7.8 5.4 2 1 4.3 2 6.8 2.8 1.8-2.6 3.9-6.7 3.9-11.2-2.5-0.9-10.1-3.7-13.8-3.7h-0.3q-0.3 0-0.6 0z"/><path class="H" d="m57.7 108.9c1.3-0.5 2.6-0.5 3.9-0.5 3.1 1.9 5.8 4.7 7.3 7.9 1 2.1 2.3 4.7 3.1 7.4q-0.1 0.1-0.2 0.2c-2.4-0.8-4.8-1.7-7.1-2.9-2.8-1.5-5.4-3.3-7.8-5.4q-0.5-0.5-0.9-1.1c-1.1-2-0.8-4.7 1.7-5.6z"/><path class="d" d="m54.8 160.3c-4.6 0.1-9.1-0.2-13.6-1q-0.8-0.1-1.7-0.3-0.1-4-0.1-8c0-9.1-0.7-37 7.3-43.5 1.4-1.2 4.2-2.2 5.9-2.1 1.3 0.1 2.7 0.2 4 0.6 1.4 0.3 2.7 0.9 3.9 1.8 4.3 3.3 7.1 9.4 9.5 14.8 1.9 4.5 3.3 9.2 4.6 14.1 1.4 5.9 2.5 11.9 3.5 18-6.4 4.8-15.8 5.5-23.3 5.6z"/><path fill-rule="evenodd" class="a" d="m53.6 160.6c-4.3 0-8.5-0.3-12.5-1q-0.8-0.2-1.6-0.3c-0.2 0-0.2-0.1-0.3-0.2 0-2.7-0.1-5.4-0.1-8.1q0-1 0-2.3c0-10.5-0.1-35.3 7.4-41.4 1.6-1.2 4.4-2.2 6.1-2.1 1.1 0 2.6 0.2 4.1 0.6 1.5 0.4 2.8 1 3.9 1.8 4.4 3.3 7.3 9.4 9.6 14.9 1.8 4.3 3.3 8.9 4.6 14.1 1.4 5.6 2.5 11.5 3.5 18q0 0.2-0.1 0.3c-6.4 4.8-15.9 5.6-23.4 5.7q-0.6 0-1.2 0zm-13.9-1.8q0.8 0.2 1.5 0.3c4.3 0.7 8.9 1.1 13.6 1 7.4-0.1 16.7-0.8 23-5.5-1-6.5-2.1-12.3-3.5-17.9-1.3-5.2-2.8-9.8-4.6-14-2.3-5.4-5.1-11.5-9.4-14.7-1-0.8-2.3-1.4-3.7-1.8-1.5-0.3-2.9-0.5-4-0.5-1.6-0.1-4.3 0.8-5.8 2-7.3 5.9-7.2 30.5-7.2 41q0 1.3 0 2.3c0 2.6 0.1 5.3 0.1 7.8z"/><path class="I" d="m46.7 107.5c1.4-1.2 4.2-2.2 5.9-2.1 1.3 0.1 2.7 0.2 4 0.6q0.1 0 0.1 0 0 0.1 0 0.1 0.9 2.3 1.5 4.7-0.1 0.7-0.3 1.5c-0.9 3.1-3.6 3.8-5.3 6.3-3.4 4.8-2.6 13.1-2.6 18.7 0 3.7 0.2 7.5 0.3 11.3 0.1 2.5-0.2 5.9 1 8.3 0.7 1.3 1.9 2.5 3.3 3.4-4.5 0.1-9-0.2-13.4-1q-0.8-0.1-1.7-0.3-0.1-4-0.1-8c0-9.1-0.7-37 7.3-43.5z"/><path class="j" d="m51.8 110.4v-8.2c0-1.2 1.3-2.3 3-2.3 1.6 0 2.9 1.1 2.9 2.3v8.2c0 1.3-1.3 2.3-2.9 2.3-1.7 0-3-1-3-2.3z"/><path fill-rule="evenodd" class="a" d="m54.8 113c-1.8 0-3.2-1.2-3.2-2.6v-8.2c0-1.4 1.4-2.5 3.2-2.5 1.7 0 3.1 1.1 3.1 2.5v8.2c0 1.4-1.4 2.6-3.1 2.6zm0-12.8c-1.5 0-2.7 0.9-2.7 2v8.2c0 1.2 1.2 2.1 2.7 2.1 1.4 0 2.6-0.9 2.6-2.1v-8.2c0-1.1-1.2-2-2.6-2z"/><path class="J" d="m3.1 105c-1.2-0.7-3.3-2.3-2.5-3.7 0-0.1 0.2-0.1 0.3 0 8 3.4 6.7-10.9 5.7-14.6-1.7-6-4.1-14.3-4-20.6 0.4-13.3 19.3-23.4 28.2-13.1 2.5 2.9-2.3 4.8-2.3 8.4-0.1 4.9-0.9 9.6-1.1 14.5-0.2 4.5 0.3 9.1 1.3 13.5 0.7 2.7 1.4 5.3 2.3 7.8 1.2 4 0.3 9.8-3.9 11.8-0.2 0.1-0.5-0.1-0.6-0.3-0.5-0.5-0.5-0.5-0.5-1.2q0-0.7 0.1-1.4c-1.5 3.2-5.9 5.4-9.1 5-0.3 0-1.4-0.7-1-1 2.3-1.6 3.1-4.3 3.2-7-0.9 1.8-2.2 3.5-3.4 4.5-3.3 2.8-9.3 3.3-12.9 0.7-0.1-0.1-0.5-0.4-0.3-0.6 0.7-0.9 1.8-1.4 2.6-2.3-0.7 0.1-1.4 0-2.1-0.4z"/><path fill-rule="evenodd" class="a" d="m17.9 111.4q-0.5 0-1-0.1c-0.2 0-1.1-0.5-1.2-1q-0.1-0.2 0.2-0.4c2-1.4 2.7-3.7 3-5.6-0.8 1.3-1.9 2.6-2.9 3.5-1.9 1.5-4.6 2.4-7.4 2.4-2.2 0-4.3-0.6-5.8-1.7q-0.5-0.3-0.5-0.6 0-0.2 0.1-0.3c0.4-0.5 0.9-0.9 1.4-1.3q0.4-0.3 0.8-0.6-0.9 0-1.7-0.5c-1.6-1-3.3-2.6-2.5-4.1 0.1-0.2 0.3-0.2 0.6-0.1q1.2 0.5 2.1 0.5 1.5 0 2.4-1.2c2.4-3.1 1.6-10.9 0.8-13.5l-0.2-1c-1.6-5.8-3.9-13.7-3.7-19.7 0.2-9.9 10.4-17.6 18.9-17.6 3.9 0 7.2 1.5 9.6 4.3 1.6 1.9 0.6 3.3-0.5 4.9-0.8 1.1-1.7 2.3-1.7 3.7 0 2.7-0.3 5.3-0.6 7.9-0.2 2.1-0.4 4.4-0.5 6.6-0.2 4.3 0.3 8.9 1.4 13.4 0.7 3 1.5 5.8 2.2 7.9 1.4 4.2 0.2 10.1-4 12q-0.1 0.1-0.2 0.1c-0.3 0-0.6-0.4-0.7-0.4l-0.1-0.1c-0.4-0.5-0.4-0.6-0.4-1.3q0-0.2 0-0.4c-1.7 2.5-4.9 4.3-7.9 4.3zm-1.7-1.1c0.1 0.1 0.6 0.5 0.8 0.5q0.4 0.1 0.9 0.1c3.2 0 6.7-2.2 8-4.9 0-0.1 0.1-0.2 0.3-0.2 0.1 0.1 0.1 0.2 0.1 0.3 0 0.4 0 0.9 0 1.4 0 0.6 0 0.6 0.3 1l0.1 0.1c0.1 0.1 0.2 0.2 0.3 0.2 4-1.9 5-7.4 3.7-11.5-0.7-2.1-1.5-4.9-2.2-7.8-1.1-4.7-1.6-9.2-1.4-13.7 0.1-2.2 0.3-4.4 0.6-6.6 0.2-2.5 0.5-5.2 0.5-7.8 0.1-1.6 1-2.9 1.8-4 1.1-1.5 1.9-2.7 0.6-4.3-2.4-2.7-5.6-4.1-9.3-4.1-8.3 0-18.2 7.5-18.4 17.1-0.2 6 2 13.8 3.6 19.6l0.3 1c0.8 2.7 1.6 10.6-0.9 13.9q-1.1 1.4-2.8 1.4-1 0-2.3-0.5 0 0 0 0c-0.5 1.2 1.2 2.6 2.4 3.3 0.6 0.3 1.3 0.5 2 0.4 0.1 0 0.2 0 0.2 0.1q0.1 0.2 0 0.3c-0.4 0.4-0.9 0.8-1.3 1.1-0.5 0.4-0.9 0.7-1.3 1.2q0 0 0.3 0.2c1.4 1.1 3.4 1.6 5.5 1.6 2.7 0 5.3-0.8 7-2.3 1.3-1.1 2.6-2.7 3.4-4.4 0-0.1 0.2-0.2 0.3-0.1 0.1 0 0.2 0.1 0.2 0.2-0.1 3.3-1.3 5.7-3.3 7.2z"/><path class="K" d="m31 97.2c0.7 2.2 0.7 4.9-0.1 7.2-4-2.8-8.1-5.6-11.2-9.4-2.9-3.5-5.4-8.7-6.6-13.2-0.6-2.4-0.8-5.3-0.6-7.8 0.3-3.1 1.1-6.3 2.3-9.2 1.6-3.8 3.9-7.2 7-10 1.7-1.5 3.9-3.5 6.2-4.2q1.5 0.9 2.8 2.4c2.5 2.9-2.3 4.8-2.3 8.4-0.1 4.9-0.9 9.6-1.1 14.5-0.2 4.5 0.3 9.1 1.3 13.5 0.7 2.7 1.4 5.3 2.3 7.8z"/><path class="j" d="m49.7 42.4c17.6-3.9 35 7.3 38.9 24.9 2.5 11.4 1.1 25.1-6.7 32.8-4.2 4.1-12.4 8.4-19 8.2-18-0.5-34.1-9.4-38-27-3.9-17.6 7.2-35 24.8-38.9z"/><path fill-rule="evenodd" class="a" d="m63.4 108.5q-0.3 0-0.5 0c-20-0.6-34.7-11-38.2-27.1-3.9-17.7 7.3-35.3 25-39.2 2.3-0.5 4.7-0.8 7.1-0.8 15.3 0 28.8 10.9 32.1 25.8 2.2 10 1.7 24.7-6.8 33-4.1 4.1-12.1 8.3-18.7 8.3zm-6.6-66.6c-2.4 0-4.7 0.3-7 0.8-17.5 3.8-28.5 21.1-24.6 38.6 3.5 15.9 18 26.2 37.7 26.7 6.4 0.2 14.6-4 18.8-8.1 8.4-8.2 8.9-22.7 6.7-32.6-3.3-14.7-16.6-25.4-31.6-25.4z"/><g style="mix-blend-mode:multiply"><path class="j" d="m49.7 42.4c17.6-3.9 35 7.3 38.9 24.9q0.7 3 1 6.2c-3.9 0.5-8 0.1-11.9-0.8-3.9-0.9-9.1-1.5-11.6-5-0.3-0.4-8 6.1-11 8.7-0.2-1 0.9-3.7 0.4-3.4-3.7 2.4-5.8 9.3-6.7 13.4-1.2 5.4-1.6 11.7 2.2 16.2 4.3 5 10.7 5.4 16.8 4.9q0.4 0 0.8 0c-1.9 0.5-3.9 0.8-5.7 0.8-18-0.5-34.1-9.4-38-27-3.9-17.6 7.2-35 24.8-38.9z"/></g><path class="L" d="m17.5 64.1q0.3-0.8 0.6-1.6c5.9-13.4 21.6-21.6 35.7-22.2 4.4-0.2 9.6 0.1 13.9 1.4 3.9 1.1 7.6 2.8 10.8 5.2 3.7 2.9 6.4 6.5 9.6 9.9 2.6 2.8 6.1 5.2 10.1 5.2 0.2 0 0.6 0.3 0.5 0.5-0.7 4.7-5.2 7.9-9.1 6.3q0.3 0.3 0.6 0.5c0.1 0.1 0.2 0.3 0.1 0.5-1.4 0.8-4.5-1.4-5.6-2.3-0.7-0.6-1.4-1.2-2-1.8 0.7 1 1.5 2.1 1.7 2.5 0 0.1 0 0.2 0 0.3-2.7 2.6-10-0.9-12.8-2.2-2.5-1-5-2.4-7.2-4.1-0.7 1.4-1.6 2.8-2.5 4-0.9 1.3-3.8 4.7-5.8 4.2-1.5-0.4-1.6-1.9-1-3.1q0.6-1.3 1.2-2.5-1.2 1.3-2.5 2.6c-1.6 1.6-3.2 3.4-5.1 4.6-0.2 0.1-0.5-0.3-0.6-0.4-0.5-1 0.1-2.1 0.5-3q0.3-1 0.7-1.9c-2.3 2-4.4 4.5-6.2 6.9-0.4 0.6-3.1 4.6-4.9 7.2-2.2 4.5-4.4 9.5-3.6 14.3 0.7 4.5 4.4 7.2 8.3 8.9 2.3 0.9 4.9 1.8 7.3 2.3-0.9 0-1.9-0.1-2.7-0.2-12.2-1.3-24-8.3-28.9-19.9-2.9-6.9-3.6-15-1.1-22.1z"/><path fill-rule="evenodd" class="a" d="m50.2 106.6q0 0 0 0c-0.8-0.1-1.6-0.2-2.3-0.2l-0.5-0.1c-13.3-1.4-24.4-9.1-29-20.1-3.1-7.3-3.5-15.4-1.2-22.1q0.3-0.9 0.7-1.7c6.4-14.6 23.1-21.8 35.9-22.3q1.2-0.1 2.5-0.1c3 0 7.4 0.2 11.4 1.4 4.2 1.2 7.9 3 10.9 5.3 2.7 2.1 4.8 4.5 7 7q1.3 1.4 2.6 2.9c2.2 2.3 5.7 5.1 10 5.2 0.2 0 0.5 0.1 0.6 0.3q0.2 0.2 0.2 0.5c-0.6 3.8-3.8 6.9-7.2 6.9q-0.7 0-1.3-0.2 0.1 0.2 0.1 0.4 0 0.2-0.2 0.3-0.4 0.2-0.9 0.2c-1.9 0-4.7-2.3-5-2.5q-0.2-0.2-0.3-0.3 0.3 0.4 0.4 0.7c0 0.1 0.1 0.4-0.1 0.5q-1 1.1-3 1.1c-3 0-7-1.8-9.3-2.8l-0.7-0.3c-2.7-1.2-5-2.5-7-4.1-0.7 1.4-1.6 2.7-2.4 3.8-0.3 0.5-3.2 4.4-5.6 4.4q-0.2 0-0.4 0c-0.7-0.2-1.1-0.6-1.4-1.1-0.3-0.7-0.2-1.5 0.2-2.4q0.2-0.5 0.4-1-0.7 0.7-1.3 1.4-0.5 0.4-1 0.9c-1.3 1.3-2.6 2.7-4.1 3.7q-0.1 0.1-0.3 0.1c-0.3 0-0.6-0.5-0.7-0.6-0.5-0.9-0.1-2 0.3-2.8q0.1-0.2 0.1-0.4l0.1-0.3q0.2-0.3 0.3-0.6c-1.8 1.6-3.5 3.7-5.4 6.2-0.1 0.2-0.7 1-1.4 2-1 1.5-2.4 3.6-3.5 5.2-2.3 4.6-4.3 9.5-3.6 14.1 0.6 3.7 3.4 6.6 8.2 8.6 2.5 1.1 5 1.9 7.3 2.4 0.1 0 0.2 0.1 0.2 0.3 0 0.1-0.1 0.2-0.3 0.2zm6.1-66.1q-1.3 0-2.5 0.1c-12.6 0.5-29.1 7.6-35.4 22q-0.4 0.8-0.7 1.6c-2.3 6.6-1.9 14.6 1.1 21.9 4.5 10.7 15.4 18.2 28.4 19.7q-2.2-0.7-4.4-1.6c-5-2.1-7.8-5.2-8.4-9.1-0.8-4.7 1.2-9.7 3.5-14.4 1.2-1.6 2.6-3.7 3.6-5.2 0.7-1 1.3-1.8 1.4-2 2.2-2.9 4.2-5.2 6.2-7 0.1-0.1 0.3-0.1 0.4 0 0 0 0.1 0.2 0 0.3q-0.3 0.8-0.6 1.6l-0.1 0.3q-0.1 0.2-0.2 0.4c-0.3 0.8-0.7 1.7-0.3 2.4 0.1 0.1 0.3 0.2 0.3 0.3 1.5-1 2.8-2.3 4.1-3.6q0.5-0.5 0.9-1c0.9-0.8 1.7-1.7 2.5-2.6 0.1 0 0.3-0.1 0.4 0 0.1 0.1 0.1 0.2 0 0.3-0.5 1-0.8 1.8-1.2 2.5-0.3 0.7-0.4 1.5-0.1 2q0.3 0.6 1 0.8 0.2 0 0.3 0c1.7 0 4.1-2.6 5.2-4.2 0.9-1.1 1.8-2.5 2.5-4q0.1-0.1 0.2-0.1 0.1 0 0.2 0.1c2 1.5 4.3 2.9 7.1 4.1l0.7 0.3c2.1 1 6.2 2.8 9.1 2.8q1.8 0 2.6-0.9 0 0 0 0c-0.1-0.3-0.7-1.2-1.6-2.5 0-0.1 0-0.2 0.1-0.3 0.1-0.1 0.2-0.1 0.3 0 0.6 0.7 1.3 1.2 1.9 1.8 1.1 0.9 3.3 2.4 4.7 2.4q0.3 0 0.6-0.1 0 0-0.1-0.1-0.1-0.2-0.3-0.3l-0.2-0.3c-0.1 0-0.1-0.2-0.1-0.3 0.1-0.1 0.2-0.1 0.3-0.1q1 0.5 2.1 0.5c3.2 0 6.1-2.9 6.7-6.5 0-0.1-0.3-0.2-0.3-0.2-4.5-0.1-8.1-3-10.3-5.4q-1.4-1.4-2.6-2.9c-2.2-2.5-4.3-4.9-7-6.9-2.9-2.3-6.6-4-10.7-5.2-3.9-1.2-8.3-1.4-11.3-1.4z"/><path class="j" d="m35.3 96.8c-9.3-1.8-11-12.6-5.9-12.9q4.1-0.3 6.7 3.3 2.8 4.5 1.7 7.8-0.4 1.3-1.4 1.6-1.1 0.2-1.1 0.2z"/><path class="l" d="m35.3 96.8c-9.3-1.8-11-12.6-5.9-12.9q4.1-0.3 6.7 3.3 2.8 4.5 1.7 7.8-0.4 1.3-1.4 1.6-1.1 0.2-1.1 0.2z"/><path class="a" d="m35.3 97q0 0 0 0c-3.6-0.6-5.7-2.5-6.9-4-1.4-1.8-2.2-4-2.1-5.9 0.2-2.1 1.3-3.4 3.1-3.5 4.2-0.3 6.8 3.3 6.9 3.5 0.1 0.1 0 0.3-0.1 0.3-0.1 0.1-0.2 0.1-0.3 0 0-0.1-2.6-3.6-6.4-3.3-1.6 0.1-2.6 1.2-2.7 3.1-0.1 3.1 2.4 8.2 8.6 9.3 0.1 0.1 0.2 0.2 0.2 0.3 0 0.1-0.1 0.2-0.3 0.2z"/><path class="a" d="m33.4 93c-0.1 0-0.2-0.1-0.2-0.2 0-0.1 0.4-3-1.5-4.5q-1-0.8-1.7-0.6c-0.6 0.1-0.9 0.7-0.9 0.7-0.1 0.1-0.2 0.2-0.3 0.1-0.1 0-0.2-0.2-0.1-0.3 0 0 0.3-0.8 1.1-1q1-0.2 2.1 0.7c2.2 1.7 1.8 4.8 1.8 4.9-0.1 0.2-0.2 0.2-0.3 0.2q0 0 0 0z"/><path class="a" d="m30.9 91.5c-0.1 0-0.2-0.2-0.1-0.3 0-0.1 0.1-0.2 0.3-0.2 0 0.1 0.7 0.3 1.2-0.1q0.4-0.4 0.4-1.5c-0.1-0.1 0-0.2 0.2-0.2 0.1 0 0.2 0.1 0.2 0.2q0.1 1.3-0.5 1.8c-0.3 0.3-0.6 0.3-0.9 0.4-0.4 0-0.8-0.1-0.8-0.1z"/><ellipse  cx="63.2" cy="84.1" rx="1.4" ry="2.2"/><ellipse  cx="83.8" cy="86.7" rx="1.4" ry="2.2"/><path class="m" d="m61.4 104.8q-10.2-1.4-7.2-12.8 8.8 9.3 24.6 8.2-7.1 6-17.4 4.6z"/><path fill-rule="evenodd" class="a" d="m64.6 105.3q-1.6 0-3.2-0.3c-2.9-0.4-5-1.6-6.3-3.5-2.6-3.9-1.2-9.3-1.2-9.5q0.1-0.2 0.2-0.2 0.1-0.1 0.2 0c7 7.4 18.4 8.2 22.9 8.2 1 0 1.6 0 1.6 0 0.1 0 0.2 0 0.2 0.1q0.1 0.2-0.1 0.3c0 0.1-5.8 4.9-14.3 4.9zm-10.3-12.8c-0.3 1.4-0.9 5.6 1.2 8.7 1.2 1.8 3.2 3 6 3.3q1.5 0.3 3.1 0.3c6.7 0 11.7-3.1 13.4-4.3q-0.3 0-0.8 0c-4.5 0-15.7-0.8-22.9-8z"/><path class="a" d="m57.4 140.5q-0.9 0-1.7-0.5c-3.2-2.2-4.6-10.2-4.7-10.5-0.1-0.3 0.1-0.5 0.4-0.6 0.3 0 0.5 0.1 0.6 0.4 0 0.1 1.4 7.9 4.3 9.8q0.7 0.6 1.6 0.4c4.3-0.9 26.7-5 26.9-5.1 0.3 0 0.6 0.2 0.6 0.4 0.1 0.3-0.1 0.6-0.4 0.6-0.2 0.1-22.6 4.1-26.9 5.1q-0.4 0-0.7 0z"/><path class="j" d="m97.6 132.4c0 0.7-4.4 1.8-5.6 2q0.1 0 0.2 0c0.7 0.2 1.4 0.2 2.1 0.3 0.5 0.1 2.9 0.3 2.3 1.5-0.4 1-2.6 0.6-3.4 0.6-2.8-0.1-6.6 2.3-8.9 0-0.6-0.6-1.1-1.5-1.3-2.4-0.4-1.4-0.2-3 0.2-4.5 0.3-1.1 0.7-3.5 1.9-3.9 0.7-0.3 1 0.5 1.1 1q0.1 0.6 0.1 1.3c0 0.2 0 1.2-0.2 1.3 1.1-0.7 2.1-1.4 3.2-2q0.1 0 0.1 0 0.7-0.4 1.5-0.8c0.8-0.3 2-0.9 2.8-0.4 1 0.7-1.1 2.4-2.8 3.5 1.2-0.4 2.7-0.8 3.7-0.9 0.5 0 2-0.2 2 0.6 0 0.4-0.6 0.7-0.9 0.9-0.5 0.2-1.1 0.4-1.6 0.7q-0.6 0.2-1.2 0.4c-0.4 0.1-0.8 0.3-1.1 0.4 1.9-0.3 5.7-0.9 5.8 0.4z"/><path fill-rule="evenodd" class="a" d="m83.9 136.8c-0.5-0.6-0.9-1.5-1.1-2.3-0.5-1.6-0.1-3.4 0.2-4.7q0.1-0.2 0.1-0.5c0.3-1.2 0.8-3.1 1.9-3.5 0.4-0.2 0.8-0.1 1 0.2 0.3 0.3 0.4 0.7 0.4 1q0.1 0.6 0.1 1.3v0.1q0 0.4 0 0.6c0.9-0.6 1.8-1.1 2.7-1.6q0.1 0 0.1 0 0.8-0.5 1.5-0.8l0.3-0.1c0.8-0.4 1.9-0.9 2.7-0.3q0.4 0.3 0.4 0.8c-0.1 0.8-1.1 1.6-1.9 2.3 0.8-0.3 1.6-0.5 2.3-0.5h0.2c0.7-0.1 1.4-0.1 1.8 0.3q0.2 0.2 0.2 0.5c0 0.5-0.6 0.9-1 1-0.5 0.4-1.1 0.6-1.6 0.8q-0.1 0-0.1 0c1.6-0.2 3-0.1 3.5 0.5q0.2 0.2 0.2 0.4c0.1 0.9-2.8 1.7-4.5 2.1q0 0 0.1 0 0.5 0 0.9 0.1 0.1 0 0.3 0c0.8 0.2 1.7 0.3 2.1 0.8 0.2 0.2 0.4 0.5 0.2 1-0.5 1-2.1 0.9-3.2 0.8q-0.3-0.1-0.5-0.1c-0.9 0-1.9 0.3-3 0.5-2.2 0.5-4.5 1.1-6.1-0.6q-0.1 0-0.2-0.1zm1.8-10.5q-0.2-0.2-0.5-0.1c-0.9 0.4-1.4 2.1-1.6 3.2q-0.1 0.3-0.1 0.5c-0.4 1.3-0.7 2.9-0.3 4.5 0.2 0.8 0.7 1.7 1.2 2.2 1.5 1.5 3.6 1 5.7 0.4 1.1-0.2 2.1-0.5 3.1-0.4q0.2 0 0.6 0c0.8 0.1 2.3 0.2 2.6-0.5 0.1-0.2 0.1-0.4 0-0.5-0.4-0.4-1.4-0.5-1.9-0.6q-0.2 0-0.3 0-0.4-0.1-0.8-0.1-0.6-0.1-1.2-0.2l-0.3-0.1c-0.1 0-0.2-0.1-0.2-0.2 0-0.2 0.1-0.2 0.2-0.3 1.6-0.1 5.3-1.2 5.5-1.7q-0.1-0.1-0.1-0.2c-0.7-0.8-4.2-0.2-5.5 0q0 0 0 0c-0.1 0-0.2-0.1-0.3-0.2 0-0.1 0.1-0.2 0.2-0.3 0.3 0 0.5-0.1 0.7-0.2q0.2-0.1 0.4-0.1 0.6-0.2 1.2-0.5c0.5-0.2 1.1-0.4 1.6-0.6 0.2-0.2 0.7-0.5 0.7-0.7 0-0.5-1.1-0.4-1.5-0.4h-0.1c-1 0.1-2.4 0.5-3.8 0.9-0.1 0.1-0.2 0-0.3-0.1 0-0.1 0-0.2 0.1-0.3 1.7-1 2.9-2.1 3-2.7q0-0.2-0.2-0.4c-0.6-0.4-1.5 0-2.2 0.3l-0.3 0.1q-0.7 0.3-1.4 0.8-0.1 0-0.2 0c-1 0.6-2 1.2-3.1 2-0.1 0-0.3 0-0.4-0.1 0-0.1 0-0.2 0.1-0.3 0-0.1 0-0.3 0-1l0.1-0.1q0-0.7-0.1-1.2-0.1-0.5-0.3-0.8z"/><path class="G" d="m50.3 111.1c1.3 0.9 2.1 2.1 3 3.4 2.4 3.5 4.8 12.2 5.5 14.9-3.7 2.5-8.3 3.6-12.9 3.7-0.9-2.7-1.5-5.4-1.9-8.1-0.4-3.5-0.4-6.9-0.1-10.3q0.1-0.8 0.4-1.5c1-2.3 3.7-3.6 6-2.1z"/><path fill-rule="evenodd" class="a" d="m45.9 133.3c-0.1 0-0.2 0-0.3-0.2-0.8-2.7-1.4-5.5-1.8-8.1-0.4-3.3-0.5-6.7-0.1-10.4q0.1-0.8 0.4-1.5c0.8-1.7 2.4-2.9 4.1-2.9q1.2 0 2.3 0.7c1.2 0.9 2 2 2.9 3.2l0.1 0.2c2.4 3.6 4.8 12.4 5.5 15q0 0.2-0.1 0.3c-4.3 3-9.4 3.7-13 3.7q0 0 0 0zm2.3-22.6c-1.5 0-2.9 1-3.6 2.6q-0.3 0.7-0.4 1.4c-0.4 3.6-0.3 7 0.1 10.2 0.3 2.6 0.9 5.2 1.8 7.9 3.4-0.1 8.3-0.7 12.4-3.5-0.7-2.8-3.1-11.3-5.4-14.7l-0.1-0.2c-0.9-1.2-1.6-2.3-2.8-3.1q-0.9-0.6-2-0.6z"/><path class="H" d="m50.3 111.1c0.7 0.5 1.2 1 1.7 1.6-0.4-0.1-9.1 0.1-1.8 20q-2.1 0.3-4.3 0.4c-0.9-2.7-1.5-5.4-1.9-8.1-0.4-3.5-0.4-6.9-0.1-10.3q0.1-0.8 0.4-1.5c1-2.3 3.7-3.6 6-2.1z"/><path class="a" d="m320.9 123.9c-3.2 0-6.6-0.2-9.7-1-8.7-2.3-19.4-8.5-19.5-8.5-0.3-0.2-0.4-0.5-0.2-0.7 0.1-0.3 0.4-0.3 0.7-0.2 0.1 0.1 10.7 6.2 19.3 8.4 10.1 2.6 23.5-0.5 23.7-0.5 0.2-0.1 0.5 0.1 0.6 0.4 0 0.2-0.1 0.5-0.4 0.6-0.1 0-6.9 1.5-14.5 1.5z"/><path class="j" d="m288.7 112.3c-0.4-0.2-0.7-0.4-1-0.6q-0.5-0.2-1-0.6c-0.5-0.2-1-0.5-1.4-0.8-0.3-0.2-0.7-0.6-0.7-0.9 0.2-0.8 1.5-0.3 1.9-0.2 1 0.2 2.3 0.9 3.4 1.4-1.5-1.3-3.1-3.1-2-3.5 0.8-0.4 1.8 0.4 2.5 0.8q0.7 0.4 1.2 0.9 0.1 0.1 0.2 0.1c0.9 0.7 1.7 1.4 2.6 2.2-0.2-0.1 0-1 0.1-1.1q0.1-0.6 0.3-1.1c0.2-0.5 0.6-1.1 1.2-0.7 0.6 0.4 1 1.5 1.1 2.1 0.1 1.6 0 3.2-0.7 4.7-1.7 3.9-6.7 2.5-9.6 1.8-0.8-0.3-3.2-0.7-3.4-1.7-0.3-1.1 1.9-0.9 2.4-0.9 0.7 0 1.4 0.1 2 0.1q0.1 0 0.3 0c-1.1-0.3-5.1-2.1-4.9-2.7 0.3-1.1 3.7 0 5.5 0.7z"/><path fill-rule="evenodd" class="a" d="m291.8 117.9c-1.7 0-3.6-0.5-4.9-0.9h-0.1q-0.2 0-0.4-0.1c-1.1-0.3-3-0.7-3.3-1.7-0.1-0.4 0-0.6 0.2-0.8 0.2-0.3 0.8-0.5 1.7-0.5q0.3 0.1 0.6 0.1 0.2 0 0.3 0 0.3 0 0.7 0c-1.5-0.6-3.9-1.7-3.7-2.5q0.2-0.6 1.3-0.6c0.6 0 1.4 0.1 2.1 0.3q-0.6-0.3-1.2-0.7c-0.3-0.3-0.8-0.7-0.7-1.2 0-0.2 0.2-0.6 0.9-0.6 0.4 0 0.9 0.1 1.2 0.2h0.1c0.6 0.2 1.2 0.5 2 0.8-0.7-0.8-1.4-1.6-1.3-2.2 0-0.2 0.1-0.5 0.5-0.6q0.3-0.2 0.6-0.2c0.7 0 1.4 0.5 1.9 0.9l0.2 0.1q0.7 0.4 1.3 0.9l0.1 0.1c0.8 0.6 1.5 1.2 2.2 1.8q0-0.2 0.1-0.5v-0.1q0.1-0.6 0.3-1.1c0.4-0.9 1-1.2 1.6-0.8 0.7 0.4 1.2 1.6 1.2 2.3 0.2 1.8-0.1 3.4-0.7 4.8q-1.2 2.8-4.8 2.8zm-6.8-3.5c-1 0-1.3 0.2-1.4 0.3 0 0.1 0 0.2 0 0.4 0.2 0.7 2 1.1 2.9 1.3q0.2 0.1 0.4 0.1h0.1c1.3 0.4 3.2 0.9 4.8 0.9 2.2 0 3.6-0.8 4.3-2.5 0.6-1.3 0.9-2.8 0.7-4.6 0-0.6-0.4-1.6-0.9-1.9q-0.2-0.1-0.3-0.1c-0.3 0-0.5 0.5-0.6 0.7q-0.2 0.4-0.3 1v0.1c-0.1 0.6-0.1 0.8-0.1 0.9 0 0.1 0 0.2 0 0.3-0.1 0.1-0.3 0.1-0.4 0-0.8-0.7-1.6-1.5-2.6-2.2l-0.1-0.1q-0.6-0.5-1.2-0.9l-0.2-0.1c-0.7-0.4-1.5-0.9-2.1-0.7-0.2 0.1-0.2 0.2-0.2 0.2-0.1 0.5 0.8 1.7 2.3 2.9 0.1 0.1 0.1 0.2 0 0.3-0.1 0.1-0.2 0.2-0.3 0.1-1.2-0.6-2.4-1.1-3.3-1.4h-0.2c-0.2-0.1-0.7-0.2-1-0.2-0.4 0-0.4 0.1-0.4 0.2-0.1 0.2 0.4 0.5 0.5 0.6 0.5 0.4 0.9 0.7 1.4 0.9q0.5 0.3 1 0.6 0.2 0.1 0.4 0.2c0.2 0.1 0.4 0.3 0.5 0.3 0.2 0.1 0.2 0.2 0.2 0.3 0 0.2-0.2 0.2-0.3 0.2q0 0 0 0c-1.1-0.4-3.2-1.1-4.4-1.1-0.3 0-0.7 0-0.8 0.3 0.1 0.4 3.4 2 4.7 2.4 0.1 0 0.2 0.1 0.2 0.2 0 0.2-0.1 0.3-0.2 0.3h-0.3c-0.3 0-0.8 0-1.1-0.1q-0.5 0-0.9 0-0.1 0-0.2 0-0.3 0-0.6-0.1z"/><path class="g" d="m342.3 118.3q-0.3 0.6-0.8 1.2c-2.1 2.6-4.4 4.8-7 6.8-2.6 2-5.4 3.6-8.2 5q-5.2-6.4-5.4-11.6 9.7-5.8 14.5-6.7c1.4-0.2 2.8-0.5 4.2-0.2 2.7 0.5 3.5 3.3 2.7 5.5z"/><path fill-rule="evenodd" class="a" d="m326.3 131.5q-0.2 0-0.2-0.1c-0.2-0.2-5.2-6.5-5.5-11.7q0-0.1 0.2-0.2c0.4-0.2 9.8-5.9 14.5-6.7l0.3-0.1c0.9-0.1 1.8-0.3 2.7-0.3q0.7 0 1.4 0.1c1.2 0.3 2.1 0.9 2.6 1.9 0.6 1.2 0.7 2.6 0.2 3.9q-0.3 0.8-0.8 1.4c-2.2 2.7-4.5 4.9-7.1 6.8-2.5 1.9-5.2 3.6-8.2 5q-0.1 0-0.1 0zm-5.2-11.6c0.3 4.5 4.5 10.1 5.2 11.1 2.9-1.4 5.6-3 8-4.9 2.5-1.8 4.8-4.1 7-6.7q0.5-0.6 0.7-1.2c0.5-1.2 0.4-2.5-0.1-3.5-0.5-0.9-1.3-1.5-2.3-1.7q-0.6-0.1-1.3-0.1c-0.9 0-1.7 0.2-2.6 0.3l-0.3 0.1c-4.3 0.7-13.1 5.9-14.3 6.6z"/><path class="i" d="m326.3 131.3q-5.2-6.4-5.4-11.6 0.7-0.4 1.8-1c0.5 2 1.3 4 2.2 5.9 0.9 2 2.3 3.9 4 5.3q-1.3 0.7-2.6 1.4z"/><path fill-rule="evenodd" class="a" d="m326.3 131.5q-0.2 0-0.2-0.1c-0.2-0.2-5.2-6.5-5.5-11.7q0-0.1 0.2-0.2 0.7-0.4 1.8-1 0.1-0.1 0.2-0.1 0.1 0.1 0.1 0.2 0.7 2.7 2.2 5.9c0.9 1.9 2.3 3.7 4 5.2q0.1 0.1 0 0.2 0 0.2-0.1 0.2c-1 0.6-1.8 1-2.6 1.4q-0.1 0-0.1 0zm-5.2-11.6c0.3 4.5 4.5 10.1 5.2 11.1 0.7-0.3 1.4-0.7 2.2-1.1-1.6-1.5-3-3.3-3.9-5.1q-1.4-3.1-2.1-5.7c-0.6 0.3-1.1 0.6-1.4 0.8z"/><path class="h" d="m326.3 131.3q-1.6-1.9-3-4.5c6-2.5 17.8-7.6 18.6-12.5 0.8 1.1 0.9 2.6 0.4 4q-0.3 0.6-0.8 1.2c-2.1 2.6-4.4 4.8-7 6.8-2.6 2-5.4 3.6-8.2 5z"/></svg>