<svg version="1.2" xmlns="http://www.w3.org/2000/svg" viewBox="0 0 71 93" width="71" height="93"><style>.a{fill:#828487}.b{fill:#1d1d1b}.c{fill:#48484a}.d{fill:#636466}.e{fill:#be805c}.f{fill:#be6f42}.g{fill:#6d3e91}.h{fill:#e2e1e1}.i{fill:#bbbaba}.j{fill:#fff}.k{fill:#007fa6}.l{fill:#23b7c5}.m{fill:#4e6eb5}.n{fill:#f9d8b7}.o{fill:#fee149}.p{fill:#f7bd48}.q{fill:#df7fb3}.r{fill:#f8cfe2}.s{fill:#a04832}.t{fill:#6b6b6a}.u{fill:#484948}.v{fill:#898988}</style><path class="a" d="m28.5 65.1l0.2 18.5h-1.6l-0.2-18.5z"/><path fill-rule="evenodd" class="b" d="m27.1 83.7q-0.2 0-0.2-0.1l-0.2-18.5q0-0.1 0.1-0.1 0 0 0.1 0h1.6q0.1 0 0.1 0.1l0.2 18.5q0 0 0 0.1-0.1 0-0.1 0h-1.6zm-0.1-18.5l0.2 18.3h1.4l-0.2-18.3z"/><path class="c" d="m28.7 81.9v1.7h-1.6l-0.1-1.7z"/><path fill-rule="evenodd" class="b" d="m27.1 83.7q-0.2 0-0.2-0.1v-1.7q0 0 0-0.1 0.1 0 0.1 0h1.7q0.1 0 0.1 0.1v1.7q0 0 0 0.1-0.1 0-0.1 0h-1.6zm0.1-1.6v1.4h1.4l-0.1-1.5z"/><path class="a" d="m54.5 65.1l0.2 18.2h-1.6l-0.2-18.2z"/><path fill-rule="evenodd" class="b" d="m53.1 83.4q0 0-0.1 0 0 0 0-0.1l-0.2-18.2q0-0.1 0-0.1 0.1 0 0.1 0h1.6q0.1 0 0.2 0.1l0.2 18.2q-0.1 0.1-0.2 0.1h-1.6zm-0.1-18.2l0.2 18h1.4l-0.2-18z"/><path class="c" d="m54.7 82.3v1h-1.6v-1z"/><path fill-rule="evenodd" class="b" d="m53.1 83.4q0 0-0.1 0 0 0 0-0.1v-1c0-0.1 0-0.1 0.1-0.1l1.6-0.1q0.1 0 0.1 0.1 0 0 0 0.1l0.1 1q-0.1 0.1-0.2 0.1h-1.6zm0.1-1v0.8h1.4v-0.8z"/><path class="a" d="m30.6 60.2l0.2 18.5h-1.7l-0.2-18.5z"/><path fill-rule="evenodd" class="b" d="m29.1 78.9q-0.1-0.1-0.1-0.2l-0.2-18.5q0-0.1 0-0.1 0.1 0 0.1 0h1.7q0.1 0 0.1 0.1l0.2 18.5q0 0.1-0.1 0.1 0 0 0 0l-1.7 0.1zm0-18.6l0.2 18.3h1.3l-0.2-18.3z"/><path class="c" d="m30.7 77l0.1 1.7h-1.7v-1.7z"/><path fill-rule="evenodd" class="b" d="m29.1 78.9q-0.1-0.1-0.1-0.2v-1.7q0 0 0 0 0.1-0.1 0.1-0.1h1.6q0.1 0 0.2 0.1v1.7q0 0.1-0.1 0.1 0 0 0 0l-1.7 0.1zm0.1-1.7l0.1 1.4h1.3v-1.5z"/><path class="a" d="m52.2 60.2l0.2 18.2h-1.6l-0.2-18.2z"/><path fill-rule="evenodd" class="b" d="m50.8 78.6q-0.1 0-0.1-0.1 0 0 0-0.1l-0.2-18.2q0-0.1 0-0.1 0 0 0.1 0h1.6q0.1 0 0.1 0.1l0.2 18.2q0 0.1-0.1 0.1l-1.6 0.1zm-0.1-18.3l0.2 18h1.4l-0.2-18z"/><path class="c" d="m52.4 77.4v1h-1.6v-1z"/><path fill-rule="evenodd" class="b" d="m50.8 78.6q-0.1 0-0.1-0.1 0 0 0-0.1v-1q0-0.1 0.1-0.1h1.6q0.1 0 0.1 0 0 0 0 0.1v1q0 0.1-0.1 0.1l-1.6 0.1zm0.1-1.1v0.8h1.4v-0.8z"/><path class="d" d="m32.2 42.8v14.5h-1.4v-14.5z"/><path fill-rule="evenodd" class="b" d="m32.2 57.4h-1.4q-0.1 0-0.2-0.1v-14.5c0-0.1 0.1-0.2 0.2-0.2h1.4q0.1 0 0.1 0.2v14.5q0 0.1-0.1 0.1zm-1.3-0.2h1.2v-14.3h-1.2z"/><path class="d" d="m52.2 42.8v14.5h-1.5v-14.5z"/><path fill-rule="evenodd" class="b" d="m52.2 57.4h-1.5q-0.1 0-0.1-0.1v-14.5q0-0.2 0.1-0.2h1.5q0.1 0 0.1 0.2v14.5q0 0.1-0.1 0.1zm-1.3-0.2h1.1v-14.3h-1.1z"/><path class="e" d="m54.8 66.6h-13-2-13q-1.8-0.3-1.1-2.6l2.5-5.8q0.4-1.1 1.2-1.1h8.6 5.5 8.7q0.8 0 1.2 1.1l2.6 5.8q0.6 2.3-1.2 2.6z"/><path fill-rule="evenodd" class="b" d="m54.8 66.7h-28q-0.8-0.1-1.1-0.7c-0.5-0.8-0.1-2-0.1-2l2.5-5.8c0 0 0.4-1.2 1.3-1.2h22.8q0 0 0.1 0c0.8 0 1.2 1.2 1.2 1.2l2.6 5.8c0 0 0.3 1.2-0.2 2q-0.4 0.6-1.1 0.7 0 0 0 0zm-29-2.6q-0.3 1.1 0.1 1.8 0.3 0.5 0.9 0.6h27.9q0.7-0.1 1-0.6c0.4-0.7 0.2-1.8 0.2-1.9l-2.6-5.7c0 0-0.4-1.1-1-1.1h-0.1-22.8-0.1c-0.7 0-1 1.1-1 1.1z"/><path class="e" d="m54.8 65.6h-13-2-13q-1.8-0.3-1-2.1l2.4-6.3q0.4-1.1 1.2-1.1h8.7 5.5 8.6q0.8 0 1.2 1.1l2.4 6.3q0.8 1.8-1 2.1z"/><path fill-rule="evenodd" class="b" d="m54.8 65.7h-28q-0.8-0.1-1.1-0.7c-0.4-0.7 0-1.5 0-1.5l2.4-6.3c0 0 0.4-1.3 1.3-1.2h22.8q0.1 0 0.1 0c0.8 0 1.2 1.2 1.2 1.2l2.4 6.3c0 0 0.4 0.8 0.1 1.5q-0.3 0.6-1.2 0.7 0 0 0 0zm-25.5-9.5c-0.6 0-1 1.1-1 1.1l-2.4 6.3c0 0-0.3 0.7 0 1.3q0.2 0.4 1 0.6h27.9q0.7-0.2 0.9-0.6c0.3-0.6 0-1.3 0-1.3l-2.4-6.3c0 0-0.3-1.1-1-1.1z"/><path class="f" d="m54.4 29.4v13.4h-25.9v-13.4z"/><path fill-rule="evenodd" class="b" d="m54.4 42.9h-25.9q-0.1 0-0.1-0.1v-13.4q0-0.1 0.1-0.1h25.9q0.1 0 0.1 0.1v13.4q0 0.1-0.1 0.1zm-25.8-0.3h25.7v-13.1h-25.7z"/><path class="e" d="m54.4 30.3v13.4h-25.9v-13.4z"/><path fill-rule="evenodd" class="b" d="m54.4 43.8h-25.9q-0.1 0-0.1-0.1v-13.4q0-0.1 0.1-0.1h25.9q0.1 0 0.1 0.1v13.4q0 0.1-0.1 0.1zm-25.8-0.3h25.7v-13.1h-25.7z"/><path class="d" d="m32.1 40.5c0 0.2-0.2 0.4-0.4 0.4-0.3 0-0.5-0.2-0.5-0.4 0-0.2 0.2-0.4 0.5-0.4 0.2 0 0.4 0.2 0.4 0.4z"/><path fill-rule="evenodd" class="b" d="m31.7 41c-0.3 0-0.6-0.2-0.6-0.5 0-0.3 0.3-0.5 0.6-0.5 0.2 0 0.5 0.2 0.5 0.5 0 0.3-0.3 0.5-0.5 0.5zm0-0.8c-0.2 0-0.3 0.1-0.3 0.3 0 0.1 0.1 0.3 0.3 0.3 0.1 0 0.2-0.2 0.2-0.3 0-0.2-0.1-0.3-0.2-0.3z"/><path class="d" d="m32.1 34.1c0 0.3-0.2 0.4-0.4 0.4-0.3 0-0.5-0.1-0.5-0.4 0-0.2 0.2-0.4 0.5-0.4 0.2 0 0.4 0.2 0.4 0.4z"/><path fill-rule="evenodd" class="b" d="m31.7 34.7c-0.3 0-0.6-0.3-0.6-0.6 0-0.3 0.3-0.5 0.6-0.5 0.2 0 0.5 0.2 0.5 0.5 0 0.3-0.3 0.6-0.5 0.6zm0-0.8c-0.2 0-0.3 0.1-0.3 0.2 0 0.2 0.1 0.3 0.3 0.3 0.1 0 0.2-0.1 0.2-0.3 0-0.1-0.1-0.2-0.2-0.2z"/><path class="d" d="m51.6 40.5c0 0.2-0.2 0.4-0.4 0.4-0.2 0-0.4-0.2-0.4-0.4 0-0.2 0.2-0.4 0.4-0.4 0.2 0 0.4 0.2 0.4 0.4z"/><path fill-rule="evenodd" class="b" d="m51.2 41c-0.3 0-0.5-0.2-0.5-0.5 0-0.3 0.2-0.5 0.5-0.5 0.3 0 0.5 0.2 0.5 0.5 0 0.3-0.2 0.5-0.5 0.5zm0-0.8c-0.2 0-0.3 0.1-0.3 0.3 0 0.1 0.1 0.3 0.3 0.3 0.1 0 0.3-0.2 0.3-0.3 0-0.2-0.2-0.3-0.3-0.3z"/><path class="d" d="m51.6 34.1c0 0.3-0.2 0.4-0.4 0.4-0.2 0-0.4-0.1-0.4-0.4 0-0.2 0.2-0.4 0.4-0.4 0.2 0 0.4 0.2 0.4 0.4z"/><path fill-rule="evenodd" class="b" d="m51.2 34.7c-0.3 0-0.5-0.3-0.5-0.6 0-0.3 0.2-0.5 0.5-0.5 0.3 0 0.5 0.2 0.5 0.5 0 0.3-0.2 0.6-0.5 0.6zm0-0.8c-0.2 0-0.3 0.1-0.3 0.2 0 0.2 0.1 0.3 0.3 0.3 0.1 0 0.3-0.1 0.3-0.3 0-0.1-0.2-0.2-0.3-0.2z"/><path class="g" d="m31.7 81.1c-0.9 0.4-2 0.2-1.7-1.2 0.2-1.5 2.7-4.1 3.8-4.8 0.8-0.5 1.7 0 2.1 0.7q0.1 0 0.1 0c1.1 1.9-2.9 4.7-4.3 5.3z"/><path fill-rule="evenodd" class="b" d="m30.9 81.4q-0.6 0-0.9-0.4-0.3-0.4-0.2-1.2c0.3-1.5 2.8-4.1 3.9-4.8q0.4-0.2 0.8-0.2c0.6 0 1.2 0.3 1.5 0.9q0.1 0.1 0.1 0.1 0.3 0.6 0.1 1.3c-0.5 1.7-3.3 3.6-4.4 4.1q-0.5 0.2-0.9 0.2zm3.6-6.4q-0.3 0-0.6 0.2c-1.1 0.7-3.5 3.3-3.8 4.7q-0.1 0.6 0.1 1c0.2 0.2 0.5 0.2 0.7 0.2q0.4 0 0.8-0.2c1-0.4 3.8-2.2 4.3-3.9q0.2-0.6-0.1-1.1-0.1 0-0.1 0c-0.3-0.6-0.8-0.9-1.3-0.9z"/><path class="h" d="m30 79.9c0.1-0.7 0.6-1.5 1.2-2.3 0.7-0.1 1.5 0.1 2.1 0.6 0.3 0.3 0.7 0.7 1 1.2-1 0.8-2 1.4-2.6 1.7-0.9 0.4-2 0.2-1.7-1.2z"/><path fill-rule="evenodd" class="b" d="m30.9 81.4q-0.6 0-0.9-0.4-0.3-0.4-0.2-1.2c0.2-0.7 0.8-1.6 1.3-2.2q0-0.1 0.1-0.1c0.7-0.1 1.5 0.1 2.1 0.6 0.3 0.2 0.8 0.6 1.1 1.2q0 0.1 0 0.2c-1 0.8-2 1.4-2.6 1.7q-0.5 0.2-0.9 0.2zm0.4-3.7c-0.7 0.9-1.1 1.6-1.2 2.2q-0.1 0.6 0.1 1c0.2 0.2 0.5 0.2 0.7 0.2q0.4 0 0.8-0.2c0.6-0.2 1.6-0.8 2.4-1.6-0.3-0.5-0.7-0.9-0.9-1-0.6-0.5-1.2-0.7-1.9-0.6z"/><path class="i" d="m36 75.9c1.1 1.8-3 4.6-4.3 5.2-0.6 0.2-1.3 0.2-1.6-0.2 1.2 0 2.6-1.1 3.4-1.8 1-0.8 2.1-1.9 2.5-3.2z"/><path fill-rule="evenodd" class="b" d="m30.9 81.4q-0.6 0-0.9-0.4 0 0 0-0.1 0-0.1 0.1-0.1c1.2 0 2.6-1.2 3.3-1.8 0.9-0.7 2.1-1.9 2.5-3.2q0 0 0.1-0.1 0 0 0.1 0.1 0.3 0.6 0.1 1.3c-0.5 1.7-3.3 3.6-4.4 4.1q-0.5 0.2-0.9 0.2zm-0.5-0.4c0.2 0.1 0.3 0.1 0.5 0.1q0.4 0 0.8-0.2c1-0.4 3.7-2.2 4.3-3.9q0.1-0.4 0-0.8c-0.5 1.2-1.6 2.3-2.4 3-0.7 0.6-2 1.7-3.2 1.8z"/><path class="j" d="m33.2 77.9c0 0-0.1 0-0.2 0-0.6-0.9-0.1-1.9-0.1-1.9q0-0.1 0.1-0.1 0.1 0.1 0.1 0.2c0 0-0.4 0.9 0.1 1.6q0.1 0.1 0 0.2 0 0 0 0z"/><path class="j" d="m34.2 76.7c0 0-1.1-0.2-2.3 0.7q0 0-0.1 0-0.1 0.1-0.2 0 0-0.1 0.1-0.2c1.3-1 2.5-0.7 2.5-0.7 0.1 0 0.1 0 0.1 0.1q0 0.1 0 0.1-0.1 0-0.1 0z"/><path class="k" d="m31.4 59.7q2.8 1.4 4.8 4.5-6.8-0.8-10.4-2.8-3.6-2-4.5-3.9l0.9-0.3q6.4 1.1 9.2 2.5z"/><path fill-rule="evenodd" class="b" d="m36.2 64.3q0 0 0 0c-0.1 0-6.9-0.8-10.4-2.8-3.6-2-4.6-3.9-4.6-4q-0.1 0 0-0.1 0 0 0-0.1l0.9-0.2q0.1 0 0.1 0c0 0 6.4 1.1 9.2 2.5 2.8 1.4 4.9 4.5 4.9 4.5q0.1 0.1 0 0.1 0 0.1-0.1 0.1zm-14.7-6.8c0.2 0.5 1.4 2.1 4.4 3.8 3.1 1.7 8.8 2.5 10.1 2.7-0.6-0.7-2.4-3-4.7-4.2-2.7-1.4-8.7-2.4-9.1-2.5z"/><path class="b" d="m22.5 78.6q0 0 0 0c-0.2 0-0.3-0.1-0.2-0.3 0.5-6.3 1.2-11.9 3.9-15.4 2.3-3.1 7.7-4.2 7.9-4.3 0.1 0 0.3 0.1 0.3 0.2 0 0.2-0.1 0.3-0.2 0.3 0 0-5.4 1.2-7.7 4.1-2.5 3.4-3.2 8.9-3.8 15.2 0 0.1-0.1 0.2-0.2 0.2z"/><path class="b" d="m34.1 75.7q-0.1 0-0.2-0.1c-0.2-0.3-6.1-8.6-5-12.1 1.2-3.5 6.8-5.4 7-5.4 0.1-0.1 0.3 0 0.3 0.1 0.1 0.2 0 0.3-0.1 0.3-0.1 0-5.6 1.9-6.7 5.2-1.1 3.3 4.8 11.6 4.9 11.6 0.1 0.2 0 0.3-0.1 0.4q0 0-0.1 0z"/><path class="l" d="m50.6 52.6l0.6 0.4q-0.6 3.2-2.7 5.7-2.2 2.4-12.3 5.5-6.7-5.4-14.9-6.7l16-6.9z"/><path fill-rule="evenodd" class="b" d="m36.2 64.3q0 0 0 0c-0.1-0.1-6.9-5.4-14.9-6.7q-0.1 0-0.1-0.1 0-0.1 0-0.2l16.1-6.8q0 0 0.1 0l13.2 2q0 0 0 0l0.7 0.4q0 0 0 0.1c0 0.1-0.6 3.3-2.7 5.8-2.2 2.4-11.9 5.4-12.3 5.5q0 0-0.1 0zm-14.5-6.9c7.6 1.4 13.9 6.1 14.6 6.6 0.8-0.2 10.1-3.1 12.1-5.4 1.9-2.2 2.6-5 2.7-5.5l-0.6-0.4-13.1-2z"/><g style="opacity:.6;mix-blend-mode:multiply"><path class="l" d="m51.2 53q-0.6 3.2-2.7 5.7-2.2 2.4-12.3 5.5-1.2-1-3.3-2.3 0.9-0.5 1.9-1c3.1-1.6 9.3-5.2 9.1-5.2-3.1-0.5-7.4-1.3-9.9-3.7l3.3-1.4 13.3 2z"/></g><path class="m" d="m37.6 35.1q0.2 0.3 0.2 0.6c0.1 1.5 0.1 3-0.1 4.5q-0.2 1.8-0.8 3.5c-2-0.1-4-0.6-5.6-1.7 0.3-1.2 1.3-5 2.4-6.5 0.4-0.5 0.7-1.1 1.3-1.4 1-0.7 2.2 0 2.6 1z"/><path fill-rule="evenodd" class="b" d="m36.9 43.9q0 0 0 0c-1.6-0.1-3.8-0.5-5.7-1.8q-0.1-0.1 0-0.2c0.3-1.1 1.3-4.9 2.4-6.5l0.1-0.1c0.3-0.5 0.7-1 1.2-1.3q0.5-0.3 1-0.3c0.7 0 1.5 0.5 1.8 1.3q0.2 0.3 0.2 0.7c0.2 1.6 0.2 3.1 0 4.5q-0.3 1.8-0.9 3.6 0 0.1-0.1 0.1zm-5.5-2c1.8 1.3 3.9 1.6 5.4 1.7q0.6-1.7 0.8-3.4c0.2-1.4 0.2-2.9 0.1-4.5q-0.1-0.3-0.2-0.6c-0.3-0.7-1-1.2-1.6-1.2q-0.5 0-0.8 0.3c-0.6 0.3-0.9 0.8-1.2 1.3l-0.1 0.1c-1 1.4-2.1 5.1-2.4 6.3z"/><g style="opacity:.4;mix-blend-mode:multiply"><path class="m" d="m37.7 40.2q-0.2 1.8-0.8 3.5c-1.1 0-2.2-0.2-3.2-0.5 0.2-1.4 0.6-2.8 0.9-4.1 0.5-1.8 1.2-3.4 2.2-5 0.4 0.2 0.6 0.6 0.8 1q0.2 0.3 0.2 0.6c0.1 1.5 0.1 3-0.1 4.5z"/></g><path class="m" d="m36.3 49.3q-3.1-8 0.6-15.4c0.8-1.6 2.5-4.3 3.5-4.7 4.3-1.9 9.1 3 10.8 12.4 0.5 3.1 1.3 8.6 0 11.4-2 0.5-2.4 0.3-3.8 0.4-3.3 0.3-7 0.2-9.9-1.4q-0.6-1.2-1.2-2.7z"/><path fill-rule="evenodd" class="b" d="m44.9 53.7c-3.1 0-5.5-0.5-7.5-1.6q0 0 0 0-0.7-1.3-1.2-2.7c-3.1-8 0.6-15.4 0.6-15.5 0.7-1.5 2.4-4.4 3.6-4.9q0.9-0.4 1.8-0.4c4 0 7.7 5.2 9.1 13 0.7 3.8 1.3 8.9 0 11.5q0 0-0.1 0c-1.4 0.4-2 0.4-2.8 0.4-0.3 0-0.6 0-1 0.1q-1.3 0.1-2.5 0.1zm-7.3-1.8c1.9 1 4.3 1.5 7.3 1.5q1.2 0 2.5-0.1c0.4 0 0.7 0 1 0 0.8 0 1.4-0.1 2.7-0.4 1.2-2.6 0.6-7.6-0.1-11.3-1.3-7.6-4.9-12.7-8.8-12.7q-0.9 0-1.7 0.4c-1 0.4-2.7 3-3.5 4.7 0 0.1-3.6 7.4-0.6 15.3q0.5 1.4 1.2 2.6z"/><g style="opacity:.4;mix-blend-mode:multiply"><path class="m" d="m51.2 53c-2 0.5-2.4 0.3-3.8 0.4q-1.3 0.1-2.7 0.1c0.2-2.5-0.2-5.3-0.4-7.7-0.4-3.2-2-10.1-2.2-9.9-0.9 1-2.1 2.5-3.7 1.1-0.7-0.7-0.9-1.8-1-2.7q-0.1-0.6 0-1.3c0.8-1.6 2.1-3.5 3-3.8 4.3-1.9 9.1 3 10.8 12.4 0.5 3.1 1.3 8.6 0 11.4z"/></g><path class="n" d="m42.4 33.4c-0.2 0.6-0.4 1.2-0.8 1.7-0.7 0.9-1.9 0.7-2.5 0q-0.2-0.3-0.3-0.5c-0.3-1-0.3-2.6-0.5-3.6 1.6-0.4 2.8 0 4.4-0.2-0.1 0.5-0.2 2.3-0.3 2.6z"/><path fill-rule="evenodd" class="b" d="m40.4 35.9c-0.5 0-1-0.3-1.4-0.7q-0.2-0.3-0.3-0.6c-0.2-0.6-0.3-1.5-0.4-2.3 0-0.5-0.1-0.9-0.2-1.3q0-0.1 0.1-0.1c0.5-0.2 1-0.2 1.6-0.2q0.5 0 0.9 0 0.4 0 0.9 0 0.6 0 1.1 0 0 0 0.1 0 0 0 0 0.1c0 0.2 0 0.5-0.1 0.9 0 0.7-0.1 1.5-0.2 1.8v0.1c-0.2 0.6-0.4 1.1-0.8 1.6-0.3 0.4-0.8 0.7-1.3 0.7zm-2-4.8q0.1 0.5 0.2 1.2c0 0.8 0.1 1.6 0.3 2.2q0.1 0.3 0.3 0.5c0.3 0.4 0.8 0.6 1.2 0.6q0.7 0 1.1-0.5c0.4-0.5 0.5-1 0.7-1.6l0.1-0.1c0-0.2 0.1-1.1 0.2-1.8q0-0.4 0.1-0.7-0.5 0.1-1 0.1-0.5 0-0.9 0-0.4-0.1-0.9-0.1-0.8 0-1.4 0.2z"/><path class="o" d="m46.1 5.9q2.7-3.3 7.8-3.4c5.2-0.1 13.3 6.7 14.4 26.1q-2.2 1-5.1 1.4-0.5-4.5-1.5-5.9 0.3 2.6-0.5 6.4l-2.3 0.9q-0.2-2.4-0.6-3.8-0.2 2.7-0.3 3.8-3.1 0.8-4.2 0.2c0.8-3.4 3.3-20.3-7.7-25.7z"/><path fill-rule="evenodd" class="b" d="m54.9 31.9q-0.7 0-1.1-0.1-0.1-0.1-0.1-0.2c1.3-5.4 2.5-20.6-7.7-25.6q0 0 0-0.1 0-0.1 0-0.1c0 0 2.8-3.3 7.9-3.4h0.1c3 0 6.3 2.2 8.8 5.9 3.2 4.7 5.1 11.7 5.6 20.3q0 0.1 0 0.1c-2.3 1-5.2 1.4-5.2 1.4q0 0-0.1 0 0-0.1 0-0.1c0-0.1-0.5-3.7-1.2-5.3 0.1 2.5-0.6 5.8-0.6 5.9q0 0-0.1 0.1l-2.3 0.9q0 0-0.1-0.1 0 0-0.1-0.1c0 0-0.1-1.7-0.3-3-0.2 2.1-0.3 3-0.3 3q0 0.1-0.1 0.1c-0.1 0-1.8 0.4-3.1 0.4zm-0.9-0.3q0.3 0.1 0.9 0.1c1.2 0 2.6-0.3 3-0.4 0-0.3 0.1-1.4 0.3-3.7q0-0.1 0.1-0.1 0.1 0 0.2 0.1c0.3 1.1 0.4 3.1 0.5 3.7l2.1-0.9c0.1-0.5 0.8-4 0.5-6.3q0-0.1 0.1-0.1 0 0 0.1 0c0.9 1.3 1.4 5.1 1.5 5.8 0.6-0.1 3-0.5 4.9-1.3-0.5-8.5-2.5-15.4-5.6-20.1-2.5-3.6-5.7-5.8-8.6-5.8h-0.1c-4.5 0.1-7.1 2.7-7.6 3.2 4.6 2.4 7.4 7 8.2 13.7 0.6 5 0 9.9-0.5 12.1z"/><g style="mix-blend-mode:multiply"><path class="o" d="m63.4 29.9q-0.1 0.1-0.2 0.1-0.3-2.2-0.7-4c0.4 1.3 0.8 2.6 0.9 3.9z"/><path class="b" d="m63.2 30.1q-0.1 0-0.1 0 0-0.1 0-0.1c0 0-0.3-2.2-0.8-4q0-0.1 0.1-0.1 0.1-0.1 0.2 0c0.5 1.5 0.8 2.8 0.9 4q0 0.1-0.1 0.2-0.1 0-0.2 0 0 0 0 0z"/><path class="p" d="m61.8 25.2q0 2.4-0.6 5.3l-2.3 0.9q-0.2-2.4-0.6-3.8-0.2 2.7-0.3 3.8-3.1 0.8-4.2 0.2c0.8-3.4 3.3-20.3-7.7-25.7q2.7-3.3 7.8-3.4 0.3 0 0.5 0c-1.1 0.4-2.1 0.7-3.1 1.5 0 0.1-0.1 0.3 0 0.4 3.4 2.6 5 6.4 6 10.4 0.9 3.5 1.3 12.7 1.6 13.5 0.2 0.8 0.9 1 1.5 0.4 0.8-0.8 1.1-2.4 1.4-3.5q0 0 0 0z"/></g><path class="q" d="m46.3 3.3q1.4-2.8 2-2.7 0.6 0 0.8 3.1 3.3-1 4-0.9 0.7 0.2-1.7 3.7-1.4-2.1-5.1-3.2z"/><path fill-rule="evenodd" class="b" d="m51.4 6.6q0 0-0.1-0.1c0 0-1.4-2-5-3q-0.1-0.1-0.1-0.1 0-0.1 0-0.1c0.2-0.5 1.4-2.8 2.1-2.8 0.7 0 0.9 2.1 0.9 3 0.6-0.2 2.9-0.8 3.7-0.8q0.1 0 0.2 0 0.2 0 0.2 0.2c0.3 0.6-1.4 3.1-1.8 3.6q0 0.1-0.1 0.1zm-4.9-3.3c3.1 0.9 4.5 2.5 4.9 3 0.8-1.3 1.8-3 1.7-3.3q-0.1-0.1-0.2-0.1c-0.9 0-3.7 0.9-3.8 0.9q0 0-0.1 0 0-0.1 0-0.1c-0.1-1.4-0.4-3-0.7-3-0.4 0-1.3 1.5-1.8 2.6z"/><path class="n" d="m49.5 27.3q-0.8 1.6-1.6 2.4c-0.3 0.3-4.3 5.5-14 4.4q-13.6-1.7-11.5-14.8 7.5-0.8 10.2-5.5c1.5 2.8 20.7 7.4 21.4 9.3 0.7 2-1.1 6.1-4.5 4.2z"/><path fill-rule="evenodd" class="b" d="m36.6 34.4q-1.3 0-2.7-0.2c-4.1-0.5-7.2-2.1-9.2-4.7-3.3-4.4-2.5-10.2-2.5-10.3q0 0 0.1-0.1c0.1 0 7.6-0.8 10.2-5.4q0.1-0.1 0.1-0.1 0.1 0 0.1 0.1c0.8 1.5 6.8 3.6 12.1 5.4 4.8 1.6 9 3 9.3 4 0.4 1 0.1 2.5-0.6 3.5-0.6 0.8-1.4 1.3-2.4 1.3q-0.7 0-1.6-0.4c-0.7 1.5-1.4 2.2-1.5 2.3q0 0 0 0.1c-1.2 1.3-4.8 4.5-11.4 4.5zm-14.1-15c-0.1 0.7-0.7 5.9 2.4 9.9 1.9 2.6 5 4.2 9 4.7q1.4 0.1 2.7 0.1c6.6 0 10-3.1 11.2-4.4q0-0.1 0.1-0.1c0 0 0.7-0.8 1.4-2.4q0.1 0 0.1 0 0.1 0 0.1 0 0.9 0.4 1.6 0.5c1.1 0 1.8-0.7 2.2-1.3 0.7-0.9 0.9-2.3 0.6-3.2-0.3-0.9-4.8-2.4-9.1-3.9-5.5-1.8-11-3.8-12.2-5.3-2.6 4.3-9.3 5.3-10.1 5.4z"/><path class="n" d="m49.5 27.3q-0.8 1.6-1.6 2.4c-0.3 0.3-4.3 5.5-14 4.4q-13.6-1.7-11.5-14.8 7.5-0.8 10.2-5.5c1.5 2.8 20.7 7.4 21.4 9.3 0.7 2-1.1 6.1-4.5 4.2z"/><path fill-rule="evenodd" class="b" d="m36.6 34.4q-1.3 0-2.7-0.2c-4.1-0.5-7.2-2.1-9.2-4.7-3.3-4.4-2.5-10.2-2.5-10.3q0 0 0.1-0.1c0.1 0 7.6-0.8 10.2-5.4q0.1-0.1 0.1-0.1 0.1 0 0.1 0.1c0.8 1.5 6.8 3.6 12.1 5.4 4.8 1.6 9 3 9.3 4 0.4 1 0.1 2.5-0.6 3.5-0.6 0.8-1.4 1.3-2.4 1.3q-0.7 0-1.6-0.4c-0.7 1.5-1.4 2.2-1.5 2.3q0 0 0 0.1c-1.2 1.3-4.8 4.5-11.4 4.5zm-14.1-15c-0.1 0.7-0.7 5.9 2.4 9.9 1.9 2.6 5 4.2 9 4.7q1.4 0.1 2.7 0.1c6.6 0 10-3.1 11.2-4.4q0-0.1 0.1-0.1c0 0 0.7-0.8 1.4-2.4q0.1 0 0.1 0 0.1 0 0.1 0 0.9 0.4 1.6 0.5c1.1 0 1.8-0.7 2.2-1.3 0.7-0.9 0.9-2.3 0.6-3.2-0.3-0.9-4.8-2.4-9.1-3.9-5.5-1.8-11-3.8-12.2-5.3-2.6 4.3-9.3 5.3-10.1 5.4z"/><g style="mix-blend-mode:multiply"><path class="n" d="m49.5 27.3q-0.8 1.6-1.6 2.4c-0.2 0.3-3.9 5.1-12.8 4.5q1.4-0.1 2.6-0.3c3.9-0.7 7.4-3.1 5.7-7.5-1.7-4.1-7.2-7.1-11.4-7.9-2.5-0.4-5.1 0-7.5 1q-1.3 0.5-2.3 1.4 0.1-1 0.2-1.6 7.5-0.8 10.2-5.5c1.5 2.8 20.7 7.4 21.4 9.3 0.7 2-1.1 6.1-4.5 4.2z"/></g><path class="o" d="m51.9 29.1q-3.1 1.8-4 0.6 0.8-0.8 1.6-2.4c2.7 1 4.1-0.8 4-2.9-0.2-2.3-4.2-3.1-4.9 0.6-9.9-3.8-15.6-8.6-16-11.2q-2.7 4.7-10.2 5.5h-0.6q-1.8-1.7-0.9-5.6c1.8-8.8 10.1-13 17.8-12.5 7.8 0.5 13 3.2 16.3 9.3 4.1 8.3 0 16.7-3.1 18.6z"/><path fill-rule="evenodd" class="b" d="m49.1 30.2c-0.9 0-1.2-0.4-1.3-0.4q0-0.1 0.1-0.2c0 0 0.7-0.8 1.4-2.4q0.1 0 0.2 0c1.3 0.5 2.4 0.3 3.1-0.4 0.5-0.6 0.8-1.4 0.8-2.4-0.1-1.1-1.2-1.8-2.2-1.8-1.2 0-2.1 0.9-2.4 2.4q0 0-0.1 0.1 0 0-0.1 0c-9.7-3.7-15.3-8.3-16-11-2.8 4.5-10.2 5.3-10.2 5.3h-0.6q-0.1 0-0.1 0c-0.1-0.1-1.8-1.8-0.9-5.8 1.8-8.7 9.6-12.6 16.6-12.6q0.7 0 1.3 0.1c8.2 0.5 13.2 3.4 16.4 9.3 4.1 8.4 0.1 16.8-3.1 18.8q-1.8 1-2.9 1zm-1-0.5c0.1 0.1 0.4 0.3 1 0.3q1.1 0 2.7-1c1.4-0.9 3.3-3.3 4.2-6.8 0.7-2.8 1.1-7-1.2-11.7-3-5.8-8-8.6-16.1-9.2q-0.6 0-1.3 0c-6.9 0-14.6 3.8-16.3 12.4-0.8 3.5 0.5 5.2 0.7 5.5l0.5-0.1c0.1 0 7.6-0.8 10.2-5.4q0.1-0.1 0.1-0.1 0.1 0.1 0.1 0.1c0.4 2.7 6 7.3 15.9 11.1 0.4-1.8 1.6-2.5 2.6-2.5 1.1 0 2.3 0.8 2.4 2.1 0.1 1-0.2 1.9-0.8 2.6-0.8 0.8-1.9 0.9-3.3 0.4-0.6 1.3-1.2 2.1-1.4 2.3z"/><path class="b" d="m50.2 26.7q-0.1 0-0.1-0.1c0 0-0.1-1.5 1-2.2q0.6-0.4 1-0.3c0.4 0.1 0.5 0.5 0.5 0.5q0.1 0.1 0 0.2-0.1 0-0.2-0.1c0 0-0.1-0.3-0.4-0.4q-0.3-0.1-0.8 0.2c-1 0.7-0.9 2.1-0.9 2.1q0 0.1-0.1 0.1 0 0 0 0z"/><path class="b" d="m51.1 26.1q-0.2 0-0.4-0.2-0.3-0.3-0.2-0.9 0-0.1 0.1-0.1 0.1 0.1 0.1 0.2-0.1 0.5 0.1 0.7c0.2 0.1 0.6 0.1 0.6 0.1q0.1 0 0.1 0.1 0 0.1-0.1 0.1c0 0-0.1 0-0.3 0z"/><path class="g" d="m15.9 77.3c-0.9-0.9-1.2-2 0.4-2.4 2.4-0.7 5.7 1.3 6.9 2.2 0.9 0.7 0.7 1.8 0.1 2.6q0 0.1 0 0.1c-1.6 2-6.2-1.3-7.4-2.5z"/><path fill-rule="evenodd" class="b" d="m21.8 80.5c-2.2 0-5.2-2.3-6-3.1-0.6-0.6-0.9-1.2-0.7-1.7q0.1-0.6 1.2-1 0.5-0.1 1.1-0.1c2.2 0 4.8 1.6 5.9 2.4q0.6 0.5 0.6 1.4c0 0.5-0.2 1-0.5 1.4v0.1q-0.6 0.6-1.6 0.6zm-4.4-5.6q-0.6 0-1 0.1-1 0.3-1.1 0.8c-0.1 0.4 0.1 0.9 0.6 1.4 1 0.9 3.9 3.1 5.9 3.1q0.9 0 1.4-0.6c0.3-0.4 0.5-0.9 0.5-1.3 0-0.4-0.1-0.8-0.6-1.2-1-0.8-3.6-2.3-5.7-2.3z"/><path class="h" d="m15.9 77.3c-0.9-0.9-1.2-2 0.4-2.4 0.9-0.3 2-0.2 3 0.2 0.4 0.7 0.3 1.6 0 2.5-0.1 0.5-0.4 1.1-0.8 1.7-1.1-0.7-2.2-1.5-2.6-2z"/><path fill-rule="evenodd" class="b" d="m18.5 79.4q0 0 0 0c-1.2-0.7-2.2-1.5-2.7-2-0.6-0.6-0.9-1.2-0.7-1.7q0.1-0.6 1.2-1 1.3-0.3 3 0.2 0.1 0.1 0.1 0.1c0.4 0.9 0.2 1.9 0 2.7-0.2 0.5-0.4 1.1-0.8 1.6q0 0.1-0.1 0.1zm-1.1-4.5q-0.6 0-1 0.1-1 0.3-1.1 0.8c-0.1 0.4 0.1 0.9 0.6 1.4 0.5 0.5 1.5 1.2 2.6 1.9 0.3-0.5 0.5-1 0.7-1.5 0.2-0.7 0.4-1.6 0-2.4q-1-0.3-1.8-0.3z"/><path class="i" d="m23.1 79.9c-1.7 1.7-6.1-1.4-7.2-2.6-0.6-0.6-0.9-1.3-0.6-1.8 0.9-0.8 3.5 0.9 4.1 1.1 0.9 0.6 3.7 1.8 3.7 3.3z"/><path fill-rule="evenodd" class="b" d="m21.8 80.5c-2.2 0-5.2-2.3-6-3.1-0.7-0.7-0.9-1.4-0.6-2q0 0 0 0 0.3-0.2 0.8-0.2c1 0 2.7 0.9 3.3 1.3h0.1q0.2 0.1 0.5 0.3c1.2 0.6 3.3 1.8 3.4 3.1q0 0.1-0.1 0.1-0.5 0.5-1.4 0.5zm-6.4-4.9c-0.2 0.4 0 1.1 0.5 1.6 1 0.9 3.9 3.1 5.9 3.1q0.8 0 1.2-0.4c-0.1-1.2-2.1-2.3-3.3-2.9q-0.2-0.1-0.4-0.2l-0.2-0.1c-0.5-0.4-2.1-1.3-3.1-1.3q-0.4 0-0.6 0.2z"/><path  d="m27.8 25.4c0.1 0.6 0 1.2-0.4 1.3-0.4 0.1-0.9-0.3-1-0.8-0.2-0.6 0-1.2 0.3-1.3 0.4-0.1 0.9 0.2 1.1 0.8z"/><path  d="m37.6 24.8c0.1 0.6 0 1.2-0.4 1.3-0.4 0.1-0.9-0.3-1.1-0.9-0.1-0.6 0-1.1 0.4-1.2 0.4-0.2 0.9 0.2 1.1 0.8z"/><path class="r" d="m35.3 33.7c-0.7-0.3-1.3-1.5-0.6-2.1 0.2-0.2 0.5-0.2 0.8 0 0.9 0.5 1.3 2.6-0.2 2.1z"/><path fill-rule="evenodd" class="b" d="m35.7 33.9q-0.2 0-0.4-0.1c-0.5-0.2-0.9-0.7-1-1.3-0.1-0.4 0-0.8 0.3-1 0.2-0.2 0.6-0.2 1 0 0.5 0.3 0.9 1.3 0.8 1.9q-0.2 0.5-0.7 0.5zm-0.7-2.3q-0.1 0-0.3 0.1c-0.2 0.2-0.2 0.5-0.2 0.8 0.1 0.4 0.5 0.9 0.8 1q0.3 0.1 0.4 0.1 0.3 0 0.4-0.3c0.1-0.4-0.2-1.3-0.7-1.6q-0.2-0.1-0.4-0.1z"/><path class="a" d="m9.3 63v29.9h-1.4v-29.9z"/><path fill-rule="evenodd" class="b" d="m9.3 93h-1.4c-0.1 0-0.1 0-0.1-0.1v-29.9q0-0.1 0.1-0.2h1.4q0.1 0.1 0.1 0.2v29.9c0 0.1-0.1 0.1-0.1 0.1zm-1.3-0.2h1.2v-29.7h-1.2z"/><path class="c" d="m9.3 91.5v1.4h-1.4v-1.4z"/><path fill-rule="evenodd" class="b" d="m9.3 93h-1.4c-0.1 0-0.1 0-0.1-0.1v-1.4c0-0.1 0-0.2 0.1-0.2h1.4c0 0 0.1 0.1 0.1 0.2v1.4c0 0.1-0.1 0.1-0.1 0.1zm-1.3-0.2h1.2v-1.2h-1.2z"/><path class="a" d="m63.3 63v29.9h-1.4v-29.9z"/><path fill-rule="evenodd" class="b" d="m63.3 93h-1.4q-0.1 0-0.1-0.1v-29.9q0-0.1 0.1-0.2h1.4q0.1 0.1 0.1 0.2v29.9q0 0.1-0.1 0.1zm-1.3-0.2h1.2v-29.7h-1.2z"/><path class="c" d="m63.3 92v0.9h-1.4v-0.9z"/><path fill-rule="evenodd" class="b" d="m63.3 93h-1.4q-0.1 0-0.1-0.1v-0.9q0-0.1 0.1-0.1h1.4q0.1 0 0.1 0.1v0.9q0 0.1-0.1 0.1zm-1.3-0.2h1.2v-0.7h-1.2z"/><path class="a" d="m12.8 57.1v29.9h-1.4v-29.9z"/><path fill-rule="evenodd" class="b" d="m12.8 87.2h-1.4q-0.1-0.1-0.1-0.2v-29.9q0-0.1 0.1-0.1h1.4q0.1 0 0.2 0.1v29.9q-0.1 0.1-0.2 0.2zm-1.2-0.3h1.1v-29.7h-1.1z"/><path class="c" d="m12.8 86v1h-1.4v-1z"/><path fill-rule="evenodd" class="b" d="m12.8 87.2h-1.4q-0.1-0.1-0.1-0.2v-1q0-0.1 0.1-0.1h1.4q0.1 0 0.2 0.1v1q-0.1 0.1-0.2 0.2zm-1.2-0.3h1.1v-0.8h-1.1z"/><path class="a" d="m59.7 57.1v29.9h-1.3v-29.9z"/><path fill-rule="evenodd" class="b" d="m59.7 87.2h-1.3q-0.2-0.1-0.2-0.2v-29.9q0-0.1 0.2-0.1h1.3q0.2 0 0.2 0.1v29.9q0 0.1-0.2 0.2zm-1.2-0.3h1.1v-29.7h-1.1z"/><path class="c" d="m59.7 86.1v0.9h-1.3v-0.9z"/><path fill-rule="evenodd" class="b" d="m59.7 87.2h-1.3q-0.2-0.1-0.2-0.2v-0.9q0-0.1 0.2-0.1h1.3q0.2 0 0.2 0.1v0.9q0 0.1-0.2 0.2zm-1.2-0.3h1.1v-0.7h-1.1z"/><path class="s" d="m67.3 63.4c0 1.4-0.4 3.2-2.5 3.8h-58.4c-1.9-0.5-2.4-2-2.5-3.3v-2.8h63.4v2.3z"/><path fill-rule="evenodd" class="b" d="m64.8 67.3h-58.4c-1.6-0.4-2.5-1.6-2.6-3.4q0 0 0 0v-2.8q0-0.1 0.1-0.1h63.4q0.1 0 0.1 0.1v2.3q0 0 0 0c0 1.5-0.4 3.3-2.6 3.9q0 0 0 0zm-60.7-3.5q0 0 0 0.1 0 2.6 2.4 3.1h58.3c2-0.5 2.4-2.2 2.3-3.6q0 0 0 0v-2.2h-63z"/><path class="f" d="m70.4 60.5c0.1 0.7-0.3 1.6-2.7 1.9h-64.2c-2.1-0.2-2.7-1-2.7-1.7v-0.4-2l69.6 0.8v1.4z"/><path fill-rule="evenodd" class="b" d="m67.7 62.5h-64.2c-2.3-0.2-2.8-1.1-2.8-1.7l-0.1-0.5 0.1-2q0-0.2 0.1-0.2l69.6 0.8q0.1 0 0.1 0.1v1.5q0 0 0 0c0.1 0.8-0.3 1.7-2.8 2q0 0 0 0zm-66.8-4.1v1.9 0.4c0.1 0.9 1 1.4 2.6 1.6h64.2c1.8-0.2 2.7-0.8 2.6-1.8q0 0 0 0v-1.3z"/><path class="e" d="m67.7 60.8h-29.8-4.6-29.8q-3-0.3-2.7-2.6l0.2-8.8q0.2-1.7 2-1.6h26.3 12.6 25.5q3.1 0 2.8 2.1l0.2 9.1q0.3 1.5-2.7 1.8z"/><path fill-rule="evenodd" class="b" d="m67.7 61h-64.2q-1.6-0.2-2.3-1.1c-0.6-0.8-0.5-1.7-0.5-1.7l0.2-8.8c0 0 0.2-1.8 2.1-1.7h64.5q1.6 0 2.4 0.8c0.5 0.7 0.5 1.4 0.5 1.4l0.1 9.1q0.1 0.4-0.3 0.9-0.6 0.8-2.5 1.1 0 0 0 0zm-64.8-13.1c-1.6 0-1.8 1.4-1.8 1.5l-0.2 8.8c0 0-0.1 0.8 0.5 1.5q0.6 0.9 2.1 1h64.2c1.5-0.1 2.1-0.6 2.3-1 0.3-0.3 0.3-0.7 0.3-0.7l-0.2-9.1c0 0 0.1-0.7-0.4-1.2q-0.7-0.8-2.2-0.8h-64.5q-0.1 0-0.1 0z"/><path class="b" d="m30.1 48.3c-3.3 0-7.9-0.4-8.2-0.4-0.1-0.1-0.2-0.2-0.2-0.3 0-0.1 0.1-0.2 0.2-0.2 0.1 0 9.1 0.7 10.8 0.2 1.4-0.4 1.5-3.2 1.5-4.2 0-0.1 0.1-0.2 0.2-0.2 0.1 0 0.3 0.1 0.3 0.2 0 0.2 0.1 4-1.8 4.6-0.5 0.2-1.6 0.3-2.8 0.3z"/><path class="b" d="m39.7 51.6q-1.2 0-2.6-0.1c-0.2-0.1-0.3-0.2-0.2-0.3 0-0.1 0.1-0.2 0.2-0.2 2.1 0.1 3.6 0.1 5-0.1 4.7-0.7 6.9-4.2 6.6-10.8 0-1.2-0.2-2.5-0.4-3.6q-0.1-0.5-0.1-0.9c0-0.1 0.1-0.2 0.2-0.3 0.1 0 0.2 0.1 0.3 0.2q0 0.5 0.1 0.9c0.2 1.2 0.4 2.4 0.4 3.6 0.3 7-2 10.7-7 11.4q-1.1 0.2-2.5 0.2z"/><path class="m" d="m47.8 31.8c1 0.6 1.6 1.8 2 2.8 0.5 1.3 0.9 2.6 1.2 4 0 0.2 0.6 2.5 0.4 2.5-2 0.9-4.2 1.3-6.3 0.9-0.2-1.3-0.9-5.6-0.5-7.6 0.2-0.7 0.3-1.4 0.7-2 0.5-0.8 1.6-1 2.5-0.6z"/><path fill-rule="evenodd" class="b" d="m46.7 42.3q-0.8 0-1.6-0.2-0.1 0-0.1-0.1c-0.2-1.3-0.9-5.6-0.5-7.6v-0.1c0.2-0.7 0.3-1.3 0.7-1.9 0.3-0.6 0.9-0.9 1.6-0.9q0.5 0 1 0.2c1.1 0.6 1.7 1.9 2.1 2.9 0.4 1.1 0.8 2.3 1.2 4 0.6 2.5 0.5 2.6 0.3 2.6-1.6 0.7-3.2 1.1-4.7 1.1zm-1.5-0.4c1.8 0.3 4 0 6.1-0.9 0-0.1 0-0.5-0.4-2.3l-0.1-0.1c-0.3-1.6-0.7-2.8-1.1-3.9-0.4-1-1-2.2-2-2.8q-0.4-0.2-0.9-0.2c-0.6 0-1.1 0.3-1.4 0.8-0.4 0.6-0.5 1.2-0.6 1.8l-0.1 0.2c-0.3 1.9 0.3 6 0.5 7.4z"/><g style="opacity:.4;mix-blend-mode:multiply"><path class="m" d="m51.4 41.1q-1.1 0.5-2.2 0.8c-0.4-3.3-1.3-9.1-3.2-10.1 0.5-0.3 1.2-0.3 1.8 0 1 0.6 1.6 1.8 2 2.8 0.5 1.3 0.9 2.6 1.2 4 0 0.2 0.6 2.5 0.4 2.5z"/></g><path class="t" d="m31.4 56.7v1.6l-20.2-4.3v-1.5l0.5-0.5z"/><path fill-rule="evenodd" class="b" d="m31.4 58.4q0 0-0.1 0l-20.1-4.3q-0.1 0-0.1-0.1v-1.5q0-0.1 0-0.1l0.5-0.5q0.1 0 0.1 0l19.7 4.6q0.1 0.1 0.1 0.2v1.6q0 0.1 0 0.1-0.1 0-0.1 0zm-20.1-4.5l20 4.3v-1.5l-19.6-4.6-0.4 0.5z"/><path class="u" d="m43.9 53.9l1.8-0.1v1.3l-14.3 3.2-0.2-1.3z"/><path fill-rule="evenodd" class="b" d="m31.4 58.4q-0.1 0-0.1 0 0 0 0-0.1l-0.2-1.3q0-0.1 0.1-0.2l12.7-3 1.8-0.1q0 0 0.1 0 0 0 0 0.1v1.3q0 0.1-0.1 0.2l-14.3 3.1q0 0 0 0zm-0.1-1.3l0.2 1.1 14.1-3.2v-1.1l-1.7 0.1z"/><path class="t" d="m45.7 53.8l-14.5 3.2-20-4.5 16.1-2.2z"/><path fill-rule="evenodd" class="b" d="m31.2 57.1q0 0 0 0l-20-4.5q-0.1 0-0.1-0.1 0-0.1 0.1-0.1l16.1-2.2q0 0 0 0l18.4 3.5q0.1 0 0.1 0.1 0 0.1-0.1 0.1l-14.5 3.2q0 0 0 0zm-19.3-4.6l19.3 4.3 13.9-3-17.8-3.4z"/><path class="v" d="m31.6 53.7l2.9 0.7-3.5 0.8-2.8-0.7z"/><path fill-rule="evenodd" class="b" d="m31 55.3q0 0 0 0l-2.9-0.7q-0.1 0-0.1-0.1 0-0.1 0.1-0.1l3.5-0.8q0 0 0.1 0l2.8 0.7q0.1 0 0.1 0.1 0 0.1-0.1 0.1l-3.5 0.8q0 0 0 0zm-2.3-0.8l2.3 0.5 2.9-0.6-2.3-0.5z"/><path class="v" d="m37.4 53.7l2.5-0.5 3 0.6-2.7 0.6z"/><path fill-rule="evenodd" class="b" d="m40.2 54.5q0 0 0 0l-2.8-0.7q-0.1 0-0.1-0.1 0-0.1 0.1-0.1l2.4-0.5q0.1 0 0.1 0l3.1 0.6q0.1 0 0.1 0.1 0 0.1-0.1 0.1l-2.8 0.6q0 0 0 0zm-2.2-0.8l2.2 0.6 2.1-0.5-2.4-0.5z"/><path class="v" d="m37.4 53.7l-2.9 0.7-2.9-0.7 3-0.6z"/><path fill-rule="evenodd" class="b" d="m34.5 54.5q0 0-0.1 0l-2.8-0.7q-0.1 0-0.1-0.1 0-0.1 0.1-0.1l3-0.7q0 0 0 0l2.9 0.7q0.1 0 0.1 0.1 0 0.1-0.1 0.1l-3 0.7q0 0 0 0zm-2.3-0.8l2.3 0.6 2.4-0.6-2.3-0.5z"/><path class="v" d="m37.4 53.7l2.8 0.7-3 0.6-2.7-0.6z"/><path fill-rule="evenodd" class="b" d="m37.2 55.2q0 0 0 0l-2.8-0.7q0 0 0-0.1 0-0.1 0.1-0.1l2.9-0.7q0 0 0.1 0l2.7 0.7q0.1 0 0.1 0.1 0 0.1-0.1 0.1l-3 0.7q0 0 0 0zm-2.2-0.8l2.2 0.5 2.5-0.5-2.3-0.5z"/><path class="v" d="m28.2 54.5l-2.7 0.6-3.3-0.8 2.6-0.6z"/><path fill-rule="evenodd" class="b" d="m25.5 55.2q0 0 0 0l-3.4-0.8q-0.1 0-0.1-0.1 0-0.1 0.1-0.1l2.7-0.6q0 0 0 0l3.4 0.8q0.1 0 0.1 0.1 0 0.1-0.1 0.1l-2.6 0.6q-0.1 0-0.1 0zm-2.8-0.9l2.8 0.7 2.1-0.5-2.8-0.7z"/><path class="v" d="m28.2 54.5l2.8 0.7-2.6 0.6-2.9-0.7z"/><path fill-rule="evenodd" class="b" d="m28.4 55.9q0 0-0.1 0l-2.8-0.7q-0.1 0-0.1-0.1 0-0.1 0.1-0.1l2.6-0.6q0.1 0 0.1 0l2.8 0.6q0.1 0.1 0.1 0.2 0 0.1-0.1 0.1l-2.6 0.6q0 0 0 0zm-2.3-0.8l2.3 0.5 2.1-0.4-2.3-0.6z"/><path class="v" d="m24.8 53.7l-2.6 0.6-3.5-0.8 2.6-0.6z"/><path fill-rule="evenodd" class="b" d="m22.2 54.4q-0.1 0-0.1 0l-3.4-0.8q-0.1 0-0.1-0.1 0-0.1 0.1-0.1l2.6-0.6q0 0 0.1 0l3.4 0.8q0.1 0 0.1 0.1 0 0.1-0.1 0.1l-2.6 0.6q0 0 0 0zm-3-0.9l3 0.7 2-0.5-2.9-0.7z"/><path class="v" d="m28.3 52.9l2.9-0.6 3.4 0.8-3 0.6z"/><path fill-rule="evenodd" class="b" d="m31.6 53.8q0 0 0 0l-3.4-0.7q0-0.1-0.1-0.2 0.1-0.1 0.1-0.1l3-0.6q0 0 0.1 0l3.3 0.7q0.1 0.1 0.1 0.2 0 0.1-0.1 0.1l-2.9 0.6q0 0-0.1 0zm-2.8-0.9l2.8 0.7 2.5-0.5-2.9-0.7z"/><path class="v" d="m28.3 52.9l3.3 0.8-3.4 0.8-3.4-0.8z"/><path fill-rule="evenodd" class="b" d="m28.2 54.6q-0.1 0-0.1 0l-3.3-0.8q-0.1 0-0.1-0.1 0-0.1 0.1-0.1l3.4-0.8q0.1 0 0.1 0l3.4 0.8q0.1 0 0.1 0.1 0 0.1-0.1 0.1l-3.5 0.8q0 0 0 0zm-2.9-0.9l2.9 0.7 2.9-0.7-2.8-0.6z"/><path class="v" d="m28.3 52.9l-3.5-0.8 3-0.6 3.4 0.8z"/><path fill-rule="evenodd" class="b" d="m28.3 53.1q0 0-0.1 0l-3.4-0.9q-0.1 0-0.1-0.1 0-0.1 0.1-0.1l2.9-0.7q0.1 0 0.1 0l3.5 0.9q0.1 0 0.1 0.1 0 0.1-0.1 0.1l-3 0.7q0 0 0 0zm-3-1l3 0.7 2.4-0.5-2.9-0.7z"/><path class="v" d="m24.8 53.7l-3.5-0.8 3.5-0.8 3.5 0.8z"/><path fill-rule="evenodd" class="b" d="m24.8 53.8q0 0 0 0l-3.5-0.8q-0.1 0-0.1-0.1 0-0.1 0.1-0.1l3.5-0.8q0 0 0 0l3.5 0.8q0.1 0 0.1 0.1 0 0.1-0.1 0.2l-3.5 0.7q0 0 0 0zm-2.9-0.9l2.9 0.7 2.9-0.7-2.9-0.6z"/><path class="v" d="m37.2 55l-3.5 0.8-2.7-0.6 3.5-0.8z"/><path fill-rule="evenodd" class="b" d="m33.7 55.9q0 0 0 0l-2.7-0.6q-0.1 0-0.1-0.1 0-0.1 0.1-0.2l3.5-0.7q0 0 0 0l2.7 0.6q0.1 0 0.1 0.1 0 0.1-0.1 0.2l-3.5 0.7q0 0 0 0zm-2.1-0.7l2.1 0.5 3-0.7-2.2-0.5z"/><path class="v" d="m22.2 54.3l-1.5 0.3-3.6-0.8 1.6-0.3z"/><path fill-rule="evenodd" class="b" d="m20.7 54.8q0 0 0 0l-3.6-0.8q-0.1-0.1-0.1-0.2 0-0.1 0.1-0.1l1.6-0.3q0 0 0 0l3.5 0.8q0.1 0 0.1 0.1 0 0.1-0.1 0.1l-1.5 0.4q0 0 0 0zm-3-1l3 0.7 0.9-0.2-2.9-0.7z"/><path class="v" d="m25.5 55.1l-1.4 0.3-3.4-0.8 1.5-0.3z"/><path fill-rule="evenodd" class="b" d="m24.1 55.5q0 0 0 0l-3.4-0.7q-0.1-0.1-0.1-0.2 0-0.1 0.1-0.1l1.4-0.3q0.1 0 0.1 0l3.4 0.8q0 0 0.1 0.1-0.1 0.1-0.1 0.1l-1.4 0.3q-0.1 0-0.1 0zm-2.9-0.9l2.9 0.7 0.9-0.2-2.8-0.7z"/><path class="v" d="m28.4 55.8l-1.4 0.3-2.9-0.7 1.4-0.3z"/><path fill-rule="evenodd" class="b" d="m27 56.2q0 0 0 0l-2.9-0.7q-0.1 0-0.1-0.1 0-0.1 0.1-0.1l1.4-0.3q0 0 0.1 0l2.8 0.6q0.1 0.1 0.1 0.2 0 0.1-0.1 0.1l-1.3 0.3q0 0-0.1 0zm-2.3-0.8l2.3 0.5 0.8-0.1-2.3-0.6z"/><path class="v" d="m34.6 53.1l2.1-0.5 3.2 0.6-2.5 0.5z"/><path fill-rule="evenodd" class="b" d="m37.4 53.9q0 0 0-0.1l-2.8-0.6q-0.1 0-0.1-0.1 0-0.1 0.1-0.2l2.1-0.4q0 0 0.1 0l3.1 0.6q0.1 0 0.1 0.1 0 0.1-0.1 0.1l-2.4 0.5q0 0.1-0.1 0.1zm-2.2-0.8l2.2 0.5 1.9-0.4-2.6-0.5z"/><path class="v" d="m28.4 55.8l2.6 0.6-1.2 0.3-2.8-0.6z"/><path fill-rule="evenodd" class="b" d="m29.8 56.8q-0.1 0-0.1 0l-2.7-0.6q-0.1-0.1-0.1-0.1 0-0.1 0.1-0.2l1.3-0.3q0.1 0 0.1 0l2.7 0.7q0.1 0 0.1 0.1 0 0.1-0.1 0.1l-1.3 0.3q0 0 0 0zm-2.2-0.7l2.2 0.4 0.7-0.1-2.1-0.5z"/><path class="v" d="m31 55.2l2.7 0.6-2.7 0.6-2.6-0.6z"/><path fill-rule="evenodd" class="b" d="m31 56.5q0 0 0 0l-2.7-0.6q0 0-0.1-0.1 0.1-0.1 0.1-0.2l2.7-0.6q0 0 0 0l2.7 0.7q0.1 0 0.1 0.1 0 0.1-0.1 0.1l-2.6 0.6q0 0-0.1 0zm-2.1-0.7l2.1 0.5 2.1-0.5-2.1-0.5z"/><path class="v" d="m18.7 53.5l-1.6 0.3-5.5-1.2 13.2-1.8 3 0.7-3 0.6-3.5-0.8 3.5 0.8-3.5 0.8-3.6-0.8 3.6 0.8-2.6 0.6-4.2-1z"/><path fill-rule="evenodd" class="b" d="m17.1 54q0 0 0 0l-5.5-1.3q-0.1 0-0.1-0.1 0-0.1 0.1-0.1l13.2-1.8q0 0 0 0l3 0.6q0.1 0.1 0.1 0.2 0 0.1-0.1 0.1l-3 0.6-3.4 0.8-2.7 0.6-1.5 0.4q-0.1 0-0.1 0zm-4.8-1.4l4.8 1.1 1-0.2-3.6-0.9q-0.1 0-0.1-0.1 0 0 0 0 0-0.1 0.1-0.1l4.2 1 2.1-0.5-3.1-0.7q-0.1 0-0.1-0.1 0 0 0-0.1 0-0.1 0.2-0.1l3.5 0.9 3-0.7-3-0.7q0 0-0.1 0zm9.6-1.3l3 0.7 2.4-0.6-2.4-0.5z"/><path class="v" d="m31.2 52.3l1.8-0.4 3.7 0.7-2.1 0.5z"/><path fill-rule="evenodd" class="b" d="m34.6 53.2q0 0 0 0l-3.4-0.8q-0.1 0-0.1-0.1 0-0.1 0.1-0.1l1.8-0.4q0 0 0 0l3.8 0.7q0 0 0.1 0.1-0.1 0.1-0.1 0.1l-2.2 0.5q0 0 0 0zm-2.8-0.9l2.8 0.6 1.5-0.3-3.1-0.6z"/><path class="v" d="m27.8 51.5l1.4-0.4 3.8 0.8-1.8 0.4z"/><path fill-rule="evenodd" class="b" d="m31.2 52.4q0 0 0 0l-3.5-0.8q0 0-0.1-0.1 0.1-0.1 0.1-0.2l1.5-0.3q0 0 0 0l3.8 0.8q0.1 0 0.1 0.1 0 0.1-0.1 0.1l-1.7 0.4q0 0-0.1 0zm-2.9-0.9l2.9 0.7 1.2-0.3-3.2-0.6z"/><path class="v" d="m27.8 51.5l-3-0.7 1.4-0.2 3 0.5z"/><path fill-rule="evenodd" class="b" d="m27.8 51.6q0 0-0.1 0l-2.9-0.7q-0.1 0-0.1-0.1 0-0.1 0.1-0.1l1.4-0.2q0 0 0.1 0l2.9 0.5q0.1 0.1 0.1 0.1 0 0.1-0.1 0.2l-1.4 0.3q0 0 0 0zm-2.3-0.8l2.3 0.5 0.8-0.1-2.4-0.5z"/><path class="b" d="m30.6 57.5l-19.4-5-6.3-13.2 0.5-0.5 20.1 3.2 5.7 15z"/><path fill-rule="evenodd" class="b" d="m30.6 57.6q0 0 0 0l-19.4-5q-0.1 0-0.1 0l-6.3-13.3q-0.1-0.1 0-0.1l0.6-0.5q0-0.1 0.1-0.1l20 3.3q0.1 0 0.1 0l5.7 15q0 0.1 0 0.2l-0.6 0.5q-0.1 0-0.1 0zm-19.3-5.2l19.3 4.9 0.4-0.4-5.6-14.8-19.9-3.2-0.5 0.4z"/><path class="t" d="m10.6 53l-5.7-13.7 20 3.2 5.7 15z"/><path fill-rule="evenodd" class="b" d="m30.6 57.6q0 0 0 0l-20-4.5q-0.1 0-0.1-0.1l-5.7-13.7q-0.1-0.1 0-0.1 0-0.1 0.1-0.1l20 3.2q0.1 0.1 0.1 0.1l5.7 15q0 0.1 0 0.1 0 0.1-0.1 0.1zm-19.9-4.7l19.7 4.4-5.6-14.7-19.7-3.2z"/><path class="n" d="m38.5 52.7c-0.7-0.1-1.1-0.7-1.8-0.8-0.9-0.2-1 1.2-1.7 1.4q-0.7 0.2-0.6-0.7 0.2-1 0.9-1.5c-1 0-2.8 3.4-2.9 1.6q0-0.6 1.6-2.2-0.5 0.1-1.9 1.7c-0.3 0.4-0.8 0.2-1-0.1-0.1-0.3 0.2-0.7 0.3-0.9 0.4-0.6 1-1 1.6-1.4 0.5-0.3 1.2-0.4 1.8-0.4 1.1-0.1 2.4 0.2 3.2 1 0.5 0.4 1.1 1.1 1.1 1.8-0.1 0.3-0.2 0.6-0.6 0.5z"/><path fill-rule="evenodd" class="b" d="m34.8 53.5q-0.2 0-0.3-0.2c-0.2-0.2-0.2-0.7-0.2-0.7 0.1-0.5 0.3-0.9 0.5-1.1-0.3 0.2-0.6 0.6-0.9 0.9-0.6 0.6-0.9 1-1.2 1q-0.4 0-0.4-0.7c0-0.3 0.4-0.9 0.8-1.4-0.3 0.3-0.7 0.7-0.9 1q-0.2 0.2-0.5 0.2c-0.3 0-0.5-0.1-0.7-0.4-0.1-0.2 0.1-0.6 0.3-0.9v-0.1c0.4-0.6 1.1-1.1 1.6-1.4 0.6-0.3 1.6-0.4 1.9-0.5 1.2-0.1 2.4 0.3 3.3 1.1 0.4 0.4 1.1 1.2 1.1 1.9 0 0.6-0.4 0.7-0.6 0.7q-0.1 0-0.1 0c-0.4-0.1-0.7-0.3-1-0.5-0.3-0.2-0.5-0.3-0.8-0.4-0.4-0.1-0.6 0.3-0.9 0.7-0.2 0.3-0.4 0.6-0.8 0.7q-0.1 0.1-0.2 0.1zm0.5-2.5q0 0 0.1 0.1 0 0-0.1 0.1c0 0-0.6 0.5-0.7 1.4-0.1 0.1-0.1 0.4 0.1 0.6q0.1 0.1 0.3 0c0.2-0.1 0.4-0.4 0.6-0.7 0.3-0.4 0.6-0.8 1.2-0.7 0.3 0 0.6 0.2 0.8 0.4 0.3 0.2 0.6 0.4 0.9 0.4q0 0 0.1 0c0.1 0 0.3 0 0.3-0.4 0.1-0.6-0.6-1.4-1-1.7-0.8-0.7-2-1.1-3.1-1-0.5 0-1.3 0.2-1.8 0.4-0.5 0.3-1.1 0.7-1.5 1.4q-0.3 0.6-0.3 0.7c0.2 0.3 0.6 0.4 0.8 0.1 0.1-0.1 1.4-1.6 2-1.7q0.1-0.1 0.1 0 0.1 0.1 0 0.2c-0.4 0.4-1.6 1.6-1.5 2.1q0 0.4 0.1 0.4c0.2 0 0.6-0.5 1-0.9 0.6-0.6 1.1-1.2 1.6-1.2z"/><path class="b" d="m34 50.6q0 0-0.1 0 0-0.1 0-0.2c0.7-0.6 1.3-0.6 1.4-0.6q0.1 0.1 0.1 0.2 0 0.1-0.2 0.1c0 0-0.5-0.1-1.1 0.5q0 0-0.1 0z"/><path class="b" d="m35.3 51.2q-0.1 0-0.1 0c-0.1-0.1-0.1-0.2 0-0.2 0.6-0.5 1-0.4 1.1-0.4q0.1 0.1 0 0.2 0 0.1-0.1 0.1c0 0-0.4-0.1-0.9 0.3q0 0 0 0z"/></svg>