<svg version="1.2" xmlns="http://www.w3.org/2000/svg" viewBox="0 0 63 76" width="63" height="76"><style>.a{fill:#1a4168}.b{fill:#1d1c1a}.c{fill:#d81f2c}.d{fill:#e5e2cd}.e{fill:#466a84}.f{opacity:.4;mix-blend-mode:multiply;fill:#466a84}.g{fill:#d2e9d0}.h{fill:#f7d6b6}.i{fill:#bed86e}.j{opacity:.5;mix-blend-mode:multiply;fill:#6bc07d}.k{opacity:.5;mix-blend-mode:multiply;fill:#5cc0d5}.l{fill:#f9a731}.m{fill:#221f1f}.n{fill:#475da9}.o{fill:#fff}.p{fill:#8cbd3f}</style><path class="a" d="m44.6 63q-1.1 7.3-4.5 9.5l-0.9-1.9q-0.3-6.5 5.4-7.6z"/><path fill-rule="evenodd" class="b" d="m40.1 72.6q0 0 0 0 0 0-0.1-0.1l-0.9-1.9q0 0 0 0c-0.2-3.4 1.3-5.3 2.6-6.3 1.4-1.1 2.8-1.4 2.9-1.4q0 0 0.1 0 0 0.1 0 0.1c-1 7.3-4.4 9.5-4.5 9.6q0 0-0.1 0zm-0.7-2l0.8 1.7c0.6-0.5 3.3-2.8 4.2-9.1-0.4 0.1-1.5 0.4-2.6 1.3q-2.7 2.1-2.4 6.1z"/><path class="c" d="m54.3 63.6q0-0.1 0-0.1c-0.5-0.7-0.5-1.6 0.3-2.1 1-0.7 4.2-1.7 5.6-1.4 1.3 0.4 1.1 1.4 0.3 2-1.1 0.9-5 3.3-6.2 1.6z"/><path fill-rule="evenodd" class="b" d="m55.7 64.3q-1 0-1.5-0.7c-0.5-0.7-0.5-1.8 0.3-2.3 0.9-0.6 3.4-1.5 5-1.5q0.4 0 0.7 0.1c0.7 0.2 1 0.6 1 0.8 0.1 0.5-0.1 1-0.6 1.4-0.9 0.8-3.3 2.2-4.9 2.2zm-1.3-0.8q0.4 0.5 1.3 0.5c1.6 0 4-1.4 4.7-2.1 0.4-0.3 0.7-0.8 0.6-1.1q-0.1-0.5-0.9-0.6-0.2-0.1-0.6-0.1c-1.5 0-4 0.8-4.9 1.4-0.7 0.5-0.6 1.3-0.2 2l-0.1 0.1z"/><path class="d" d="m60.5 62c-0.5 0.4-1.4 1.1-2.5 1.5-0.3-0.4-0.5-0.9-0.6-1.3-0.2-0.7 0-1.4 0.4-2 0.9-0.2 1.8-0.3 2.4-0.2 1.3 0.4 1.1 1.4 0.3 2z"/><path fill-rule="evenodd" class="b" d="m58 63.7q-0.1 0-0.1-0.1c-0.3-0.5-0.5-1.1-0.6-1.4-0.2-0.7-0.1-1.5 0.4-2.1q0 0 0.1 0c1-0.3 1.9-0.3 2.4-0.2 0.7 0.2 1 0.6 1 0.8 0.1 0.5-0.1 1-0.6 1.4-0.5 0.4-1.5 1.1-2.5 1.5q-0.1 0.1-0.1 0.1zm-0.1-3.4c-0.4 0.5-0.5 1.2-0.4 1.9 0.1 0.2 0.3 0.7 0.6 1.2 1-0.5 1.9-1.1 2.3-1.5 0.4-0.3 0.7-0.8 0.6-1.1q-0.1-0.5-0.9-0.6c-0.4-0.2-1.3-0.1-2.2 0.1z"/><path class="d" d="m58.1 62.8c0.9-0.4 2.4-1.2 2.9-2.2 0.3 0.4 0 1-0.5 1.4-1.1 0.9-5 3.3-6.2 1.6 1.3 0.2 2.7-0.3 3.8-0.8z"/><path fill-rule="evenodd" class="b" d="m55.7 64.3q-1 0-1.5-0.7 0 0 0-0.1 0.1-0.1 0.2 0 0.2 0 0.5 0c1.2 0 2.3-0.5 3.1-0.8 0.9-0.4 2.4-1.1 2.9-2.2q0.1 0 0.1 0 0.1 0 0.2 0c0.2 0.5 0 1.1-0.6 1.6-0.9 0.8-3.3 2.2-4.9 2.2zm-1.1-0.6q0.4 0.3 1.1 0.3c1.6 0 4-1.4 4.7-2.1 0.4-0.3 0.6-0.7 0.6-1-0.7 1-2.1 1.6-2.9 2-0.8 0.4-2 0.8-3.2 0.8q-0.1 0-0.3 0z"/><path class="b" d="m57.2 62q-0.1 0.1-0.2 0c-0.4-0.8-1.3-0.8-1.3-0.8q-0.1 0-0.1-0.1 0-0.1 0.1-0.1c0 0 1 0 1.5 0.9q0.1 0.1 0 0.1 0 0 0 0z"/><path class="b" d="m55.7 62.4q0 0.1-0.1 0-0.1 0 0-0.1c0 0 0.3-1.2 1.7-1.9q0 0 0.1 0.1 0 0.1 0 0.1-0.1 0.1-0.1 0.1c-1.2 0.6-1.5 1.7-1.5 1.7q0 0-0.1 0z"/><path class="b" d="m54.5 61.9c-0.1 0-0.2 0-0.3-0.1-0.8-3-3.3-10.8-4.9-11.5-1.4-0.7-4.5 2.9-5.5 4.3-0.1 0.1-0.3 0.1-0.4 0-0.1-0.1-0.1-0.2 0-0.3 0.4-0.6 4-5.4 6.2-4.5 2 0.9 4.8 10.7 5.1 11.8 0 0.1 0 0.3-0.2 0.3q0 0 0 0z"/><path class="e" d="m44.9 51.4l2.3 9.8q-9.8 3.7-14.9 4-5 0.3-2.5-5.1l5.2-3.3c3.3-1.6 9.1-5.6 9.9-5.4z"/><path fill-rule="evenodd" class="b" d="m32 65.3q-1.9 0-2.6-1.1c-0.9-1.5 0.3-4.1 0.3-4.2q0 0 0.1 0l5.1-3.3c1.4-0.7 3.1-1.7 4.8-2.8 2.5-1.4 4.5-2.6 5.2-2.6q0 0 0.1 0 0 0 0.1 0.1l2.3 9.7q0 0.1-0.1 0.2c-0.1 0-9.9 3.7-15 4q-0.2 0-0.3 0zm-2.1-5.1c-0.1 0.3-1.1 2.6-0.3 3.9q0.7 1 2.4 1 0.1 0 0.3 0c4.7-0.3 13.7-3.6 14.8-4l-2.3-9.6c-0.6 0.1-2.8 1.4-4.9 2.7-1.7 1-3.5 2-4.9 2.7z"/><path class="f" d="m29.4 63.8q-0.6-1.5 0.4-3.7l5.2-3.3c1.5-0.7 3.5-2 5.3-3q-0.2 0.4-0.3 0.6c-0.9 2-2 3.6-3.6 5.1-1.9 1.7-4.4 3.3-7 4.3z"/><path class="b" d="m57.7 74.5q-0.1 0-0.2 0c-0.1-0.1-8.6-7.5-11-8.1-2.3-0.5-6.8-0.7-6.9-0.7-0.1 0-0.2-0.1-0.2-0.2 0-0.1 0.1-0.3 0.2-0.3 0.2 0.1 4.7 0.2 7.1 0.8 2.4 0.5 10.8 7.8 11.2 8.1 0.1 0.1 0.1 0.2 0 0.3q-0.1 0.1-0.2 0.1z"/><path class="c" d="m58 75.7q0 0-0.1 0c-0.7-0.3-1.3-1-1-1.8 0.4-1.2 2.3-4 3.7-4.5 1.2-0.5 1.6 0.4 1.4 1.4-0.3 1.3-2.1 5.6-4 4.9z"/><path fill-rule="evenodd" class="b" d="m58.4 75.9q-0.2 0-0.4-0.1h-0.1c-0.8-0.3-1.5-1.1-1.1-2 0.4-1.2 2.4-4 3.7-4.5 0.6-0.3 1.2-0.2 1.4 0.2 0.3 0.3 0.4 0.8 0.2 1.3-0.2 1.1-1.8 5.1-3.7 5.1zm2.8-6.5q-0.2 0-0.6 0.1c-1.3 0.5-3.2 3.3-3.6 4.4-0.3 0.8 0.3 1.4 1 1.7v0.1-0.1q0.2 0.1 0.4 0.1c1.7 0 3.2-3.6 3.5-4.9 0.1-0.5 0.1-0.9-0.1-1.2q-0.2-0.2-0.6-0.2z"/><path class="d" d="m62 70.8c-0.1 0.6-0.5 1.7-1.1 2.7-0.4-0.2-0.9-0.5-1.2-0.7-0.6-0.5-0.9-1.1-1-1.8 0.7-0.8 1.3-1.4 1.9-1.6 1.2-0.5 1.6 0.4 1.4 1.4z"/><path fill-rule="evenodd" class="b" d="m60.9 73.6q0 0 0 0c-0.6-0.2-1.1-0.6-1.3-0.7-0.6-0.5-1-1.2-1-1.9q0-0.1 0.1-0.1c0.4-0.6 1.2-1.3 1.8-1.6 0.6-0.3 1.2-0.2 1.4 0.2 0.3 0.3 0.4 0.8 0.2 1.3-0.1 0.6-0.5 1.7-1.1 2.8q0 0-0.1 0zm-2-2.6c0 0.7 0.3 1.3 0.8 1.7 0.2 0.1 0.7 0.5 1.2 0.6 0.5-0.9 0.9-2 1-2.5 0.1-0.5 0.1-0.9-0.1-1.2q-0.4-0.4-1.2-0.1c-0.5 0.2-1.1 0.7-1.7 1.5z"/><path class="d" d="m60.5 72.8c0.5-0.8 1.3-2.3 1.1-3.5 0.4 0.2 0.6 0.9 0.4 1.5-0.3 1.3-2 5.6-4 4.9 1.1-0.5 2-1.8 2.5-2.9z"/><path fill-rule="evenodd" class="b" d="m58.4 75.9q-0.2 0-0.4 0-0.1-0.1-0.1-0.2 0 0 0.1-0.1c1.1-0.6 1.9-1.9 2.4-2.8 0.5-0.8 1.3-2.3 1.1-3.4q0-0.1 0-0.2 0.1 0 0.2 0c0.4 0.3 0.6 0.9 0.4 1.6-0.2 1.1-1.8 5.1-3.7 5.1zm0-0.2q0 0 0 0c1.7 0 3.2-3.6 3.5-4.9 0.1-0.5 0-0.9-0.1-1.2 0 1.2-0.7 2.5-1.1 3.3-0.5 0.9-1.3 2.1-2.3 2.8z"/><path class="b" d="m59.4 72.8q-0.1 0.1-0.2 0c-0.8-0.3-1.5 0.2-1.5 0.2q-0.1 0.1-0.2 0-0.1-0.1 0-0.2c0.1 0 0.9-0.6 1.8-0.2q0.1 0.1 0.1 0.2 0 0 0 0z"/><path class="b" d="m58.4 74q0 0 0 0-0.1 0.1-0.2 0c0-0.1-0.4-1.1 0.3-2.5q0-0.1 0.1-0.1 0.1 0.1 0.1 0.2 0 0-0.1 0.1c-0.6 1.2-0.2 2.2-0.2 2.2q0.1 0 0 0.1z"/><path class="e" d="m40.1 72.5c-1.7-0.6-5.7-1.7-10-2.1q-6.1-0.5-6.4-8.4l4.1-2.1 6.3 1.5 10.5 1.6c-1.6 1.3-2.6 3.5-3.2 5.2-0.5 1.3-1 2.8-1.3 4.3z"/><path fill-rule="evenodd" class="b" d="m40.1 72.6q0 0 0 0c-1.9-0.6-5.8-1.7-10-2.1-6.1-0.5-6.6-8.4-6.6-8.5q0-0.1 0.1-0.1l4.1-2.2q0.1 0 0.1 0l6.3 1.6 10.5 1.6q0.1 0 0.1 0.1 0 0 0 0.1c-1.6 1.2-2.5 3.4-3.2 5.2q-0.8 2.1-1.2 4.2 0 0-0.1 0.1 0 0-0.1 0zm-16.3-10.6c0 0.9 0.7 7.8 6.3 8.3 4.1 0.3 8 1.4 9.9 2q0.5-2 1.3-4.1c0.6-1.7 1.6-3.8 3-5.1l-10.2-1.5-6.3-1.6z"/><path class="f" d="m24.2 65.1q-0.5-1.7-0.5-3.1l4.1-2.1 6.1 1.5c-2.9 1.9-6.3 3.5-9.7 3.7z"/><path class="b" d="m36.3 46.5c-2 0-3.9-1.8-4-1.9-0.1-0.1-0.2-0.2-0.1-0.3 0.1-0.1 0.3-0.1 0.4 0 0 0 3.4 2.9 5.3 1 2.2-2.1 3.8-4.8 3.8-4.8 0.1-0.1 0.3-0.1 0.4-0.1 0.1 0.1 0.1 0.3 0.1 0.4-0.1 0-1.8 2.7-3.9 4.8-0.6 0.6-1.3 0.9-2 0.9z"/><path class="g" d="m52 43l-4.7 14.9-8.4-6 5.9-19.5z"/><path fill-rule="evenodd" class="b" d="m47.3 58q0 0-0.1 0l-8.4-6q0-0.1 0-0.2l5.9-19.4q0-0.1 0.1-0.1 0 0 0.1 0l7.2 10.6q0.1 0.1 0.1 0.1l-4.8 14.9q0 0 0 0.1-0.1 0-0.1 0zm-8.2-6.2l8.2 5.9 4.6-14.7-7.1-10.3z"/><path class="h" d="m40.7 42.5q-2.3 0.2 0-2.3c0.6-0.7 2.9-1.6 2.1 0-0.7 1.2-0.7 0.7-0.6 1.7 0.1 0.9-1.3 1.2-1.5 0.6z"/><path fill-rule="evenodd" class="b" d="m41.3 43c-0.3 0-0.5-0.2-0.6-0.4-0.3 0-0.9 0-1.1-0.4q-0.3-0.7 1-2.1c0.3-0.4 1.3-0.9 1.9-0.9 0.3 0 0.4 0.1 0.5 0.2q0.2 0.3-0.1 0.9c-0.2 0.4-0.4 0.6-0.5 0.8-0.1 0.2-0.1 0.2-0.1 0.7v0.1q0.1 0.4-0.2 0.7c-0.2 0.2-0.5 0.4-0.8 0.4zm-0.6-1c0.1 0 0.1 0.2 0.2 0.3 0 0.2 0.3 0.3 0.4 0.3 0.2 0 0.5 0 0.6-0.2q0.2-0.2 0.2-0.5v-0.1c-0.1-0.6-0.1-0.6 0.1-0.9 0.1-0.1 0.3-0.3 0.5-0.7 0.2-0.4 0.1-0.6 0.1-0.6-0.1-0.1-0.2-0.1-0.3-0.1-0.5 0-1.4 0.4-1.7 0.8-1.1 1.1-1.1 1.6-1 1.8 0.1 0.2 0.6 0.1 0.8 0.1q0.1 0 0.1-0.2z"/><path class="i" d="m26.4 37.3q0.3 0 0.7 0.2c1.5 0.7 2.9 1.5 4.2 2.5q1.9 1.6 3.5 3.4-2.5 3.3-5 4.1-4.1-4-5.1-6.2c-0.3-0.7-0.6-1.3-0.7-2.1 0-1.3 1.2-2.1 2.4-1.9z"/><path fill-rule="evenodd" class="b" d="m29.8 47.6q0 0-0.1 0c-0.2-0.2-4.1-4.1-5.1-6.3l-0.1-0.1c-0.3-0.6-0.5-1.2-0.6-2q0-0.8 0.5-1.4c0.5-0.5 1.2-0.8 2-0.7q0.4 0.1 0.7 0.2c1.6 0.8 3 1.6 4.3 2.6q1.8 1.5 3.5 3.4 0 0.1 0 0.2c-0.1 0.1-2.6 3.4-5.1 4.1q0 0 0 0zm-3.7-10.2c-0.6 0-1.1 0.2-1.5 0.6q-0.5 0.5-0.4 1.2c0 0.7 0.3 1.3 0.6 1.9v0.1c0.9 2.1 4.6 5.7 5 6.2 2.2-0.7 4.4-3.5 4.8-4q-1.6-1.8-3.4-3.3c-1.2-1-2.6-1.8-4.2-2.5q-0.3-0.2-0.6-0.2-0.2 0-0.3 0z"/><path class="j" d="m26.4 37.3q0.3 0 0.7 0.2c1.5 0.7 2.9 1.5 4.2 2.5q1.9 1.6 3.5 3.4-2.5 3.3-5 4.1-4.1-4-5.1-6.2c-0.3-0.7-0.6-1.3-0.7-2.1 0-1.3 1.2-2.1 2.4-1.9z"/><path fill-rule="evenodd" class="b" d="m24.9 42q-0.2-0.4-0.3-0.7l-0.1-0.1c-0.3-0.6-0.5-1.2-0.6-2q0-0.9 0.6-1.5c0.5-0.4 1.2-0.7 1.9-0.6q0.4 0.1 0.7 0.2c1.6 0.8 3 1.6 4.3 2.6q1.8 1.5 3.5 3.4 0 0.1 0 0.2c-0.1 0.1-2.6 3.4-5.1 4.1q0 0-0.1 0c0 0-3.4-3.4-4.8-5.6zm9.7 1.4q-1.6-1.8-3.4-3.3c-1.2-1-2.6-1.8-4.2-2.5q-0.3-0.2-0.6-0.2c-0.7-0.1-1.3 0.1-1.7 0.5q-0.6 0.5-0.5 1.3c0 0.7 0.3 1.3 0.6 1.9v0.1q0.1 0.3 0.3 0.6c1.3 2.1 4.3 5.1 4.7 5.6 2.2-0.7 4.4-3.5 4.8-4z"/><path class="k" d="m31.4 46.7c-0.5 0.3-1.1 0.6-1.6 0.8q-4.1-4-5.1-6.2c-0.3-0.7-0.6-1.3-0.7-2.1 0-1.3 1.2-2.1 2.4-1.9q0.3 0 0.7 0.2 0.3 0.1 0.6 0.2c1.2 1.4 2 2.9 2.7 4.8q0.6 2.1 1 4.2z"/><path class="i" d="m22.5 36.6c0.7 0 1.4 0 2 0.1 1.7 0.5 3.1 1.6 4.4 2.7 3.8 3.3 9.7 16.1 9.5 16.2q-6.9 6.8-15.2 7.1c-0.6-1.7-8.1-20.7-5.1-24.1 0.5-0.7 1.7-1.4 2.5-1.6 0.6-0.2 1.3-0.3 1.9-0.4z"/><path fill-rule="evenodd" class="b" d="m23.2 62.8q-0.1 0-0.1-0.1c-1.9-4.9-7.9-21-5.1-24.2 0.6-0.7 1.7-1.4 2.5-1.6 0.8-0.2 1.4-0.4 2-0.4q1.1-0.1 2 0.1c1.7 0.4 3 1.5 4.5 2.8 3.8 3.3 9.6 15.8 9.6 16.2q0 0.1-0.1 0.1c0 0.1-7 6.8-15.3 7.1zm0-26.1q-0.3 0-0.7 0c-0.5 0.1-1.1 0.2-1.9 0.4-0.7 0.2-1.9 0.9-2.4 1.5-2.2 2.5 1.2 14 5.1 23.9 7.8-0.3 14.4-6.3 15-6.9-0.3-0.9-5.8-12.9-9.5-16.1-1.4-1.2-2.7-2.2-4.3-2.6q-0.6-0.2-1.3-0.2z"/><path fill-rule="evenodd" class="b" d="m23.1 62.7q0 0 0 0c-1.9-4.9-7.9-21-5.1-24.2 0.6-0.7 1.7-1.4 2.5-1.6 0.8-0.2 1.4-0.4 2-0.4q1.1-0.1 2 0.1c1.7 0.4 3 1.5 4.5 2.8 1.1 0.9 2.5 2.8 4.2 5.5 1.6 2.8 3 5.6 3.8 7.1 1.7 3.6 1.6 3.7 1.5 3.7 0 0.1-7 6.8-15.3 7.1q-0.1 0-0.1-0.1zm9.8-17.6q-2.4-4.1-4.1-5.6c-1.4-1.2-2.7-2.2-4.3-2.6q-0.9-0.3-2-0.2c-0.5 0.1-1.1 0.2-1.9 0.4-0.7 0.2-1.9 0.9-2.4 1.5-2.2 2.5 1.2 14 5.1 23.9 7.8-0.3 14.4-6.3 15-6.9-0.2-0.6-2.6-6-5.4-10.5z"/><path class="j" d="m23.2 62.7c-0.6-1.7-7.5-19.2-5.4-23.6q0.8 0.4 1.5 1c1.6 1.3 2.5 3.5 3.2 5.4 1.2 3.3 1.5 6.9 3.1 10.1 1.3 2.6 3.9 2.9 6.4 1.8 1.3-0.5 2.6-1.3 3.7-2.2 0.6-0.5 1.2-1.2 1.8-1.8 0.6 1.3 1 2.2 0.9 2.2q-6.9 6.8-15.2 7.1z"/><path class="h" d="m22.5 39.7l-1.2-4.1c-0.2-0.6 0.3-1.4 1.1-1.6 0.8-0.2 1.6 0.1 1.8 0.7l1.2 4.1c0.2 0.7-0.3 1.4-1.1 1.6-0.8 0.3-1.6-0.1-1.8-0.7z"/><path fill-rule="evenodd" class="b" d="m22.5 40q-0.1-0.1-0.1-0.3l-1.3-4.1c-0.2-0.7 0.4-1.5 1.2-1.7 0.8-0.2 1.6 0 1.9 0.5q0.1 0.2 0.1 0.3l1.2 4.1c0.2 0.7-0.3 1.5-1.2 1.7-0.7 0.3-1.5 0-1.8-0.5zm1.5-5.4c-0.3-0.5-1-0.7-1.6-0.5-0.7 0.2-1.2 0.9-1 1.5l1.2 4.1c0.2 0.5 0.9 0.8 1.7 0.6 0.7-0.2 1.2-0.9 1-1.5l-1.2-4q-0.1-0.1-0.1-0.2z"/><path class="h" d="m39.1 28.9c-0.9 3-2.7 4.8-5.1 6.7-1.1 0.8-2.3 1.5-3.6 2-4.8 2-10.6 1.1-15.3-0.9-4.5-1.9-8.1-5.5-9.6-10-1.7-5.5-0.8-11.5 2.8-16 0.7-1 1.7-1.9 2.7-2.7 1.1-0.9 2.3-1.6 3.6-2.2 4.8-2.2 10.6-2.2 15.4 0 3.1 1.4 5.7 3.9 7.5 6.8 1.2 1.9 2 4.1 2.3 6.3 0.6 3.3 0.4 6.8-0.7 10z"/><path fill-rule="evenodd" class="b" d="m6.8 29.8q-0.9-1.5-1.4-3.1c-1.8-5.6-0.8-11.6 2.8-16.1 0.7-1 1.6-1.9 2.7-2.7 1.1-0.9 2.4-1.7 3.6-2.2 4.9-2.2 10.7-2.2 15.6 0 3 1.3 5.6 3.8 7.5 6.8l0.1 0.1c1.1 1.9 1.9 4 2.3 6.3 0.6 3.3 0.3 6.8-0.7 10.1-1 3-2.9 4.9-5.3 6.7-1.2 0.9-2.3 1.6-3.5 2.1-4.3 1.7-9.9 1.4-15.5-1-3.5-1.5-6.4-4-8.2-7zm30.6-17v-0.2c-1.9-3-4.5-5.3-7.4-6.7-4.8-2.1-10.5-2.2-15.4 0-1.2 0.5-2.4 1.3-3.6 2.2-1 0.8-1.9 1.7-2.6 2.6-3.5 4.5-4.5 10.4-2.8 15.9q0.5 1.6 1.4 3.1c1.8 3 4.7 5.4 8.1 6.9 5.5 2.3 11.1 2.7 15.3 0.9 1.2-0.4 2.3-1.1 3.5-2 2.4-1.8 4.1-3.6 5.1-6.6 1.1-3.3 1.3-6.7 0.7-10q-0.6-3.3-2.3-6.1z"/><path class="l" d="m43.2 22.1c-1.2 0.9-2.7 1.5-4.2 0.8-1.2-0.5-1.8-1.4-2-2.5q-0.6 0.2-1 0.1c-0.8-0.1-1.3-0.4-1.7-0.9-2 2.3-5.8 2.6-7.6 0-0.2 1.8-1.1 3.4-2.8 4.3-1.8 0.9-3.9-0.1-4.8-1.6-0.4 1.9-1.9 3.4-3.7 3.7q-0.1 0.3-0.2 0.7 0 0.1 0 0.1c0 0.1 0 0.1-0.1 0.2q0 0 0 0-0.3 1.1-0.4 2.1c-0.4 2.6 0.3 4.2 1.2 6.5 0.6 1.2-0.3 2.4-1.5 2.7-1 0.2-3-1-3.3-2.2-1.8 0.7-3.6-0.2-4.4-1.7-1.7 0.3-3.1-1.3-3.9-3-0.8-1.7-0.7-3.5 0-5.1-1.8-0.9-2.2-4.3-1.7-6q0.5-1.6 1.4-2.8c-0.9-2.2 0.1-6.2 1.2-7.6 1.9-2.7 4.7-4.7 7.7-4.2 1-1.6 2.4-3 4-3.9 2.4-1.3 6-1.2 7.6 0.8 1.6-1.2 3.7-2 5.6-1.7 2.4 0.4 5.2 1.6 6.1 4.1q0.1 0.5 0.2 0.9c1.5-0.5 3.2-0.5 4.4 0.5 3.3 2.7 1.3 5 2.2 5 1.1 0 1.8 0.1 2.7 0.7 3.4 2.4 1.8 7.9-1 10z"/><path fill-rule="evenodd" class="m" d="m14.1 38.5c-1 0-2.7-1.1-3-2.2q-0.6 0.2-1.3 0.2c-1.2 0-2.5-0.8-3.1-1.9-1.5 0.2-3-1-4-3.1-0.9-2-0.6-3.9-0.1-5.2-1.7-1-2.1-4.4-1.6-6q0.4-1.5 1.4-2.8c-0.9-2.3 0.1-6.2 1.2-7.7 2.1-3 5-4.6 7.8-4.2 0.9-1.6 2.4-3 4-3.9 1-0.6 2.3-0.9 3.5-0.9 1.8 0 3.3 0.6 4.1 1.7 1.5-1.1 3.2-1.8 4.8-1.8q0.4 0 0.9 0.1c1.1 0.2 5 1 6.1 4.2q0.1 0.4 0.2 0.8 0.9-0.3 1.8-0.3 1.5 0 2.6 0.8c2.2 1.9 2.1 3.5 2 4.4 0 0.3 0 0.5 0 0.6q0 0 0.1 0 0.2 0 0.4 0c0.9 0 1.5 0.2 2.3 0.7 1.7 1.1 2.1 2.8 2.1 4 0 2.3-1.2 4.9-3 6.2q-1.6 1.1-2.9 1.1-0.8 0-1.4-0.3-1.7-0.7-2.1-2.4-0.5 0.1-0.9 0.1-1.1-0.2-1.7-0.9c-1 1.1-2.5 1.8-4 1.8-1.5 0-2.7-0.6-3.5-1.7-0.3 1.8-1.3 3.3-2.9 4.1q-0.7 0.3-1.5 0.3c-1.2 0-2.5-0.7-3.2-1.7-0.5 1.8-2 3.2-3.7 3.5q-0.1 0.3-0.2 0.6 0 0 0 0c0.1 0.2 0 0.3-0.1 0.4q0 0 0 0-0.2 1-0.4 2c-0.3 2.5 0.3 4.1 1.3 6.4 0.2 0.6 0.2 1.2-0.1 1.7-0.3 0.6-0.9 1.1-1.6 1.2q-0.1 0.1-0.3 0.1zm-3-2.5q0.1 0 0.1 0 0 0 0.1 0.1c0.2 1 1.9 2.1 2.8 2.1q0.1 0 0.2 0c0.7-0.1 1.2-0.5 1.5-1.1q0.4-0.7 0-1.5c-1-2.4-1.6-4-1.2-6.5q0.1-1.1 0.4-2.2 0 0 0.1-0.1 0 0 0 0 0 0 0 0-0.1-0.1-0.1-0.1 0.1-0.4 0.3-0.8 0-0.1 0.1-0.1c1.7-0.2 3.2-1.6 3.6-3.5q0-0.1 0.1-0.1 0.1 0 0.1 0c0.7 1.1 2 1.9 3.2 1.9q0.8 0 1.4-0.3c2-1.1 2.6-2.9 2.8-4.2q0-0.1 0.1-0.1 0.1 0 0.1 0.1c0.8 1.1 2 1.7 3.5 1.7 1.4 0 2.9-0.7 3.9-1.8q0 0 0.1 0 0 0 0.1 0 0.6 0.8 1.6 0.9 0.4 0.1 0.9-0.1 0.1 0 0.1 0 0.1 0 0.1 0.1c0.3 1.2 0.9 2 2 2.4 1.2 0.5 2.6 0.3 4-0.8 1.7-1.2 3-3.8 2.9-6 0-1.1-0.3-2.7-1.9-3.8-0.8-0.6-1.5-0.7-2.6-0.7q-0.2 0-0.3-0.1c-0.1-0.1-0.1-0.3 0-0.7 0-0.8 0.2-2.4-2-4.2q-1-0.8-2.4-0.8-0.9 0-1.9 0.4 0 0-0.1 0 0-0.1 0-0.1-0.1-0.5-0.3-0.9c-1-3.1-4.7-3.9-5.9-4.1-1.8-0.2-3.8 0.4-5.5 1.7q0 0.1-0.1 0.1 0 0-0.1-0.1c-0.8-1-2.3-1.6-4-1.6-1.2 0-2.4 0.3-3.4 0.8-1.6 0.9-3.1 2.3-4 3.9q0 0.1-0.1 0.1c-2.7-0.5-5.5 1.1-7.6 4-1.1 1.5-2 5.4-1.1 7.6q0 0.1-0.1 0.1-0.9 1.2-1.4 2.8c-0.5 1.5-0.1 4.9 1.6 5.8q0.1 0 0.1 0.1c-0.5 1.3-0.9 3.1 0 5.1 1 2 2.4 3.2 3.8 2.9q0.1 0 0.1 0.1c0.7 1.1 1.8 1.8 3 1.8q0.7 0 1.3-0.2 0 0 0 0z"/><g style="mix-blend-mode:multiply"><path class="h" d="m40.1 23.5c-0.1 1.8-0.4 3.7-1 5.4-0.9 3-2.7 4.8-5.1 6.7-1.1 0.8-2.3 1.5-3.6 2-2.3 1-4.8 1.3-7.3 1.1 2.1-0.3 4.2-0.8 6.1-1.6 6.2-2.3 10-7.6 9.7-14.2q0.6 0.4 1.2 0.6z"/></g><path class="h" d="m13.7 32.4c-5.3-1.9-5.3-8.5-2.2-8.2q2.4 0.2 3.6 2.7 1.2 2.8 0.3 4.7-0.4 0.7-1 0.8-0.7 0-0.7 0z"/><path class="b" d="m13.7 32.5q0 0 0 0c-2-0.7-3.1-2-3.7-3-0.6-1.2-0.9-2.6-0.6-3.6 0.3-1.2 1.1-1.9 2.1-1.8 2.5 0.2 3.7 2.7 3.7 2.7 0 0.1 0 0.1-0.1 0.2q-0.1 0-0.1-0.1c0 0-1.2-2.3-3.5-2.6-0.9 0-1.6 0.5-1.9 1.6-0.7 3.1 2.1 5.6 4.2 6.4h0.6c0.3-0.1 0.6-0.3 0.7-0.5q0.1-0.1 0.2 0 0.1 0 0 0.1c-0.2 0.3-0.5 0.6-0.9 0.6h-0.7z"/><path class="b" d="m13.4 29.8c-0.1 0-0.1-0.1-0.1-0.2 0 0-0.1-1.8-1.4-2.5q-0.6-0.3-1-0.2c-0.4 0.2-0.5 0.6-0.5 0.6 0 0-0.1 0.1-0.1 0.1-0.1-0.1-0.2-0.1-0.1-0.2 0 0 0.1-0.5 0.6-0.7q0.5-0.2 1.3 0.2c1.4 0.8 1.4 2.7 1.4 2.7q0 0.2-0.1 0.2 0 0 0 0z"/><path class="b" d="m11.8 29.1c-0.1 0-0.1-0.1-0.1-0.1 0-0.1 0.1-0.2 0.1-0.2 0 0 0.5 0.1 0.7-0.2q0.3-0.3 0.1-0.9c0 0 0.1-0.1 0.1-0.1 0.1-0.1 0.2 0 0.2 0.1q0.2 0.7-0.1 1.1c-0.2 0.2-0.4 0.2-0.5 0.3-0.3 0-0.5 0-0.5 0z"/><path class="b" d="m21.9 54.1q-1 0-1.8-0.7c-1.3-1.3-1.2-4.1-1.2-4.2 0-0.1 0.2-0.2 0.3-0.2 0.1 0 0.2 0.1 0.2 0.2 0 0.1-0.1 2.7 1.1 3.9q0.7 0.6 1.7 0.5c3.4-0.3 12.3-2.5 12.3-2.5 0.2 0 0.3 0.1 0.3 0.2 0.1 0.1 0 0.3-0.1 0.3-0.1 0-9 2.2-12.4 2.5q-0.2 0-0.4 0z"/><path class="n" d="m52 43l-5 16.4-12.6-2 2.3-17.7z"/><path fill-rule="evenodd" class="b" d="m47 59q0 0 0 0l4.9-15.9-15.1-3.3-2.3 17.5h-0.2c0 0-0.1 0.1-0.1 0l2.4-17.7q0-0.1 0.1-0.1 0 0 0.1 0l15.3 3.4q0 0 0 0 0.1 0.1 0.1 0.1l-5.1 16.2c0 0.1-0.1-0.2-0.1-0.2zm0 0l-12.5-1.7 12.4 2 0.1-0.3q0 0 0 0z"/><path class="h" d="m40.9 51.1c0 0.4-2.5 0.5-3.1 0.5q0.1 0 0.1 0c0.4 0.2 0.7 0.3 1.1 0.4 0.3 0.1 1.4 0.4 1 1-0.3 0.4-1.4 0-1.8-0.1-1.4-0.3-3.6 0.6-4.6-0.8-0.2-0.4-0.4-0.9-0.4-1.3-0.1-0.8 0.2-1.6 0.6-2.4 0.2-0.5 0.6-1.7 1.3-1.8 0.4 0 0.5 0.4 0.5 0.7q0 0.3-0.1 0.6c0 0.1-0.1 0.6-0.2 0.7q0.9-0.5 1.8-0.7 0-0.1 0.1-0.1 0.4-0.1 0.8-0.2c0.4-0.1 1.1-0.3 1.4 0.1 0.5 0.4-0.7 1.1-1.7 1.5 0.6-0.1 1.4-0.2 2-0.1 0.3 0 1 0 0.9 0.4 0 0.3-0.3 0.4-0.5 0.4q-0.4 0.1-0.9 0.2-0.3 0.1-0.7 0.1c-0.1 0.1-0.4 0.1-0.6 0.1 1.1 0 3.1 0.1 3 0.8z"/><path fill-rule="evenodd" class="b" d="m33.5 52c-0.2-0.3-0.4-0.8-0.4-1.2-0.1-0.9 0.2-1.8 0.5-2.4q0.1-0.1 0.2-0.3c0.2-0.6 0.6-1.5 1.3-1.6q0.3 0 0.5 0.2c0.1 0.2 0.1 0.4 0.1 0.6q0 0.3-0.1 0.6v0.1q-0.1 0.2-0.1 0.3c0.6-0.2 1-0.4 1.6-0.6q0 0 0 0 0.5-0.1 0.9-0.2l0.1-0.1c0.5-0.1 1.1-0.2 1.4 0.2q0.2 0.2 0.1 0.4c-0.1 0.4-0.6 0.7-1.2 1 0.5-0.1 1-0.1 1.3-0.1l0.1 0.1c0.4 0 0.8 0 0.9 0.3q0.1 0.1 0.1 0.3c-0.1 0.2-0.4 0.4-0.6 0.4q-0.5 0.2-1 0.2 0 0 0 0.1c0.9 0 1.6 0.2 1.8 0.5q0 0.1 0 0.3c0 0.4-1.6 0.6-2.5 0.6q0 0 0.1 0 0.2 0.1 0.4 0.2 0.1 0 0.1 0c0.4 0.1 0.9 0.3 1.1 0.6 0 0.1 0.1 0.3-0.1 0.5-0.3 0.5-1.1 0.3-1.6 0.1q-0.2 0-0.3-0.1c-0.5 0-1 0-1.6 0-1.2 0.1-2.4 0.2-3.1-0.8q0-0.1 0-0.2zm1.8-5.2q0-0.1-0.2-0.1c-0.5 0.1-0.9 1-1.1 1.5q-0.1 0.2-0.1 0.3c-0.3 0.6-0.6 1.4-0.6 2.3 0.1 0.4 0.2 0.9 0.4 1.2 0.6 0.9 1.8 0.8 2.9 0.8 0.6-0.1 1.1-0.1 1.6 0q0.2 0 0.3 0.1c0.5 0.1 1.2 0.3 1.4 0 0.1-0.1 0.1-0.2 0.1-0.3-0.2-0.2-0.7-0.4-0.9-0.5q-0.1 0-0.2 0-0.2-0.1-0.4-0.1-0.3-0.1-0.6-0.3h-0.1q-0.1-0.1-0.1-0.2 0 0 0.1 0c0.8 0 2.9-0.2 3-0.4q0-0.1-0.1-0.2c-0.2-0.4-2.1-0.4-2.8-0.5q0 0 0 0-0.1 0-0.1-0.1 0-0.1 0.2-0.1 0.1 0 0.3-0.1 0.1 0 0.2 0 0.4 0 0.7-0.1 0.4-0.1 0.9-0.2c0.1-0.1 0.4-0.1 0.4-0.3 0.1-0.2-0.5-0.3-0.7-0.3h-0.1c-0.5-0.1-1.3 0-2 0.1q-0.1 0-0.1-0.1-0.1-0.1 0-0.1c1-0.4 1.7-0.9 1.8-1.2q0-0.1 0-0.2c-0.3-0.2-0.8-0.1-1.2 0h-0.2q-0.4 0.1-0.8 0.3-0.1 0-0.1 0c-0.6 0.1-1.1 0.4-1.8 0.7q-0.1 0-0.1-0.1c-0.1-0.1 0-0.1 0-0.2 0 0 0.1-0.1 0.1-0.4l0.1-0.1q0-0.4 0-0.6 0-0.3-0.1-0.5z"/><path class="o" d="m23.1 37.2q-0.8-1.4 1.4-3 1.4 2.9 4.7 2.9-5.4 1.5-6.1 0.1z"/><path  d="m31.3 29.7c-0.2 0.5-0.7 0.8-1.1 0.7-0.4-0.2-0.5-0.8-0.2-1.4 0.2-0.5 0.8-0.8 1.1-0.7 0.4 0.2 0.5 0.8 0.2 1.4z"/><path  d="m37.9 30.6c-0.2 0.5-0.6 0.7-0.8 0.6-0.3-0.2-0.4-0.6-0.2-1.1 0.2-0.4 0.6-0.6 0.9-0.5 0.3 0.1 0.4 0.6 0.1 1z"/><path class="p" d="m20.5 39.8q0.2 0.3 0.3 0.7c0.6 1.6 0.9 3.2 1.1 4.8q0.2 2.4 0 4.8-4.1 0.6-6.4-0.7 0-5.7 0.9-7.9c0.3-0.7 0.5-1.4 1-1.9 0.9-1 2.3-0.7 3.1 0.2z"/><path fill-rule="evenodd" class="b" d="m21.9 50.3c-0.2 0-4.2 0.5-6.5-0.7q0-0.1 0-0.1c0-0.3 0-5.8 0.9-8.1v-0.1c0.3-0.7 0.5-1.3 1-1.8q0.1-0.2 0.3-0.3c1-0.7 2.3-0.3 3 0.6q0.2 0.3 0.3 0.7c0.6 1.6 1 3.2 1.1 4.8q0.3 2.3 0 4.9 0 0 0 0-0.1 0.1-0.1 0.1zm-4.4-10.7c-0.5 0.5-0.7 1.1-0.9 1.8l-0.1 0.1c-0.8 2.1-0.9 7.2-0.9 7.9 2.1 1 5.6 0.7 6.2 0.6q0.2-2.4 0-4.7c-0.2-1.5-0.5-3.1-1.1-4.8q-0.1-0.3-0.3-0.6c-0.6-0.8-1.8-1.2-2.7-0.5q-0.1 0.1-0.2 0.2z"/><path class="i" d="m20.5 39.8q0.2 0.3 0.3 0.7c0.6 1.6 0.9 3.2 1.1 4.8q0.2 2.4 0 4.8-4.1 0.6-6.4-0.7 0-5.7 0.9-7.9c0.3-0.7 0.5-1.4 1-1.9 0.9-1 2.3-0.7 3.1 0.2z"/><path fill-rule="evenodd" class="b" d="m19.8 50.4c-1.3 0-3.1-0.2-4.4-0.8q0-0.1 0-0.2c0-0.2 0-5.7 0.9-8v-0.1c0.3-0.7 0.5-1.3 1-1.8q0.6-0.7 1.4-0.7c0.7 0 1.4 0.4 1.9 1q0.2 0.3 0.3 0.7c0.6 1.6 1 3.2 1.1 4.8q0.3 2.4 0 4.9 0 0.1-0.1 0.1c0 0-0.9 0.1-2.1 0.1zm-4.2-1c1.2 0.6 3 0.7 4.2 0.7 1 0 1.7 0 2-0.1q0.2-2.4 0-4.7c-0.2-1.5-0.5-3.1-1.1-4.8q-0.1-0.3-0.3-0.6c-0.4-0.5-1.1-0.8-1.7-0.8q-0.7 0-1.2 0.5c-0.5 0.5-0.7 1.1-0.9 1.8l-0.1 0.1c-0.8 2.1-0.9 7.2-0.9 7.9z"/><path fill-rule="evenodd" class="b" d="m21.9 50.3c-0.2 0-4.2 0.5-6.5-0.7q0-0.1 0-0.1c0-0.3 0-5.8 0.9-8.1v-0.1c0.3-0.7 0.5-1.3 1-1.8q0.1-0.2 0.3-0.3c1-0.7 2.3-0.3 3 0.6q0.2 0.3 0.3 0.7c0.6 1.6 1 3.2 1.1 4.8q0.3 2.3 0 4.9 0 0 0 0-0.1 0.1-0.1 0.1zm-4.4-10.7c-0.5 0.5-0.7 1.1-0.9 1.8l-0.1 0.1c-0.8 2.1-0.9 7.2-0.9 7.9 2.1 1 5.6 0.7 6.2 0.6q0.2-2.4 0-4.7c-0.2-1.5-0.5-3.1-1.1-4.8q-0.1-0.3-0.3-0.6c-0.6-0.8-1.8-1.2-2.7-0.5q-0.1 0.1-0.2 0.2z"/><path class="j" d="m20.2 39.6c-0.6-0.1-1.3 0.1-1.7 1.1-0.7 1.5-0.4 3.1-0.4 4.7q0 2.4 0 4.8c-0.9-0.1-1.9-0.4-2.6-0.8q0-5.7 0.9-7.9c0.3-0.7 0.5-1.4 1-1.9 0.8-1 2.1-0.8 2.8 0z"/></svg>