<svg version="1.2" xmlns="http://www.w3.org/2000/svg" viewBox="0 0 75 100" width="75" height="100"><style>.a{fill:#1d1c1a}.b{fill:#f7d6b6}.c{fill:#00b4b7}.d{fill:#221f1f}.e{fill:#8ed6e5}.f{fill:#1d1d1b}.g{fill:#f8ede7}.h{fill:#ffcc7f}.i{fill:#002934}.j{fill:#ffd900}.k{fill:#ffffb4}.l{fill:#97d1d5}.m{fill:#00b5cf}.n{fill:#c62039}.o{fill:#741a13}.p{fill:#f9a731}.q{fill:#93572a}.r{fill:#b9642d}.s{fill:#ee8fb9}</style><path class="a" d="m30.2 46.7c-3.9 0-9.5-1.7-13.4-5-0.1-0.1-0.1-0.3 0-0.4 0.1-0.1 0.3-0.1 0.4 0 4.5 3.8 11.5 5.5 14.9 4.7 3.7-0.9 3.8-4.4 3.8-4.5 0-0.2 0.1-0.3 0.3-0.3 0.1 0 0.2 0.1 0.2 0.3 0 0 0 4-4.1 5q-0.9 0.2-2.1 0.2z"/><path class="b" d="m15 40.4c-0.2 0-0.5-0.1-0.6-0.2q-0.4-0.1-0.7-0.3-0.5-0.2-0.9-0.4c-0.2-0.1-0.5-0.3-0.5-0.5 0.1-0.5 0.8-0.3 1.1-0.3 0.6 0.1 1.5 0.3 2.1 0.6-0.9-0.7-2.1-1.7-1.5-2 0.5-0.3 1.2 0 1.6 0.2q0.4 0.3 0.8 0.5 0 0 0.1 0c0.6 0.4 1.1 0.8 1.7 1.2-0.1-0.1-0.1-0.6-0.1-0.7q0-0.4 0.1-0.7c0.1-0.3 0.3-0.7 0.7-0.6 0.6 0.3 0.8 1.6 0.9 2.3 0.2 0.8 0.3 1.7 0.1 2.5-0.2 0.5-0.5 1-0.8 1.3-1.4 1.3-3.5-0.2-5-0.2-0.5 0-1.7 0.2-2-0.4-0.2-0.7 1.1-0.7 1.4-0.8 0.4 0 0.8 0 1.1-0.1q0.1 0 0.2 0c-0.7-0.1-3.2-0.9-3.1-1.3 0.1-0.7 2.2-0.3 3.3-0.1z"/><path fill-rule="evenodd" class="a" d="m19.2 43.4c-1 0.9-2.3 0.5-3.5 0.2-0.6-0.2-1.1-0.4-1.6-0.4q-0.2 0-0.4 0c-0.6 0.1-1.5 0.1-1.7-0.5-0.1-0.2 0-0.4 0.1-0.5 0.2-0.3 0.8-0.4 1.2-0.4q0.1 0 0.2 0 0.2 0 0.5-0.1 0 0 0.1 0c-1-0.2-2.6-0.7-2.5-1.2q0-0.2 0.1-0.3c0.3-0.3 1.1-0.3 2-0.1q0-0.1-0.1-0.1-0.4-0.1-0.9-0.4c-0.2-0.1-0.5-0.3-0.5-0.6q0-0.2 0.1-0.3c0.2-0.2 0.7-0.2 1.1-0.2v0.1c0.4 0 0.9 0.1 1.4 0.3-0.5-0.4-1-0.9-1.1-1.3q0-0.3 0.3-0.5c0.4-0.3 1 0 1.5 0.3h0.1q0.4 0.2 0.9 0.5 0 0 0 0c0.5 0.3 1 0.6 1.5 1q0-0.1 0-0.4 0-0.4 0.1-0.8c0-0.1 0.1-0.3 0.2-0.5q0.3-0.2 0.6-0.1c0.6 0.3 0.9 1.3 1 2q0 0.2 0.1 0.3c0.1 0.8 0.3 1.7 0 2.7-0.2 0.4-0.4 0.9-0.7 1.2q-0.1 0.1-0.1 0.1zm-0.9-5.6q0 0.3 0 0.7v0.1c0 0.4 0 0.5 0 0.5 0 0 0 0.1 0 0.2q-0.1 0.1-0.2 0c-0.6-0.4-1.1-0.8-1.7-1.1q0-0.1-0.1-0.1-0.4-0.3-0.8-0.4l-0.1-0.1c-0.4-0.2-0.9-0.5-1.3-0.2q-0.1 0-0.1 0.2c0 0.3 0.7 0.9 1.6 1.6q0.1 0 0.1 0.1-0.1 0.1-0.2 0.1c-0.8-0.3-1.5-0.5-2.1-0.6h-0.1c-0.2 0-0.8-0.1-0.8 0.2 0 0.1 0.2 0.3 0.4 0.4q0.4 0.2 0.8 0.4 0.4 0.1 0.7 0.3 0.1 0 0.2 0.1 0.2 0 0.4 0.1c0.1 0 0.1 0.1 0.1 0.2 0 0-0.1 0.1-0.2 0.1-0.7-0.2-2.6-0.6-3-0.2q-0.1 0-0.1 0.1c0.1 0.3 2.2 1 3 1.1q0.1 0.1 0.1 0.2 0 0.1-0.1 0.1h-0.1q-0.4 0.1-0.7 0.1-0.3 0-0.5 0 0 0.1-0.1 0.1c-0.3 0-0.9 0-1.1 0.3-0.1 0-0.1 0.1 0 0.2 0.1 0.4 0.9 0.4 1.4 0.4q0.2 0 0.4 0c0.5 0 1.1 0.1 1.7 0.3 1.1 0.3 2.3 0.7 3.2-0.1 0.3-0.3 0.6-0.7 0.7-1.2 0.3-0.9 0.1-1.8 0-2.5q0-0.1-0.1-0.3c-0.1-0.6-0.3-1.6-0.8-1.9q-0.2 0-0.3 0.1-0.1 0.1-0.2 0.4z"/><path class="c" d="m27.4 40.7l-15.4 49.8q0.5-1.9-0.7-2.2c-1.2-0.4-2.7 1.3-3.4 2.4l15.3-49.6c2 0.4 3.4 0 4.2-0.4z"/><path fill-rule="evenodd" class="d" d="m7.9 90.9q-0.1 0-0.1 0-0.1-0.1-0.1-0.2l15.4-49.7q0-0.1 0.1-0.1 0.9 0.2 1.7 0.2c1.1 0 2-0.3 2.4-0.6q0.1 0 0.2 0.1 0.1 0 0 0.1l-15.3 49.8c-0.1 0.1-0.1 0.1-0.2 0.1-0.1 0-0.1-0.1-0.1-0.1 0-0.1 0.4-1.8-0.7-2.1q-0.1 0-0.3 0c-1.1 0-2.3 1.4-2.9 2.4q-0.1 0.1-0.1 0.1zm15.4-49.7l-15 48.7c0.6-0.9 1.7-1.8 2.6-1.8q0.2 0 0.4 0c0.6 0.2 0.9 0.7 0.9 1.3l15-48.5c-0.5 0.3-1.3 0.5-2.3 0.5q-0.8 0-1.6-0.2z"/><path class="c" d="m4.2 89.1q-0.1 0.3-0.1 0.5 0.4-2.8-1.6-3.6-1.1-0.3-1.7 1l15.4-50c0.5 0.6 1.5 1.6 3.3 2.6z"/><path fill-rule="evenodd" class="d" d="m4.1 89.7q0 0 0 0c-0.1 0-0.2-0.1-0.1-0.1 0-0.1 0.4-2.8-1.5-3.4q-0.2-0.1-0.4-0.1c-0.7 0-1.2 1-1.2 1q-0.1 0.1-0.2 0-0.1 0-0.1-0.1l15.5-50q0-0.1 0.1-0.1 0.1 0 0.1 0c0.5 0.6 1.5 1.6 3.3 2.6q0.1 0 0.1 0.1l-15.3 49.5c-0.1 0.3-0.2 0.5-0.2 0.5q0 0.1-0.1 0.1zm-2-3.9q0.3 0 0.5 0.1c1.3 0.5 1.6 1.7 1.7 2.7l15.1-49c-1.6-0.8-2.6-1.7-3.1-2.3l-15.1 49c0.2-0.3 0.5-0.5 0.9-0.5z"/><path class="e" d="m21.3 40.5q1.1 0.4 1.9 0.6l-15.3 49.6q0.8-2.7-1.1-3.4c-1.5-0.5-2.3 1-2.6 1.8l15.3-49.5q0.8 0.4 1.8 0.9z"/><path fill-rule="evenodd" class="f" d="m7.9 90.9q-0.1 0-0.1 0c0 0-0.1-0.1-0.1-0.2 0.1-0.1 0.8-2.6-1-3.3q-0.3-0.1-0.5-0.1c-1 0-1.6 1.2-1.8 1.9-0.1 0-0.1 0.1-0.2 0-0.1 0-0.1-0.1-0.1-0.1l15.3-49.6q0 0 0.1-0.1 0 0 0.1 0.1 0.7 0.4 1.8 0.8 1 0.4 1.8 0.6 0.1 0 0.1 0.1 0.1 0 0 0.1l-15.3 49.7q0 0.1-0.1 0.1zm-1.7-3.8q0.3 0 0.6 0.1c1 0.3 1.3 1.2 1.4 2l14.8-48q-0.8-0.2-1.7-0.6-1-0.4-1.7-0.8l-14.8 48c0.3-0.4 0.8-0.7 1.4-0.7z"/><path class="g" d="m20 27.7q8.5 2.5 9.5 2.9 0.9 0.4 0.5 1.5l-2.6 8.6c-0.8 0.4-2.2 0.8-4.2 0.4q-0.8-0.2-1.9-0.6-1-0.5-1.8-0.9c-1.8-1-2.8-2-3.3-2.6l2.4-7.6q0.3-1.8 1.4-1.7z"/><path fill-rule="evenodd" class="d" d="m24.9 41.4q-0.8 0-1.7-0.2-0.9-0.2-1.9-0.6-1.1-0.5-1.8-0.9c-1.9-1-2.9-2-3.4-2.6q0-0.1 0-0.1l2.3-7.7c0.4-1.6 1.2-1.7 1.5-1.7q0.1 0 0.1 0c0.4 0.1 8.6 2.5 9.5 2.9 0.8 0.4 0.8 1.3 0.7 1.7l-2.7 8.5q0 0.1 0 0.1c-0.5 0.3-1.4 0.6-2.6 0.6zm-8.5-4.4c0.5 0.6 1.5 1.5 3.2 2.5q0.7 0.4 1.8 0.8 1 0.4 1.8 0.6 0.9 0.2 1.7 0.2c1.1 0 1.9-0.3 2.4-0.5l2.6-8.5c0 0 0.3-1-0.5-1.3-0.9-0.4-9.3-2.9-9.5-2.9q0 0 0 0c-0.2 0-0.9 0.1-1.2 1.5z"/><path class="g" d="m19.2 28.1c0.2-0.7 2.7-0.5 5.8 0.5 3.1 0.9 5.3 2.2 5.1 2.8-0.2 0.7-2.8 0.5-5.8-0.4-3.1-1-5.3-2.3-5.1-2.9z"/><path fill-rule="evenodd" class="d" d="m28.9 32c-1.1 0-2.8-0.3-4.7-0.9-2.8-0.9-5.4-2.2-5.2-3.1q0.2-0.5 1.4-0.5c1.1 0 2.8 0.4 4.6 0.9 2.8 0.9 5.5 2.2 5.2 3.1q-0.1 0.5-1.3 0.5zm-8.5-4.2c-0.9 0-1.1 0.2-1.1 0.3-0.1 0.4 1.6 1.7 5 2.7 1.8 0.6 3.5 0.9 4.6 0.9 0.9 0 1-0.2 1.1-0.3 0.1-0.4-1.6-1.6-5-2.7-1.9-0.6-3.5-0.9-4.6-0.9z"/><path class="h" d="m2.5 86q2 0.8 1.6 3.6l0.1-0.5c0.3-0.8 1.1-2.3 2.6-1.8q1.9 0.7 1.1 3.4c0.7-1.1 2.2-2.8 3.4-2.4q1.2 0.3 0.7 2.2-8.4 9.6-9.3 9.4-1.5-0.5-1.9-12.9 0.6-1.3 1.7-1z"/><path fill-rule="evenodd" class="d" d="m2.7 100q0 0-0.1 0c-0.2-0.1-1-0.3-1.6-6.7-0.3-3.1-0.4-6.3-0.4-6.3q0 0 0.1 0c0-0.1 0.5-1.2 1.4-1.2q0.3 0 0.5 0.1c1.3 0.5 1.6 1.8 1.7 2.8 0.3-0.8 0.9-1.6 1.9-1.6q0.3 0 0.6 0.1c1.4 0.5 1.5 2 1.3 2.9 0.7-0.9 1.8-2 2.8-2q0.2 0 0.4 0c1.3 0.4 0.9 2.3 0.9 2.4q0 0.1-0.1 0.1c-0.8 0.9-8.2 9.4-9.4 9.4zm-1.8-13c0.2 4.8 0.8 12.4 1.8 12.7 0.8 0 6-5.7 9.2-9.3 0-0.2 0.3-1.7-0.7-2q-0.1 0-0.3 0c-1.1 0-2.3 1.4-2.9 2.4q-0.1 0.1-0.2 0.1-0.1-0.1-0.1-0.2c0.1-0.1 0.8-2.6-1-3.3q-0.3-0.1-0.5-0.1c-1 0-1.6 1.2-1.8 1.9l-0.2 0.4q0 0.1-0.1 0.1-0.2 0-0.1-0.1c0-0.1 0.4-2.8-1.5-3.4q-0.2-0.1-0.4-0.1c-0.6 0-1.1 0.8-1.2 0.9z"/><path class="i" d="m6.3 96.8c-1.7 1.7-3.3 3.2-3.6 3.1-0.6-0.2-1-2.1-1.3-4.4q0.7 0.4 1.4 0.7c1.1 0.4 2.3 0.7 3.5 0.6z"/><path fill-rule="evenodd" class="d" d="m2.7 100q0 0-0.1 0c-0.3-0.1-0.9-0.7-1.3-4.5q0-0.1 0-0.2 0.1 0 0.2 0 0.7 0.5 1.4 0.8c1.1 0.4 2.3 0.6 3.4 0.5q0.1 0 0.1 0.1 0 0.1 0 0.2c-2.7 2.7-3.4 3.1-3.7 3.1zm-1.1-4.3c0.4 3.4 0.9 4 1.1 4 0.2 0 0.8-0.3 3.2-2.8-1 0.1-2.1-0.1-3.1-0.5q-0.6-0.3-1.2-0.7z"/><path class="j" d="m21.8 38.1q5.3 1.6 6.3 0.5-0.4 1.1-0.7 2.2c-0.3 1.1-1.4 2.4-6.6 0.8q-5.2-1.6-4.9-3.4l0.8-2.9q-0.1 1.2 5.1 2.8z"/><path fill-rule="evenodd" class="d" d="m24.8 42.5q-1.6 0-4.1-0.8c-5.2-1.6-5-3.5-5-3.6l0.9-2.8q0-0.1 0.2-0.1 0.1 0 0.1 0.2c0 0 0 1 5 2.6q2.9 0.9 4.6 0.9c1.1 0 1.5-0.3 1.5-0.3q0-0.1 0.1-0.1 0.1 0.1 0.1 0.2-0.3 1-0.7 2.1c-0.2 0.7-0.7 1.7-2.7 1.7zm-8.8-4.3q-0.2 1.7 4.8 3.2 2.5 0.8 4 0.8c1.8 0 2.3-0.8 2.5-1.5 0.2-0.7 0.4-1.4 0.5-1.8-0.2 0.1-0.6 0.2-1.3 0.2q-1.8 0-4.7-0.9c-3.5-1.1-4.7-2-5-2.5z"/><path class="j" d="m17.1 34c-0.3 1.3 1.9 3 5 3.9 3.1 1 5.9 0.8 6.3-0.4q0.5 0.7 0.3 1.2c-0.3 1.2-3.4 1.3-6.9 0.2-3.5-1-6-2.9-5.6-4.1 0.1-0.3 0.4-0.6 0.9-0.8z"/><path fill-rule="evenodd" class="d" d="m26.1 39.8c-1.3 0-2.8-0.3-4.3-0.7-3.6-1.1-6.1-3-5.7-4.3q0.2-0.6 1-0.9 0.1 0 0.1 0 0.1 0.1 0.1 0.2c-0.3 1.1 1.9 2.8 4.9 3.7 1.2 0.4 2.5 0.6 3.6 0.6 1.3 0 2.3-0.3 2.5-0.9q0-0.1 0.1-0.1 0.1 0 0.1 0 0.5 0.7 0.4 1.3c-0.2 0.7-1.2 1.1-2.8 1.1zm-9.1-5.5c-0.3 0.1-0.6 0.3-0.7 0.5-0.3 1.2 2.2 3 5.5 4 1.6 0.5 3.1 0.7 4.3 0.7 1.4 0 2.3-0.3 2.5-0.9 0.1-0.3 0-0.6-0.2-0.8-0.4 0.6-1.3 0.9-2.6 0.9-1.1 0-2.4-0.2-3.7-0.6-3-1-5.1-2.6-5.1-3.8z"/><path class="j" d="m16.1 37.3c-0.3 1.2 1.9 2.9 5 3.9 3.1 0.9 5.9 0.8 6.3-0.4q0.5 0.6 0.3 1.1c-0.3 1.2-3.4 1.4-6.9 0.3-3.5-1.1-6-2.9-5.6-4.1q0.2-0.5 0.9-0.8z"/><path fill-rule="evenodd" class="d" d="m25.1 43.1c-1.3 0-2.8-0.3-4.4-0.8-2.6-0.8-4.9-2.2-5.5-3.3q-0.3-0.5-0.1-1 0.2-0.5 1-0.8 0.1 0 0.1 0 0.1 0.1 0.1 0.1c-0.3 1.2 1.9 2.8 4.8 3.8 1.3 0.4 2.6 0.6 3.7 0.6 1.3 0 2.3-0.4 2.5-1q0 0 0.1-0.1 0.1 0 0.1 0.1 0.5 0.7 0.4 1.3c-0.3 0.7-1.2 1.1-2.8 1.1zm-9.1-5.6c-0.3 0.1-0.6 0.3-0.7 0.6q-0.1 0.3 0.2 0.7c0.5 1.2 2.7 2.4 5.3 3.3 1.5 0.4 3.1 0.7 4.3 0.7 1.4 0 2.3-0.3 2.5-0.9q0.1-0.4-0.2-0.8c-0.4 0.5-1.3 0.8-2.6 0.8-1.2 0-2.4-0.2-3.7-0.6-3-0.9-5.2-2.5-5.1-3.8z"/><path class="j" d=""/><g style="opacity:.6;mix-blend-mode:screen"><path class="k" d="m2.4 99.4c-1.1-3.7-1.3-6.6-1.5-11.6 0-1.4 0.9-1.5 0.8-1.4-0.4 0.4-0.4 1.9-0.3 4 0.3 3.6 0.3 4.9 1.1 9.1q0 0.2-0.1-0.1z"/></g><path class="a" d="m57.2 92.9q-0.2 0-0.3-0.2c-0.1-0.1-1.5-1.9-3-3.7-4.4-5.5-8.1-10.2-8.4-10.9-0.4-1.1-1.9-11.1-1.9-11.6-0.1-0.1 0-0.3 0.2-0.3 0.1 0 0.3 0.1 0.3 0.3 0.5 3.5 1.6 10.6 1.9 11.4 0.3 0.7 5.3 7 8.3 10.7 2.6 3.2 3.1 3.8 3.1 3.9 0.1 0.2 0 0.3-0.1 0.4q-0.1 0-0.1 0z"/><path class="b" d="m60.6 98.1c-0.3 1.1-1.2 1.9-2.2 0.8-1-1.1-1.9-5-1.8-6.5 0.1-1 1-1.5 2-1.4q0 0 0 0c2.4 0.2 2.3 5.5 2 7.1z"/><path fill-rule="evenodd" class="a" d="m59.4 99.6q-0.6 0-1.1-0.6c-1-1.1-2-5.1-1.9-6.6 0.1-1.1 1.2-1.6 2.2-1.6v0.1q0.8 0 1.3 0.7c1.2 1.5 1 5.2 0.8 6.5-0.2 0.9-0.7 1.5-1.3 1.5zm-1-8.5c-0.8 0-1.6 0.4-1.7 1.4-0.1 1.3 0.8 5.2 1.8 6.3q0.4 0.5 0.9 0.5c0.5 0 0.9-0.6 1-1.3 0.3-1.2 0.4-4.8-0.7-6.3q-0.5-0.5-1.1-0.6-0.1 0-0.2 0z"/><path class="l" d="m58.6 91c2.4 0.2 2.3 5.5 2 7.1-0.3 1.1-1.2 1.9-2.2 0.8-0.5-0.6-1-1.8-1.3-3 0.3 0.2 0.6 0.2 0.8-0.2 0.7-1.2 0.5-3.2-0.1-4.6q0.4-0.1 0.8-0.1 0 0 0 0z"/><path fill-rule="evenodd" class="a" d="m59.4 99.6q-0.6 0-1.1-0.6c-0.6-0.7-1.1-2.2-1.3-3.1q-0.1-0.1 0-0.1 0.1-0.1 0.2 0 0.3 0.2 0.6-0.2c0.6-1.1 0.5-3-0.1-4.5q0 0 0-0.1 0-0.1 0.1-0.1 0.4-0.1 0.8-0.1v0.1q0.8 0 1.3 0.7c1.2 1.5 1 5.2 0.8 6.5-0.2 0.9-0.7 1.5-1.3 1.5zm-2.1-3.5c0.4 1.3 0.8 2.3 1.2 2.7q0.4 0.5 0.9 0.5c0.5 0 0.9-0.6 1-1.3 0.3-1.2 0.4-4.8-0.7-6.3q-0.5-0.5-1.1-0.6-0.3 0-0.6 0.1c0.6 1.3 0.7 3.3 0 4.5q-0.2 0.5-0.7 0.4z"/><path class="m" d="m58.7 91c2.3 0.2 2.2 5.5 1.9 7.1-0.2 0.7-0.6 1.3-1.2 1.3 0.8-1.1 0.6-3 0.5-4.2-0.1-1.3-0.3-3.1-1.2-4.2z"/><path fill-rule="evenodd" class="a" d="m59.4 99.6q-0.1 0-0.1-0.1 0-0.1 0-0.2c0.7-1 0.6-3 0.5-4.1-0.1-1.2-0.3-3-1.3-4.1q0-0.1 0-0.2 0.1 0 0.2 0 0.7 0 1.2 0.7c1.2 1.6 1 5.2 0.8 6.5-0.2 0.9-0.7 1.4-1.3 1.5zm-0.4-8.4c0.8 1.2 1 2.9 1.1 4 0.1 1 0.2 2.8-0.4 4 0.3-0.2 0.6-0.6 0.7-1.2 0.3-1.2 0.4-4.7-0.7-6.2q-0.3-0.4-0.7-0.6z"/><path class="a" d="m39.3 95.9c-0.1 0-0.3-0.1-0.3-0.2-3.6-15.4-2.2-28.6-2.2-28.7 0-0.2 0.1-0.3 0.3-0.3 0.1 0 0.3 0.2 0.2 0.3 0 0.2-1.3 13.3 2.3 28.5 0 0.2-0.1 0.4-0.2 0.4q-0.1 0-0.1 0z"/><path class="b" d="m34 99.2c-1.2-0.2-2-1.1-0.9-2.2 1.1-1 5-1.9 6.4-1.8 1.1 0.1 1.6 1 1.5 2q0 0 0 0c-0.2 2.4-5.5 2.3-7 2z"/><path fill-rule="evenodd" class="a" d="m36 99.5c-0.9 0-1.7-0.1-2.1-0.2-0.7-0.1-1.3-0.5-1.4-1-0.1-0.3-0.1-0.8 0.5-1.4 1.1-1 5.1-1.9 6.5-1.8 1.2 0 1.7 1.1 1.7 2.1h-0.1c-0.1 2.1-3.6 2.3-5.1 2.3zm3.3-4.2c-1.5 0-5.1 0.9-6.1 1.8q-0.6 0.6-0.5 1.1c0.2 0.4 0.6 0.7 1.3 0.9 0.4 0 1.1 0.1 2 0.1 1.1 0 4.7-0.1 4.9-2h0.1-0.1c0-0.9-0.4-1.8-1.4-1.9q-0.1 0-0.2 0z"/><path class="l" d="m41 97.2c-0.2 2.4-5.5 2.3-7 2-1.2-0.2-2-1.1-0.9-2.2 0.5-0.5 1.7-0.9 3-1.3-0.2 0.3-0.2 0.6 0.2 0.8 1.2 0.7 3.2 0.5 4.6-0.1q0.1 0.4 0.1 0.8 0 0 0 0z"/><path fill-rule="evenodd" class="a" d="m36 99.5c-0.9 0-1.7-0.1-2.1-0.2-0.7-0.1-1.3-0.5-1.4-1-0.1-0.3-0.1-0.8 0.5-1.4 0.5-0.4 1.6-0.9 3.1-1.3q0.1 0 0.1 0.1 0.1 0 0 0.1-0.1 0.2-0.1 0.3 0.1 0.2 0.3 0.3c0.5 0.3 1.1 0.4 1.9 0.4 0.8 0 1.8-0.2 2.6-0.5q0 0 0.1 0 0 0 0.1 0.1 0.1 0.4 0.1 0.8h-0.1c-0.1 2.1-3.6 2.3-5.1 2.3zm-0.1-3.5c-1.3 0.3-2.3 0.7-2.7 1.1q-0.6 0.6-0.5 1.1c0.2 0.4 0.6 0.7 1.3 0.9 0.4 0 1.1 0.1 2 0.1 1.1 0 4.7-0.1 4.9-2h0.1-0.1q0-0.3-0.1-0.6c-0.8 0.3-1.7 0.5-2.5 0.5-0.8 0-1.5-0.1-2-0.4q-0.4-0.2-0.4-0.5-0.1-0.1 0-0.2z"/><path class="m" d="m41 97.3c-0.2 2.3-5.5 2.2-7 1.9-0.8-0.2-1.4-0.6-1.4-1.1 1.1 0.7 3 0.6 4.2 0.5 1.3-0.1 3.1-0.4 4.2-1.3z"/><path fill-rule="evenodd" class="a" d="m36 99.5c-0.9 0-1.7-0.1-2.1-0.2-0.8-0.1-1.4-0.6-1.5-1.2q0-0.1 0.1-0.2 0.1 0 0.2 0 0.8 0.6 2.5 0.6 0.8 0 1.6-0.1c1.2-0.1 3-0.3 4.1-1.3q0.1 0 0.2 0 0 0.1 0 0.2c-0.1 2-3.6 2.2-5.1 2.2zm-3.2-1.1c0.2 0.3 0.6 0.5 1.2 0.7 0.4 0 1.1 0.1 2 0.1 1.1 0 4.2-0.1 4.8-1.6-1.2 0.8-2.8 1-4 1.1q-0.7 0.1-1.6 0.1-1.5 0-2.4-0.4z"/><path class="n" d="m51 65.8l1.3 9.1q-14.4 3.7-23.5-2 1.9-3.7 3.8-8.8z"/><path fill-rule="evenodd" class="a" d="m42.7 76.3c-8.6 0-13.9-3.3-14-3.3q-0.1-0.1 0-0.2c1.8-3.6 3.7-8.7 3.7-8.8q0.1-0.1 0.2-0.1l18.4 1.8q0.1 0 0.2 0.1l1.2 9.1q0 0.1-0.1 0.1c-3.2 0.9-6.4 1.3-9.6 1.3zm-13.7-3.5c0.8 0.5 5.8 3.2 13.7 3.2 3.1 0 6.3-0.4 9.4-1.2l-1.2-8.8-18.2-1.8c-0.3 0.8-2 5.3-3.7 8.6z"/><path class="o" d="m33.5 68.6c-0.3 1.3-1.6 5.1-1.7 5.7q-0.6-0.2-1-0.4c0.4-0.9 0.7-1.7 1.1-2.5 0.5-1 1-1.9 1.6-2.8z"/><path fill-rule="evenodd" class="a" d="m31.8 74.4q0 0-0.1 0-0.5-0.2-1-0.4 0 0 0-0.1-0.1 0 0-0.1 0.2-0.5 0.4-1.1 0.3-0.7 0.7-1.4c0.4-0.9 0.9-1.8 1.5-2.8q0.1-0.1 0.2-0.1 0.1 0.1 0.1 0.2c-0.2 0.9-0.9 3.1-1.3 4.5-0.2 0.6-0.3 1-0.4 1.2q0 0.1 0 0.1-0.1 0-0.1 0zm-0.8-0.6q0.3 0.1 0.7 0.3c0.1-0.3 0.2-0.6 0.3-1.1 0.3-1 0.8-2.5 1.1-3.5q-0.6 1-1.1 1.9-0.3 0.7-0.6 1.4-0.2 0.5-0.4 1z"/><path class="o" d="m34.9 75.2c0.5-1.7 1.2-3.3 1.9-4.9-0.1 1.2-0.5 4.7-0.5 5.2q-0.7-0.1-1.4-0.3z"/><path fill-rule="evenodd" class="a" d="m36.3 75.7q0 0 0 0-0.8-0.2-1.4-0.3-0.1 0-0.1-0.1 0 0 0-0.1c0.4-1.5 1-3.1 1.9-5q0-0.1 0.1-0.1 0.1 0.1 0.1 0.2c0 0.4-0.1 1.2-0.2 1.9-0.1 1.4-0.2 3-0.3 3.3q0 0.1 0 0.1-0.1 0.1-0.1 0.1zm-1.2-0.6q0.5 0.1 1.1 0.3c0-0.6 0.1-2 0.3-3.2q0-0.6 0.1-1c-0.6 1.4-1.1 2.7-1.5 3.9z"/><path class="o" d="m41.8 71.6q0.2 2.3 0.3 4.6-0.7-0.1-1.3-0.1c0.4-1.5 0.6-3 1-4.5z"/><path fill-rule="evenodd" class="a" d="m42.1 76.3q-0.7 0-1.3 0 0-0.1-0.1-0.1 0-0.1 0-0.1 0.2-1 0.4-2 0.2-1.3 0.5-2.6 0.1-0.1 0.2-0.1 0.1 0 0.1 0.2 0.2 2.4 0.3 4.6 0 0 0 0.1-0.1 0-0.1 0zm-1.1-0.3q0.5 0 0.9 0-0.1-1.7-0.2-3.5-0.2 0.8-0.3 1.6-0.2 1-0.4 1.9z"/><path class="o" d="m52 75q-0.5 0.1-0.9 0.2 0-0.2 0-0.3-0.3-1.6-0.4-3.3c0.5 1.1 0.8 2.3 1.3 3.4z"/><path fill-rule="evenodd" class="a" d="m51.1 75.3q0 0-0.1 0 0 0 0-0.1l-0.1-0.3q-0.2-1.5-0.3-3.3 0-0.1 0.1-0.1 0.1 0 0.2 0.1 0.4 1.1 0.8 2.2 0.2 0.5 0.4 1.1 0 0.1 0 0.2-0.1 0-0.1 0-0.4 0.1-0.9 0.2 0 0 0 0zm-0.2-2.7q0.2 1.2 0.3 2.3v0.1q0.3 0 0.6-0.1-0.2-0.5-0.4-1.1-0.2-0.6-0.5-1.2z"/><path class="o" d="m47.9 75.8q-0.5 0.1-1.1 0.1c0-1.9 0-3.1 0-4.7 0.4 1.5 0.8 3 1.1 4.6z"/><path fill-rule="evenodd" class="a" d="m46.8 76.1q0 0-0.1-0.1 0 0 0-0.1 0-0.8 0-1.4c0-1.2-0.1-2.2 0-3.3q0-0.2 0.1-0.2 0.1 0 0.2 0.1c0.3 1.2 0.5 2.4 0.8 3.6q0.1 0.5 0.2 1.1 0 0 0 0.1 0 0-0.1 0-0.5 0.1-1.1 0.2 0 0 0 0zm0.1-4c0 0.8 0 1.5 0.1 2.4q0 0.6 0 1.3 0.3-0.1 0.7-0.1-0.1-0.5-0.2-1-0.3-1.3-0.6-2.6z"/><g style="mix-blend-mode:multiply"><path class="n" d="m31.9 65.7q0.4-1 0.7-1.6l18.4 1.7 1.3 9.1c-2.2 0.6-4.2 0.9-6.2 1.1-0.2-1.9 0-4-0.8-5.7-0.5-1-2.1-1.1-3.1-1.2-3.5-0.7-7.4-1.2-10.3-3.4z"/></g><path class="p" d="m42.9 42q-0.2 0.3-0.5 0.6c-1.4 1.1-2.8 2.2-4.4 3q-1.9 1-4 1.6c-1.3-1.9-2.3-4.2-2.3-6.5 1.4-0.5 5.8-2.1 8-2.2 0.8 0 1.5 0 2.3 0.3 1.3 0.5 1.5 2 0.9 3.2z"/><path fill-rule="evenodd" class="d" d="m34 47.4q-0.1 0-0.1-0.1c-1.1-1.5-2.3-3.9-2.3-6.6q0-0.1 0.1-0.1c1.3-0.5 5.7-2.2 8-2.2h0.1q0.2 0 0.4 0c0.7 0 1.2 0 1.8 0.3q0.9 0.3 1.3 1.2c0.2 0.7 0.1 1.5-0.3 2.1q-0.2 0.4-0.5 0.7c-1.5 1.2-2.9 2.2-4.4 3q-1.9 1-4 1.7-0.1 0-0.1 0zm-2.2-6.6c0.1 2.5 1.3 4.8 2.3 6.3q2.1-0.7 3.8-1.6c1.5-0.8 3-1.8 4.4-3q0.3-0.3 0.5-0.6c0.3-0.6 0.4-1.3 0.2-1.9q-0.3-0.8-1.1-1.1c-0.5-0.2-1.1-0.2-1.7-0.2q-0.2 0-0.4 0h-0.1c-2.2 0-6.4 1.5-7.9 2.1z"/><g style="opacity:.5;mix-blend-mode:multiply"><path class="p" d="m42.9 42q-0.2 0.3-0.5 0.6c-1.4 1.1-2.8 2.2-4.4 3q-1.9 1-4 1.6 0 0-0.1-0.1c0.5-1.5 1.2-2.9 1.7-4.1 0.9-1.9 2.4-3.4 4.1-4.5 0.8 0 1.5 0 2.3 0.3 1.3 0.5 1.5 2 0.9 3.2z"/></g><path class="p" d="m30.5 64.6c0.5-3.5 1.1-6.8 2-10.2 0.6-2.7 1.5-5.3 2.6-7.9 1.3-3.1 2.9-6.5 5.3-8.3 0.7-0.5 1.4-0.8 2.2-1 0.7-0.2 1.5-0.3 2.2-0.4 1 0 2.5 0.6 3.4 1.2 4.5 3.6 4.1 19.4 4.1 24.5q0 2.3-0.1 4.5-0.5 0.1-0.9 0.2-3.8 0.6-7.7 0.6c-4.2-0.1-9.6-0.5-13.1-3.2z"/><path fill-rule="evenodd" class="d" d="m44.2 67.9q-0.3 0-0.6 0c-4.2-0.1-9.6-0.5-13.2-3.2q-0.1-0.1 0-0.2c0.5-3.6 1.2-6.9 1.9-10.1 0.8-2.9 1.6-5.5 2.6-7.9 1.3-3.1 2.9-6.6 5.4-8.4q0.9-0.7 2.2-1.1c0.8-0.2 1.7-0.3 2.3-0.3 1-0.1 2.6 0.5 3.4 1.2 4.3 3.4 4.2 17.4 4.2 23.3q0 0.7 0 1.3 0 2.3-0.1 4.5 0 0.1-0.1 0.2-0.5 0.1-0.9 0.1-3.4 0.6-7.1 0.6zm-13.6-3.4c3.6 2.7 8.8 3.1 13 3.1 2.6 0 5.2-0.1 7.6-0.5q0.4-0.1 0.9-0.2 0-2.1 0-4.4 0-0.6 0-1.3c0-5.9 0.1-19.8-4-23.1-0.8-0.6-2.4-1.2-3.3-1.1-0.6 0-1.4 0.1-2.2 0.3q-1.2 0.3-2.1 1c-2.4 1.8-4 5.2-5.3 8.3-1 2.4-1.9 4.9-2.6 7.9-0.8 3.1-1.4 6.4-2 10z"/><g style="opacity:.5;mix-blend-mode:multiply"><path class="p" d="m52.3 62.5q0 2.3-0.1 4.5-0.5 0.1-0.9 0.2c-2.5 0.4-5.1 0.6-7.6 0.6 0.8-0.6 1.5-1.2 1.8-2 0.7-1.3 0.6-3.2 0.6-4.7 0.1-2.1 0.2-4.2 0.2-6.3 0-3.2 0.5-7.8-1.5-10.6-0.9-1.3-2.4-1.8-3-3.5q-0.1-0.4-0.1-0.9 0.3-1.3 0.8-2.6 0 0 0 0 0 0 0.1 0c0.7-0.2 1.5-0.3 2.2-0.4 1 0 2.5 0.6 3.4 1.2 4.5 3.6 4.1 19.4 4.1 24.5z"/></g><path class="b" d="m43.6 40.9c-0.9 0-1.6-0.5-1.6-1.3v-4.6c0-0.7 0.7-1.3 1.6-1.3 0.9 0 1.7 0.6 1.7 1.3v4.6c0 0.8-0.8 1.3-1.7 1.3z"/><path fill-rule="evenodd" class="a" d="m43.6 41.1c-1 0-1.8-0.7-1.8-1.5v-4.6c0-0.8 0.8-1.4 1.8-1.4 1 0 1.8 0.6 1.8 1.4v4.6c0 0.8-0.8 1.5-1.8 1.5zm0-7.2c-0.8 0-1.5 0.5-1.5 1.1v4.6c0 0.7 0.7 1.2 1.5 1.2 0.8 0 1.5-0.5 1.5-1.2v-4.6c0-0.6-0.7-1.1-1.5-1.1z"/><path class="q" d="m71.5 36.8c0.5 0.5 1.1 0.8 1.5 1.3 0.1 0.1-0.1 0.3-0.2 0.4-2 1.4-5.4 1.1-7.2-0.4-0.7-0.6-1.5-1.5-2-2.6 0.1 1.6 0.5 3.1 1.8 4 0.3 0.1-0.4 0.5-0.5 0.5-1.9 0.3-4.3-1-5.1-2.8q0 0.4 0 0.8c0 0.4 0 0.4-0.3 0.7 0 0.1-0.2 0.2-0.3 0.2-2.4-1.2-2.9-4.4-2.2-6.7 0.5-1.4 0.9-2.9 1.3-4.4 0.6-2.5 0.8-5 0.7-7.6-0.1-2.7-0.5-5.4-0.6-8.1 0-2.1-2.7-3.1-1.3-4.8 5-5.8 15.7-0.1 15.9 7.4 0 3.6-1.3 8.2-2.3 11.6-0.5 2.1-1.3 10.1 3.2 8.2 0.1 0 0.2-0.1 0.2 0 0.4 0.8-0.7 1.7-1.4 2.1q-0.6 0.3-1.2 0.2z"/><path fill-rule="evenodd" class="f" d="m64.4 40.2c-1.7 0-3.5-1-4.5-2.4q0 0.1 0 0.2c0 0.4 0 0.5-0.2 0.7l-0.1 0.1c0 0-0.3 0.3-0.5 0.2-2.4-1.1-3-4.4-2.2-6.8 0.5-1.8 0.9-3.1 1.2-4.4 0.6-2.6 0.9-5.1 0.8-7.6-0.1-1.2-0.2-2.5-0.3-3.7-0.2-1.5-0.3-3-0.3-4.4 0-0.9-0.5-1.5-1-2.1-0.6-0.9-1.2-1.7-0.3-2.8 1.4-1.6 3.3-2.4 5.4-2.4 4.9 0 10.6 4.3 10.7 9.9 0.1 3.4-1.2 7.8-2.1 11.1l-0.1 0.5c-0.4 1.5-0.9 5.9 0.4 7.6q0.9 1.2 2.6 0.5 0.2-0.1 0.3 0c0.5 0.8-0.5 1.8-1.4 2.3q-0.5 0.3-0.9 0.3 0.2 0.2 0.4 0.3c0.3 0.3 0.6 0.5 0.8 0.8q0.1 0 0.1 0.1-0.1 0.2-0.3 0.4c-0.9 0.6-2.1 1-3.3 1-1.6 0-3.1-0.6-4.1-1.4-0.6-0.5-1.2-1.3-1.7-2 0.1 1.1 0.6 2.4 1.7 3.1q0.1 0.1 0.1 0.3c-0.1 0.3-0.5 0.5-0.7 0.6q-0.2 0-0.5 0zm-4.6-3.1q0 0 0.1 0c0.7 1.6 2.7 2.8 4.5 2.8q0.2 0 0.5 0c0.1 0 0.4-0.2 0.4-0.3-1.1-0.8-1.8-2.2-1.8-4.1q0-0.1 0.1-0.1 0.1 0 0.1 0.1c0.5 0.9 1.2 1.8 1.9 2.5 1 0.8 2.5 1.3 4 1.3 1.2 0 2.3-0.4 3.1-0.9q0.1-0.1 0.2-0.2-0.4-0.3-0.8-0.6c-0.2-0.2-0.5-0.4-0.7-0.7q-0.1 0 0-0.1 0-0.1 0.1-0.1 0.1 0 0.2 0 0.5 0 1-0.2c0.6-0.4 1.6-1.2 1.3-1.9q0 0 0 0c-1.3 0.6-2.2 0.4-2.9-0.5-1.4-1.8-0.9-6.3-0.5-7.8l0.2-0.6c0.9-3.2 2.1-7.7 2-11-0.1-4.5-4.6-9.6-10.4-9.6-2.1 0-3.9 0.8-5.2 2.3-0.7 0.9-0.2 1.5 0.4 2.4 0.4 0.6 0.9 1.4 1 2.3 0 1.4 0.1 2.9 0.3 4.3 0.1 1.3 0.2 2.5 0.3 3.8 0.1 2.5-0.2 5-0.8 7.7-0.4 1.6-0.9 3.2-1.3 4.4-0.7 2.3-0.1 5.4 2.2 6.4 0 0 0.1 0 0.1-0.1h0.1c0.2-0.3 0.2-0.3 0.2-0.6 0-0.3-0.1-0.6-0.1-0.8q0-0.1 0.1-0.1 0 0 0.1 0z"/><g style="mix-blend-mode:multiply"><path class="r" d="m58.3 27.8c0.6-2.5 0.8-5 0.7-7.6-0.1-2.7-0.5-5.4-0.6-8.1 0-2.1-2.7-3.1-1.3-4.8q0.7-0.8 1.6-1.3c1.3 0.4 2.5 1.5 3.5 2.3 1.7 1.6 3 3.5 3.9 5.7 0.7 1.6 1.1 3.4 1.3 5.1 0.1 1.5 0 3.1-0.3 4.4-0.7 2.6-2.1 5.5-3.7 7.5-1.8 2.1-4.1 3.7-6.4 5.3-0.4-1.3-0.4-2.9 0-4.1 0.5-1.4 0.9-2.9 1.3-4.4z"/></g><path class="b" d="m60.4 23.3c-2.2 9.9-11.2 14.9-21.4 15.1-3.7 0.2-8.3-2.3-10.7-4.6-4.4-4.3-5.2-12-3.8-18.5 2.2-9.9 12-16.1 21.9-13.9 10 2.2 16.2 12 14 21.9z"/><path fill-rule="evenodd" class="a" d="m38.8 38.6c-3.8 0-8.3-2.4-10.6-4.7-4.8-4.7-5-12.9-3.8-18.6 1.9-8.4 9.5-14.5 18.1-14.5q2 0 4 0.4c9.9 2.2 16.3 12.1 14.1 22.1-2.1 9.1-10.3 15-21.6 15.3q-0.1 0-0.2 0zm3.7-37.5c-8.5 0-16 6-17.8 14.3-1.3 5.6-1 13.7 3.7 18.3 2.4 2.3 7 4.7 10.6 4.6 11.1-0.3 19.3-6.1 21.3-15.1 2.1-9.8-4.1-19.5-13.9-21.7q-1.9-0.4-3.9-0.4z"/><g style="mix-blend-mode:multiply"><path class="b" d="m60.4 23.3c-2.2 9.9-11.2 14.9-21.4 15.1-1 0.1-2.1-0.1-3.2-0.4q0.2 0 0.4 0c3.5 0.3 7.1 0.1 9.5-2.8 2.2-2.5 2-6 1.3-9.1-0.6-2.3-1.7-6.2-3.8-7.5-0.3-0.2 0.3 1.3 0.2 1.9-1.7-1.5-6-5.1-6.2-4.9-1.4 2-4.3 2.3-6.5 2.8-2.2 0.5-4.5 0.8-6.7 0.4q0.2-1.7 0.5-3.5c2.2-9.9 12-16.1 21.9-13.9 10 2.2 16.2 12 14 21.9z"/></g><path class="q" d="m64 26c-2.8 6.5-9.4 10.5-16.3 11.2-0.4 0-1 0.1-1.5 0.1 1.3-0.3 2.7-1 4.1-1.5 2.2-1 4.3-2.3 4.7-4.8 0.4-2.7-0.8-5.5-2-8-1.1-1.5-2.6-3.7-2.8-4.1-1.1-1.3-2.2-2.7-3.5-3.9q0.2 0.6 0.4 1.1c0.2 0.5 0.5 1.2 0.3 1.7-0.1 0.1-0.3 0.3-0.4 0.2-1-0.7-2-1.7-2.8-2.6q-0.8-0.7-1.5-1.4 0.4 0.7 0.7 1.4c0.3 0.7 0.3 1.5-0.6 1.7-1.1 0.3-2.7-1.6-3.2-2.4-0.5-0.6-1.1-1.4-1.4-2.2-1.3 1-2.7 1.7-4.1 2.3-1.5 0.7-5.7 2.7-7.2 1.2 0 0 0-0.1 0-0.1 0.2-0.3 0.6-0.9 1-1.4q-0.6 0.5-1.1 1c-0.6 0.5-2.4 1.7-3.2 1.2-0.1 0 0-0.1 0.1-0.2q0.1-0.1 0.3-0.3c-2.2 0.9-4.8-0.9-5.1-3.5-0.1-0.1 0.2-0.3 0.3-0.3 2.2 0 4.2-1.4 5.7-3 1.7-1.9 3.2-3.9 5.3-5.5 1.9-1.4 4-2.3 6.1-3 2.4-0.7 5.4-0.8 7.9-0.7 7.9 0.3 16.7 4.9 20 12.5q0.2 0.4 0.4 0.9c1.4 4 1 8.5-0.6 12.4z"/><path fill-rule="evenodd" class="f" d="m46.2 37.5q-0.2 0-0.2-0.1 0-0.2 0.1-0.2c1.1-0.2 2.1-0.7 3.1-1.1q0.5-0.3 1-0.5c2.1-0.8 4.2-2.1 4.6-4.6 0.4-2.6-0.7-5.3-2-7.9-0.6-0.9-1.4-2.1-2-2.9-0.4-0.6-0.7-1.1-0.8-1.2q-1.5-2.1-3-3.5 0.1 0.2 0.2 0.4v0.1q0.1 0.2 0.1 0.3c0.2 0.4 0.5 1 0.2 1.5-0.1 0.1-0.2 0.4-0.4 0.4q-0.1 0-0.2-0.1c-0.8-0.5-1.6-1.3-2.3-2q-0.3-0.3-0.5-0.6-0.4-0.3-0.8-0.7 0.1 0.2 0.3 0.5c0.2 0.5 0.2 1 0 1.4q-0.2 0.4-0.7 0.6-0.2 0-0.3 0c-1.3 0-2.9-2.2-3.1-2.5-0.5-0.6-1-1.3-1.4-2.1q-1.6 1.3-3.9 2.3l-0.4 0.1c-1.3 0.6-3.6 1.6-5.3 1.6q-1.1 0-1.7-0.6c-0.1-0.1 0-0.2 0-0.3q0.1-0.1 0.3-0.4-0.1 0.1-0.3 0.2c-0.1 0.1-1.7 1.4-2.8 1.4q-0.3 0-0.5-0.1-0.1-0.1-0.1-0.2 0-0.1 0.1-0.2-0.4 0.1-0.7 0.1c-2 0-3.8-1.7-4.1-3.9q0-0.1 0.1-0.2c0.1-0.1 0.2-0.2 0.4-0.2 2.4-0.1 4.3-1.6 5.6-3q0.7-0.8 1.4-1.6c1.3-1.4 2.4-2.8 4-3.9 1.7-1.3 3.7-2.3 6.1-3 2.3-0.7 4.8-0.8 6.5-0.8q0.7 0 1.4 0c7.2 0.3 16.5 4.4 20.2 12.6q0.2 0.4 0.3 0.9c1.4 3.8 1.1 8.4-0.6 12.5-2.6 6.2-8.9 10.5-16.4 11.3l-0.2 0.1q-0.6 0-1.3 0.1 0 0 0 0zm0.5-22.6q0 0 0.1 0c1.1 1 2.3 2.3 3.5 3.9 0.1 0.2 0.4 0.6 0.8 1.2 0.5 0.9 1.3 2 2 2.9 1.3 2.7 2.4 5.5 2 8.2-0.4 2.6-2.7 3.9-4.8 4.8q-0.5 0.2-1 0.4-0.8 0.4-1.8 0.8h0.2c7.4-0.8 13.6-5.1 16.1-11.2 1.8-4.1 2-8.5 0.7-12.3q-0.2-0.4-0.4-0.9c-3.6-8.1-12.8-12.1-20-12.4q-0.6 0-1.3 0c-1.7 0-4.2 0.1-6.4 0.8-2.4 0.6-4.4 1.6-6.1 2.9-1.5 1.1-2.6 2.5-3.9 3.9q-0.7 0.8-1.4 1.6c-1.3 1.4-3.3 3-5.8 3-0.1 0-0.2 0.1-0.2 0.2 0.3 2 1.9 3.6 3.8 3.6q0.6 0 1.1-0.2 0.1-0.1 0.2 0 0 0.1 0 0.2l-0.2 0.1q-0.1 0.1-0.1 0.2-0.1 0-0.1 0.1 0.2 0 0.3 0c0.8 0 2.1-0.8 2.7-1.3 0.3-0.3 0.7-0.7 1.1-1q0-0.1 0.1-0.1 0.1 0.1 0.1 0.2c-0.5 0.7-0.8 1.2-0.9 1.4q0 0.1 0 0.1 0.5 0.4 1.4 0.4c1.7 0 4-1 5.2-1.5l0.4-0.2q2.3-1 4-2.3 0-0.1 0.1-0.1 0.1 0.1 0.1 0.1c0.4 0.8 0.9 1.6 1.4 2.3 0.6 0.8 2 2.3 2.9 2.3q0.1 0 0.2 0 0.4-0.1 0.6-0.5c0.1-0.3 0.1-0.7-0.1-1.1-0.2-0.4-0.4-0.8-0.7-1.4q0-0.1 0.1-0.1 0.1-0.1 0.1 0 0.7 0.7 1.5 1.4 0.2 0.3 0.5 0.6c0.7 0.7 1.4 1.5 2.3 2 0 0 0.1-0.1 0.1-0.2 0.2-0.4 0-0.9-0.1-1.3q-0.1-0.1-0.1-0.3l-0.1-0.1q-0.2-0.5-0.4-0.9 0-0.1 0.1-0.2 0 0 0.1 0z"/><path class="b" d="m54 31.8q-0.6-0.1-0.8-0.8-0.7-1.9 0.9-4.4 1.5-2.1 3.8-1.9c2.9 0.2 1.9 6.3-3.4 7.3q0 0-0.5-0.2z"/><g style="mix-blend-mode:multiply"><path class="b" d="m54 31.8q-0.6-0.1-0.8-0.8-0.7-1.9 0.9-4.4 1.5-2.1 3.8-1.9c2.9 0.2 1.9 6.3-3.4 7.3q0 0-0.5-0.2z"/></g><path class="a" d="m54.5 32.1q-0.1 0-0.1-0.1c0-0.1 0-0.2 0.1-0.2 3.5-0.6 4.9-3.5 4.8-5.2 0-1.1-0.6-1.7-1.4-1.8-2.2-0.1-3.6 1.9-3.7 1.9 0 0-0.1 0.1-0.2 0 0 0 0-0.1 0-0.2 0.1-0.1 1.5-2.1 3.9-1.9 1 0 1.6 0.8 1.7 1.9 0.1 1.9-1.4 4.9-5 5.6q0 0-0.1 0z"/><path class="a" d="m55.6 29.9q-0.1 0-0.1-0.1c0-0.1-0.3-1.9 1-2.8q0.6-0.5 1.1-0.4c0.5 0.1 0.7 0.5 0.7 0.5 0 0.1 0 0.2-0.1 0.2q-0.1 0.1-0.1 0c0 0-0.2-0.4-0.5-0.5q-0.4 0-1 0.4c-1.1 0.8-0.8 2.5-0.8 2.5q0 0.1-0.2 0.2 0 0 0 0z"/><path class="a" d="m56.6 29q-0.3 0-0.5-0.1-0.4-0.4-0.3-1.1 0-0.1 0.1-0.1c0.1 0 0.2 0.1 0.2 0.1q-0.1 0.6 0.2 0.8c0.2 0.3 0.7 0.1 0.7 0.1 0 0 0.1 0.1 0.1 0.1 0 0.1 0 0.2-0.1 0.2 0 0-0.2 0.1-0.4 0z"/><path  d="m38.6 25.4c0 0.6-0.3 1.2-0.7 1.2-0.5 0.1-0.9-0.4-0.9-1.1-0.1-0.7 0.2-1.3 0.7-1.3 0.4 0 0.8 0.5 0.9 1.2z"/><path  d="m28.1 26.3c0 0.6-0.3 1.2-0.7 1.2-0.5 0.1-0.9-0.5-0.9-1.1-0.1-0.7 0.2-1.3 0.7-1.3 0.4 0 0.8 0.5 0.9 1.2z"/><path class="s" d="m29.5 34q7.6 1.4 12.4-2.6 0.8 5.6-4.3 5.7-5 0.2-8.1-3.1z"/><path fill-rule="evenodd" class="a" d="m37.4 37.3c-4.9 0-8-3.2-8-3.2q-0.1-0.1-0.1-0.2 0.1-0.1 0.2-0.1c0 0 1.3 0.3 3.1 0.3 2.7 0 6.4-0.5 9.2-2.9q0 0 0.1 0 0.1 0 0.1 0.1c0 0.1 0.4 2.8-1.1 4.6q-1.1 1.3-3.3 1.4-0.1 0-0.2 0zm-7.5-3.1c0.9 0.8 3.7 2.9 7.7 2.8q2 0 3.1-1.3c1.1-1.3 1.1-3.4 1-4.1-2.8 2.3-6.5 2.7-9.1 2.7-1.2 0-2.2-0.1-2.7-0.1z"/><path class="a" d="m42.1 56.4q-0.2 0-0.3 0c-2.5-0.5-15.1-2.8-15.2-2.8-0.2-0.1-0.3-0.2-0.3-0.4 0.1-0.1 0.2-0.2 0.4-0.2 0.1 0 12.7 2.3 15.2 2.8q0.4 0.1 0.9-0.1c1.6-1.1 2.4-5.5 2.4-5.6 0-0.1 0.1-0.2 0.3-0.2 0.2 0 0.3 0.2 0.2 0.3 0 0.2-0.8 4.7-2.6 5.9q-0.5 0.3-1 0.3z"/><path class="b" d="m22.8 51.8c-0.2 0-0.5-0.2-0.7-0.2q-0.3-0.1-0.6-0.3-0.5-0.1-0.9-0.4c-0.2-0.1-0.5-0.2-0.5-0.5 0-0.4 0.8-0.3 1.1-0.3 0.6 0.1 1.4 0.3 2.1 0.5-1-0.6-2.2-1.5-1.6-1.9 0.5-0.4 1.1 0 1.6 0.2q0.4 0.2 0.8 0.4 0 0 0.1 0 0.9 0.5 1.7 1.1c-0.1 0 0-0.6 0-0.7q-0.1-0.4 0-0.7c0.1-0.3 0.2-0.7 0.6-0.6 0.7 0.3 0.9 1.6 1.1 2.2 0.2 0.8 0.3 1.7 0.1 2.6-0.1 0.4-0.4 1-0.7 1.3-1.3 1.3-3.5 0-5 0-0.5 0-1.7 0.3-2-0.3-0.3-0.7 1-0.8 1.4-0.9 0.3 0 0.7 0 1.1-0.1q0.1 0 0.2-0.1c-0.7 0-3.2-0.7-3.2-1.1 0-0.7 2.2-0.4 3.3-0.2z"/><path fill-rule="evenodd" class="a" d="m27.1 54.6c-0.9 0.9-2.2 0.6-3.4 0.3-0.6-0.1-1.2-0.3-1.7-0.3q-0.1 0-0.3 0.1c-0.6 0-1.5 0.1-1.8-0.5-0.1-0.2 0-0.4 0.1-0.5 0.2-0.3 0.7-0.4 1.2-0.5q0.1 0 0.1 0 0.3 0 0.5-0.1 0.1 0 0.1 0c-0.9-0.2-2.6-0.6-2.5-1.1q0-0.2 0.1-0.3c0.3-0.3 1-0.3 2-0.2q-0.1 0-0.1 0-0.4-0.2-0.9-0.5c-0.2-0.1-0.6-0.3-0.6-0.6q0-0.1 0.1-0.2c0.3-0.3 0.7-0.3 1.1-0.2h0.1c0.3 0 0.8 0.1 1.3 0.3-0.5-0.4-1-0.9-1.1-1.3q0-0.3 0.2-0.4c0.5-0.4 1.1-0.1 1.6 0.1l0.1 0.1q0.4 0.1 0.8 0.4 0.1 0 0.1 0c0.5 0.3 1 0.6 1.5 0.9q0-0.1 0-0.3v-0.1q0-0.4 0.1-0.7c0-0.2 0.1-0.4 0.2-0.6q0.2-0.2 0.6-0.1c0.6 0.2 0.9 1.3 1 2q0.1 0.1 0.1 0.3c0.2 0.7 0.4 1.7 0.1 2.6-0.1 0.5-0.3 1-0.6 1.3q-0.1 0-0.1 0.1zm-1.1-5.6q0 0.3 0 0.7v0.1c0 0.4 0 0.5 0 0.5 0.1 0.1 0.1 0.1 0.1 0.2q-0.1 0.1-0.2 0c-0.7-0.4-1.2-0.7-1.8-1q0-0.1-0.1-0.1-0.4-0.2-0.8-0.4l-0.1-0.1c-0.4-0.1-1-0.4-1.3-0.1q-0.1 0.1-0.1 0.2c0 0.3 0.7 0.9 1.7 1.5q0 0.1 0 0.2 0 0.1-0.2 0c-0.7-0.2-1.5-0.4-2.1-0.4v-0.1c-0.3 0-0.9 0-0.9 0.2 0 0.2 0.3 0.3 0.4 0.4q0.5 0.2 0.9 0.4 0.4 0.1 0.7 0.3 0.1 0 0.2 0 0.2 0.1 0.4 0.2c0.1 0 0.1 0 0.1 0.1q0 0.1-0.2 0.1c-0.7-0.1-2.7-0.4-3 0q-0.1 0-0.1 0.1c0.1 0.3 2.2 0.9 3.1 1q0.1 0 0.1 0.1 0 0.1-0.1 0.2h-0.2q-0.3 0.1-0.6 0.1-0.3 0-0.5 0.1-0.1 0-0.2 0c-0.2 0-0.8 0.1-1 0.3-0.1 0.1-0.1 0.2 0 0.3 0.1 0.4 1 0.3 1.4 0.3q0.3 0 0.4 0c0.5 0 1.1 0.1 1.7 0.2 1.2 0.3 2.4 0.6 3.2-0.2 0.3-0.3 0.6-0.8 0.7-1.3 0.2-0.8 0-1.7-0.2-2.5q0-0.1 0-0.3c-0.2-0.6-0.4-1.6-0.9-1.7q-0.2-0.1-0.3 0-0.1 0.1-0.2 0.4z"/><path class="p" d="m49.5 41.2q0.2 0.4 0.2 0.8c0.2 2 0.2 3.9-0.1 5.8q-0.3 2.4-1 4.6c-2.6 0-5.2-0.6-7.2-2.1 0.3-1.5 1.7-6.4 3-8.4 0.5-0.7 1-1.4 1.7-1.8 1.3-0.9 2.8-0.2 3.4 1.1z"/><path fill-rule="evenodd" class="d" d="m48.6 52.5c-2 0-4.9-0.4-7.3-2q-0.1-0.1-0.1-0.2c0.4-1.5 1.7-6.5 3.1-8.4l0.1-0.2c0.5-0.6 0.9-1.3 1.6-1.8q0.6-0.4 1.3-0.4c0.9 0 1.9 0.7 2.3 1.7q0.2 0.4 0.2 0.8c0.3 2.1 0.2 4 0 5.9q-0.3 2.2-1.1 4.5 0 0.1-0.1 0.1zm-7.1-2.2c2.3 1.5 5.1 1.9 7 2q0.7-2.3 1-4.5c0.2-1.8 0.3-3.7 0.1-5.7q-0.1-0.4-0.2-0.8c-0.4-0.9-1.3-1.5-2.1-1.5q-0.6 0-1.1 0.4c-0.7 0.4-1.1 1-1.6 1.7l-0.1 0.1c-1.3 1.9-2.6 6.7-3 8.3z"/><g style="opacity:.5;mix-blend-mode:multiply"><path class="p" d="m49.5 41.2q0.2 0.4 0.2 0.8c0.2 2 0.2 3.9-0.1 5.8q-0.3 2.4-1 4.6-1.2 0-2.4-0.2c4.1-11.2-0.8-11.3-1-11.3q0.4-0.5 0.9-0.8c1.3-0.9 2.8-0.2 3.4 1.1z"/></g></svg>