<svg version="1.2" xmlns="http://www.w3.org/2000/svg" viewBox="0 0 90 60" width="90" height="60"><style>.a{fill:#1d1c1a}.b{fill:#6e3e91}.c{fill:#e1e0e0}.d{fill:#bab9b9}.e{fill:#fff}.f{fill:#4e6eb4}.g{opacity:.4;mix-blend-mode:multiply;fill:#4e6eb4}.h{fill:#f7d6b6}.i{fill:#833a1c}.j{fill:#fce049}.k{opacity:.3;mix-blend-mode:multiply;fill:#833a1c}.l{fill:#de7fb2}.m{fill:#ab4e25}.n{fill:#6b6b6a}.o{fill:#494a49}.p{fill:#888887}.q{fill:#f0a2c6}</style><path class="a" d="m64.3 49.1c-3.2 0-6.5-1.5-6.7-1.6-0.1-0.1-0.2-0.2-0.1-0.3 0-0.2 0.2-0.2 0.3-0.2 0.1 0.1 6.1 2.8 9.5 0.9 3.4-1.8 4.8-13.2 4.9-13.3 0-0.2 0.1-0.2 0.2-0.2 0.2 0 0.3 0.1 0.3 0.2-0.1 0.5-1.6 11.8-5.2 13.8-1 0.5-2.1 0.7-3.2 0.7z"/><path class="b" d="m78.6 31.8c1.2 0.4 1.8 1.4 0.5 2.4-1.3 1-5.3 1.2-6.7 1-1.1-0.3-1.5-1.3-1.3-2.3q0 0 0 0c0.5-2.4 6-1.6 7.5-1.1z"/><path fill-rule="evenodd" class="a" d="m73.9 35.4q-1 0-1.6-0.1c-1.1-0.2-1.5-1.4-1.3-2.4q0 0 0 0c0.3-1.2 1.5-1.7 3.7-1.7 1.6 0 3.3 0.3 3.9 0.5 0.8 0.3 1.3 0.7 1.4 1.3 0 0.3-0.1 0.8-0.8 1.3-1 0.7-3.5 1.1-5.3 1.1zm0.8-4c-1.4 0-3.2 0.3-3.4 1.5 0 0 0 0.1 0 0.1-0.2 0.8 0.1 1.8 1.1 2 0.3 0.1 0.9 0.1 1.5 0.1 1.8 0 4.2-0.3 5.2-1q0.7-0.6 0.6-1.1c-0.1-0.4-0.5-0.8-1.1-1-0.7-0.3-2.3-0.6-3.9-0.6z"/><path class="c" d="m79.1 34.2c-0.5 0.4-1.6 0.7-2.7 0.9-0.7-0.5-1.1-1.2-1.2-2.1-0.1-0.5-0.1-1.1 0-1.7 1.4 0.1 2.7 0.3 3.4 0.5 1.2 0.4 1.8 1.4 0.5 2.4z"/><path fill-rule="evenodd" class="a" d="m76.4 35.2q0 0 0 0c-0.8-0.5-1.2-1.3-1.4-2.2 0-0.3-0.1-1 0.1-1.7q0-0.1 0.1-0.1c1.4 0 2.8 0.3 3.4 0.5 0.8 0.3 1.3 0.7 1.4 1.3 0 0.3-0.1 0.8-0.8 1.3-0.7 0.5-1.9 0.7-2.7 0.9q-0.1 0-0.1 0zm-1.1-3.8c-0.1 0.7 0 1.3 0 1.6 0.1 0.8 0.5 1.5 1.2 1.9 1.2-0.2 2.1-0.5 2.6-0.8q0.7-0.6 0.6-1.1c-0.1-0.4-0.5-0.8-1.1-1-0.7-0.3-2-0.5-3.3-0.6z"/><path class="d" d="m71.2 32.9c0.5-2.4 5.9-1.6 7.4-1.1 0.7 0.3 1.3 0.8 1.2 1.4-1-0.9-3-1-4.1-1.1-1.5-0.1-3.3 0-4.5 0.8z"/><path fill-rule="evenodd" class="a" d="m79.8 33.3q0 0 0 0c-1-0.9-3.1-1-4.2-1.1q-0.4 0-0.8 0c-1.6 0-2.7 0.3-3.6 0.8q0 0-0.1 0-0.1-0.1-0.1-0.2c0.3-1.1 1.5-1.6 3.7-1.6 1.6 0 3.3 0.3 3.9 0.5 0.9 0.3 1.4 0.9 1.4 1.5q0 0.1-0.1 0.1 0 0-0.1 0zm-5-1.3q0.4 0 0.9 0c1 0 2.9 0.1 4 0.9-0.1-0.4-0.5-0.7-1.1-0.9-0.7-0.3-2.3-0.6-3.9-0.6-1.3 0-2.9 0.2-3.3 1.2q1.2-0.7 3.4-0.6z"/><path class="e" d="m75 33.3c0.1 0 0.1 0.1 0.1 0.2-0.2 1.2-1.3 1.6-1.3 1.6-0.1 0.1-0.2 0-0.2 0 0-0.1 0-0.2 0.1-0.2 0 0 1-0.4 1.1-1.5q0-0.1 0.2-0.1 0 0 0 0z"/><path class="e" d="m73.3 33.6c0 0 0.7 1 2.4 1.2q0 0 0.1 0 0.1 0 0.1 0.1c0 0.1-0.1 0.1-0.2 0.1-1.8-0.1-2.6-1.2-2.6-1.3-0.1 0-0.1-0.1 0-0.2q0 0 0.1 0 0 0 0.1 0.1z"/><path class="a" d="m70.8 49.7q-0.4 0-0.7 0c-4-0.9-6.8-6.9-6.9-7.2 0-0.1 0-0.3 0.1-0.3 0.2-0.1 0.3 0 0.4 0.1 0 0.1 2.7 6.1 6.5 6.9 3.8 0.8 12.4-6.8 12.5-6.9 0.1-0.1 0.2-0.1 0.3 0 0.1 0.1 0.1 0.3 0 0.4-0.3 0.3-8 7-12.2 7z"/><path class="b" d="m89.3 44.5c0.7 1 0.5 2.2-1.1 2.1-1.7-0.2-4.9-2.6-5.7-3.7-0.7-0.9-0.3-1.9 0.5-2.5q0 0 0 0c2-1.5 5.5 2.7 6.3 4.1z"/><path fill-rule="evenodd" class="a" d="m88.4 46.7q-0.1 0-0.2 0c-1.7-0.1-4.9-2.6-5.8-3.7-0.7-1-0.3-2.1 0.5-2.7q0 0 0.1 0 0.4-0.4 1-0.4c2.1 0 4.9 3.5 5.4 4.5 0.4 0.7 0.5 1.3 0.3 1.8-0.2 0.2-0.5 0.5-1.3 0.5zm-4.4-6.5q-0.5 0-0.9 0.3 0 0 0 0c-0.8 0.5-1.2 1.5-0.5 2.3 0.8 1.2 4 3.5 5.6 3.7q0.1 0 0.2 0 0.8 0 1-0.5c0.2-0.3 0.2-0.9-0.2-1.5-0.7-1.2-3.3-4.3-5.2-4.3z"/><path class="c" d="m88.2 46.6c-0.7-0.1-1.7-0.5-2.6-1.1-0.2-0.8-0.1-1.7 0.4-2.4 0.2-0.4 0.7-0.9 1.1-1.3 1 1 1.9 2.1 2.2 2.7 0.7 1 0.5 2.2-1.1 2.1z"/><path fill-rule="evenodd" class="a" d="m88.4 46.7q-0.1 0-0.2 0c-0.8-0.1-1.9-0.6-2.7-1.1q0 0 0-0.1c-0.3-0.8-0.1-1.7 0.4-2.5 0.1-0.2 0.6-0.8 1.2-1.3q0.1 0 0.1 0c1 1 1.9 2.1 2.2 2.7 0.4 0.7 0.5 1.3 0.3 1.8-0.2 0.2-0.5 0.5-1.3 0.5zm-2.7-1.3c1 0.6 1.9 1 2.5 1.1q1 0 1.2-0.5c0.2-0.3 0.2-0.9-0.2-1.5-0.3-0.6-1.2-1.6-2.1-2.5-0.5 0.4-0.9 0.9-1 1.2-0.5 0.6-0.6 1.4-0.4 2.2z"/><path class="d" d="m83 40.4c2-1.5 5.5 2.7 6.3 4.1 0.4 0.6 0.5 1.4 0.1 1.8-0.2-1.4-1.6-2.8-2.5-3.6-1-0.9-2.4-2.1-3.9-2.3z"/><path fill-rule="evenodd" class="a" d="m89.4 46.4q0 0 0 0-0.1 0-0.1-0.1c-0.2-1.3-1.7-2.7-2.4-3.5-1-0.9-2.4-2.1-3.9-2.3q-0.1 0-0.1-0.1 0-0.1 0.1-0.1 0.4-0.4 1-0.4c2.1 0 4.9 3.5 5.4 4.5 0.5 0.8 0.5 1.6 0.1 2q-0.1 0-0.1 0zm-6-6.1c1.4 0.4 2.7 1.5 3.6 2.3 0.8 0.8 2.1 2.1 2.5 3.4 0.1-0.4 0-0.9-0.3-1.5-0.7-1.2-3.3-4.3-5.2-4.3q-0.3 0-0.6 0.1z"/><path class="e" d="m85.6 43.2c0.1 0.1 0.1 0.2 0 0.2-0.9 0.8-2 0.4-2.1 0.4 0 0-0.1-0.1-0.1-0.2 0.1-0.1 0.1-0.1 0.2-0.1 0 0 1 0.4 1.8-0.3q0.1-0.1 0.2 0 0 0 0 0z"/><path class="e" d="m84.2 42.3c0 0-0.1 1.2 1 2.4q0 0.1 0.1 0.1 0.1 0.1 0 0.2c-0.1 0.1-0.2 0.1-0.2 0-1.3-1.3-1.2-2.7-1.2-2.8 0 0 0.1-0.1 0.2-0.1q0 0 0.1 0.1 0 0 0 0.1z"/><path class="a" d="m30.5 48.5c-3.7 0-8.9-0.4-9.2-0.4-0.1 0-0.2-0.1-0.2-0.3 0-0.1 0.1-0.2 0.2-0.2 0.1 0 10.2 0.8 12.2 0.2 1.5-0.4 1.7-3.5 1.6-4.6 0-0.2 0.1-0.3 0.2-0.3 0.2 0 0.3 0.1 0.3 0.2 0 0.2 0.2 4.5-2 5.2-0.6 0.2-1.7 0.2-3.1 0.2z"/><path class="f" d="m38.5 36.2q0.2 0.4 0.2 0.7c0.2 1.8 0.2 3.4-0.1 5.1q-0.2 2-0.9 4c-2.2-0.2-4.5-0.7-6.3-2 0.3-1.3 1.5-5.6 2.7-7.3 0.4-0.6 0.8-1.2 1.5-1.6 1.1-0.7 2.4 0 2.9 1.1z"/><path fill-rule="evenodd" class="a" d="m37.7 46.1c-1.7-0.1-4.3-0.5-6.4-2q0-0.1 0-0.2c0.3-1.2 1.5-5.5 2.7-7.2l0.1-0.2c0.4-0.5 0.8-1.1 1.4-1.5q0.5-0.3 1.1-0.3c0.8 0 1.6 0.6 2 1.5q0.2 0.4 0.2 0.7c0.2 1.8 0.2 3.5 0 5.1q-0.3 2-0.9 4-0.1 0.1-0.2 0.1zm-6.2-2.2c2 1.4 4.4 1.8 6.1 1.9q0.7-1.9 0.9-3.8c0.2-1.6 0.3-3.3 0.1-5q0-0.4-0.2-0.7c-0.3-0.8-1.1-1.4-1.8-1.4q-0.5 0-1 0.3c-0.5 0.4-0.9 0.9-1.3 1.5l-0.1 0.1c-1.1 1.6-2.3 5.8-2.7 7.1z"/><path class="g" d="m38.6 42q-0.2 2-0.9 4c-1.2-0.1-2.4-0.3-3.6-0.7 0.2-1.5 0.7-3.1 1.1-4.5 0.5-2 1.3-3.9 2.4-5.7 0.4 0.3 0.7 0.7 0.9 1.1q0.2 0.4 0.2 0.7c0.2 1.8 0.2 3.4-0.1 5.1z"/><path class="f" d="m68.7 51.3q-7.5 3.6-19.5 0.7-12.1-2.9-12.5-14.9 5.3-4.9 11.7-3c1.3 0.9 2.5 1.9 3.7 2.9 1.8 1.5 3.7 2.6 6 3.2 1.8 0.4 3.8 0.5 5.6 0.3 2.1-0.3 3.5-0.6 5 1.1 1 1.2 1.5 2.9 1.6 4.4 0.1 1.4-0.1 3-0.7 4.3q-0.5 0.6-0.9 1z"/><path fill-rule="evenodd" class="a" d="m58.3 53.2c-3 0-6.1-0.3-9.2-1.1-12-2.9-12.5-14.9-12.5-15q0-0.1 0-0.1c0.1-0.1 3.8-3.5 8.7-3.5q1.6 0 3.1 0.5 0.1 0 0.1 0c1 0.7 2 1.5 2.9 2.3q0.4 0.3 0.8 0.6c1.9 1.6 3.8 2.6 6 3.2 1.6 0.4 3.5 0.5 5.5 0.2h0.4q0.9-0.1 1.7-0.1c1.2 0 2.1 0.4 3 1.4 0.9 1 1.5 2.7 1.6 4.4 0.1 1.5-0.1 3-0.7 4.4q0 0 0 0c-0.5 0.6-0.9 0.9-0.9 1-0.1 0-4 1.8-10.5 1.8zm-21.5-16.1c0.1 0.9 1 12.1 12.4 14.8 3.1 0.7 6.1 1.1 9.1 1.1 6.4 0 10.2-1.8 10.3-1.8 0 0 0.4-0.4 0.9-0.9 0.5-1.4 0.8-2.9 0.7-4.3-0.1-1.6-0.7-3.3-1.6-4.3-0.8-0.9-1.6-1.3-2.8-1.3q-0.8 0-1.7 0.1l-0.3 0.1c-2.1 0.2-4 0.1-5.7-0.3-2.2-0.6-4.1-1.6-6.1-3.2q-0.4-0.3-0.7-0.6c-1-0.8-1.9-1.6-3-2.3q-1.4-0.4-3-0.4c-4.5 0-8 2.9-8.5 3.3z"/><path class="g" d="m69.6 50.3q-0.5 0.6-0.9 1-7.5 3.6-19.5 0.7c-1.7-0.4-3.1-1-4.3-1.7 5.4 2 11.6 1.4 16.5-2.2 0.2-0.2-4.8-2.6-5.6-2.6-0.5-0.1-1.1 0.2-1.6 0.4-2.4 0.7-5.3 1-7.6-0.1q0 0 0-0.1c-0.3-0.8-0.2-1.8-0.2-2.6 0-2 0.2-4.1-0.2-6 0-0.2-0.2-0.3-0.4-0.2-0.7 0.2-2 0.2-2.4 1-0.8 1.6-1.3 4.2-3.7 2.8-1.4-0.7-2-2.5-2.3-4.2 1.7-1.3 6-3.9 11-2.4 1.3 0.9 2.5 1.9 3.7 2.9 1.8 1.5 3.7 2.6 6 3.2 1.8 0.4 3.8 0.5 5.6 0.3 2.1-0.3 3.5-0.6 5 1.1 1 1.2 1.5 2.9 1.6 4.4 0.1 1.4-0.1 3-0.7 4.3z"/><path class="h" d="m43 36.8c0 0.7 0 1.4-0.3 2.1-0.5 1.2-1.8 1.4-2.7 0.8q-0.3-0.2-0.5-0.5c-0.7-0.9-1.2-2.7-1.8-3.7 1.7-0.9 3.1-0.8 4.7-1.6 0.1 0.6 0.6 2.5 0.6 2.9z"/><path fill-rule="evenodd" class="a" d="m41.1 40.1c-0.4 0-0.8-0.1-1.1-0.3q-0.3-0.2-0.6-0.5c-0.4-0.6-0.8-1.5-1.1-2.3-0.3-0.5-0.5-1-0.7-1.4q0-0.1 0.1-0.2c0.9-0.5 1.7-0.7 2.6-0.9 0.6-0.2 1.3-0.4 2.1-0.7q0-0.1 0.1 0 0 0 0 0c0.1 0.2 0.1 0.6 0.2 1 0.2 0.8 0.4 1.7 0.4 2v0.1c0 0.7 0 1.4-0.3 2-0.3 0.8-0.9 1.2-1.7 1.2zm-3.2-4.5q0.3 0.6 0.6 1.3c0.3 0.8 0.7 1.7 1.1 2.2q0.2 0.3 0.5 0.4c0.3 0.3 0.7 0.4 1 0.4 0.7 0 1.2-0.4 1.5-1.1 0.2-0.6 0.2-1.2 0.2-1.9v-0.1c0-0.3-0.2-1.2-0.3-2q-0.1-0.4-0.2-0.8c-0.7 0.4-1.3 0.5-2 0.7-0.8 0.2-1.6 0.4-2.4 0.9z"/><path class="i" d="m45 6q3-3.7 8.8-3.8c5.7-0.1 14.8 7.6 16.1 29.3q-2.5 1.1-5.8 1.5-0.5-5-1.6-6.5 0.3 2.8-0.6 7.2l-2.6 1q-0.2-2.8-0.6-4.3-0.2 3-0.4 4.2-3.4 0.9-4.7 0.3c1-3.8 3.8-22.8-8.6-28.9z"/><path fill-rule="evenodd" class="a" d="m54.9 35.2q-0.9 0-1.3-0.2-0.1 0-0.1-0.1c1.5-6.1 2.8-23.2-8.6-28.8q-0.1 0-0.1-0.1 0 0 0.1-0.1c0 0 3.1-3.7 8.9-3.8 3.4 0 7.1 2.5 9.9 6.6 3.6 5.3 5.8 13.2 6.3 22.8q0 0.1-0.1 0.1c-2.5 1.1-5.7 1.5-5.7 1.6q-0.1 0-0.1-0.1-0.1 0-0.1-0.1c0 0-0.5-4.2-1.4-6 0.2 2.8-0.6 6.6-0.6 6.7q0 0.1-0.1 0.1l-2.6 1q0 0-0.1 0 0-0.1 0-0.1c0 0-0.2-2-0.4-3.5-0.3 2.4-0.4 3.4-0.4 3.4q0 0.1-0.1 0.1c-0.1 0-2 0.5-3.4 0.5zm-1.1-0.4q0.4 0.2 1.1 0.2c1.2 0 2.9-0.4 3.3-0.5 0-0.3 0.2-1.6 0.4-4.1q0-0.1 0.1-0.1 0.1 0 0.1 0.1c0.4 1.3 0.6 3.5 0.6 4.1l2.4-0.9c0.1-0.6 0.9-4.5 0.6-7.1q-0.1-0.1 0-0.2 0.1 0 0.2 0.1c1 1.4 1.5 5.7 1.6 6.5 0.7-0.1 3.4-0.6 5.6-1.5-0.6-9.5-2.8-17.3-6.3-22.6-2.8-4-6.4-6.5-9.7-6.5-5.1 0.1-8.1 3-8.6 3.7 5.2 2.6 8.3 7.7 9.2 15.3 0.7 5.6 0 11.1-0.6 13.5z"/><g style="mix-blend-mode:multiply"><path class="j" d="m64.4 33q-0.2 0-0.3 0-0.2-2.5-0.8-4.5c0.5 1.5 0.9 3 1.1 4.5z"/><path fill-rule="evenodd" class="a" d="m64.1 33.2q0 0 0-0.1-0.1 0-0.1-0.1c0 0-0.3-2.5-0.8-4.4q0-0.1 0.1-0.2 0.1 0 0.1 0.1c0.6 1.6 1 3.1 1.1 4.5q0 0.1-0.1 0.1-0.1 0-0.2 0.1-0.1 0-0.1 0zm0-1.4c0.1 0.5 0.1 0.9 0.1 1.1q0.1 0 0.1 0-0.1-0.6-0.2-1.1z"/><path class="k" d="m62.5 27.7q0.1 2.7-0.6 6l-2.6 1q-0.2-2.8-0.6-4.3-0.2 3-0.4 4.2-3.4 0.9-4.7 0.3c1-3.8 3.8-22.8-8.6-28.9q3-3.7 8.8-3.8 0.2 0 0.5 0c-1.2 0.4-2.4 0.8-3.4 1.7-0.2 0.1-0.2 0.3 0 0.4 3.7 2.9 5.6 7.2 6.6 11.7 1 4 1.5 14.3 1.8 15.2 0.3 0.8 1.1 1.1 1.7 0.4 0.9-0.9 1.2-2.7 1.5-3.9q0 0 0 0z"/></g><path class="l" d="m45.2 3.2q1.6-3.2 2.3-3.1 0.7 0 0.8 3.4 3.8-1.1 4.5-0.9 0.8 0.1-1.8 4.1-1.6-2.3-5.8-3.5z"/><path fill-rule="evenodd" class="a" d="m51 6.8q-0.1 0-0.1-0.1c-0.1 0-1.6-2.2-5.7-3.4q-0.1 0-0.1-0.1 0 0 0-0.1c0.2-0.5 1.6-3.2 2.3-3.2 0.8 0.1 1 2.5 1.1 3.4 0.6-0.1 3.2-0.9 4.1-0.9q0.2 0 0.3 0.1 0.1 0 0.2 0.1c0.2 0.7-1.7 3.6-2 4.1q-0.1 0.1-0.1 0.1zm-5.6-3.7c3.5 1 5.1 2.8 5.6 3.3 0.8-1.2 2-3.3 1.8-3.7q0 0 0 0-0.1 0-0.2 0c-1 0-4.2 0.9-4.2 0.9q-0.1 0-0.1 0-0.1 0-0.1-0.1c-0.1-1.6-0.4-3.3-0.7-3.3-0.5 0-1.5 1.6-2.1 2.9z"/><path class="h" d="m48.7 30q-0.8 1.8-1.7 2.7c-0.3 0.3-4.8 6.2-15.7 4.9q-15.3-1.8-13-16.6 8.5-0.9 11.6-6.2c1.6 3.2 23.2 8.4 24 10.6 0.7 2.2-1.3 6.7-5.2 4.6z"/><path fill-rule="evenodd" class="a" d="m34.3 37.9q-1.5 0-3-0.2c-4.6-0.5-8.1-2.3-10.4-5.3-3.7-4.9-2.7-11.3-2.7-11.4q0-0.1 0.1-0.1c0.1 0 8.5-1 11.4-6.1q0.1-0.1 0.2-0.1 0 0 0.1 0.1c0.8 1.7 7.6 4 13.5 6 5.4 1.9 10.1 3.5 10.5 4.5 0.4 1.1 0.1 2.8-0.8 3.9-0.6 1-1.6 1.5-2.6 1.5q-0.9 0-1.8-0.5c-0.9 1.7-1.6 2.6-1.7 2.6q0 0-0.1 0.1c-1.3 1.5-5.2 5-12.7 5zm-15.9-16.8c-0.1 0.8-0.7 6.7 2.7 11.2 2.2 2.9 5.7 4.7 10.2 5.2q1.5 0.2 3 0.2c7.4 0 11.2-3.5 12.6-5q0-0.1 0.1-0.1c0 0 0.8-0.9 1.6-2.6q0-0.1 0.1-0.1 0 0 0.1 0 0.9 0.5 1.8 0.5c1.2 0 2-0.7 2.4-1.3 0.8-1.1 1.1-2.7 0.7-3.7-0.3-0.9-5.3-2.7-10.2-4.4-6.1-2-12.4-4.2-13.6-5.9-3 4.8-10.5 5.9-11.5 6z"/><path class="h" d="m48.7 30q-0.8 1.8-1.7 2.7c-0.3 0.3-4.8 6.2-15.7 4.9q-15.3-1.8-13-16.6 8.5-0.9 11.6-6.2c1.6 3.2 23.2 8.4 24 10.6 0.7 2.2-1.3 6.7-5.2 4.6z"/><path fill-rule="evenodd" class="a" d="m34.3 37.9q-1.5 0-3-0.2c-4.6-0.5-8.1-2.3-10.4-5.3-3.7-4.9-2.7-11.3-2.7-11.4q0-0.1 0.1-0.1c0.1 0 8.5-1 11.4-6.1q0.1-0.1 0.2-0.1 0 0 0.1 0.1c0.8 1.7 7.6 4 13.5 6 5.4 1.9 10.1 3.5 10.5 4.5 0.4 1.1 0.1 2.8-0.8 3.9-0.6 1-1.6 1.5-2.6 1.5q-0.9 0-1.8-0.5c-0.9 1.7-1.6 2.6-1.7 2.6q0 0-0.1 0.1c-1.3 1.5-5.2 5-12.7 5zm-15.9-16.8c-0.1 0.8-0.7 6.7 2.7 11.2 2.2 2.9 5.7 4.7 10.2 5.2q1.5 0.2 3 0.2c7.4 0 11.2-3.5 12.6-5q0-0.1 0.1-0.1c0 0 0.8-0.9 1.6-2.6q0-0.1 0.1-0.1 0 0 0.1 0 0.9 0.5 1.8 0.5c1.2 0 2-0.7 2.4-1.3 0.8-1.1 1.1-2.7 0.7-3.7-0.3-0.9-5.3-2.7-10.2-4.4-6.1-2-12.4-4.2-13.6-5.9-3 4.8-10.5 5.9-11.5 6z"/><g style="mix-blend-mode:multiply"><path class="h" d="m48.7 30q-0.8 1.8-1.7 2.7c-0.3 0.3-4.4 5.7-14.3 5.1q1.5-0.2 2.8-0.4c4.4-0.7 8.4-3.5 6.4-8.3-1.9-4.7-8.1-8.1-12.8-8.9-2.8-0.5-5.7 0-8.3 1.1q-1.5 0.5-2.6 1.5 0-1.1 0.1-1.8 8.5-0.9 11.6-6.2c1.6 3.2 23.2 8.4 24 10.6 0.7 2.2-1.3 6.7-5.2 4.6z"/></g><path class="m" d="m51.5 32q-3.5 2.1-4.5 0.7 0.9-0.9 1.7-2.7c3.1 1.2 4.7-0.9 4.5-3.2-0.1-2.6-4.6-3.5-5.4 0.6-11.1-4.3-17.5-9.5-17.9-12.6q-3.1 5.3-11.6 6.2h-0.6q-2-1.8-1-6.3c2.1-9.9 11.3-14.5 20-14 8.7 0.6 14.6 3.6 18.2 10.4 4.6 9.4 0 18.8-3.4 20.9z"/><path fill-rule="evenodd" class="a" d="m48.3 33.3c-1 0-1.3-0.5-1.4-0.5q0-0.1 0-0.2c0.1 0 0.9-0.9 1.7-2.6q0.1-0.1 0.2-0.1c1.4 0.6 2.7 0.4 3.5-0.4 0.6-0.7 0.9-1.6 0.8-2.7-0.1-1.3-1.3-2.1-2.4-2.1-1.4 0-2.4 1-2.7 2.7q-0.1 0.1-0.1 0.1-0.1 0-0.1 0c-10.9-4.1-17.2-9.2-18-12.3-3.1 5-11.4 5.9-11.5 5.9l-0.6 0.1q-0.1 0-0.1-0.1c-0.1-0.1-2-1.9-1-6.4 2-9.8 10.8-14.1 18.7-14.1q0.7 0 1.4 0c9.2 0.6 14.8 3.9 18.3 10.5 4.6 9.4 0.1 18.8-3.5 21q-1.9 1.2-3.2 1.2zm-1.1-0.6c0.1 0.1 0.5 0.3 1.1 0.3q1.2 0 3.1-1.1c1.6-0.9 3.6-3.7 4.7-7.6 0.8-3.1 1.3-7.9-1.3-13.1-3.5-6.5-9.1-9.7-18.1-10.3q-0.7-0.1-1.4-0.1c-7.8 0-16.5 4.3-18.4 14-0.9 4 0.6 5.8 0.8 6.1h0.6c0.1 0 8.5-1 11.4-6.1q0.1-0.1 0.2-0.1 0.1 0 0.1 0.1c0.4 3 6.7 8.2 17.7 12.4 0.5-2 1.8-2.8 3-2.8 1.2 0 2.6 0.9 2.7 2.4 0 1.1-0.3 2.2-0.9 2.8-0.9 0.9-2.2 1.1-3.7 0.6-0.7 1.4-1.4 2.3-1.6 2.5z"/><path class="a" d="m49.6 29.4q-0.1 0-0.1-0.1c0-0.1-0.2-1.8 1.1-2.6q0.6-0.4 1.1-0.2c0.4 0.1 0.6 0.5 0.6 0.5q0 0.1-0.1 0.2-0.1 0-0.1-0.1c0 0-0.2-0.3-0.5-0.4q-0.3-0.1-0.9 0.2c-1.1 0.8-1 2.3-1 2.4q0 0.1-0.1 0.1 0 0 0 0z"/><path class="a" d="m50.6 28.7q-0.3 0-0.5-0.2-0.3-0.3-0.2-1 0-0.1 0.1-0.1 0.1 0 0.1 0.1-0.1 0.6 0.2 0.8c0.2 0.2 0.6 0.1 0.6 0.1q0.1 0 0.2 0.1c0 0.1-0.1 0.2-0.1 0.2-0.1 0-0.2 0-0.4 0z"/><ellipse  cx="23.6" cy="28.2" rx=".9" ry="1.2"/><ellipse  cx="34.6" cy="27.5" rx=".9" ry="1.2"/><path class="a" d="m39.9 51.6c-1.1 0-2.1 0-2.9-0.1-0.1 0-0.2-0.1-0.2-0.3 0-0.1 0.1-0.2 0.3-0.2 1.4 0.1 3.6 0.2 5.6-0.1 5.3-0.7 7.7-4.7 7.4-12.2 0-0.7-0.3-1-0.6-1.3-0.4-0.3-0.8-0.6-1-1.5 0-0.2 0.1-0.3 0.2-0.3 0.2 0 0.3 0.1 0.3 0.2 0.1 0.7 0.4 1 0.8 1.3 0.3 0.3 0.8 0.6 0.8 1.6 0.3 7.8-2.2 11.9-7.8 12.7-1 0.2-1.9 0.2-2.9 0.2z"/><path class="f" d="m50 33.9c1.1 0.6 1.7 2 2.2 3.1 0.6 1.4 1 2.9 1.4 4.4 0 0.3 0.6 2.8 0.4 2.9-2.2 0.9-4.7 1.4-7 1-0.3-1.5-1-6.3-0.6-8.5 0.2-0.8 0.3-1.6 0.8-2.3 0.6-0.9 1.8-1.1 2.8-0.6z"/><path fill-rule="evenodd" class="a" d="m48.8 45.6q-1 0-1.9-0.2-0.1 0-0.1-0.1c-0.2-1.4-0.9-6.3-0.5-8.5v-0.2c0.2-0.7 0.3-1.5 0.8-2.1 0.4-0.7 1-1 1.8-1q0.6 0 1.1 0.2c1.3 0.7 1.9 2.2 2.3 3.3 0.6 1.2 1 2.6 1.4 4.4v0.1c0.6 2.8 0.5 2.9 0.4 2.9-1.8 0.8-3.6 1.2-5.3 1.2zm-1.7-0.4q0.8 0.1 1.7 0.1c1.6 0 3.4-0.4 5.1-1.1 0.1-0.1 0-0.6-0.4-2.7h-0.1c-0.4-1.8-0.8-3.2-1.3-4.4-0.4-1.1-1-2.5-2.2-3.1q-0.5-0.3-1-0.3c-0.7 0-1.3 0.3-1.6 0.9-0.4 0.6-0.6 1.3-0.7 2.1v0.1c-0.5 2.2 0.2 6.8 0.5 8.4z"/><path class="g" d="m54 44.3q-1.2 0.5-2.5 0.8c-0.4-3.6-1.4-10.1-3.5-11.3 0.6-0.3 1.3-0.3 2 0.1 1.1 0.6 1.7 2 2.2 3.1 0.6 1.4 1 2.9 1.4 4.4 0 0.3 0.6 2.8 0.4 2.9z"/><path class="n" d="m30.6 57.3v1.9l-22.6-4.9v-1.6l0.6-0.6z"/><path fill-rule="evenodd" class="a" d="m30.6 59.3q0 0 0 0l-22.6-4.9q-0.1 0-0.1-0.1v-1.6q0-0.1 0-0.1l0.6-0.6q0.1 0 0.1 0l22.1 5.2q0.1 0 0.1 0.1v1.9q0 0.1-0.1 0.1 0 0-0.1 0zm-22.5-5.1l22.4 4.9v-1.7l-21.9-5.1-0.5 0.4z"/><path class="o" d="m44.7 54.2l2-0.1v1.5l-16.1 3.6-0.2-1.5z"/><path fill-rule="evenodd" class="a" d="m30.6 59.3q0 0 0 0-0.1 0-0.1-0.1l-0.2-1.5q0-0.1 0.1-0.1l14.3-3.5 2-0.1q0.1 0 0.1 0 0 0.1 0 0.1v1.5q0 0.1-0.1 0.2l-16 3.5q0 0-0.1 0zm0-1.5l0.1 1.3 15.9-3.6v-1.2l-1.9 0.1z"/><path class="n" d="m46.7 54.1l-16.3 3.6-22.4-5 18.1-2.5z"/><path fill-rule="evenodd" class="a" d="m30.4 57.8q0 0 0 0l-22.4-5q-0.1 0-0.1-0.1 0-0.1 0.1-0.1l18.1-2.5q0 0 0 0l20.6 3.9q0.1 0 0.1 0.1 0 0.1-0.1 0.2l-16.2 3.5q-0.1 0-0.1 0zm-21.7-5.1l21.7 4.9 15.7-3.5-20-3.8z"/><path class="p" d="m30.9 54.1l3.2 0.7-3.9 0.9-3.2-0.8z"/><path fill-rule="evenodd" class="a" d="m30.2 55.8q0 0 0 0l-3.2-0.8q-0.1 0-0.1-0.1 0-0.1 0.1-0.1l3.9-0.9q0 0 0.1 0l3.2 0.8q0 0 0 0.1 0 0.1 0 0.1l-3.9 0.9q-0.1 0-0.1 0zm-2.6-0.9l2.6 0.6 3.4-0.7-2.7-0.6z"/><path class="p" d="m37.5 54.1l2.7-0.6 3.4 0.6-3 0.7z"/><path fill-rule="evenodd" class="a" d="m40.6 54.9q-0.1 0-0.1 0l-3.1-0.7q-0.1 0-0.1-0.1 0-0.1 0.1-0.2l2.7-0.6q0.1 0 0.1 0l3.4 0.7q0.1 0 0.1 0.1 0 0.1-0.1 0.1l-3 0.7q0 0 0 0zm-2.6-0.8l2.6 0.6 2.4-0.6-2.8-0.5z"/><path class="p" d="m37.5 54.1l-3.4 0.7-3.2-0.7 3.4-0.8z"/><path fill-rule="evenodd" class="a" d="m34.1 54.9q0 0 0 0l-3.2-0.7q-0.1-0.1-0.1-0.1 0-0.1 0.1-0.2l3.3-0.7q0.1 0 0.1 0l3.2 0.7q0.1 0.1 0.1 0.2 0 0.1-0.1 0.1l-3.3 0.7q-0.1 0-0.1 0zm-2.6-0.8l2.6 0.6 2.8-0.6-2.6-0.7z"/><path class="p" d="m37.5 54.1l3.1 0.7-3.4 0.7-3.1-0.7z"/><path fill-rule="evenodd" class="a" d="m37.2 55.6q0 0 0 0l-3.1-0.7q-0.1 0-0.1-0.1 0-0.1 0.1-0.1l3.3-0.8q0.1 0 0.1 0l3.1 0.8q0.1 0 0.1 0.1 0 0.1-0.1 0.1l-3.4 0.7q0 0 0 0zm-2.5-0.8l2.5 0.6 2.8-0.6-2.5-0.6z"/><path class="p" d="m27 54.9l-2.9 0.7-3.8-0.9 3-0.7z"/><path fill-rule="evenodd" class="a" d="m24.1 55.7q0 0 0 0l-3.8-0.9q-0.1 0-0.1-0.1 0-0.1 0.1-0.1l2.9-0.7q0.1 0 0.1 0l3.8 0.9q0.1 0 0.1 0.1 0 0.1-0.1 0.1l-3 0.7q0 0 0 0zm-3.2-1l3.2 0.8 2.4-0.6-3.2-0.7z"/><path class="p" d="m27 54.9l3.2 0.8-2.9 0.6-3.2-0.7z"/><path fill-rule="evenodd" class="a" d="m27.3 56.5q0 0 0 0l-3.2-0.8q-0.1 0-0.1-0.1 0-0.1 0.1-0.1l2.9-0.7q0 0 0.1 0l3.2 0.8q0 0 0.1 0.1-0.1 0.1-0.1 0.1l-3 0.7q0 0 0 0zm-2.7-0.9l2.7 0.6 2.4-0.5-2.7-0.6z"/><path class="p" d="m23.3 54l-3 0.7-3.9-0.9 3-0.7z"/><path fill-rule="evenodd" class="a" d="m20.3 54.8q0 0 0 0l-3.9-0.9q-0.1 0-0.1-0.1 0-0.1 0.1-0.1l2.9-0.7q0.1 0 0.1 0l3.9 0.9q0.1 0 0.1 0.1 0 0.1-0.1 0.2l-3 0.6q0 0 0 0zm-3.3-1l3.3 0.8 2.4-0.6-3.3-0.7z"/><path class="p" d="m27.2 53.2l3.3-0.8 3.8 0.9-3.4 0.8z"/><path fill-rule="evenodd" class="a" d="m30.9 54.2q0 0 0 0l-3.8-0.9q-0.1 0-0.1-0.1 0-0.1 0.1-0.1l3.4-0.8q0 0 0 0l3.8 0.9q0.1 0 0.1 0.1 0 0.1-0.1 0.1l-3.3 0.8q0 0-0.1 0zm-3.2-1l3.2 0.7 2.8-0.6-3.2-0.7z"/><path class="p" d="m27.2 53.2l3.7 0.9-3.9 0.8-3.7-0.9z"/><path fill-rule="evenodd" class="a" d="m27 55q0 0.1 0 0l-3.8-0.8q-0.1-0.1-0.1-0.2 0-0.1 0.1-0.1l3.9-0.8q0.1-0.1 0.1 0l3.8 0.8q0.1 0.1 0.1 0.2 0 0.1-0.1 0.1l-3.9 0.8q0 0.1-0.1 0zm-3.2-1l3.2 0.8 3.4-0.7-3.2-0.8z"/><path class="p" d="m27.2 53.2l-3.9-0.9 3.3-0.8 3.9 0.9z"/><path fill-rule="evenodd" class="a" d="m27.2 53.3q-0.1 0-0.1 0l-3.9-0.9q0 0-0.1-0.1 0.1-0.1 0.1-0.2l3.4-0.7q0 0 0 0l3.9 0.9q0.1 0 0.1 0.1 0 0.1-0.1 0.1l-3.3 0.8q0 0 0 0zm-3.4-1l3.4 0.7 2.7-0.6-3.3-0.8z"/><path class="p" d="m23.3 54l-3.9-0.9 3.9-0.8 3.9 0.9z"/><path fill-rule="evenodd" class="a" d="m23.3 54.2q0 0-0.1 0l-3.9-0.9q0-0.1-0.1-0.2 0.1-0.1 0.1-0.1l3.9-0.9q0.1 0 0.1 0l3.9 1q0.1 0 0.1 0.1 0 0.1-0.1 0.1l-3.9 0.9q0 0 0 0zm-3.4-1.1l3.4 0.8 3.3-0.7-3.3-0.8z"/><path class="p" d="m37.2 55.5l-3.9 0.9-3.1-0.7 3.9-0.9z"/><path fill-rule="evenodd" class="a" d="m33.3 56.5q-0.1 0-0.1 0l-3-0.7q-0.1 0-0.1-0.1 0-0.1 0.1-0.1l3.9-0.9q0 0 0.1 0l3 0.7q0.1 0 0.1 0.1 0 0.1-0.1 0.1l-3.9 0.9q0 0 0 0zm-2.5-0.8l2.5 0.6 3.3-0.8-2.5-0.6z"/><path class="p" d="m20.3 54.7l-1.6 0.4-4-0.9 1.7-0.4z"/><path fill-rule="evenodd" class="a" d="m18.7 55.2q-0.1 0-0.1 0l-4-0.9q0 0-0.1-0.1 0.1-0.1 0.1-0.1l1.8-0.4q0 0 0 0l3.9 0.9q0.1 0 0.1 0.1 0 0.1-0.1 0.1l-1.6 0.4q0 0 0 0zm-3.5-1l3.5 0.7 1.1-0.2-3.4-0.8z"/><path class="p" d="m24.1 55.6l-1.6 0.3-3.8-0.8 1.6-0.4z"/><path fill-rule="evenodd" class="a" d="m22.5 56.1q0 0 0 0l-3.9-0.9q-0.1 0-0.1-0.1 0-0.1 0.1-0.1l1.7-0.4q0 0 0 0l3.8 0.9q0.1 0 0.1 0.1 0 0.1-0.1 0.1l-1.6 0.4q0 0 0 0zm-3.3-1l3.3 0.7 1-0.2-3.2-0.8z"/><path class="p" d="m27.3 56.3l-1.5 0.4-3.3-0.8 1.6-0.3z"/><path fill-rule="evenodd" class="a" d="m25.8 56.8q0 0-0.1 0l-3.2-0.7q-0.1-0.1-0.1-0.2 0-0.1 0.1-0.1l1.6-0.3q0 0 0 0l3.2 0.7q0.1 0 0.1 0.1 0 0.1-0.1 0.2l-1.5 0.3q0 0 0 0zm-2.7-0.9l2.7 0.6 0.9-0.2-2.6-0.6z"/><path class="p" d="m34.3 53.3l2.4-0.5 3.5 0.7-2.7 0.6z"/><path fill-rule="evenodd" class="a" d="m37.5 54.2q-0.1 0-0.1 0l-3.2-0.8q0 0-0.1-0.1 0.1-0.1 0.1-0.1l2.4-0.5q0.1 0 0.1 0l3.5 0.6q0.1 0.1 0.1 0.2 0 0-0.1 0.1l-2.7 0.6q0 0 0 0zm-2.7-0.9l2.7 0.6 2.1-0.4-2.9-0.6z"/><path class="p" d="m27.3 56.3l3 0.7-1.5 0.3-3-0.6z"/><path fill-rule="evenodd" class="a" d="m28.8 57.5q0 0 0 0l-3.1-0.7q0 0 0-0.1 0-0.1 0-0.2l1.5-0.3q0.1 0 0.1 0l3 0.7q0.1 0 0.1 0.1 0 0.1-0.1 0.2l-1.4 0.3q-0.1 0-0.1 0zm-2.5-0.8l2.5 0.5 0.9-0.2-2.4-0.5z"/><path class="p" d="m30.2 55.7l3.1 0.7-3 0.6-3-0.7z"/><path fill-rule="evenodd" class="a" d="m30.3 57.2q0 0-0.1 0l-3-0.7q0-0.1 0-0.2 0-0.1 0-0.1l3-0.6q0-0.1 0.1 0l3 0.7q0.1 0 0.1 0.1 0 0.1-0.1 0.1l-3 0.7q0 0 0 0zm-2.5-0.9l2.5 0.6 2.4-0.5-2.5-0.6z"/><path class="p" d="m16.4 53.8l-1.7 0.4-6.3-1.4 14.9-2.1 3.3 0.8-3.3 0.8-3.9-0.9 3.9 0.9-3.9 0.8-4.1-0.9 4.1 0.9-3 0.7-4.7-1.1z"/><path fill-rule="evenodd" class="a" d="m14.7 54.3q0 0-0.1 0l-6.2-1.4q-0.1 0-0.1-0.1 0-0.1 0.1-0.1l14.9-2.1q0 0 0 0l3.3 0.8q0.1 0 0.1 0.1 0 0.1-0.1 0.1l-3.3 0.8-3.9 0.9-3 0.6-1.7 0.4q0 0 0 0zm-5.6-1.5l5.6 1.3 1.2-0.3-4.2-1q-0.1 0-0.1-0.1 0 0 0 0 0-0.1 0.1-0.1l4.7 1.1 2.4-0.6-3.5-0.8q-0.1 0-0.1-0.1 0 0 0 0 0.1-0.1 0.2-0.1l4 0.9 3.3-0.7-3.3-0.8q-0.1 0-0.1-0.1zm10.7-1.5l3.4 0.8 2.8-0.6-2.8-0.6z"/><path class="p" d="m30.5 52.4l2-0.4 4.2 0.8-2.4 0.5z"/><path fill-rule="evenodd" class="a" d="m34.3 53.4q0 0-0.1 0l-3.7-0.9q-0.1 0-0.1-0.1 0-0.1 0.1-0.1l2-0.4q0 0 0 0l4.2 0.8q0.1 0 0.1 0.1 0 0.1-0.1 0.1l-2.4 0.5q0 0 0 0zm-3.3-1l3.3 0.8 1.7-0.4-3.5-0.7z"/><path class="p" d="m26.6 51.5l1.6-0.3 4.3 0.8-2 0.4z"/><path fill-rule="evenodd" class="a" d="m30.5 52.6q0 0 0-0.1l-3.9-0.9q-0.1 0-0.1-0.1 0-0.1 0.1-0.1l1.6-0.4q0 0 0 0l4.3 0.9q0.1 0 0.1 0.1 0 0.1-0.1 0.1l-2 0.4q0 0.1 0 0.1zm-3.3-1.1l3.3 0.8 1.4-0.3-3.7-0.7z"/><path class="p" d="m26.6 51.5l-3.3-0.8 1.6-0.2 3.3 0.7z"/><path fill-rule="evenodd" class="a" d="m26.6 51.6q0 0 0 0l-3.3-0.7q-0.1-0.1-0.1-0.2 0-0.1 0.1-0.1l1.6-0.2q0 0 0 0l3.3 0.6q0.1 0.1 0.1 0.2 0 0.1-0.1 0.1l-1.6 0.3q0 0 0 0zm-2.6-0.8l2.6 0.6 1-0.2-2.7-0.5z"/><path class="a" d="m29.8 58.2l-21.8-5.5-7.1-14.9 0.7-0.5 22.4 3.6 6.4 16.8z"/><path fill-rule="evenodd" class="a" d="m29.8 58.4q0 0-0.1 0l-21.7-5.6q-0.1 0-0.1-0.1l-7.1-14.8q0-0.1 0-0.2l0.7-0.5q0-0.1 0.1 0l22.4 3.6q0.1 0 0.1 0l6.4 16.8q0.1 0.1 0 0.2l-0.6 0.5q-0.1 0.1-0.1 0.1zm-21.7-5.8l21.6 5.5 0.6-0.4-6.4-16.7-22.3-3.6-0.5 0.5z"/><path class="n" d="m7.3 53.2l-6.4-15.4 22.5 3.6 6.4 16.8z"/><path fill-rule="evenodd" class="a" d="m29.8 58.4q0 0-0.1 0l-22.4-5.1q0 0-0.1 0l-6.4-15.4q0-0.1 0-0.2 0.1 0 0.1 0l22.5 3.6q0.1 0 0.1 0.1l6.4 16.8q0 0.1 0 0.1-0.1 0.1-0.1 0.1zm-22.4-5.3l22.2 5-6.3-16.6-22.2-3.5z"/><path class="h" d="m38.6 52.9c-0.7-0.1-1.2-0.8-1.9-0.9-1.1-0.2-1.2 1.3-2 1.6q-0.8 0.2-0.6-0.8 0.2-1.1 0.9-1.7c-1 0-3.1 3.8-3.2 1.9q0-0.8 1.8-2.6-0.6 0.1-2.1 2c-0.4 0.3-0.9 0.2-1.1-0.2-0.2-0.3 0.2-0.8 0.3-1 0.4-0.7 1-1.1 1.7-1.5 0.6-0.3 1.4-0.5 2.1-0.6 1.3-0.1 2.6 0.4 3.6 1.2 0.5 0.5 1.2 1.3 1.2 2-0.1 0.4-0.2 0.7-0.7 0.6z"/><path fill-rule="evenodd" class="a" d="m34.5 53.7q-0.2 0-0.4-0.1c-0.2-0.3-0.1-0.8-0.1-0.9 0.1-0.5 0.3-1 0.5-1.3-0.3 0.3-0.7 0.7-1 1.1-0.7 0.7-1.1 1.1-1.4 1.1-0.4 0-0.4-0.5-0.4-0.6 0-0.5 0.5-1.2 1-1.8-0.4 0.4-0.9 0.9-1.2 1.2q-0.2 0.3-0.5 0.3c-0.3 0-0.6-0.2-0.7-0.4-0.2-0.3 0-0.7 0.3-1.1 0.4-0.8 1.2-1.3 1.8-1.6 0.7-0.4 1.8-0.5 2.1-0.6 1.3-0.1 2.7 0.4 3.7 1.2 0.4 0.4 1.2 1.3 1.2 2.1 0 0.7-0.4 0.8-0.7 0.8q0 0-0.1 0c-0.4-0.1-0.7-0.3-1.1-0.5-0.3-0.2-0.5-0.4-0.8-0.5-0.6-0.1-0.8 0.3-1.1 0.8-0.2 0.3-0.5 0.7-0.9 0.8q-0.1 0-0.2 0zm0.5-2.7q0.1 0 0.1 0.1 0 0 0 0.1c0 0-0.7 0.6-0.9 1.6 0 0.1 0 0.5 0.1 0.6q0.1 0.2 0.4 0.1c0.3-0.1 0.5-0.4 0.7-0.8 0.3-0.4 0.6-0.9 1.3-0.8 0.4 0.1 0.7 0.3 1 0.5 0.3 0.2 0.6 0.4 0.9 0.4q0.1 0 0.1 0c0.2 0 0.4 0 0.4-0.5 0.1-0.6-0.6-1.5-1.1-1.9-0.9-0.8-2.3-1.2-3.5-1.1-0.6 0-1.5 0.2-2 0.5-0.6 0.3-1.3 0.8-1.7 1.5q-0.4 0.7-0.3 0.8c0.2 0.4 0.6 0.5 0.9 0.2 0.1-0.2 1.6-1.9 2.2-2q0.1 0 0.1 0 0.1 0.1 0 0.2c-0.5 0.5-1.8 1.9-1.7 2.4 0 0.2 0 0.5 0.1 0.5 0.2 0 0.7-0.6 1.2-1 0.6-0.7 1.2-1.4 1.7-1.4z"/><path class="e" d="m35 49.8q-0.7 0-1.4 0.6z"/><path class="a" d="m33.6 50.5q0 0-0.1 0 0-0.1 0-0.2c0.7-0.7 1.5-0.6 1.5-0.6q0.1 0 0.1 0.1 0 0.2-0.1 0.2c0 0-0.7-0.1-1.3 0.5q0 0-0.1 0z"/><path class="e" d="m36.1 50.7q-0.5-0.1-1.1 0.4z"/><path class="a" d="m35 51.2q-0.1 0-0.1 0c0-0.1 0-0.1 0-0.2 0.7-0.5 1.2-0.4 1.2-0.4 0.1 0 0.1 0.1 0.1 0.2q0 0.1-0.1 0c-0.1 0-0.5 0-1 0.4q-0.1 0-0.1 0z"/><path class="q" d="m28 35.3q5.9 1.6 10.2-3.4 2.5 2.8-1.7 4.4-4.2 1.6-8.5-1z"/><path fill-rule="evenodd" class="a" d="m33.6 37c-3.1 0-5.6-1.6-5.6-1.6q-0.1-0.1-0.1-0.2 0.1-0.1 0.2 0c0 0 0.9 0.2 2.2 0.2 2.1 0 5.2-1 7.8-3.9 0-0.1 0-0.5 0.1-0.5 0 0 0.1 0.4 0.1 0.5 0 0 1 1.3 0.7 2.6-0.2 0.9-1 1.7-2.5 2.3-0.9 0.3-1.8 0.6-2.9 0.6zm-4.8-1.5c0.9 0.5 2.8 1.2 4.8 1.2q1.5 0 2.9-0.5 2-0.7 2.3-2c0.2-0.9-0.4-1.8-0.6-2.1-2.6 2.9-5.8 3.5-7.9 3.5q-0.9 0-1.5-0.1z"/></svg>